<?xml version="1.0" encoding="UTF-8"?>
<svg id="_レイヤー_2" data-name="レイヤー_2" xmlns="http://www.w3.org/2000/svg" width="115.99" height="115.99" viewBox="0 0 115.99 115.99">
  <defs>
    <style>
      .cls-1 {
        fill: #5c3d39;
      }

      .cls-2 {
        fill: #fff;
      }
    </style>
  </defs>
  <g id="_レイヤー_1-2" data-name="レイヤー_1">
    <g>
      <rect class="cls-1" width="115.99" height="115.99" rx="13.06" ry="13.06"/>
      <g>
        <path class="cls-2" d="M90.24,73.86H23.4c-4.4,0-7.98-3.58-7.98-7.98v-31.36c0-4.4,3.58-7.98,7.98-7.98h66.84c4.4,0,7.98,3.58,7.98,7.98v3.16h1.6c3.21,0,5.82,2.61,5.82,5.82v13.39c0,3.21-2.61,5.82-5.82,5.82h-1.6v3.16c0,4.4-3.58,7.98-7.98,7.98ZM23.4,30.96c-1.97,0-3.57,1.6-3.57,3.57v31.36c0,1.97,1.6,3.57,3.57,3.57h66.84c1.97,0,3.57-1.6,3.57-3.57v-5.37c0-1.22.99-2.2,2.2-2.2h3.81c.78,0,1.41-.63,1.41-1.41v-13.39c0-.78-.63-1.41-1.41-1.41h-3.81c-1.22,0-2.2-.99-2.2-2.2v-5.37c0-1.97-1.6-3.57-3.57-3.57H23.4Z"/>
        <g>
          <path class="cls-2" d="M60.74,34.38l-12.47,17.54c-.3.42,0,1,.52,1h9.7l3.72-17.9c.18-.86-.95-1.35-1.46-.64Z"/>
          <path class="cls-2" d="M55.01,66.03l12.47-17.54c.3-.42,0-1-.52-1h-9.7l-3.72,17.9c-.18.86.95,1.35,1.46.64Z"/>
        </g>
      </g>
      <g>
        <path class="cls-2" d="M11.92,100.46c-.36,3.49-2.42,4.74-4.23,5.46-.1.04-.21.06-.31.06-.46,0-.83-.4-.83-.79,0-.24.13-.46.45-.61,2.43-1.13,3.16-2.22,3.4-4.26.04-.33.36-.46.7-.46.4,0,.83.21.83.57v.04ZM12.21,95.26c-.69,1.1-1.21,1.94-2.03,2.85h.92c2.79,0,4.44-.18,5.67-.45-.3-.37-.63-.76-.97-1.18-.09-.12-.13-.22-.13-.34,0-.36.42-.66.82-.66.19,0,.37.07.51.22,1.25,1.43,2.71,3.16,2.71,3.7,0,.45-.43.82-.85.82-.21,0-.39-.09-.52-.31-.21-.36-.42-.69-.64-1.01-2.19.52-5.17.64-7.56.64-1.09,0-2.04-.01-2.76-.04-.45-.01-.72-.46-.72-.85,0-.33.19-.63.6-.63h.04c.31.01.61.03.89.04,1.06-1.03,1.7-1.89,2.24-2.8h-2.92c-.4,0-.61-.36-.61-.7s.21-.7.61-.7h5.01v-.7c0-.42.37-.61.75-.61s.75.19.75.61v.7h5.01c.42,0,.61.34.61.7s-.19.7-.61.7h-6.81ZM16.4,105.61c-.7,0-1.62-.34-1.62-1.46v-3.86c0-.39.37-.58.76-.58.36,0,.73.19.73.57v3.4c0,.51.36.52.58.52h.83c.64,0,.82-.13.82-2.12v-.25c0-.48.3-.7.64-.7.37,0,.78.3.79.89v.45c0,2.7-.78,3.15-2.03,3.15h-1.51Z"/>
        <path class="cls-2" d="M33.49,95.99c0-.15-.07-.22-.22-.22h-4.43v2.06c0,.4-.34.61-.69.61s-.69-.21-.69-.61v-2.06h-4.37c-.15,0-.22.07-.22.22v1.42c0,.37-.33.55-.67.55s-.67-.18-.67-.55v-1.71c0-.72.36-1.04,1.07-1.04h4.86v-.55h-4.9c-.36,0-.54-.31-.54-.63s.18-.61.54-.61h11.39c.34,0,.52.31.52.61,0,.31-.18.63-.52.63h-5.11v.55h4.92c.72,0,1.07.33,1.07,1.04v1.65c0,.4-.33.61-.67.61s-.67-.21-.67-.61v-1.36ZM29.34,105.72c-.98,0-1.94-.27-1.94-1.59v-.36h-3.74c-.72,0-1.07-.36-1.07-1.07v-3c0-.72.36-1.07,1.07-1.07h8.96c.72,0,1.07.36,1.07,1.07v3c0,.72-.36,1.07-1.07,1.07h-3.85v.04c0,.54.33.57.75.57h2.83c.94,0,1-.06,1.37-1.16.1-.33.33-.46.57-.46.3,0,.61.25.61.64,0,.07-.01.15-.04.24-.57,1.74-.97,2.09-2.42,2.09h-3.1ZM23.93,96.97c-.33,0-.51-.19-.51-.39s.18-.39.51-.39h2.5c.34,0,.51.19.51.39s-.16.39-.51.39h-2.5ZM23.93,98.17c-.33,0-.51-.19-.51-.39s.18-.39.51-.39h2.5c.34,0,.51.19.51.39s-.16.39-.51.39h-2.5ZM27.4,99.82h-3.25c-.15,0-.22.08-.22.22v.63h3.47v-.85ZM27.4,101.71h-3.47v.64c0,.15.07.22.22.22h3.25v-.86ZM32.35,100.04c0-.15-.07-.22-.22-.22h-3.35v.85h3.58v-.63ZM32.35,101.71h-3.58v.86h3.35c.15,0,.22-.07.22-.22v-.64ZM29.88,96.97c-.33,0-.51-.19-.51-.39s.18-.39.51-.39h2.65c.34,0,.51.19.51.39s-.16.39-.51.39h-2.65ZM29.88,98.17c-.33,0-.51-.19-.51-.39s.18-.39.51-.39h2.65c.34,0,.51.19.51.39s-.16.39-.51.39h-2.65Z"/>
        <path class="cls-2" d="M44.58,105.64c-.72,0-1.07-.36-1.07-1.07v-2.71c0-.71.36-1.07,1.07-1.07h1.45c-.63-.42-1.3-.91-1.83-1.51h-1.92c-.58.57-1.4,1.1-2.21,1.51h1.45c.72,0,1.07.36,1.07,1.07v2.71c0,.71-.36,1.07-1.07,1.07h-3.32c-.72,0-1.07-.36-1.07-1.07v-2.56c-.06.01-.12.01-.16.01-.39,0-.61-.34-.61-.69,0-.25.15-.52.43-.58,1.45-.34,2.8-.82,3.77-1.48h-3.56c-.4,0-.61-.33-.61-.64s.21-.64.61-.64h4.71c.15-.19.43-.6.58-.83.15-.24.4-.34.67-.34.37,0,.73.21.73.52,0,.07-.03.16-.07.25-.07.12-.15.28-.22.4h5.81c.42,0,.61.31.61.64s-.19.64-.61.64h-3.41c.98.79,2.09,1.22,3.64,1.61.27.07.4.33.4.58,0,.34-.21.69-.64.69h-.09v2.42c0,.71-.36,1.07-1.07,1.07h-3.43ZM37.99,97.27c-.72,0-1.01-.36-1.01-1.07v-2.12c0-.72.36-1.07,1.07-1.07h3.52c.72,0,1.07.36,1.07,1.07v2.12c0,.71-.36,1.07-1.07,1.07h-3.58ZM41.3,94.57c0-.15-.07-.22-.22-.22h-2.53c-.15,0-.22.07-.22.22v1.16c0,.15.07.22.22.22h2.53c.15,0,.22-.07.22-.22v-1.16ZM41.24,102.25c0-.15-.07-.22-.22-.22h-2.34c-.15,0-.22.07-.22.22v1.85c0,.15.07.22.22.22h2.34c.15,0,.22-.07.22-.22v-1.85ZM44.52,97.27c-.72,0-1.07-.36-1.07-1.07v-2.12c0-.72.36-1.07,1.07-1.07h3.64c.72,0,1.07.36,1.07,1.07v2.12c0,.71-.36,1.07-1.07,1.07h-3.64ZM47.89,94.57c0-.15-.07-.22-.22-.22h-2.65c-.15,0-.22.07-.22.22v1.16c0,.15.07.22.22.22h2.65c.15,0,.22-.07.22-.22v-1.16ZM47.74,102.25c0-.15-.07-.22-.22-.22h-2.44c-.15,0-.22.07-.22.22v1.85c0,.15.07.22.22.22h2.44c.15,0,.22-.07.22-.22v-1.85Z"/>
        <path class="cls-2" d="M61.35,104.06c.82.15,1.92.36,2.89.55.3.04.45.3.45.58,0,.36-.25.76-.72.76-.07,0-.15-.01-.22-.03-1.16-.25-2.22-.55-3.12-.76-.33-.07-.46-.31-.46-.55,0-.21.1-.43.3-.55h-5.19c.28.1.49.39.49.64,0,.19-.12.37-.42.46-.61.18-1.92.57-3.15.79-.04,0-.07.02-.12.02-.48,0-.81-.43-.81-.82,0-.27.15-.51.54-.55,1.19-.15,2.33-.4,2.89-.54h-1.43c-.72,0-1.07-.36-1.07-1.07v-4.76c0-.66.3-1.01.88-1.07h.09v-1.91c-.46.25-.92.43-1.1.43-.43,0-.79-.45-.79-.82,0-.24.13-.45.45-.54.72-.18,2.01-.79,3-1.61.12-.1.25-.15.39-.15.37,0,.73.34.73.7,0,.28-.19.54-1.31,1.22v2.67h6.35c-.72-.43-1.37-.98-2.06-1.74l-3.01.15h-.04c-.37,0-.57-.3-.57-.61s.19-.64.58-.67l2.06-.09c-.57-.83-.61-.91-.61-1.1,0-.31.39-.52.76-.52.24,0,.48.09.58.28.27.46.55.91.85,1.28l2.5-.12c-.3-.1-.86-.28-1.18-.37-.28-.09-.4-.27-.4-.46,0-.3.25-.6.6-.6.04,0,.1.01.16.03,1.74.49,1.74.67,1.74.94,0,.16-.06.33-.15.42l1.24-.03h.03c.39,0,.57.3.57.61s-.18.61-.57.63l-3.47.13c.49.42,1.91,1.4,2.4,1.4.25,0,.36-.24.52-.76.09-.28.31-.42.55-.42.36,0,.73.28.73.67,0,.07-.01.15-.04.22-.27.73-.55,1.24-.95,1.45.07.09.1.21.1.36v4.76c0,.71-.36,1.07-1.07,1.07h-1.39ZM62.46,98.64c0-.15-.07-.22-.22-.22h-8.47c-.15,0-.22.08-.22.22v.52h8.91v-.52ZM62.46,100.19h-8.91v.75h8.91v-.75ZM62.46,101.97h-8.91v.63c0,.15.07.22.22.22h8.47c.15,0,.22-.08.22-.22v-.63Z"/>
        <path class="cls-2" d="M70.22,100.89c0,2.46.91,3.29,3.25,3.29,2.16,0,3.62-1.39,4.1-3.83.1-.49.45-.7.79-.7.42,0,.83.31.83.87,0,.21-.6,5.25-5.72,5.25-3.07,0-4.83-1.24-4.83-4.64,0-.19,0-.39.01-.6.13-2.8.18-4.47.22-7.22.01-.45.42-.69.82-.69s.83.24.83.73v.04c-.09,2.59-.22,4.4-.31,7.13v.36Z"/>
        <path class="cls-2" d="M82.93,105.58c-.81,0-1.33-.52-1.33-1.34v-4.07c0-.42.37-.61.75-.61s.75.19.75.61v3.64c0,.27.15.39.42.39h3.52v-5.52h-3.62c-.76,0-1.33-.45-1.33-1.34v-3.18c0-.42.37-.61.75-.61s.75.19.75.61v2.7c0,.27.15.43.42.43h3.04v-4.13c0-.42.39-.61.76-.61s.76.19.76.61v4.13h3.06c.27,0,.43-.13.43-.4v-2.73c0-.42.37-.61.75-.61s.75.19.75.61v3.18c0,.76-.63,1.34-1.33,1.34h-3.65v5.52h3.52c.27,0,.42-.15.42-.42v-3.61c0-.42.37-.61.75-.61s.75.19.75.61v4.07c0,.76-.51,1.34-1.33,1.34h-9.72Z"/>
        <path class="cls-2" d="M100.03,100.89c0,2.46.91,3.29,3.25,3.29,2.16,0,3.62-1.39,4.1-3.83.1-.49.45-.7.79-.7.42,0,.83.31.83.87,0,.21-.6,5.25-5.72,5.25-3.07,0-4.83-1.24-4.83-4.64,0-.19,0-.39.01-.6.13-2.8.18-4.47.22-7.22.01-.45.42-.69.82-.69s.83.24.83.73v.04c-.09,2.59-.22,4.4-.31,7.13v.36Z"/>
      </g>
    </g>
  </g>
</svg>