<?xml version="1.0" encoding="UTF-8"?>
<svg id="_レイヤー_2" data-name="レイヤー_2" xmlns="http://www.w3.org/2000/svg" width="115.99" height="115.99" viewBox="0 0 115.99 115.99">
  <defs>
    <style>
      .cls-1 {
        fill: #5c3d39;
      }

      .cls-2 {
        fill: #fff;
      }
    </style>
  </defs>
  <g id="_レイヤー_1-2" data-name="レイヤー_1">
    <g>
      <rect class="cls-1" x="0" width="115.99" height="115.99" rx="13.06" ry="13.06"/>
      <g>
        <path class="cls-2" d="M17.62,95.72c-.49,2.92-1.46,5.13-3.13,6.78,1.27.8,2.89,1.43,4.99,1.97.34.09.49.37.49.69,0,.4-.27.82-.72.82-.15,0-3.59-.76-5.98-2.45-2.64,1.86-5.99,2.45-5.99,2.45-.45,0-.72-.42-.72-.82,0-.31.15-.6.49-.69,2.1-.54,3.73-1.16,4.99-1.97-1.67-1.65-2.64-3.86-3.13-6.78h-1.57c-.4,0-.61-.34-.61-.69s.21-.67.61-.67h5.04v-1.19c0-.42.39-.61.79-.61s.78.19.78.61v1.19h5.19c.42,0,.61.34.61.67s-.19.69-.61.69h-1.54ZM10.35,95.72c.49,2.55,1.33,4.43,2.92,5.87,1.61-1.43,2.45-3.31,2.94-5.87h-5.86Z"/>
        <path class="cls-2" d="M27.94,102.58c-.82,2.64-2.91,3.38-3.28,3.38-.51,0-.82-.49-.82-.89,0-.22.09-.4.28-.48,1.97-.69,2.55-2.44,2.7-4.07h-2.04c-.4,0-.61-.33-.61-.64s.21-.64.61-.64h3.67v-.87h-4.41c0,2.68-.07,5.16-1,7.02-.15.28-.39.4-.64.4-.43,0-.91-.37-.91-.85,0-.12.03-.25.1-.39.86-1.58.92-3.65.92-6.25v-2.34c0-.72.36-1.07,1.07-1.07h9.6c.72,0,1.07.36,1.07,1.07v1.33c0,.72-.36,1.07-1.07,1.07h-3.18v.87h4.26c.42,0,.61.31.61.64s-.19.64-.61.64h-5.95c-.03.27-.06.52-.1.79h5.13c.42,0,.97.25.97.97,0,2.55-.28,3.68-2.22,3.68-.6,0-1.36-.1-2.3-.31-.33-.06-.48-.34-.48-.64,0-.36.22-.75.61-.75.03,0,.07,0,.12.02.82.18,1.39.27,1.79.27.95,0,.95-.54.95-1.85,0-.04-.04-.12-.1-.12h-4.76ZM22.41,94.32c-.39,0-.6-.33-.6-.67s.21-.66.6-.66h11.78c.4,0,.6.33.6.66s-.19.67-.6.67h-11.78ZM32.7,96.41c0-.15-.07-.22-.22-.22h-8.21c-.15,0-.22.08-.22.22v.69h8.44c.15,0,.22-.08.22-.22v-.46Z"/>
        <path class="cls-2" d="M37.17,105.98c-.43,0-.79-.46-.79-.86,0-.24.12-.45.4-.54,1.43-.45,2.58-.95,3.64-1.58.09-.06.19-.09.3-.09.37,0,.72.37.72.75,0,.18-.09.36-.28.49-2.16,1.42-3.92,1.83-3.98,1.83ZM37.15,102.91c-.4,0-.61-.34-.61-.67s.21-.67.61-.67h11.85c.42,0,.61.33.61.67s-.19.67-.61.67h-11.85ZM38.94,100.82c-.72,0-1.07-.36-1.07-1.07v-5.65c0-.72.36-1.07,1.07-1.07h8.42c.72,0,1.07.36,1.07,1.07v5.65c0,.72-.36,1.07-1.07,1.07h-8.42ZM47.05,94.53c0-.15-.07-.22-.22-.22h-7.32c-.15,0-.22.07-.22.22v.73h7.77v-.73ZM47.05,96.41h-7.77v.97h7.77v-.97ZM47.05,98.52h-7.77v.82c0,.15.07.22.22.22h7.32c.15,0,.22-.08.22-.22v-.82ZM48.83,105.92c-1.21-.6-2.71-1.27-3.94-1.8-.24-.1-.33-.27-.33-.45,0-.36.39-.76.81-.76.34,0,2.44.89,4.04,1.64.27.13.39.36.39.6,0,.4-.33.83-.72.83-.09,0-.16-.01-.25-.06Z"/>
        <path class="cls-2" d="M61.35,104.06c.82.15,1.92.36,2.89.55.3.04.45.3.45.58,0,.36-.25.76-.72.76-.07,0-.15-.01-.22-.03-1.16-.25-2.22-.55-3.12-.76-.33-.07-.46-.31-.46-.55,0-.21.1-.43.3-.55h-5.19c.28.1.49.39.49.64,0,.19-.12.37-.42.46-.61.18-1.92.57-3.15.79-.04,0-.07.02-.12.02-.48,0-.81-.43-.81-.82,0-.27.15-.51.54-.55,1.19-.15,2.33-.4,2.89-.54h-1.43c-.72,0-1.07-.36-1.07-1.07v-4.76c0-.66.3-1.01.88-1.07h.09v-1.91c-.46.25-.92.43-1.1.43-.43,0-.79-.45-.79-.82,0-.24.13-.45.45-.54.72-.18,2.01-.79,3-1.61.12-.1.25-.15.39-.15.37,0,.73.34.73.7,0,.28-.19.54-1.31,1.22v2.67h6.35c-.72-.43-1.37-.98-2.06-1.74l-3.01.15h-.04c-.37,0-.57-.3-.57-.61s.19-.64.58-.67l2.06-.09c-.57-.83-.61-.91-.61-1.1,0-.31.39-.52.76-.52.24,0,.48.09.58.28.27.46.55.91.85,1.28l2.5-.12c-.3-.1-.86-.28-1.18-.37-.28-.09-.4-.27-.4-.46,0-.3.25-.6.6-.6.04,0,.1.01.16.03,1.74.49,1.74.67,1.74.94,0,.16-.06.33-.15.42l1.24-.03h.03c.39,0,.57.3.57.61s-.18.61-.57.63l-3.47.13c.49.42,1.91,1.4,2.4,1.4.25,0,.36-.24.52-.76.09-.28.31-.42.55-.42.36,0,.73.28.73.67,0,.07-.01.15-.04.22-.27.73-.55,1.24-.95,1.45.07.09.1.21.1.36v4.76c0,.71-.36,1.07-1.07,1.07h-1.39ZM62.46,98.64c0-.15-.07-.22-.22-.22h-8.47c-.15,0-.22.08-.22.22v.52h8.91v-.52ZM62.46,100.19h-8.91v.75h8.91v-.75ZM62.46,101.97h-8.91v.63c0,.15.07.22.22.22h8.47c.15,0,.22-.08.22-.22v-.63Z"/>
        <path class="cls-2" d="M70.22,100.89c0,2.46.91,3.29,3.25,3.29,2.16,0,3.62-1.39,4.1-3.83.1-.49.45-.7.79-.7.42,0,.83.31.83.87,0,.21-.6,5.25-5.72,5.25-3.07,0-4.83-1.24-4.83-4.64,0-.19,0-.39.01-.6.13-2.8.18-4.47.22-7.22.01-.45.42-.69.82-.69s.83.24.83.73v.04c-.09,2.59-.22,4.4-.31,7.13v.36Z"/>
        <path class="cls-2" d="M82.93,105.58c-.81,0-1.33-.52-1.33-1.34v-4.07c0-.42.37-.61.75-.61s.75.19.75.61v3.64c0,.27.15.39.42.39h3.52v-5.52h-3.62c-.76,0-1.33-.45-1.33-1.34v-3.18c0-.42.37-.61.75-.61s.75.19.75.61v2.7c0,.27.15.43.42.43h3.04v-4.13c0-.42.39-.61.76-.61s.76.19.76.61v4.13h3.06c.27,0,.43-.13.43-.4v-2.73c0-.42.37-.61.75-.61s.75.19.75.61v3.18c0,.76-.63,1.34-1.33,1.34h-3.65v5.52h3.52c.27,0,.42-.15.42-.42v-3.61c0-.42.37-.61.75-.61s.75.19.75.61v4.07c0,.76-.51,1.34-1.33,1.34h-9.72Z"/>
        <path class="cls-2" d="M100.03,100.89c0,2.46.91,3.29,3.25,3.29,2.16,0,3.62-1.39,4.1-3.83.1-.49.45-.7.79-.7.42,0,.83.31.83.87,0,.21-.6,5.25-5.72,5.25-3.07,0-4.83-1.24-4.83-4.64,0-.19,0-.39.01-.6.13-2.8.18-4.47.22-7.22.01-.45.42-.69.82-.69s.83.24.83.73v.04c-.09,2.59-.22,4.4-.31,7.13v.36Z"/>
      </g>
      <path class="cls-2" d="M78.35,16.4c1.33-1.34,2.52-2.56,3.73-3.76,2.07-2.04,4.54-2.69,7.29-1.82,2.76.88,4.41,2.86,4.84,5.73.35,2.31-.34,4.34-1.99,6.02-1.22,1.25-2.47,2.47-3.98,3.97.32.18.66.29.88.52.86.91.85,2.21.01,3.14-.16.18-.33.34-.5.5-14.06,14.06-28.12,28.12-42.19,42.16-.51.51-1.19.94-1.87,1.2-5.2,1.99-10.39,3.97-15.63,5.84-1.33.48-2.22,1.37-3.14,2.3-.52.53-1.1.87-1.87.84-.92-.03-1.59-.45-1.99-1.25-.4-.79-.34-1.6.18-2.35.11-.15.23-.31.37-.42,1.44-1.11,2.16-2.65,2.76-4.33,1.77-4.9,3.62-9.77,5.48-14.63.24-.62.62-1.23,1.09-1.69,13.38-13.41,26.77-26.8,40.17-40.18.2-.2.47-.31.65-.55-1.02-.5-1.89-.35-2.7.14-.34.21-.63.49-.92.77-5.33,5.32-10.66,10.65-15.98,15.98-.54.54-1.12.91-1.92.89-.92-.03-1.59-.46-1.98-1.26-.39-.8-.33-1.61.19-2.34.16-.23.37-.43.57-.63,5.34-5.34,10.68-10.69,16.03-16.03,3.27-3.27,8.05-3.27,11.31,0,.36.37.69.77,1.1,1.23ZM60.26,52.42c5.67-5.67,11.36-11.36,16.96-16.96-2.63-2.63-5.31-5.31-7.92-7.92-5.63,5.63-11.31,11.31-16.96,16.96,2.62,2.62,5.29,5.29,7.93,7.92ZM44.32,68.27c4.19-4.19,8.37-8.37,12.47-12.47-2.6-2.6-5.26-5.26-7.86-7.86-4.13,4.13-8.31,8.31-12.46,12.46,2.61,2.62,5.28,5.28,7.85,7.87ZM80.67,32.01c1.12-1.12,2.28-2.28,3.35-3.35-2.63-2.63-5.31-5.31-7.88-7.88-1.1,1.1-2.26,2.26-3.35,3.35,2.6,2.6,5.27,5.27,7.88,7.89ZM33.89,64.66c-1.21,3.23-2.44,6.52-3.73,9.94,3.44-1.29,6.72-2.52,9.95-3.74-2.1-2.1-4.15-4.14-6.22-6.2ZM81.82,19.46c1.19,1.19,2.34,2.35,3.52,3.53,1.18-1.19,2.45-2.42,3.67-3.7.97-1.01.95-2.46.02-3.45-.93-.99-2.42-1.15-3.43-.21-1.34,1.25-2.58,2.6-3.78,3.82Z"/>
    </g>
  </g>
</svg>