<?xml version="1.0" encoding="UTF-8"?>
<svg id="_レイヤー_2" data-name="レイヤー_2" xmlns="http://www.w3.org/2000/svg" width="115.99" height="115.99" viewBox="0 0 115.99 115.99">
  <defs>
    <style>
      .cls-1 {
        fill: #5c3d39;
      }

      .cls-2, .cls-3 {
        fill: #fff;
      }

      .cls-3 {
        stroke: #fff;
        stroke-miterlimit: 10;
        stroke-width: 3.7px;
      }
    </style>
  </defs>
  <g id="_レイヤー_1-2" data-name="レイヤー_1">
    <g>
      <rect class="cls-1" x="0" width="115.99" height="115.99" rx="13.06" ry="13.06"/>
      <g>
        <rect class="cls-2" x="18.28" y="35.43" width="6.55" height="6.55"/>
        <rect class="cls-2" x="28.75" y="35.43" width="6.55" height="6.55"/>
        <rect class="cls-2" x="39.21" y="35.43" width="6.55" height="6.55"/>
        <rect class="cls-2" x="49.68" y="35.43" width="6.55" height="6.55"/>
        <rect class="cls-2" x="60.14" y="35.43" width="6.55" height="6.55"/>
        <rect class="cls-2" x="70.61" y="35.43" width="6.55" height="6.55"/>
        <rect class="cls-2" x="81.07" y="35.43" width="6.55" height="6.55"/>
        <rect class="cls-2" x="18.28" y="45.9" width="6.55" height="6.55"/>
        <rect class="cls-2" x="28.75" y="45.9" width="6.55" height="6.55"/>
        <rect class="cls-2" x="39.21" y="45.9" width="6.55" height="6.55"/>
        <rect class="cls-2" x="49.68" y="45.9" width="6.55" height="6.55"/>
        <rect class="cls-2" x="60.14" y="45.9" width="6.55" height="6.55"/>
        <rect class="cls-2" x="70.61" y="45.9" width="6.55" height="6.55"/>
        <rect class="cls-2" x="18.28" y="56.37" width="10.47" height="6.55"/>
        <rect class="cls-2" x="32.02" y="56.37" width="41.86" height="6.55"/>
        <path class="cls-2" d="M77.16,70.52v-2.69H13.15V30.52h79.61v12.92h4.03v-13.32c0-2-1.63-3.62-3.62-3.62H12.75c-2,0-3.62,1.63-3.62,3.62v38.13c0,2,1.63,3.62,3.62,3.62h64.48c-.04-.44-.07-.89-.07-1.34Z"/>
        <path class="cls-2" d="M103.25,47.46h-15.91c-3.39,0-6.16,2.76-6.16,6.16v16.91c0,5.56,4.52,10.08,10.08,10.08h8.07c5.56,0,10.08-4.52,10.08-10.08v-16.91c0-3.39-2.76-6.16-6.16-6.16ZM105.38,70.52c0,3.34-2.71,6.05-6.05,6.05h-8.07c-3.34,0-6.05-2.71-6.05-6.05v-16.91c0-1.17.96-2.13,2.13-2.13h15.91c1.17,0,2.13.96,2.13,2.13v16.91Z"/>
        <path class="cls-2" d="M95.3,64.54c-1.14,0-2.06-.92-2.06-2.06v-5.65c0-1.14.92-2.06,2.06-2.06s2.06.92,2.06,2.06v5.65c0,1.14-.92,2.06-2.06,2.06Z"/>
      </g>
      <g>
        <rect class="cls-3" x="55.93" y="3.3" width="6.68" height="88.18" transform="translate(50.87 -28.02) rotate(45)"/>
        <rect class="cls-3" x="55.93" y="3.3" width="6.68" height="88.18" transform="translate(134.68 39) rotate(135)"/>
      </g>
      <g>
        <path class="cls-2" d="M15.23,100.66l.58,4.31s.01.09.01.13c0,.46-.42.69-.82.69-.36,0-.72-.18-.78-.55l-.6-4.4-5.5.6h-.07c-.4,0-.63-.39-.63-.78,0-.34.18-.69.58-.73l5.43-.58-.42-3.09-4.17.37h-.06c-.42,0-.66-.39-.66-.78,0-.34.19-.69.61-.71l4.08-.36-.22-1.64s-.01-.07-.01-.12c0-.48.43-.72.85-.72.34,0,.69.18.73.54l.24,1.8,4.29-.37h.04c.45,0,.7.4.7.78,0,.33-.19.64-.61.69l-4.22.37.4,3.06,5.04-.54h.07c.4,0,.64.39.64.77,0,.33-.18.66-.57.7l-4.98.55Z"/>
        <path class="cls-2" d="M23.89,99.82c-.45,0-.69-.42-.69-.82s.24-.82.69-.82h10.26c.45,0,.67.42.67.82s-.22.82-.67.82h-10.26Z"/>
        <path class="cls-2" d="M38.08,104.24c-.45,0-.85-.39-.85-.85,0-.16.04-.34.18-.52,1.13-1.46,2.07-3.43,2.59-4.84.12-.33.4-.48.7-.48.4,0,.8.27.8.72,0,.42-1.22,3.55-2.68,5.56-.22.3-.49.42-.75.42ZM43.41,96.58h-5.25c-.43,0-.66-.39-.66-.76s.22-.76.66-.76h5.25v-1.91c0-.45.42-.67.82-.67s.81.22.81.66v1.92h4.65c.45,0,.66.37.66.76s-.21.76-.66.76h-4.65v6.75c0,1.66-.73,2.4-2.18,2.4-.54,0-1.18-.1-1.91-.3-.45-.12-.64-.48-.64-.83,0-.43.28-.86.76-.86.09,0,.18.01.27.04.58.16,1.01.25,1.33.25.55,0,.75-.27.75-.88v-6.57ZM49.73,104.27c-.28,0-.55-.15-.69-.51-.81-2.18-1.67-3.89-2.4-5.05-.07-.12-.1-.24-.1-.34,0-.4.4-.75.82-.75.22,0,.45.1.61.36.85,1.31,1.68,2.97,2.58,5.08.06.12.07.25.07.36,0,.51-.46.85-.89.85ZM48.31,94.75c-.18,0-.36-.07-.46-.27-.19-.34-.48-.76-.7-1.04-.07-.1-.12-.21-.12-.31,0-.27.27-.51.55-.51.15,0,.3.06.43.21.43.51.88,1.16.88,1.42,0,.3-.3.51-.58.51ZM49.89,94.27c-.15,0-.31-.07-.42-.24-.24-.39-.49-.75-.73-1.04-.07-.1-.12-.21-.12-.3,0-.27.25-.48.52-.48.15,0,.3.06.42.19.36.42.88,1.09.88,1.37s-.28.49-.55.49Z"/>
        <path class="cls-2" d="M53.71,99.82c-.45,0-.69-.42-.69-.82s.24-.82.69-.82h10.26c.45,0,.67.42.67.82s-.22.82-.67.82h-10.26Z"/>
        <path class="cls-2" d="M70.66,93.2c0-.46.43-.7.85-.7s.85.24.85.7v3.22c2.03.64,4.88,1.67,7.35,2.91.3.16.42.43.42.7,0,.46-.34.94-.78.94-.12,0-.24-.03-.36-.1-2.22-1.21-4.82-2.21-6.63-2.79v7.13c0,.51-.42.76-.83.76s-.86-.27-.86-.76v-12ZM77.92,95.88c-.15,0-.31-.08-.45-.24-.46-.57-.98-1.12-1.39-1.46-.13-.1-.19-.25-.19-.37,0-.3.28-.58.6-.58.12,0,.51.03,1.89,1.66.1.13.15.27.15.4,0,.31-.28.6-.61.6ZM79.97,94.18c0,.31-.28.6-.58.6-.13,0-.27-.06-.39-.19-.45-.52-.83-.91-1.27-1.27-.16-.12-.22-.27-.22-.4,0-.28.27-.54.57-.54.1,0,.45.01,1.76,1.46.09.12.13.24.13.34Z"/>
        <path class="cls-2" d="M87.71,95.18v8.97c0,.45-.39.67-.79.67s-.79-.22-.79-.67v-10.08c0-.8.64-1.22,1.27-1.22.4,0,.79.16,1.01.52l5.56,9.12v-8.97c0-.46.4-.69.79-.69s.79.22.79.69v10.14c0,.76-.63,1.18-1.25,1.18-.4,0-.8-.16-1.03-.54l-5.56-9.12Z"/>
        <path class="cls-2" d="M106.98,100.35c0-.15-.09-.22-.24-.22h-3.52c-.49,0-.75-.39-.75-.78s.25-.76.75-.76h3.85c1.04,0,1.54.6,1.54,1.51,0,1.24-.82,4.9-5.38,4.9-3.5,0-5.74-2.64-5.74-6.22s2.28-6.1,5.72-6.1,4.95,2.61,4.95,3.32c0,.45-.43.75-.83.75-.27,0-.52-.12-.66-.39-.73-1.45-2.01-2.18-3.46-2.18-2.31,0-4.13,2-4.13,4.59s1.58,4.67,4.13,4.67c2.36,0,3.53-1.4,3.77-3.04v-.06Z"/>
      </g>
    </g>
  </g>
</svg>