<?xml version="1.0" encoding="UTF-8"?>
<svg id="_レイヤー_2" data-name="レイヤー_2" xmlns="http://www.w3.org/2000/svg" width="115.99" height="115.99" viewBox="0 0 115.99 115.99">
  <defs>
    <style>
      .cls-1 {
        fill-rule: evenodd;
      }

      .cls-1, .cls-2 {
        fill: #fff;
      }

      .cls-3 {
        fill: #5c3d39;
      }

      .cls-2 {
        stroke: #fff;
        stroke-miterlimit: 10;
        stroke-width: .44px;
      }
    </style>
  </defs>
  <g id="_レイヤー_1-2" data-name="レイヤー_1">
    <g>
      <rect class="cls-3" width="115.99" height="115.99" rx="13.06" ry="13.06"/>
      <g>
        <path class="cls-1" d="M96.87,28.98c-1.28-1.31-2.62-2.55-4.03-3.71-9.18-7.55-19.72-11.66-31.56-12.46-2.42-.16-4.84-.12-7.27.05-3.59.26-7.13.85-10.59,1.82-9.32,2.61-17.39,7.35-24.24,14.19-.38.38-.4.6-.02.98,1.52,1.5,3.02,3.02,4.51,4.55.24.25.36.23.59,0,.81-.85,1.66-1.67,2.55-2.43,10.74-9.21,23.15-13.01,37.2-11.37,5.71.67,11.09,2.43,16.17,5.13,4.23,2.25,8.01,5.11,11.39,8.51.19.19.31.4.63.08,1.55-1.59,3.14-3.16,4.71-4.73.08-.08.14-.16.21-.22,0-.19-.15-.27-.25-.36Z"/>
        <path class="cls-1" d="M83.77,39.03c-8.49-7.54-18.41-10.79-29.71-9.76-4.56.42-8.88,1.69-12.99,3.71-3.97,1.95-7.47,4.53-10.57,7.68-.2.2-.26.32-.02.55,1.6,1.58,3.18,3.17,4.76,4.76.21.21.33.2.52,0,.32-.34.66-.67,1-.99,6.82-6.27,14.86-9.07,24.1-8.31,4.61.38,8.9,1.82,12.88,4.17,2.33,1.38,4.43,3.06,6.33,4.98.14.14.24.37.5.1,1.58-1.62,3.18-3.22,4.77-4.83.09-.09.15-.2.23-.3-.09-.1-.16-.18-.24-.26-.52-.5-1.03-1.02-1.57-1.5Z"/>
        <path class="cls-1" d="M74.35,51.45c-5.22-5.18-11.5-7.46-18.81-6.74-5.5.54-10.14,2.92-14.01,6.84-.26.26-.28.41,0,.68,1.5,1.49,3.01,2.98,4.47,4.51.38.4.56.37.94,0,3.92-3.9,8.62-5.4,14.07-4.41,3.17.58,5.85,2.12,8.09,4.43.26.27.4.28.67,0,1.55-1.57,3.11-3.13,4.68-4.69.08-.08.18-.12.22-.15-.04-.27-.19-.36-.3-.47Z"/>
        <path class="cls-1" d="M57.93,60.95c-3.63.05-6.43,2.97-6.38,6.62.05,3.46,2.98,6.28,6.47,6.25,3.6-.04,6.43-2.9,6.4-6.47-.03-3.58-2.95-6.45-6.49-6.4Z"/>
      </g>
      <g>
        <path class="cls-2" d="M31.6,88.46l-3.8,16.09c-.25,1.1-1.27,1.63-2.25,1.63s-2-.53-2.28-1.63l-4.95-19.29c-.03-.14-.06-.28-.06-.39,0-.84.76-1.29,1.52-1.29.68,0,1.32.34,1.49,1.01l4.28,17.61,3.77-16.17c.25-1.04,1.24-1.55,2.22-1.55s2,.51,2.25,1.55l3.77,16.2,4.27-17.63c.17-.67.84-1.01,1.49-1.01.76,0,1.52.45,1.52,1.29,0,.11-.03.25-.06.39l-4.95,19.29c-.28,1.1-1.29,1.63-2.31,1.63s-1.97-.53-2.22-1.63l-3.71-16.09Z"/>
        <path class="cls-2" d="M48.95,85.39c0-1.07.79-1.94,1.8-1.94s1.8.87,1.8,1.94-.79,1.91-1.8,1.91-1.8-.87-1.8-1.91ZM49.32,90.01c0-.79.73-1.15,1.46-1.15s1.43.37,1.43,1.15v14.96c0,.79-.73,1.21-1.43,1.21s-1.46-.42-1.46-1.21v-14.96Z"/>
        <path class="cls-2" d="M58.88,98.73c-.84,0-1.27-.76-1.27-1.49s.42-1.49,1.27-1.49h7.31c.84,0,1.24.73,1.24,1.49s-.39,1.49-1.24,1.49h-7.31Z"/>
        <path class="cls-2" d="M73.37,91.67h-1.8c-.68,0-1.01-.65-1.01-1.29s.34-1.32,1.01-1.32h1.8v-1.94c0-2.53,1.63-3.77,3.71-3.77.79,0,3.37.28,3.37,1.66,0,.59-.45,1.21-1.1,1.21-.08,0-.2-.03-.31-.06-.56-.2-1.04-.28-1.43-.28-.9,0-1.38.48-1.38,1.49v1.69h2.9c.76,0,1.13.65,1.13,1.29s-.37,1.32-1.13,1.32h-2.9v13.33c0,.76-.7,1.15-1.43,1.15s-1.43-.39-1.43-1.15v-13.33Z"/>
        <path class="cls-2" d="M84.59,85.39c0-1.07.79-1.94,1.8-1.94s1.8.87,1.8,1.94-.79,1.91-1.8,1.91-1.8-.87-1.8-1.91ZM84.96,90.01c0-.79.73-1.15,1.46-1.15s1.43.37,1.43,1.15v14.96c0,.79-.73,1.21-1.43,1.21s-1.46-.42-1.46-1.21v-14.96Z"/>
      </g>
    </g>
  </g>
</svg>