<?xml version="1.0" encoding="UTF-8"?>
<svg id="_レイヤー_2" data-name="レイヤー_2" xmlns="http://www.w3.org/2000/svg" width="115.99" height="115.99" viewBox="0 0 115.99 115.99">
  <defs>
    <style>
      .cls-1 {
        fill: #5c3d39;
      }

      .cls-2 {
        stroke: #fff;
        stroke-miterlimit: 10;
        stroke-width: .35px;
      }

      .cls-2, .cls-3 {
        fill: #fff;
      }
    </style>
  </defs>
  <g id="_レイヤー_1-2" data-name="レイヤー_1">
    <g>
      <rect class="cls-1" width="115.99" height="115.99" rx="13.06" ry="13.06"/>
      <g>
        <path class="cls-2" d="M10.83,106.48c-.66,0-.99-.52-.99-1.07s.32-1.05.99-1.05h11.67c.46,0,.62-.18.62-.58v-9.93c0-.4-.16-.58-.62-.58h-11.56c-.66,0-.99-.5-.99-1.03s.32-1.01.99-1.01h12.05c1.79,0,2.36.71,2.36,2.24v10.78c0,1.53-.56,2.24-2.36,2.24h-12.15Z"/>
        <path class="cls-2" d="M35.77,95.87c-1.25-.89-3.51-2.16-5.24-2.92-.44-.2-.62-.54-.62-.89,0-.58.48-1.19,1.15-1.19.58,0,4.09,1.71,5.88,2.96.38.26.54.6.54.93,0,.64-.6,1.27-1.21,1.27-.16,0-.34-.04-.5-.16ZM31.38,107.51c-.08.02-.16.02-.24.02-.77,0-1.21-.64-1.21-1.25,0-.46.28-.93.87-1.03,7.78-1.33,11.81-4.57,13.68-10.5.14-.44.54-.66.97-.66.58,0,1.17.38,1.17,1.05,0,.1-.02.2-.04.32-1.59,6-6.73,10.82-15.19,12.05Z"/>
        <path class="cls-2" d="M62.83,95.08l-8,.54v6.91c0,2.16,1.27,2.54,4.8,2.54,2.44,0,4.27-.26,6.31-.69.08-.02.18-.02.26-.02.64,0,1.01.56,1.01,1.11,0,.5-.28.99-.91,1.11-1.93.36-3.55.6-6.67.6-4.98,0-6.89-.93-6.89-4.13v-7.29l-2.84.18h-.06c-.56,0-.89-.54-.89-1.07,0-.48.26-.95.81-.97l2.98-.18v-2.92c0-.56.52-.85,1.05-.85s1.05.28,1.05.85v2.8l8.38-.5h.22c1.39,0,2.22.89,2.22,2.01,0,1.29-1.39,3.95-4.69,6.06-.22.14-.44.2-.66.2-.62,0-1.15-.56-1.15-1.13,0-.3.16-.62.54-.85,2.64-1.51,3.65-3.55,3.65-3.89,0-.24-.18-.44-.46-.44h-.04Z"/>
        <path class="cls-2" d="M76.07,95.87c-1.25-.89-3.51-2.16-5.24-2.92-.44-.2-.62-.54-.62-.89,0-.58.48-1.19,1.15-1.19.58,0,4.09,1.71,5.88,2.96.38.26.54.6.54.93,0,.64-.6,1.27-1.21,1.27-.16,0-.34-.04-.5-.16ZM71.68,107.51c-.08.02-.16.02-.24.02-.77,0-1.21-.64-1.21-1.25,0-.46.28-.93.87-1.03,7.78-1.33,11.81-4.57,13.68-10.5.14-.44.54-.66.97-.66.58,0,1.17.38,1.17,1.05,0,.1-.02.2-.04.32-1.59,6-6.73,10.82-15.19,12.05Z"/>
        <path class="cls-2" d="M94.22,90.61c0-.62.58-.95,1.15-.95s1.15.32,1.15.95v4.35c2.74.87,6.59,2.26,9.93,3.93.4.22.56.58.56.95,0,.62-.46,1.27-1.05,1.27-.16,0-.32-.04-.48-.14-3-1.63-6.51-2.98-8.97-3.77v9.63c0,.69-.56,1.03-1.13,1.03s-1.17-.36-1.17-1.03v-16.22Z"/>
      </g>
      <g>
        <path class="cls-3" d="M80.67,29.99c-.04-1.31-.68-1.95-2.01-2.01-1.3-.06-2.6-.09-3.9-.1-11.16,0-22.31,0-33.47,0-1.37,0-2.73.04-4.09.11-1.13.06-1.79.74-1.84,1.87-.04.81.02,1.63-.03,2.44-.1,1.44.32,2.51,1.93,2.8,0,.44,0,.83,0,1.22,0,5.76,0,11.51,0,17.27,0,1.56,0,3.12.08,4.68.27,5.32,3.85,9.22,9,9.33,7.8.16,15.61.15,23.41,0,4.7-.09,8.15-3.43,8.8-8.11.22-1.6.23-3.24.23-4.87.03-6.21.02-12.42,0-18.63,0-.57.06-.95.72-1.15.75-.22,1.14-.85,1.16-1.64.02-1.07.04-2.15,0-3.22Z"/>
        <path class="cls-3" d="M67,69.79h-17.95c0,1.44-.08,2.81.02,4.17.19,2.53,1.73,4.19,4.2,4.7.21.04.42.12.66.19v3.68s7.8,0,7.8,0v-2.44s0-.83,0-1.24c.46-.08.81-.14,1.16-.21,1.8-.37,3.08-1.39,3.71-3.11.69-1.88.34-3.83.4-5.73Z"/>
        <path class="cls-3" d="M65.32,25.95h6.14c0-5.32,0-10.54,0-15.77,0-.75-.44-1.12-1.18-1.13-1.07-.01-2.14-.02-3.21-.01-1.54,0-1.8.26-1.8,1.82,0,4.71,0,9.42,0,14.13,0,.31.04.62.06.97Z"/>
        <path class="cls-3" d="M44.53,25.9h6.22c0-2.37,0-4.64,0-6.91,0-2.83,0-5.65,0-8.48,0-1.11-.35-1.45-1.46-1.47-1.1-.02-2.21-.02-3.31,0-1.1.02-1.42.36-1.44,1.49-.01.78,0,1.56,0,2.34,0,4.32,0,8.64,0,13.03Z"/>
      </g>
    </g>
  </g>
</svg>