<?xml version="1.0" encoding="UTF-8"?>
<svg id="_レイヤー_2" data-name="レイヤー_2" xmlns="http://www.w3.org/2000/svg" width="115.99" height="115.99" viewBox="0 0 115.99 115.99">
  <defs>
    <style>
      .cls-1 {
        fill: #5c3d39;
      }

      .cls-2 {
        stroke: #fff;
        stroke-miterlimit: 10;
        stroke-width: .35px;
      }

      .cls-2, .cls-3 {
        fill: #fff;
      }
    </style>
  </defs>
  <g id="_レイヤー_1-2" data-name="レイヤー_1">
    <g>
      <rect class="cls-1" width="115.99" height="115.99" rx="13.06" ry="13.06"/>
      <path class="cls-3" d="M29.83,56.22c-.13-3.48-.24-6.87-.4-10.26-.24-5.09-.46-10.19-.79-15.28-.3-4.73-.71-9.45-1.13-14.17-.19-2.12.38-2.85,2.53-2.85,17.67,0,35.34,0,53.01,0,.21,0,.41,0,.62,0,1.38.09,1.99.68,1.96,2.05-.02,1.03-.18,2.05-.27,3.08-.07.87-.12,1.75-.17,2.62,0,.14.08.28.13.44,1.28-.25,2.53-.55,3.8-.72,7.45-1.01,13.72,4.18,14.08,11.7.31,6.55-2.4,11.68-7.62,15.52-3.15,2.32-6.76,3.45-10.63,3.83-.45.04-.9.09-1.48.15v3.5c.97.39,2.02.8,3.05,1.24,2,.85,3.88,1.91,5.54,3.33,4.39,3.76,3.6,9.03.75,12.22-1.57,1.76-3.54,2.98-5.67,3.94-4.17,1.88-8.59,2.86-13.1,3.46-11.29,1.5-22.6,1.49-33.89-.02-4.14-.55-8.21-1.46-12.1-3.07-1.96-.81-3.81-1.82-5.42-3.22-1.64-1.43-2.82-3.14-3.25-5.3-.63-3.17.4-5.78,2.77-7.9,1.79-1.6,3.88-2.7,6.07-3.63.51-.22,1.03-.43,1.59-.67ZM33.42,19.25c0,.44-.02.78,0,1.13.35,5.14.77,10.27,1.04,15.42.37,7,.67,14,.91,21,.08,2.48,1.27,4.14,3.44,5.01,1.26.5,2.68.74,4.05.81,9.11.48,18.23.52,27.34.03.82-.04,1.65-.11,2.46-.26,3.23-.6,5.03-2.73,5.15-5.98.07-2.11.17-4.22.26-6.33.17-3.96.3-7.93.52-11.89.33-5.86.73-11.72,1.09-17.58.03-.44,0-.88,0-1.36h-46.26ZM30.94,61.76c-1.94.74-3.71,1.56-5.15,2.93-1.36,1.29-1.52,2.52-.32,3.94.71.85,1.62,1.61,2.58,2.15,1.29.73,2.69,1.31,4.09,1.79,4.17,1.43,8.5,2.07,12.86,2.49,6.99.67,13.98.75,20.98.28,5.14-.34,10.28-.89,15.21-2.46,1.99-.64,3.93-1.53,5.77-2.52.9-.49,1.65-1.39,2.25-2.26.67-.96.61-2.07-.24-2.99-1.81-1.94-4.17-2.86-6.6-3.77-2.05,3.78-5.12,5.83-9.1,6.51-1.31.22-2.66.26-4,.32-7.77.37-15.55.37-23.32.08-1.29-.05-2.57-.16-3.86-.19-4.77-.13-8.54-2.04-11.15-6.3ZM83.72,45.42c4.38-.46,7.97-1.85,10.54-5.24,1.66-2.18,2.36-4.65,2.09-7.38-.29-2.93-2.58-5.03-5.51-4.94-2.24.07-4.31.78-6.35,1.98-.26,5.11-.51,10.22-.78,15.57Z"/>
      <g>
        <path class="cls-2" d="M8.58,92.74c0-2.62,2.26-4.68,6.2-4.68,3.6,0,5.97,1.48,6.37,4.17.02.08.04.17.04.25,0,.63-.63,1.02-1.23,1.02-.44,0-.87-.21-1.04-.72-.28-1.61-1.61-2.62-4.19-2.62s-3.94,1.1-3.94,2.6c0,1.16.87,1.65,2.5,2.07,1.18.32,2.9.53,4.27.91,2.65.7,4.23,2.12,4.23,4.66,0,2.92-2.09,5.14-6.86,5.14-3.94,0-6.64-1.95-6.92-5.12,0-.06-.02-.13-.02-.19,0-.66.63-1.06,1.23-1.06.47,0,.89.23.99.78.17,1.95,1.95,3.41,4.72,3.41,3.28,0,4.55-1.38,4.55-3,0-1.16-.83-2.12-2.5-2.58-1.27-.38-2.9-.53-4.42-.93-2.56-.7-4-1.88-4-4.06v-.04Z"/>
        <path class="cls-2" d="M25.74,99.55c.13,2.14,1.93,3.89,4.15,3.89,1.88,0,3.17-.91,3.83-2.05.17-.3.44-.42.74-.42.53,0,1.1.4,1.1.95,0,.7-1.54,3.51-5.69,3.51-3.77,0-6.28-2.92-6.28-6.64,0-4.04,2.69-6.75,6.22-6.75,3.26,0,5.8,2.37,6.09,5.73v.21c0,.93-.51,1.57-1.65,1.57h-8.51ZM33.49,97.64c.19,0,.28-.04.28-.21,0-.04-.02-.11-.02-.17-.36-2.01-1.95-3.28-3.91-3.28-2.22,0-3.79,1.59-4.06,3.66h7.72Z"/>
        <path class="cls-2" d="M38.4,89.2c0-.61.57-.91,1.12-.91s1.12.3,1.12.91v15.19c0,.59-.55.91-1.12.91s-1.12-.32-1.12-.91v-15.19Z"/>
        <path class="cls-2" d="M44.58,94.39h-1.35c-.51,0-.76-.49-.76-.97s.25-.99.76-.99h1.35v-1.46c0-1.9,1.23-2.84,2.79-2.84.59,0,2.54.21,2.54,1.25,0,.44-.34.91-.83.91-.06,0-.15-.02-.23-.04-.42-.15-.78-.21-1.08-.21-.68,0-1.04.36-1.04,1.12v1.27h2.18c.57,0,.85.49.85.97s-.28.99-.85.99h-2.18v10.03c0,.57-.53.87-1.08.87s-1.08-.3-1.08-.87v-10.03Z"/>
        <path class="cls-2" d="M65.91,90.2c-3.24,0-5.78,2.86-5.78,6.5s2.39,6.64,5.78,6.64c2.24,0,4.15-1.1,5.18-3.32.19-.4.55-.57.91-.57.59,0,1.23.47,1.23,1.1s-1.78,4.99-7.32,4.99c-4.85,0-8.04-3.68-8.04-8.85,0-4.82,3.2-8.63,8.04-8.63,5.35,0,7.13,4.13,7.13,4.63,0,.59-.63,1.06-1.25,1.06-.36,0-.7-.15-.93-.55-1.1-2.07-2.88-3-4.95-3Z"/>
        <path class="cls-2" d="M86.08,97.07c0,.68-.02,1.42-.02,2.16,0,1.82.06,3.66.47,4.66.06.17.08.32.08.44,0,.61-.55.97-1.1.97-.42,0-1.14-.23-1.23-1.71-.02-.06-.02-.13-.02-.17-.89,1.31-2.77,2.01-4.44,2.01-2.77,0-4.91-.93-4.91-3.89,0-1.61.91-2.88,2.45-3.47,2.9-1.1,6.45-.66,6.45-2.14v-.11c-.13-1.16-1.1-1.82-2.94-1.82h-.34c-1.38.04-2.56.76-3.2,1.97-.23.36-.57.51-.91.51-.57,0-1.12-.42-1.12-1.02,0-.89,1.82-3.32,5.25-3.43h.32c3.66,0,5.21,1.74,5.21,4.91v.13ZM84.05,99.49c0-.61.02-1.29.02-1.29-1.08.93-3.66.74-5.8,1.61-.76.3-1.25.91-1.25,1.71,0,1.67,1.48,1.95,2.77,1.95h.11c1.76,0,4.15-1.06,4.15-3.56v-.42Z"/>
        <path class="cls-2" d="M89.89,94.39h-1.35c-.51,0-.76-.49-.76-.97s.25-.99.76-.99h1.35v-1.46c0-1.9,1.23-2.84,2.79-2.84.59,0,2.54.21,2.54,1.25,0,.44-.34.91-.83.91-.06,0-.15-.02-.23-.04-.42-.15-.78-.21-1.08-.21-.68,0-1.04.36-1.04,1.12v1.27h2.18c.57,0,.85.49.85.97s-.28.99-.85.99h-2.18v10.03c0,.57-.53.87-1.08.87s-1.08-.3-1.08-.87v-10.03Z"/>
        <path class="cls-2" d="M98.4,99.55c.13,2.14,1.93,3.89,4.15,3.89,1.88,0,3.17-.91,3.83-2.05.17-.3.44-.42.74-.42.53,0,1.1.4,1.1.95,0,.7-1.54,3.51-5.69,3.51-3.77,0-6.28-2.92-6.28-6.64,0-4.04,2.69-6.75,6.22-6.75,3.26,0,5.8,2.37,6.09,5.73v.21c0,.93-.51,1.57-1.65,1.57h-8.51ZM106.14,97.64c.19,0,.28-.04.28-.21,0-.04-.02-.11-.02-.17-.36-2.01-1.95-3.28-3.91-3.28-2.22,0-3.79,1.59-4.06,3.66h7.72Z"/>
      </g>
    </g>
  </g>
</svg>