<?xml version="1.0" encoding="UTF-8"?>
<svg id="_レイヤー_2" data-name="レイヤー 2" xmlns="http://www.w3.org/2000/svg" width="1701.5" height="79.23" viewBox="0 0 1701.5 79.23">
  <defs>
    <style>
      .cls-1, .cls-2 {
        fill: #fff;
      }

      .cls-2 {
        stroke: #fff;
        stroke-miterlimit: 10;
      }
    </style>
  </defs>
  <g id="_レイヤー_1-2" data-name="レイヤー 1">
    <g>
      <g>
        <path class="cls-1" d="M67.49,52.18c1.94-2.99,4.4-6.34,5.72-6.34,1.85,0,7.57,5.63,7.57,7.74,0,1.32-1.67,2.11-4.31,2.11h-30.53c6.25,10.38,17.16,13.99,31.94,15.4,2.64.26,2.2,2.46-.18,3.08-1.94.53-3.52,1.76-4.4,2.9-1.06,1.32-2.29,1.76-4.14,1.32-12.06-2.9-23.14-10.82-27.37-22.7h-1.41c-1.32,4.05-3.52,7.13-7.3,10.91-6.51,6.6-18.04,11.09-30.27,12.58-2.55.35-3.08-2.64-.62-3.26,11.79-2.99,20.33-6.51,26.75-13.2,2.11-2.2,3.7-4.4,4.84-7.04H1.94c-1.14,0-1.94-.35-1.94-1.76,0-1.32.79-1.76,1.94-1.76h13.02c0-5.9.18-16.63-.44-22.35-.09-.7.53-1.23,1.32-1.06,1.5.18,4.93,1.5,6.86,2.9h13.73c-.09-3.08-.26-6.69-.53-10.21-.09-.97,0-1.5,1.14-1.5,2.9,0,9.15.79,9.15,2.64,0,1.14-.88,2.11-3.87,2.9v6.16h13.99c1.23-1.67,2.99-3.7,3.96-3.7,1.76,0,7.04,3.87,7.04,5.81,0,1.14-1.5,2.2-3.08,2.82-.09,3.78-.18,10.91,0,15.58h3.26ZM2.38,14.96c-1.14,0-1.94-.35-1.94-1.76,0-1.32.79-1.76,1.94-1.76h22.44c-.09-3.34-.26-7.22-.62-10.21-.09-.88.44-1.23,1.23-1.23,3.52,0,10.03.26,10.03,2.55,0,1.5-1.41,2.64-4.4,2.99v5.9h18.13c-.09-3.34-.35-7.3-.62-10.21-.09-.88.44-1.23,1.23-1.23,3.52,0,10.12.26,10.12,2.55,0,1.5-1.41,2.64-4.4,2.99v5.9h10.12c1.85-2.73,4.31-5.98,5.72-5.98,1.76,0,8.18,5.28,8.18,7.48,0,1.23-1.41,2.02-4.93,2.02h-19.1v8.18c0,1.85-1.5,2.64-3.96,2.64-1.67,0-2.55-.88-2.55-2.38,0-1.67.09-5.02.18-8.45h-18.13v8.98c0,1.85-1.41,2.64-3.87,2.64-1.67,0-2.55-.88-2.55-2.38,0-1.76.18-5.46.18-9.24H2.38ZM34.94,52.18c1.06-4.14,1.41-9.5,1.5-16.98h-15.4c-.09,1.76-.18,6.86-.18,8.01l.09,8.98h13.99ZM42.33,35.2c0,7.57-.18,12.85-1.06,16.98h16.46c.09-4.49.18-12.85.18-16.98h-15.58Z"/>
        <path class="cls-1" d="M111.41,16.9c1.58-2.38,3.52-5.02,4.66-5.02,1.58,0,6.86,4.84,6.86,6.69,0,1.23-1.5,1.85-3.96,1.85h-29.92c-1.14,0-1.94-.35-1.94-1.76,0-1.32.79-1.76,1.94-1.76h22.35ZM108.06,50.77c1.32-1.76,2.9-3.52,3.87-3.52,1.85,0,7.3,4.05,7.3,5.98,0,1.23-1.76,2.11-3.52,2.73-.09,5.1.09,13.64.09,16.19,0,2.73-1.41,3.34-3.78,3.34-2.11,0-2.73-1.58-2.73-2.99v-1.67h-11.88v4.58c0,1.94-1.32,2.73-3.87,2.73-1.5,0-2.29-.88-2.29-2.38,0-5.54.44-19.18-.35-26.75-.09-.7.53-1.23,1.23-1.14,1.5.26,5.02,1.5,7.04,2.9h8.89ZM92.84,10.03c-1.14,0-1.94-.35-1.94-1.76,0-1.32.79-1.76,1.94-1.76h14.61c1.5-2.29,3.43-4.66,4.49-4.66,1.58,0,7.13,4.58,7.13,6.42,0,1.23-1.41,1.76-4.22,1.76h-22ZM107.18,27.54c1.5-2.11,3.26-4.4,4.31-4.4,1.5,0,6.78,4.49,6.86,6.25,0,1.14-1.32,1.67-4.14,1.67h-21.03c-1.14,0-1.94-.35-1.94-1.76,0-1.32.79-1.76,1.94-1.76h13.99ZM107.18,38.72c1.5-2.11,3.34-4.4,4.4-4.4,1.41,0,6.78,4.49,6.78,6.25,0,1.14-1.32,1.67-4.05,1.67h-21.12c-1.14,0-1.94-.35-1.94-1.76,0-1.32.79-1.76,1.94-1.76h13.99ZM109.38,67.32c0-4.31.09-9.94.09-13.02h-11.44l-.53.09c-.18,2.02-.18,7.92-.18,9.68v3.26h12.06ZM159.37,39.42c1.67-2.64,3.61-5.28,4.75-5.28,1.67,0,6.16,5.1,6.16,6.95.09,1.32-1.58,1.85-3.26,1.85h-46.46c-1.14,0-1.94-.35-1.94-1.76,0-1.32.79-1.76,1.94-1.76h10.74c.97-4.93,1.85-9.94,2.64-14.96h-9.33c-1.14,0-1.94-.35-1.94-1.76,0-1.32.79-1.76,1.94-1.76h9.86c.53-3.96,1.06-7.92,1.58-11.88h-13.46c-1.14,0-1.94-.35-1.94-1.76,0-1.32.79-1.76,1.94-1.76h32.3c1.76-2.55,3.87-5.46,5.1-5.46,1.67,0,7.22,5.1,7.22,7.04.09,1.32-1.5,1.94-4.22,1.94h-18.04c0,.88-1.14,1.67-2.9,2.02l-1.58,9.86h10.56c1.23-1.41,2.73-2.99,3.61-2.9,1.67.09,6.51,4.14,6.42,5.98-.09,1.06-1.5,1.94-2.99,2.55-.26,3.17-.62,8.98-.79,12.85h2.11ZM153.29,51.21c1.32-1.67,2.9-3.43,3.87-3.43,1.76,0,7.04,3.87,7.04,5.72,0,1.14-1.5,1.94-2.99,2.55-.18,5.63,0,16.28,0,19.18,0,2.73-1.41,3.34-3.87,3.34-2.02,0-2.73-1.58-2.73-2.99v-2.11h-20.94v2.99c0,1.94-1.41,2.73-4.05,2.73-1.58,0-2.38-.79-2.38-2.38,0-5.54.44-19.62-.35-27.28-.09-.7.53-1.23,1.23-1.14,1.41.18,4.93,1.41,7.04,2.82h18.13ZM154.7,69.96c0-4.93.09-11.79.09-15.22h-19.36c-.44.18-1.06.35-1.67.44-.18,2.02-.18,8.1-.18,9.68v5.1h21.12ZM137.63,39.42h13.46c.18-3.7.7-11.35.88-14.96h-12.06l-2.29,14.96Z"/>
      </g>
      <g>
        <path class="cls-2" d="M196.67,57.81c-2.88,1.66-5.26,2.39-7.14,2.2-1.88-.19-3.17-1.05-3.88-2.56-.71-1.51-.9-3.59-.59-6.23.32-2.64.89-5.05,1.72-7.25,5.27-10.5,13.35-17.92,24.24-22.27.1-1.32.61-2.03,1.54-2.12.93-.1,1.56.37,1.9,1.39,5.71-.29,9.97.32,12.78,1.83,2.81,1.51,4.86,3.75,6.15,6.7,1.29,2.95,1.62,5.86.99,8.72-.64,2.86-1.7,5.84-3.19,8.94-1.49,3.1-3.58,7.85-6.26,14.25-.54,1.9-1.12,2.89-1.76,2.97-.64.07-1.18.05-1.65-.07-.46-.12-.45-1.14.04-3.04,2.93-8.06,5.44-14.09,7.54-18.09,2.1-4,2.82-7.59,2.16-10.77-.66-3.17-2.53-5.46-5.6-6.85s-6.69-1.67-10.84-.84c-1.03,1.76-2.33,4.92-3.92,9.48-1.59,4.57-4.63,10.83-9.12,18.79-1.9,2.34-3.61,3.96-5.13,4.83ZM189.56,46.68c-1.66,4.25-1.68,7.45-.07,9.59,1.9,0,3.65-.52,5.24-1.57,1.59-1.05,3.09-2.48,4.5-4.28,4.44-7.81,7.93-15.77,10.47-23.88-4.69,2.2-9.06,5.35-13.11,9.45-2.74,3.17-5.08,6.74-7.03,10.69Z"/>
        <path class="cls-2" d="M257.39,74c-1.86,1.07-2.54,1.01-2.05-.18.49-1.2,1.46-3.1,2.93-5.71s2.83-5.39,4.1-8.35c1.27-2.95,2.64-7.31,4.1-13.07,1.46-5.76,2.2-9.96,2.2-12.6s.51-4.13,1.54-4.47c1.03-.34,1.73-.04,2.12.92.39.95.32,3.08-.22,6.37-.54,3.3-1.29,6.82-2.27,10.58.39-.19,1.23-.55,2.53-1.06,1.29-.51,2.82-1.01,4.58-1.5,1.76-.49,3.09-.81,3.99-.95.9-.15,1.65-.26,2.23-.33s.98-.07,1.17,0c.19.07.32.11.37.11.39.15.85.44,1.39.88.54.44.41,1.59-.37,3.44-.73,3.76-1.14,5.98-1.21,6.67-.07.68-.72,3.33-1.94,7.95-1.22,4.61-2.99,7.08-5.31,7.4-2.32.32-4.06.01-5.24-.92s-2.06-2.64-2.67-5.13c-.61-2.49-.32-3.33.88-2.53,1.2.81,2.07,1.81,2.64,3,.56,1.2,1.33,1.75,2.31,1.65.98-.1,1.93-.96,2.86-2.6.93-1.64,1.65-3.43,2.16-5.38.51-1.95.85-3.94,1.03-5.97.17-2.03.3-3.63.4-4.8-.88.2-2.22.57-4.03,1.14-1.81.56-3.64,1.26-5.49,2.09-1.86.83-3.05,1.27-3.59,1.32-1.07,3.76-2.17,7.08-3.3,9.96-1.12,2.88-2.23,5.35-3.33,7.4s-2.6,3.61-4.5,4.69ZM286.32,10.79c.1-.63.24-.99.44-1.06.19-.07.44-.04.73.11s.59.39.88.73c.29.34.6.79.92,1.35.32.56.56,1.11.73,1.65.17.54.7,2.34,1.57,5.42,1.71-.49,3.66-1.01,5.86-1.57,2.2-.56,3.65-.62,4.36-.18.71.44.96.92.77,1.43-.2.51-.54.96-1.03,1.35-.49.39-1.81.78-3.96,1.17-2.15.39-3.83.73-5.05,1.03,1.03,3.52,2.36,8.08,3.99,13.7,1.64,5.62,2.97,10.18,3.99,13.7.68-1.85,1.22-3.55,1.61-5.09.39-1.54.67-2.72.84-3.55.17-.83.35-1.51.55-2.05.19-.54.4-.89.62-1.06.22-.17.67-.18,1.35-.04.73.34,1.18.62,1.35.84.17.22.27.51.29.88.02.37.01.82-.04,1.35-.05.54-.16,1.14-.33,1.79-.17.66-.56,1.9-1.17,3.74-.61,1.83-1.25,3.56-1.9,5.2-.66,1.64-1.16,2.84-1.5,3.63.59,1.95.98,3.25,1.17,3.88.19.64.52,1.43.99,2.38.46.95,1,1.88,1.61,2.78.61.9,1.14,1.62,1.57,2.16.44.54.84.93,1.21,1.17.37.24.68.34.95.29.27-.05.5-.22.7-.51.19-.29.78-2,1.76-5.13.98-3.12,1.55-4.72,1.72-4.8.17-.07.34-.01.51.18.17.2.34.5.51.92.17.42.29.94.37,1.57.07.64.07,1.39,0,2.27s-.27,1.97-.59,3.26c-.32,1.29-.72,2.53-1.21,3.7-.49,1.17-.99,2.06-1.5,2.67-.51.61-.98.95-1.39,1.03-.42.07-.92-.05-1.5-.37-.59-.32-1.23-.83-1.94-1.54s-1.56-1.76-2.56-3.15c-1-1.39-1.82-2.76-2.45-4.1-.64-1.34-1.29-2.89-1.98-4.65-.98,1.71-1.89,3.22-2.75,4.54-.85,1.32-1.6,2.42-2.23,3.3-.64.88-1.17,1.5-1.61,1.87s-1.03.68-1.76.95c-.73.27-1.46.43-2.2.48-.73.05-1.25.06-1.54.04-.29-.03-.48-.1-.55-.22-.07-.12-.06-.26.04-.4.1-.15.28-.35.55-.62.27-.27.83-.84,1.68-1.72.85-.88,1.83-2.09,2.93-3.63s2.15-3.14,3.15-4.8c1-1.66,1.84-3.2,2.53-4.61-.78-2.25-1.33-3.94-1.65-5.09-.32-1.15-1.39-4.97-3.22-11.46-1.83-6.49-3.21-11.4-4.14-14.72-1.86.54-4.59,1.46-8.2,2.78-3.61,1.32-7.46,2.38-11.54,3.19-4.08.81-6.6.56-7.58-.73-.98-1.29-.98-2.23,0-2.82,6.49-.19,12-1.03,16.52-2.49,4.52-1.46,7.8-2.51,9.85-3.15-.78-2.59-1.29-4.37-1.54-5.35-.24-.98-.44-2.25-.59-3.81ZM296.2,10.72c-.64-1.66.71-2.07,4.03-1.25,2.49,1.81,4.22,3.31,5.2,4.5.98,1.2,1.42,2.27,1.32,3.22-.1.95-.48,1.4-1.14,1.35-.66-.05-1.12-.05-1.39,0-.27.05-.79-.57-1.57-1.87-.78-1.29-1.81-2.37-3.08-3.22-1.27-.85-2.39-1.77-3.37-2.75Z"/>
        <path class="cls-2" d="M324.62,60.15c-.15-1.71.41-2.2,1.68-1.46,1.27.73,2.25,1.44,2.93,2.12.68.68,1.88,2.08,3.59,4.17,1.71,2.1,3.06,3.78,4.06,5.05,1,1.27,1.43,2.16,1.28,2.67s-.71.67-1.68.48c-.98-.2-1.87-.93-2.67-2.2-.81-1.27-1.89-2.86-3.26-4.76-1.37-1.9-3.35-3.93-5.93-6.08ZM337,38.91c2.54-4.15,3.96-6.37,4.25-6.67-1.17.15-2.3.98-3.37,2.49-2.1,1.56-3.64,1.2-4.61-1.1,0-1.71.46-3.17,1.39-4.39.93-1.22,2.36-3.41,4.28-6.56,1.93-3.15,3.56-5.82,4.91-8.02,1.34-2.2,2.5-3.12,3.48-2.78.98.34,1.54.79,1.68,1.35.15.56-.65,2.11-2.38,4.65-1.73,2.54-4.11,6.18-7.14,10.91,2.29-1.12,4.33-2.23,6.12-3.33,1.78-1.1,3.06-1.31,3.85-.62.78.68.83,1.42.15,2.2-.68.78-1.12,1.54-1.32,2.27,3.42,1.51,6.03,3.2,7.84,5.05,5.18-2.59,10.62-4.74,16.33-6.45.34-1.46.78-2.73,1.32-3.81-2.1.54-3.48,1.17-4.14,1.9s-1.54.85-2.64.37c-1.1-.49-1.65-.93-1.65-1.32s.72-1.01,2.16-1.87c1.44-.85,3.75-1.82,6.92-2.89.19-1.42.41-2.64.66-3.66-1.37.2-2.84.59-4.43,1.17-1.59.59-2.69.75-3.3.48-.61-.27-1.07-.7-1.39-1.28-.32-.59.29-1.1,1.83-1.54s3.85-1.07,6.92-1.9c-.68-1.46-.85-2.43-.51-2.89.34-.46.81-.48,1.39-.04s1.25,1,1.98,1.68c1.27-.63,2.28-1.1,3.04-1.39.76-.29,1.53-.34,2.31-.15.78.2,1.39.67,1.83,1.43.44.76-.11,1.32-1.65,1.68s-3.06.84-4.58,1.43l-.44,3.52c1.46-.34,2.99-.73,4.58-1.17,1.59-.44,2.79-.32,3.63.37.83.68.78,1.35-.15,2.01-.93.66-2.11,1.01-3.55,1.06-1.44.05-3.06.56-4.87,1.54-.64,1.32-1,2.59-1.1,3.81,2.1-.63,4.77-1.38,8.02-2.23,3.25-.85,5.7-.93,7.36-.22,1.66.71,1.85,1.35.59,1.94-1.27.59-4.92,1.54-10.95,2.86-6.03,1.32-13.86,4.05-23.47,8.2,1.61,2.69,2.42,4.38,2.42,5.09s-.61.93-1.83.66c-1.22-.27-2.06-1.15-2.53-2.64-.46-1.49-1.28-2.53-2.45-3.11-.34.54-.83,1.23-1.46,2.09-.64.85-2.48,2.19-5.53,3.99-3.05,1.81-5.64,3.69-7.76,5.64-2.12,1.95-3.86,2.94-5.2,2.97-1.34.03-2-.9-1.98-2.78.02-1.88,1.75-5.21,5.16-10ZM345.42,65.87c-1.12.49-2,.35-2.64-.4-.64-.76-1.45-2.05-2.45-3.88-1-1.83-1.99-3.34-2.97-4.54-.98-1.2-1.32-2.04-1.03-2.53.29-.49.82-.55,1.57-.18.76.37,1.73,1.22,2.93,2.56,1.2,1.34,2.03,2.41,2.49,3.19.46.78,1.14,1.86,2.01,3.22.88,1.37.9,2.22.07,2.56ZM347.25,30.93c-4.05,5.96-6.81,10.18-8.28,12.67,5.08-2.98,8.96-5.79,11.65-8.42-1.03-1.85-2.15-3.27-3.37-4.25ZM355.68,58.84c-.83.83-1.57.87-2.23.11-.66-.76-1.44-1.94-2.34-3.55-.9-1.61-2-3.01-3.3-4.21-1.29-1.2-1.38-1.94-.26-2.23,1.12-.29,2.18.24,3.19,1.61,1,1.37,1.84,2.45,2.53,3.26.68.81,1.26,1.51,1.72,2.12.46.61.7,1.57.7,2.89ZM378.68,60.01c4.15.64,7.14,1.5,8.97,2.6s3.63,2.53,5.38,4.28,2.34,2.9,1.76,3.44c-.59.54-1.14.74-1.65.62-.51-.12-1.67-1.1-3.48-2.93-1.81-1.83-5.66-4.02-11.57-6.56-.39,1.03-1.4,2.43-3.04,4.21-1.64,1.78-3.31,3.33-5.02,4.65-1.71,1.32-2.89,2.23-3.55,2.75s-1.5.59-2.53.22-1.59-.9-1.68-1.61c-.1-.71.46-1.06,1.68-1.06,4.05-3.76,6.96-6.48,8.72-8.17s2.42-2.6,1.98-2.75-.75-.05-.92.29c-.17.34-.6.62-1.28.84-.68.22-1.44.5-2.27.84-.83.34-1.54.76-2.12,1.25-.59.49-1.14.62-1.65.4s-1.03-.57-1.54-1.06c-.51-.49-.5-.82.04-.99.54-.17.7-.5.48-.99-.22-.49-.03-2.49.59-6.01.61-3.52.74-6.86.4-10.03-.34-3.17-.79-4.88-1.35-5.13-.56-.24-.92-.63-1.06-1.17-.15-.54-.05-.95.29-1.25.34-.29,1-.19,1.98.29-.15-.15-.27-.4-.37-.77-.1-.37.85-1.14,2.86-2.31,2-1.17,4.32-2.04,6.96-2.6,2.64-.56,4.46-.73,5.46-.51,1,.22,1.62.57,1.87,1.06.24.49.83,3,1.76,7.54.93,4.54,1.31,9.23,1.14,14.06-.17,4.83-.67,7.25-1.5,7.25s-1.59-.32-2.27-.95c-.68-.63-1.17-1.37-1.46-2.2-.29-.83-.17-1.16.37-.99.54.17.79-.04.77-.62-.03-.59.01-1.42.11-2.49.1-1.07-.1-2.22-.59-3.44-1.27-.15-2.47.04-3.59.55-1.12.51-3.91,1.92-8.35,4.21-.15,1.37-.24,2.56-.29,3.59,1.07-.39,2.48-.89,4.21-1.5,1.73-.61,3.6-.38,5.6.7.29.64.33,1.15.11,1.54-.22.39-.33.68-.33.88ZM370.03,42.21c3.17-1.61,6.67-2.49,10.47-2.64-.29-2.49-.44-4.13-.44-4.91s-.28-1.17-.84-1.17-1.73.39-3.52,1.17c-1.78.78-3.19,1.37-4.21,1.76-1.03.39-1.89.71-2.6.95-.71.24-1.23.34-1.57.29.49.39,1.01.89,1.57,1.5.56.61.94,1.62,1.14,3.04ZM370.47,46.24c-.39,1.32-.66,2.69-.81,4.1,3.17-1.9,7.06-3.03,11.65-3.37l-.51-4.54c-.78.05-1.99.21-3.63.48-1.64.27-3.87,1.38-6.7,3.33Z"/>
        <path class="cls-2" d="M412.07,26.46c-3.27.59-5.04.46-5.31-.37-.27-.83,1.5-1.72,5.31-2.67s9.55-2.26,17.21-3.92c9.57-2.39,19.41-4,29.52-4.83,2.39-.29,4.03.51,4.91,2.42-2,5.03-4.52,8.74-7.54,11.13-3.03,2.39-5.98,4.42-8.86,6.08-1.51.64-2.2.37-2.05-.81,2.2-2.2,4.74-4.38,7.62-6.56,2.88-2.17,5.27-4.92,7.18-8.24-.2-1.07-1.15-1.49-2.86-1.25-4.44.68-9.39,1.45-14.83,2.31-5.45.85-11.38,2.09-17.8,3.7-6.42,1.61-10.58,2.61-12.49,3ZM430.53,69.53c-.54-.54-.71-1.15-.51-1.83.19-.68,1.39-3.89,3.59-9.63,2.2-5.74,3.45-11.27,3.77-16.59.32-5.32.21-9.77-.33-13.33,1.22-.73,2.05-.61,2.49.37,1.17,2.49,1.83,4.55,1.98,6.19.15,1.64.11,3.72-.11,6.26-.22,2.54-.72,5.48-1.5,8.83-.78,3.35-2.01,6.92-3.7,10.73s-2.8,6.13-3.33,6.96c-.54.83-1.32,1.51-2.34,2.05Z"/>
        <path class="cls-2" d="M487.44,28.37c.93-.59,1.76-.57,2.49.04.73.61,1.34,1.38,1.83,2.31,2.29,3.32,3.83,6.17,4.61,8.53.78,2.37,1.17,3.87,1.17,4.5-1.03.78-1.78.78-2.27,0-2.25-4.49-4.37-8.84-6.37-13.04-.44-.19-.93-.98-1.46-2.34ZM513,40.6c-1.27.93-2.15.85-2.64-.22-2.69-4-4.83-8.1-6.45-12.3.63-.63,1.28-.82,1.94-.55.66.27,1.21.77,1.65,1.5.73,1.37,1.42,2.93,2.05,4.69,1.37,2,2.51,4.3,3.44,6.88ZM510.51,71.07c-.44.54-.88.79-1.32.77-.44-.03-.94-.24-1.5-.66-.56-.42-.11-1.6,1.35-3.55,8.25-12.84,13.6-22.97,16.04-30.4,2.44-7.42,3.69-11.62,3.74-12.6,2.05-.59,3.27.03,3.66,1.83-1.56,6.79-3.74,13.33-6.52,19.63-4.49,9.62-9.64,17.94-15.45,24.98Z"/>
        <path class="cls-2" d="M560.46,28.73l.15-1.46c8.98-2.29,17.42-4.42,25.31-6.37,7.89-1.95,14.39-3.34,19.52-4.17l.81-.22c-.24-1.22-.22-2.49.07-3.81.29-2.98,1.81-5,4.54-6.08,2.83-.39,5.22.51,7.18,2.71,2,1.22,2.88,3.3,2.64,6.23-.15,2.39-1.37,4.59-3.66,6.59-2.78.93-5.18.85-7.18-.22l-.81-.73c-1.42,6.45-3.69,12.7-6.81,18.75-2.98,6.49-6.52,12.87-10.62,19.12-2.15,4.1-5.27,7.23-9.38,9.38-.54-.05-.81-.24-.81-.59s.12-.68.37-1.03c4.64-7.08,9.25-14.67,13.84-22.78,4.59-8.1,7.86-15.99,9.81-23.66-13.57,2.44-26.88,5.69-39.92,9.74-2.69.39-4.37-.07-5.05-1.39ZM613.93,18.99c2.1-.73,3.12-2.42,3.08-5.05-1.07-2.73-2.88-3.88-5.42-3.44-1.12,1.56-1.68,3.03-1.68,4.39s.29,2.5.88,3.41c.59.9,1.64,1.14,3.15.7Z"/>
        <path class="cls-2" d="M681.39,12.91c-6.84,8.45-11.89,17.99-15.16,28.64-1.71,9.23-.2,17.16,4.54,23.8,1.9,2.74,4.64,4.78,8.2,6.15-.1,1.51-.78,1.9-2.05,1.17-6.79-2.34-11.43-7.25-13.92-14.72-1.37-7.62-1.12-14.23.73-19.85,1.85-5.61,3.55-9.72,5.09-12.3,1.54-2.59,2.65-4.49,3.33-5.71.68-1.22,1.44-2.51,2.27-3.88-10.3,4.35-20.41,8.16-30.32,11.43-2.2.39-3.65.17-4.36-.66-.71-.83-.98-1.48-.81-1.94.17-.46.87-.62,2.09-.48,1.22.15,3.08-.19,5.57-1.03,10.64-3.76,21.29-7.98,31.93-12.67.88-.54,1.57-.55,2.09-.04s.77,1.21.77,2.09ZM679.26,18.77c2.2.83,3.56,2.47,4.1,4.91.54,2.44,1.22,4.76,2.05,6.96-.29.59-.61.87-.95.84-.34-.02-.71-.18-1.1-.48-.83-1.07-1.38-2.16-1.65-3.26-.27-1.1-.55-2.04-.84-2.82-.54-1.12-1.07-2.22-1.61-3.3-.54-1.07-.54-2.03,0-2.86ZM686.22,18.77c.39-.24.89-.24,1.5,0,.61.24,1.06.78,1.35,1.61.29,1.07.71,2.23,1.25,3.48.54,1.25.54,2.55,0,3.92-.39,0-.65-.05-.77-.15-.12-.1-.28-.32-.48-.66-1.66-2.73-2.61-5.47-2.86-8.2Z"/>
        <path class="cls-2" d="M703.5,53.49c.15-2.15,1.54-1.88,4.17.81,1.46,3.42,2.31,6.65,2.53,9.7.22,3.05.07,5.13-.44,6.23s-1.05,1.45-1.61,1.06c-.56-.39-.98-.66-1.25-.81-.27-.15-.39-1.77-.37-4.87.02-3.1-.35-5.47-1.14-7.1-.78-1.64-1.42-3.31-1.9-5.02ZM712.07,28c-1.07.34-2.19.11-3.33-.7-1.15-.81-1.07-1.45.22-1.94,1.29-.49,3.44-1.27,6.45-2.34,3-1.07,8.12-2.83,15.34-5.27-.1-.34-.28-.74-.55-1.21-.27-.46-.1-.85.51-1.17.61-.32,1.23-.26,1.87.18.63.44,1.17.83,1.61,1.17,8.54-2.68,13.5-4.21,14.87-4.58,1.37-.37,2.37-.45,3-.26.63.2,1.27.64,1.9,1.32.63.68-.11,1.4-2.23,2.16-2.12.76-7.53,2.41-16.22,4.94.24,3.86.07,7.76-.51,11.72,3.91-1.12,6.84-1.98,8.79-2.56,1.95-.59,3.33-.74,4.14-.48.81.27,1.45.76,1.94,1.46.49.71-2.66,2.12-9.45,4.25-6.79,2.12-12.63,4.16-17.54,6.12-4.91,1.95-7.58,2.66-8.02,2.12-.44-.54-.71-1.07-.81-1.61-.1-.54.59-1.23,2.05-2.09,1.46-.85,3.27-1.65,5.42-2.38,2.15-.73,4.98-1.64,8.5-2.71,1.81-4.3,2.44-8.47,1.9-12.52-8.35,2.59-14.97,4.71-19.85,6.37ZM746.64,70.99c-6.15.83-11.35-.17-15.6-3s-7.32-5.49-9.23-7.98-3.42-4.47-4.54-5.93c-1.12-1.46-1.71-2.36-1.76-2.67-.05-.32.01-.65.18-.99.17-.34.65-.38,1.43-.11.78.27,1.44.84,1.98,1.72.54.88,1.44,2,2.71,3.37,1.27,1.37,3.19,3.31,5.75,5.82,2.56,2.52,5.61,4.28,9.16,5.31,3.54,1.03,6.03,1.45,7.47,1.28,1.44-.17,2.87-1.77,4.28-4.8,1.42-3.03,2.06-5.5,1.94-7.43-.12-1.93.06-3.19.55-3.77.49-.59.9-.52,1.25.18.34.71.66,1.45.95,2.23.29.78.4,2.43.33,4.94-.07,2.52-.67,4.97-1.79,7.36-1.12,2.39-2.81,3.88-5.05,4.47ZM743.2,58.91c-3.27-2.2-5.35-4.52-6.23-6.96-.88-2.44-1.09-3.86-.62-4.25.46-.39,1.05-.34,1.76.15.71.49,1.39,1.34,2.05,2.56.66,1.22,1.35,2.45,2.09,3.7s1.5,1.53,2.31.84c.81-.68,1.43-1.37,1.87-2.05.44-.68,1.1-1.37,1.98-2.05.88-.68,1.33-.67,1.35.04.02.71.1,1.25.22,1.61.12.37-.16,1.21-.84,2.53-.68,1.32-1.71,2.39-3.08,3.22-1.37.83-2.32,1.05-2.86.66ZM766.57,51.66c0,1.17-.46,1.64-1.39,1.39-3.22-2.64-5.38-4.86-6.48-6.67-1.1-1.81-1.42-2.93-.95-3.37.46-.44,1.21-.27,2.23.51,2.54,2.05,4.74,4.76,6.59,8.13Z"/>
        <path class="cls-2" d="M776.16,30.05c-1.95-1.56-1.28-2.55,2.01-2.97,3.3-.41,7.21-1.61,11.76-3.59s7.71-3.31,9.52-3.99c1.81-.68,3.69-1.29,5.64-1.83,1.95-.54,3.42-.34,4.39.59.98.93,1.1,1.65.37,2.16s-1.67,1.09-2.82,1.72c-1.15.64-2.05.71-2.71.22-.66-.49-3.14.22-7.43,2.12-4.3,1.9-7.35,3.39-9.16,4.47-.83,1.95-1.31,4.49-1.43,7.62-.12,3.13.05,5.03.51,5.71.46.68,2.98.12,7.54-1.68,4.56-1.81,8.68-3.56,12.34-5.27,3.66-1.71,5.96-2.27,6.88-1.68.93.59,1.11,1.27.55,2.05-.56.78-1.68,1.49-3.37,2.12-1.68.64-3.97,1.72-6.85,3.26-2.88,1.54-6.15,2.74-9.81,3.59-3.66.85-5.97,1.18-6.92.99-.95-.19-1.99-.81-3.11-1.83-1.12-1.03-1.59-3.41-1.39-7.14.19-3.74.46-5.92.81-6.56-1.22.2-2.39.34-3.52.44-1.12.1-2.39-.07-3.81-.51ZM783.85,75.97c0-.59,2.04-1.65,6.12-3.19,4.08-1.54,10.19-3.46,18.35-5.75.63-1.56,1.15-3.49,1.54-5.79-3.76,1.61-6.52,2.94-8.28,3.99-1.76,1.05-2.97,1.38-3.63.99-.66-.39-1.1-.93-1.32-1.61-.22-.68.82-1.53,3.11-2.53,2.29-1,5.69-2.48,10.18-4.43,0-2.39-.2-4.64-.59-6.74-4.64,1.76-7.7,2.92-9.19,3.48-1.49.56-3,.77-4.54.62s-2.48-.66-2.82-1.54c-.34-.88.87-1.6,3.63-2.16,2.76-.56,6.36-1.7,10.8-3.41,4.44-1.71,7.45-2.86,9.01-3.44-.15-7.03.22-14.43,1.1-22.19-.78-.49-.95-1.01-.51-1.57.44-.56.83-.84,1.17-.84,0-4.54.01-8.08.04-10.62.02-2.54.41-3.44,1.17-2.71.76.73,1.73.71,2.93-.07,1.2-.78,2.49-1.22,3.88-1.32,1.39-.1,2.79.09,4.21.55,1.42.46,2.31,1.11,2.67,1.94.37.83.82,4.14,1.35,9.92.54,5.79.74,11.6.62,17.43-.12,5.84-.23,9.08-.33,9.74-.1.66-.54.98-1.32.95-.78-.02-1.51-.38-2.2-1.06-.68-.68-1.18-1.46-1.5-2.34-.32-.88-.07-1.03.73-.44s1.21-.55,1.21-3.41-.17-7.14-.51-12.85c-2.93,1.07-5.29,2.16-7.07,3.26-1.78,1.1-2.89,1.5-3.33,1.21-.88,4.98-1.18,8.16-.92,9.52.27,1.37.28,2.61.04,3.74.98-.34,1.71-.51,2.2-.51s1.09.42,1.79,1.25c.71.83.68,1.44-.07,1.83-.76.39-1.61.68-2.56.88-.95.2-3.72,1.2-8.31,3,.39,1.42.63,3.52.73,6.3,1.46-.59,2.98-1.12,4.54-1.61,1.56-.49,2.77-.21,3.63.84.85,1.05.82,2-.11,2.86-.93.85-1.56,1.01-1.9.48-.34-.54-2.32-.12-5.93,1.25-.1,2.44-.34,4.42-.73,5.93,4.83-1.03,9.9-1.85,15.2-2.49,5.3-.63,9.4-.78,12.3-.44,2.9.34,4.7.9,5.38,1.68.68.78.67,1.4-.04,1.87-.71.46-1.54.59-2.49.37s-4.04-.27-9.27-.15c-5.23.12-10.35.67-15.38,1.65-5.03.98-9.85,2.15-14.47,3.52-4.61,1.37-8.72,2.87-12.3,4.5-3.59,1.64-5.75,2.14-6.48,1.5-.73-.64-1.25-1.25-1.54-1.83ZM792.27,17.45c-1.66-.19-3.19-.41-4.58-.66-1.39-.24-2.34-1.09-2.86-2.53-.51-1.44.19-1.76,2.12-.95,1.93.81,3.96,1.28,6.08,1.43s3.28.5,3.48,1.06c.19.56.1,1.11-.29,1.65-.39.54-1.04.67-1.94.4-.9-.27-1.57-.4-2.01-.4ZM821.64,21.85c-.54,1.56-.81,3-.81,4.32,2-.83,3.98-1.82,5.93-2.97,1.95-1.15,3.32-1.43,4.1-.84.15-.63.12-2.03-.07-4.17-3.13,1.03-6.18,2.25-9.16,3.66ZM821.94,11.16l-.22,7.03c2.83-2.25,5.83-3.05,9.01-2.42.05-2.49-.04-4.3-.26-5.42-.22-1.12-.44-1.78-.66-1.98-.22-.19-1.05-.27-2.49-.22-1.44.05-3.24,1.05-5.38,3Z"/>
        <path class="cls-2" d="M892.18,28.66c.59.1,1,.27,1.25.51.24.24.39.53.44.84.05.32,0,.64-.15.95-.15.32-.46.94-.95,1.87-.49.93-1.2,2.34-2.12,4.25-.93,1.9-1.73,3.43-2.42,4.58-.68,1.15-1.32,2.06-1.9,2.75-.59.68-1.05,1.2-1.39,1.54v.15c.24,2.1-.07,2.93-.95,2.49s-1.68-1-2.42-1.68c-.73-.68-1.72-1.4-2.97-2.16-1.25-.76-3.65-2.4-7.21-4.94-.05,3.52-.06,8.12-.04,13.81.02,5.69-.09,10.36-.33,14.03-.24,3.66-.73,5.54-1.46,5.64-.73.1-1.56-.44-2.49-1.61-.93-1.17-1.1-2.36-.51-3.55s.95-10.36,1.1-27.5c-2.93,7.47-5.87,12.94-8.83,16.41-2.95,3.47-4.8,4.92-5.53,4.36-.73-.56-1.04-1.25-.92-2.05.12-.81.85-2,2.2-3.59,1.34-1.59,3.03-4.19,5.05-7.8,2.03-3.61,3.55-7.46,4.58-11.54,1.03-4.08,1.75-6.09,2.16-6.04.41.05.74,0,.99-.15.24-.15.35-.77.33-1.87-.03-1.1-.01-2.6.04-4.5-4.54,2.54-8.16,4.3-10.84,5.27-2.69.98-4.6,1.25-5.75.81-1.15-.44-1.23-1.27-.26-2.49,5.52-1.9,11.13-4.32,16.85-7.25-.05-3.08-.5-5.26-1.35-6.56-.85-1.29-.94-2.16-.26-2.6.68-.44,1.49-.3,2.42.4.93.71,1.51,1.67,1.76,2.89.24,1.22.46,2.59.66,4.1,3.17-1.66,5.28-2.62,6.34-2.89,1.05-.27,1.92.1,2.6,1.1.68,1,.35,1.88-.99,2.64-1.34.76-2.8,1.37-4.36,1.83-1.56.46-2.64.89-3.22,1.28,0,2.25-.04,4.28-.11,6.12s-.01,4.48.18,7.95c4.2,3.13,7.69,5.49,10.47,7.1.73-.93,1.5-2,2.31-3.22.81-1.22,1.57-2.48,2.31-3.77.73-1.29,1.33-2.48,1.79-3.55.46-1.07.82-1.87,1.06-2.38.24-.51.51-.93.81-1.25.29-.32.62-.52.99-.62.37-.1.72-.12,1.06-.07ZM879.21,27.27c-1.42-.78-1.87-1.32-1.35-1.61s2.76-1.03,6.74-2.2c3.98-1.17,8.94-2.47,14.87-3.88,5.93-1.42,9.59-2.28,10.99-2.6,1.39-.32,2.45-.24,3.19.22.73.46,1.25.95,1.54,1.46s-.29,1.05-1.76,1.61c-1.46.56-3.99,1.06-7.58,1.5s-7.43,1.37-11.54,2.78c-4.1,1.42-7.15,2.42-9.16,3-2,.59-3.98.49-5.93-.29ZM909.61,35.98c.29.78.39,1.42.29,1.9-.1.49-.31.96-.62,1.43-.32.46-2.55,3.65-6.7,9.56,4.78,4.88,8.13,8.2,10.03,9.96s3.61,3.26,5.13,4.5c1.51,1.25,2.37,2.05,2.56,2.42.19.37.29.66.29.88s-.07.39-.22.51c-.15.12-.38.2-.7.22-.32.03-.84-.06-1.57-.26-.73-.19-1.4-.5-2.01-.92-.61-.41-2.21-1.75-4.8-3.99-2.59-2.25-4.83-4.25-6.74-6.01s-3.35-3.1-4.32-4.03c-3.42,4.88-5.8,8.14-7.14,9.78-1.34,1.64-2.55,3-3.63,4.1-1.07,1.1-1.9,1.84-2.49,2.23-.59.39-1.11.63-1.57.73-.46.1-.88.05-1.25-.15s-.67-.43-.92-.7c-.24-.27-.39-.55-.44-.84-.05-.29-.01-.56.11-.81.12-.24.84-1.06,2.16-2.45s2.81-3.09,4.47-5.09c1.66-2,3.12-3.83,4.39-5.49,1.27-1.66,2.37-3.12,3.3-4.39-.78-.83-1.48-1.56-2.09-2.2-.61-.63-1.28-1.23-2.01-1.79-.73-.56-1.39-1.09-1.98-1.57-.59-.49-1-1.03-1.25-1.61-.24-.59-.37-1.17-.37-1.76.44-.24.87-.35,1.28-.33.41.03,1.01.17,1.79.44.78.27,1.51.65,2.2,1.14.68.49,2.25,1.93,4.69,4.32.39-.54,1.26-1.82,2.6-3.85,1.34-2.03,2.31-3.38,2.89-4.06.59-.68,1.11-1.22,1.57-1.61.46-.39.87-.65,1.21-.77.34-.12.95.06,1.83.55ZM895.62,11.59c2.29.49,3.5,1.05,3.63,1.68.12.64.15,1.16.07,1.57-.07.42-.89.46-2.45.15-1.56-.32-3.04-.54-4.43-.66-1.39-.12-2.45-.5-3.19-1.14-.73-.63-.56-1.22.51-1.76,1.07-.54,3.03-.49,5.86.15ZM904.26,27.93c.68-.05,1.66.15,2.93.59,1.27.44,2.27.94,3,1.5.73.56,1.65,1.33,2.75,2.31,1.1.98,2.33,2.22,3.7,3.74,1.37,1.51,2.11,2.75,2.23,3.7.12.95-.14,1.7-.77,2.23-.64.54-1.29.61-1.98.22-.68-.39-1.2-1.15-1.54-2.27-.34-1.12-.93-2.12-1.76-3-.83-.88-1.67-1.6-2.53-2.16-.85-.56-1.72-1.17-2.6-1.83s-1.65-1.34-2.31-2.05c-.66-.71-1.09-1.32-1.28-1.83-.2-.51-.15-.89.15-1.14Z"/>
        <path class="cls-2" d="M946.67,57.81c-2.88,1.66-5.26,2.39-7.14,2.2-1.88-.19-3.17-1.05-3.88-2.56-.71-1.51-.9-3.59-.59-6.23.32-2.64.89-5.05,1.72-7.25,5.27-10.5,13.35-17.92,24.24-22.27.1-1.32.61-2.03,1.54-2.12.93-.1,1.56.37,1.9,1.39,5.71-.29,9.97.32,12.78,1.83,2.81,1.51,4.86,3.75,6.15,6.7,1.29,2.95,1.62,5.86.99,8.72-.64,2.86-1.7,5.84-3.19,8.94-1.49,3.1-3.58,7.85-6.26,14.25-.54,1.9-1.12,2.89-1.76,2.97-.64.07-1.18.05-1.65-.07-.46-.12-.45-1.14.04-3.04,2.93-8.06,5.44-14.09,7.54-18.09,2.1-4,2.82-7.59,2.16-10.77-.66-3.17-2.53-5.46-5.6-6.85s-6.69-1.67-10.84-.84c-1.03,1.76-2.33,4.92-3.92,9.48-1.59,4.57-4.63,10.83-9.12,18.79-1.9,2.34-3.61,3.96-5.13,4.83ZM939.56,46.68c-1.66,4.25-1.68,7.45-.07,9.59,1.9,0,3.65-.52,5.24-1.57,1.59-1.05,3.09-2.48,4.5-4.28,4.44-7.81,7.93-15.77,10.47-23.88-4.69,2.2-9.06,5.35-13.11,9.45-2.74,3.17-5.08,6.74-7.03,10.69Z"/>
        <path class="cls-2" d="M1010.68,16.43c-.34-.15-.51-.34-.51-.59s.13-.51.4-.81c.27-.29.73-.57,1.39-.84.66-.27,3.28-.95,7.87-2.05,4.59-1.1,8.78-2.01,12.56-2.75,3.78-.73,6.67-1.23,8.64-1.5,1.98-.27,3.61-.45,4.91-.55,1.29-.1,2.26-.12,2.89-.07.63.05,1.1.2,1.39.44.29.24.41.55.37.92-.05.37-.22.71-.51,1.03-.29.32-.72.55-1.28.7-.56.15-1.82.34-3.77.59-1.95.24-5.74.93-11.35,2.05.15.98.15,2.15,0,3.52-.15,1.37-.24,2.42-.29,3.15,4.35-.83,8.37-1.2,12.08-1.1.63.15,2.34.66,5.13,1.54s3.47,2.83,2.05,5.86c-1.42,3.03-4.08,7.28-7.98,12.74.54.29.67.73.4,1.32-.27.59-.98.87-2.12.84-1.15-.02-2.12.07-2.93.29s-2.71.67-5.71,1.35c-3,.68-4.92,1.12-5.75,1.32-1.51,5.13-3.05,9.52-4.61,13.18,3.12,1.76,5.8,3.22,8.02,4.39,2.22,1.17,4.38,2.19,6.48,3.04,2.1.85,4.53,1.68,7.29,2.49,2.76.81,5.87,1.57,9.34,2.31,3.47.73,5.37,1.27,5.71,1.61s.51.62.51.84-.17.4-.51.55c-.34.15-.89.23-1.65.26-.76.02-1.72-.03-2.89-.15-1.17-.12-2.58-.33-4.21-.62-1.64-.29-3.37-.66-5.2-1.1s-3.63-.94-5.38-1.5-3.47-1.18-5.13-1.87c-1.66-.68-4-1.76-7.03-3.22-3.03-1.46-5.35-2.64-6.96-3.52-4.39,8.11-7.2,12.8-8.42,14.1-1.22,1.29-2.2,1.75-2.93,1.35-.73-.39-.93-1.32-.59-2.78,3.12-5.18,5.83-10.11,8.13-14.79-.98-.49-2.01-.93-3.11-1.32-1.1-.39-1.97-.68-2.6-.88-.64-.19-1.15-.39-1.54-.59-.39-.19-.64-.38-.73-.55-.1-.17,0-.5.29-.99,1.03-.39,1.94-.62,2.75-.7s1.7.01,2.67.26c.98.24,1.79.5,2.45.77.66.27,1.14.48,1.43.62,1.66-3.61,3.03-7.03,4.1-10.25-1.22.24-2.33.46-3.33.66-1,.2-1.9.1-2.71-.29-.81-.39-1.28-.68-1.43-.88.1,2-.1,3.1-.59,3.3-.49.2-.98.15-1.46-.15-.49-.29-1.12-2.98-1.9-8.06-.78-5.08-2.15-11.21-4.1-18.38.68-2.29,1.54-2.62,2.56-.99,1.03,1.64,1.83,3.75,2.42,6.34.59,2.59,1.07,4.86,1.46,6.81,1.07-.29,2.94-.72,5.6-1.28,2.66-.56,4.97-1.01,6.92-1.35.44-2.39.81-4.49,1.1-6.3-4.25.83-7.3,1.46-9.16,1.9-1.86.44-3,.55-3.44.33s-.79-.67-1.06-1.35c-.27-.68.17-1.23,1.32-1.65,1.15-.41,2.77-.85,4.87-1.32,2.1-.46,4.81-1.01,8.13-1.65.29-2,.44-3.42.44-4.25v-2.42c-2.59.59-5.47,1.28-8.64,2.09-3.17.81-5.26,1.25-6.26,1.32-1,.07-1.87.03-2.6-.15-.73-.17-1.29-.38-1.68-.62ZM1025.48,40.89c.54-2,1.05-4.22,1.54-6.67-1.12.24-2.86.62-5.2,1.14s-3.86.79-4.54.84c-.68.05-1.22.05-1.61,0,.19,1.22.39,2.48.59,3.77.19,1.29.34,2.41.44,3.33.1-.15.44-.38,1.03-.7.59-.32,3.17-.89,7.76-1.72ZM1031.41,33.35c-.59,2.39-1.17,4.66-1.76,6.81,3.27-.63,5.41-1.11,6.41-1.43,1-.32,2.01-.57,3.04-.77,1.03-.19,2-.83,2.93-1.9.93-1.07,2.15-2.73,3.66-4.98-.39.05-1.15.12-2.27.22-1.12.1-3.08.39-5.86.88-2.78.49-4.83.88-6.15,1.17ZM1033.02,23.39c-.2,1.86-.44,3.96-.73,6.3,3.96-.68,6.81-1.12,8.57-1.32,1.76-.19,3.2-.32,4.32-.37,1.12-.05,1.98-.05,2.56,0,1.56-2.34,2.39-3.69,2.49-4.03.1-.34-.73-.77-2.49-1.28s-3.66-.71-5.71-.59c-2.05.12-5.05.55-9.01,1.28Z"/>
        <path class="cls-2" d="M1087,66.38c-2.54-1.12-4.08-6.74-4.61-16.85.24-6.25.52-11.14.84-14.69.32-3.54.62-6.05.92-7.54.29-1.49.63-3.25,1.03-5.27.39-2.03,1-3.89,1.83-5.6,2.05.29,2.64,1.46,1.76,3.52-.24,1.37-.51,2.86-.81,4.47-2.15,12.74-2.84,22.18-2.09,28.31.76,6.13,1.34,9,1.76,8.61.41-.39,1.03-1.34,1.83-2.86.81-1.51,1.67-2.51,2.6-3,.93-.49,1.49-.45,1.68.11.19.56-.39,2.09-1.76,4.58-1.46,2.93-2.17,4.76-2.12,5.49.05.73-.17,1.23-.66,1.5-.49.27-1.22.01-2.2-.77ZM1104.36,29.1c.59-1.71,1.7-3.11,3.33-4.21,1.64-1.1,3.27-2.16,4.91-3.19,1.64-1.03,3.48-1.98,5.53-2.86s4.37-1.27,6.96-1.17c.63.64.95,1.34.95,2.12s-.54,1.32-1.61,1.61c-.78-.54-1.78-.61-3-.22-1.22.39-2.8,1.05-4.72,1.98-1.93.93-5.09,3.59-9.48,7.98-1.9.49-2.86-.19-2.86-2.05ZM1135.85,67.26c-8.69-2.44-16.09-6.71-22.19-12.82.39-1.17,1.15-1.39,2.27-.66.44.24,2.28,1.5,5.53,3.77,3.25,2.27,8.41,4.94,15.49,8.02.59,1.27.22,1.83-1.1,1.68Z"/>
        <path class="cls-2" d="M1177.45,11.59c.88-.1,1.57-.07,2.09.07s.96.38,1.35.7c.39.32.87.85,1.43,1.61.56.76.96,1.59,1.21,2.49.24.9.41,1.71.51,2.42.1.71.13,1.87.11,3.48-.03,1.61.08,6.57.33,14.87,2.25-1.27,4.19-2.27,5.82-3,1.64-.73,2.87-1.23,3.7-1.5.83-.27,1.53-.45,2.09-.55.56-.1,1.03-.12,1.39-.07.37.05.66.21.88.48.22.27.35.61.4,1.03.05.42.04.81-.04,1.17s-.25.65-.51.84c-.27.2-.83.42-1.68.66-.85.24-2.23.83-4.14,1.76-1.9.93-3.53,1.79-4.87,2.6-1.34.81-2.28,1.35-2.82,1.65.19,7.03.27,11.22.22,12.56-.05,1.34-.11,2.41-.18,3.19-.07.78-.14,1.29-.18,1.54.93-.15,2.14-.33,3.63-.55,1.49-.22,3.37-.45,5.64-.7,2.27-.24,4.48-.43,6.63-.55,2.15-.12,4.04-.12,5.68,0,1.64.12,2.83.26,3.59.4.76.15,1.42.35,1.98.62.56.27,1,.51,1.32.73.32.22.59.56.81,1.03.22.46.21.88-.04,1.25-.25.37-.57.62-.99.77-.42.15-1.31.15-2.67,0-1.37-.15-2.99-.24-4.87-.29-1.88-.05-4-.04-6.37.04-2.37.07-4.71.24-7.03.51-2.32.27-4.21.56-5.68.88-1.46.32-2.52.57-3.15.77-.1.1-.22.15-.37.15h-.44c-1.32.34-2.86.77-4.61,1.28s-3.65,1.1-5.68,1.76c-2.03.66-4.42,1.53-7.18,2.6-2.76,1.07-4.48,1.68-5.16,1.83-.68.15-1.22.16-1.61.04-.39-.12-.73-.38-1.03-.77-.73-.88-.96-1.48-.7-1.79.27-.32.73-.66,1.39-1.03s1.53-.77,2.6-1.21c1.07-.44,3.5-1.35,7.29-2.75,3.78-1.39,6.43-2.32,7.95-2.78,1.51-.46,2.83-.84,3.96-1.14,0-.54.08-1.32.26-2.34.17-1.03.28-1.98.33-2.86.05-.88.07-3,.07-6.37s-.06-8.01-.18-13.92c-.12-5.91-.32-10.42-.59-13.55-.27-3.12-.46-4.89-.59-5.31-.12-.41-.45-1.03-.99-1.83-.54-.81-.82-1.37-.84-1.68-.03-.32.16-.72.55-1.21Z"/>
        <path class="cls-2" d="M1276.18,60.59c1.07-.49,1.89-.62,2.45-.4.56.22.84.92.84,2.09v.81c-4.35,3.66-9.28,6.81-14.79,9.45-4.1,1.61-8.2,2.42-12.3,2.42-4.54.39-7.57-.04-9.08-1.28-1.51-1.25-2.34-3.08-2.49-5.49s.93-5.44,3.22-9.08c2.29-3.64,4.88-7.09,7.76-10.36,2.88-3.27,5.81-6.54,8.79-9.81-1.61-2.49-3.78-4.13-6.52-4.91-1.9-.59-3.83-.59-5.79,0-.54.54-.94,1.28-1.21,2.23-.27.95-.82,1.57-1.65,1.87-1.07-.29-1.68-.99-1.83-2.09s.06-2.05.62-2.86c.56-.81,1.1-1.55,1.61-2.23.51-.68,1.33-2.18,2.45-4.5,1.12-2.32,1.89-3.97,2.31-4.94.41-.98.74-1.98.99-3-2.74,1.03-5.32,1.83-7.76,2.42-1.32-.19-2.1-.76-2.34-1.68.19-.78.56-1.17,1.1-1.17s1.83-.4,3.88-1.21,4.32-1.55,6.81-2.23c.78-2.34,1.59-4.47,2.42-6.37,1.42,0,2.1.83,2.05,2.49l-.66,3.15c3.76-1.07,7.15-2.05,10.18-2.93.98-.24,1.66-.1,2.05.44.39.54.51,1.07.37,1.61-4.64,1.71-9.13,3.08-13.48,4.1-1.42,3.91-2.67,6.87-3.77,8.9-1.1,2.03-1.92,3.72-2.45,5.09,5.32-.34,9.55,1.64,12.67,5.93,1.9-2.83,4.22-5.49,6.96-7.98.59-.24,1.07-.23,1.46.04.39.27.88.67,1.46,1.21-.59.29-1,.71-1.25,1.25-2.49,2.74-4.81,5.62-6.96,8.64,1.81,5.71,2.88,11.57,3.22,17.58-1.07.64-1.88.51-2.42-.37-.93-4.39-2.05-9.23-3.37-14.5-7.62,7.47-13.33,14.48-17.14,21.02-1.42,2.88-.98,5.35,1.32,7.4,11.43,1.9,21.51-1.66,30.25-10.69Z"/>
        <path class="cls-2" d="M1346.06,62.28c-1.07.73-5.37,2.26-12.89,4.58-7.52,2.32-11.98,4.19-13.37,5.6-1.39,1.42-2.44,1.68-3.15.81-.71-.88-1.06-1.64-1.06-2.27s.51-1.23,1.54-1.79,2.51-1.18,4.47-1.87c-2.34-2.34-3.33-4.72-2.97-7.14s.84-6.67,1.43-12.74.48-11.55-.33-16.41c-.81-4.86-2.06-7.76-3.77-8.72-1.71-.95-2.56-1.62-2.56-2.01s.63-.61,1.9-.66c1.27-.05,2.64.54,4.1,1.76,1.46,1.22,2.64,2.88,3.52,4.98.88,2.1,1.07,5.76.59,10.99,7.96-3.32,17.41-5.71,28.34-7.18.15-5.42.21-9.34.18-11.76-.03-2.42-.5-3.85-1.43-4.28-.93-.44-3.54-.49-7.84-.15-4.3.34-7.51,1.05-9.63,2.12-2.12,1.07-3.53,1.73-4.21,1.98-.68.24-1.27-.01-1.76-.77-.49-.76-.55-1.53-.18-2.31.37-.78,1.92-1.56,4.65-2.34,2.73-.78,6.58-1.56,11.54-2.34,4.96-.78,8.13-.66,9.52.37s2.27,4.47,2.64,10.33.67,15.01.92,27.47c.24,12.45.16,19.84-.26,22.16-.42,2.32-1.06,3.33-1.94,3.04s-1.73-.75-2.56-1.35c-.83-.61-1.28-1.4-1.35-2.38-.07-.98.7-1.22,2.31-.73l.22-22.19c-2.2-.63-6.2.24-12.01,2.64-5.81,2.39-11.69,4.93-17.65,7.62l1.1,9.08c14.4-5.71,21.73-7.08,21.97-4.1ZM1324.09,42.21l-.59,9.81c5.96-2.44,11.4-4.6,16.33-6.48,4.93-1.88,9.2-2.16,12.82-.84l-.29-10.84c-11.48,2-20.9,4.79-28.27,8.35Z"/>
        <path class="cls-2" d="M1380.41,29.54c5.08-2.25,10.33-4.78,15.75-7.62-.1-1.42-.2-2.77-.29-4.06-.1-1.29.11-1.99.62-2.09.51-.1,1.03.11,1.54.62s1.06,1.7,1.65,3.55c2.59-1.56,4.27-2.43,5.05-2.6.78-.17,1.42-.02,1.9.44.49.46.45,1.03-.11,1.68-.56.66-1.49,1.31-2.78,1.94-1.29.64-2.55,1.34-3.77,2.12-.49,7.18-.68,13.84-.59,20,2.15-1.95,4.09-3.15,5.82-3.59,1.73-.44,2.49-.24,2.27.59-.22.83-1.15,1.88-2.78,3.15-1.64,1.27-3.41,2.76-5.31,4.47-.39,8.25-.57,14.37-.55,18.35.02,3.98-.23,6.19-.77,6.63-.54.44-1.28.45-2.23.04-.95-.42-2.08-.9-3.37-1.46-1.29-.56-2.2-1.25-2.71-2.05s-.64-1.33-.37-1.57c.27-.24,1.1.03,2.49.81s2.27.95,2.64.51.61-2.14.73-5.09c.12-2.95.21-7.51.26-13.66-3.61,3.22-6.25,5.69-7.91,7.4-1.66,1.71-2.88,2.63-3.66,2.75-.78.12-1.37-.12-1.76-.73-.39-.61.43-2.05,2.45-4.32,2.03-2.27,5.72-5.5,11.1-9.7.29-6.35.54-13.21.73-20.58-4.83,2.49-8.28,4.17-10.33,5.05s-3.61,1.1-4.69.66c-1.07-.44-1.42-.98-1.03-1.61ZM1405.24,48.95c.83-.49,1.68-.73,2.56-.73s2.15.64,3.81,1.9c4.39-2.88,9.39-5.1,14.98-6.67,5.59-1.56,9.28-1.6,11.06-.11,1.78,1.49,2.38,4.43,1.79,8.83s-1.03,7.83-1.32,10.29c-.29,2.47-.73,4.15-1.32,5.05-.59.9-1.51,1.37-2.78,1.39-1.27.02-3.15.48-5.64,1.35s-4.61,1.9-6.37,3.08-3.02,1.68-3.77,1.54c-.76-.15-1.57-.35-2.45-.62-.88-.27-1.35-3.27-1.43-9.01s-1.33-10.17-3.77-13.29c-.59-.68-1.7-1.18-3.33-1.5-1.64-.32-2.31-.82-2.01-1.5ZM1415.05,26.02c.19,4.44.9,7.3,2.12,8.57,1.22,1.27,2.78,1.86,4.69,1.76,1.9-.1,4.56-.39,7.98-.88,3.42-.49,5.24-1.62,5.46-3.41.22-1.78.34-3.82.37-6.12.02-2.29.28-3.32.77-3.08.49.24,1.01.56,1.57.95.56.39.93,1.65,1.1,3.77.17,2.12.17,4.25,0,6.37-.17,2.12-1.76,3.52-4.76,4.17s-5.57,1.05-7.69,1.17c-2.12.12-4.22.06-6.3-.18-2.08-.24-3.69-.78-4.83-1.61-1.15-.83-2.1-2.37-2.86-4.61-.76-2.25-1.14-5.07-1.14-8.46s-.37-5.8-1.1-7.21c-.73-1.42-1.1-2.4-1.1-2.97s.37-.66,1.1-.29,1.77,1.43,3.11,3.19c1.34,1.76,1.84,4.71,1.5,8.86ZM1419.45,50.05c-2.3.88-3.78,1.71-4.47,2.49,1.22,2.1,2.2,4.49,2.93,7.18,5.76-2.2,11.38-4.39,16.85-6.59.44-1.76.6-3.27.48-4.54-.12-1.27-.28-2.22-.48-2.86-.2-.63-.48-.95-.84-.95s-1.64.27-3.81.81c-2.17.54-5.73,2.03-10.66,4.47ZM1425.31,21.63c-2.44,1.86-4.3,2.97-5.57,3.33-1.27.37-1.92.31-1.94-.18-.03-.49,1.34-1.98,4.1-4.47,2.76-2.49,5.28-5.05,7.58-7.69,2.29-2.64,3.72-3.81,4.28-3.52.56.29.99.57,1.28.84.29.27-.37,1.38-1.98,3.33-1.61,1.95-4.2,4.74-7.76,8.35ZM1432.78,64.62l1.68-7.69c-5.27,2.39-10.5,4.49-15.67,6.3-1.07,2.39-1.1,5.05-.07,7.98,4.39-2.39,9.08-4.59,14.06-6.59Z"/>
        <path class="cls-2" d="M1513.12,44.92c1.03-.54,1.76-.19,2.2,1.03-.49,1.71-1.25,3.32-2.27,4.83-1.03,1.51-2.17,2.91-3.44,4.17-7.23,7.96-15.23,12.45-24.02,13.48-3.96,0-7.36-.87-10.22-2.6-2.86-1.73-5.12-4.63-6.77-8.68-1.27-5.32-1.83-10.69-1.68-16.11-2,.83-4.17,1.71-6.52,2.64-2.34.93-4.25.24-5.71-2.05.39-.73.95-1.04,1.68-.92.73.12,1.34.18,1.83.18,2.83-1.27,5.79-2.54,8.86-3.81.83-5.76,1.25-11.62,1.25-17.58,1.03,0,1.81.29,2.34.88.93.49,1.22,1.32.88,2.49.29,3.22.07,7.47-.66,12.74,5.27-2.05,10.25-3.98,14.94-5.79,2.39-1.12,4.59-2.07,6.59-2.86.49-3.86.54-6.75.15-8.68-.39-1.93-.1-2.89.88-2.89s1.67.92,2.09,2.75c.41,1.83.62,3.32.62,4.47v2.53c4.05-1.71,8.06-3.2,12.01-4.47,1.07,0,1.98.59,2.71,1.76v1.1c-5.13,1.61-9.99,3.49-14.58,5.64-.54,3.61-1.1,7.25-1.68,10.91-.39,1.17-1,1.86-1.83,2.05-1.03-.1-1.73-.41-2.12-.95-.39-.54-.44-1.07-.15-1.61.88-2.93,1.39-5.76,1.54-8.5-5.57,2.15-10,3.91-13.29,5.27-3.3,1.37-6.04,2.49-8.24,3.37l-.07,2.27c-.29,6.35.01,10.94.92,13.77.9,2.83,2.88,5.36,5.93,7.58,3.05,2.22,7.41,2.53,13.07.92,9.42-4,17.02-10.45,22.78-19.34Z"/>
        <path class="cls-2" d="M1583.8,66.6c-.88.68-1.92.85-3.11.51-1.2-.34-2.96-.92-5.27-1.72-2.32-.81-4.85-1.53-7.58-2.16-.29,1.56-1.25,2.78-2.86,3.66-5.91,4.1-12.33,6.32-19.26,6.67-2.3.05-4.22-.23-5.79-.84-1.56-.61-2.64-2.09-3.22-4.43-.29-2.49.66-4.27,2.86-5.35,7.67-3.81,16.16-4.76,25.49-2.86.39-1.9.44-3.88.15-5.93s-.35-5.47-.18-10.25c.17-4.78.38-9.47.62-14.06-2.34,1.03-4.61,2.3-6.81,3.81-2.2,1.51-4.39,1.71-6.59.59-.54-.83-.81-1.51-.81-2.05.54-.24,1.07-.37,1.61-.37.29.54,1.39.39,3.3-.44,3.56-1.9,6.84-3.98,9.81-6.23-.29-.59-.07-2.76.66-6.52-4.79-2.93-8.28-4.81-10.47-5.64-2.2-.83-3.48-1.38-3.85-1.65-.37-.27-.37-.54,0-.81.37-.27,1.78-.13,4.25.4,2.46.54,6.02,2.47,10.66,5.79.39-1.66.68-2.64.88-2.93.54-.54,1.21-.65,2.01-.33.81.32,1.21.99,1.21,2.01-.68,1.46-.88,2.54-.59,3.22.68,1.07,1.16,1.88,1.43,2.42.27.54.34,1.04.22,1.5-.12.46-.67,1.79-1.65,3.99-1.76,4.69-2.66,9.62-2.71,14.79-.05,5.18.01,9.24.18,12.19.17,2.95.13,5.38-.11,7.29,4.64,1.66,9.55,3.3,14.72,4.91.29.29.56.56.81.81ZM1558.83,66.89c2.64-1.61,4.39-3.12,5.27-4.54-9.28-1.81-17.33-.24-24.17,4.69-.93.64-.78,1.59.44,2.86,6.69,1.46,12.84.46,18.46-3Z"/>
        <path class="cls-2" d="M1616.47,28.22c-.83,0-1.45-.27-1.87-.81-.42-.54-.62-1.1-.62-1.68,13.08-4.83,26.15-9.81,39.18-14.94.93.05,1.61.2,2.05.44.44.24.71.76.81,1.54-2.93,1.61-6.06,2.98-9.38,4.1.05,1.07.05,2.27,0,3.59-.54,4.88,0,9.77,1.61,14.65-.54,4.39-1.07,8.77-1.61,13.11-.83,6.49-2.2,13.01-4.1,19.56-.64,2.49-1.44,4.25-2.42,5.27-.83-.29-1.32-.71-1.46-1.25-.15-.54-.22-.93-.22-1.17,3.27-10.59,5.32-21.34,6.15-32.23-1.71,8.35-4.42,15.55-8.13,21.61-.59.54-1.35.99-2.31,1.35s-1.93.4-2.93.11c-1-.29-1.94-1.05-2.82-2.27-2.44-3.91-2.34-9.74.29-17.5,2.49-5.66,5.47-10.42,8.94-14.28,1.37-1.66,3.17-1.93,5.42-.81.49-2.73.85-5.69,1.1-8.86-1.22.2-4.24,1.25-9.05,3.15-4.81,1.9-11.02,4.35-18.64,7.32ZM1638.15,49.83c1.85-6.79,3.39-13.57,4.61-20.36-.54-.59-1.42-.46-2.64.37-4.83,5.08-8.33,11.33-10.47,18.75-.59,3.76-.66,6.34-.22,7.73s1.1,2.22,1.98,2.49c.88.27,1.85-.13,2.93-1.21,1.07-1.07,2.34-3.66,3.81-7.76Z"/>
        <path class="cls-2" d="M1685.4,72.82l-1.12-3.38,1.72-2.17h1.05l1.65.82.52,2.47-1.35,3.07-.82.3-1.65-1.12ZM1688.4,53.02c.98-3.15,1.88-6.37,2.77-9.75.9-3.22,1.58-6.6,1.95-9.9l-.3-.82c.75-3.15,1.27-6.37,1.65-9.52s1.43-6,3.23-8.55l1.42-.23,1.58.82.3,6.07-.52,2.25-.83.52c-1.27,4.8-2.47,9.75-3.52,14.7-1.12,5.02-2.7,9.82-4.73,14.4l-.82.3c-.15,1.12-.6,2.1-1.35,2.77-.75-.68-1.05-1.72-.83-3.07Z"/>
      </g>
    </g>
  </g>
</svg>