<?xml version="1.0" encoding="UTF-8"?>
<svg id="_レイヤー_2" data-name="レイヤー_2" xmlns="http://www.w3.org/2000/svg" width="552.32" height="80.95" viewBox="0 0 552.32 80.95">
  <defs>
    <style>
      .cls-1 {
        fill: #e3542b;
      }

      .cls-2 {
        fill: #5c3d39;
      }
    </style>
  </defs>
  <g id="_レイヤー_1-2" data-name="レイヤー_1">
    <g>
      <path class="cls-2" d="M95.28,48.71h-7.16v-17.19h3.58c1.98,0,3.58-1.6,3.58-3.58s-1.6-3.58-3.58-3.58h-43.7v-10.03h35.81s0,0,0,0h10.03c.79,0,1.43-.64,1.43-1.43V1.43c0-.79-.64-1.43-1.43-1.43h-10.03c-.79,0-1.43.64-1.43,1.43v5.73h-35.81s0,0,0,0h-10.03c-.79,0-1.43.64-1.43,1.43v40.12h-7.16c-1.98,0-3.58,1.6-3.58,3.58s1.6,3.58,3.58,3.58h67.34c1.98,0,3.58-1.6,3.58-3.58s-1.6-3.58-3.58-3.58ZM48,31.52h27.22v17.19h-27.22v-17.19Z"/>
      <path class="cls-2" d="M18.63,42.27h-10.03c-.79,0-1.43.64-1.43,1.43v25.02l-6.11,6.11c-1.4,1.4-1.4,3.67,0,5.06.7.7,1.62,1.05,2.53,1.05s1.83-.35,2.53-1.05l12.18-12.18s.06-.1.09-.14l.66-.66c.56-.56,1.01-1.66,1.01-2.45v-20.77c0-.79-.64-1.43-1.43-1.43Z"/>
      <path class="cls-2" d="M50.86,60.89h-10.03c-.79,0-1.73.57-2.09,1.27l-5.66,10.91h-5.15c-1.98,0-3.58,1.6-3.58,3.58s1.6,3.58,3.58,3.58h2.86s0,0,0,0h10.03c.79,0,1.73-.57,2.09-1.27l8.71-16.8c.36-.7.01-1.27-.77-1.27Z"/>
      <path class="cls-2" d="M84.47,62.16c-.36-.7-1.3-1.27-2.09-1.27h-10.03s0,0,0,0h-2.86c-1.98,0-3.58,1.6-3.58,3.58s1.6,3.58,3.58,3.58h5.15l5.66,10.91c.36.7,1.3,1.27,2.09,1.27h10.03c.79,0,1.14-.57.77-1.27l-8.71-16.8Z"/>
      <path class="cls-2" d="M552.13,44.69c.11-.34.19-.69.19-.99V6.45c0-.79-.64-1.43-1.43-1.43h-12.89s0,0,0,0h-35.82s0,0,0,0h-12.89c-.79,0-1.43.64-1.43,1.43v29.32l-5.4,5.4c-1.4,1.4-1.4,3.66,0,5.06.7.7,1.62,1.05,2.53,1.05s1.83-.35,2.53-1.05l15.04-15.04c.08-.08.11-.18.18-.27.14-.16.26-.35.37-.56.13-.23.23-.47.31-.72.11-.34.19-.69.19-.98V12.18h32.95v38.63l-24.02,24.02c-1.4,1.4-1.4,3.67,0,5.06.7.7,1.62,1.05,2.53,1.05s1.83-.35,2.53-1.05l33.67-33.67c.07-.07.1-.17.17-.25.14-.17.27-.37.39-.59.13-.23.23-.45.3-.7Z"/>
      <g>
        <path class="cls-2" d="M259.32,12.18h65.91c1.98,0,3.58-1.6,3.58-3.58s-1.6-3.58-3.58-3.58h-65.91c-1.98,0-3.58,1.6-3.58,3.58s1.6,3.58,3.58,3.58Z"/>
        <path class="cls-2" d="M329.53,27.22h-74.5c-1.98,0-3.58,1.6-3.58,3.58s1.6,3.58,3.58,3.58h32.95v22.16l-18.29,18.29c-1.4,1.4-1.4,3.67,0,5.06.7.7,1.62,1.05,2.53,1.05s1.83-.35,2.53-1.05l27.94-27.94c.09-.09.12-.2.19-.29.13-.16.24-.33.35-.53.14-.24.24-.49.32-.75.11-.33.18-.66.18-.95,0,0,0-.01,0-.02v-15.04h25.79c1.98,0,3.58-1.6,3.58-3.58s-1.6-3.58-3.58-3.58Z"/>
      </g>
      <path class="cls-2" d="M450.26,74.84l-30.06-30.06,19.32-19.32c.08-.08.12-.2.19-.29.13-.16.25-.33.35-.53.13-.24.24-.48.32-.74.11-.33.18-.67.19-.96,0,0,0,0,0-.01V6.45c0-.79-.64-1.43-1.43-1.43h-12.89s0,0,0,0h-43.7c-1.98,0-3.58,1.6-3.58,3.58s1.6,3.58,3.58,3.58h42.27v17.86l-44.8,44.8c-1.4,1.4-1.4,3.67,0,5.06.7.7,1.62,1.05,2.53,1.05s1.83-.35,2.53-1.05l30.06-30.06,30.06,30.06c.7.7,1.62,1.05,2.53,1.05s1.83-.35,2.53-1.05c1.4-1.4,1.4-3.66,0-5.06Z"/>
      <g>
        <path class="cls-2" d="M219.92,59.46h-10.03c-.79,0-1.43.64-1.43,1.43v12.18h-13.75l13.84-28.8c.34-.71-.02-1.29-.81-1.29h-10.03c-.79,0-1.71.58-2.05,1.29l-16.67,34.67c-.34.71.02,1.29.81,1.29h10.03s20.06,0,20.06,0c0,0,0,0,0,0h10.03c.79,0,1.43-.64,1.43-1.43v-17.91c0-.79-.64-1.43-1.43-1.43Z"/>
        <path class="cls-2" d="M170.49,15.76h-5.73V2.87c0-.79-.65-1.43-1.43-1.43h-10.03c-.79,0-1.43.64-1.43,1.43v12.89h-21.49c-1.98,0-3.58,1.6-3.58,3.58s1.6,3.58,3.58,3.58h21.49v55.88c0,.79.64,1.43,1.43,1.43h10.03c.79,0,1.43-.64,1.43-1.43V22.92h5.73c1.98,0,3.58-1.6,3.58-3.58s-1.6-3.58-3.58-3.58Z"/>
        <path class="cls-2" d="M192.37,31.9s.06-.1.1-.15l.66-.66c.56-.56,1.01-1.66,1.01-2.45v-11.46c0-.79-.64-1.43-1.43-1.43h-10.03c-.79,0-1.43.64-1.43,1.43v15.71l-5.4,5.4c-1.4,1.4-1.4,3.67,0,5.06.7.7,1.62,1.05,2.53,1.05s1.83-.35,2.53-1.05l11.46-11.46Z"/>
        <path class="cls-2" d="M143.99,33.67h-10.03c-.79,0-1.43.64-1.43,1.43v33.62l-6.11,6.11c-1.4,1.4-1.4,3.67,0,5.06.7.7,1.62,1.05,2.53,1.05s1.83-.35,2.53-1.05l12.18-12.18s.06-.1.1-.14l.66-.66c.56-.56,1.01-1.66,1.01-2.45v-29.37c0-.79-.65-1.43-1.43-1.43Z"/>
        <path class="cls-2" d="M223.17,38.3l-5.4-5.4V2.87c0-.79-.65-1.43-1.43-1.43h-10.03s0,0,0,0h-21.49c-1.98,0-3.58,1.6-3.58,3.58s1.6,3.58,3.58,3.58h20.06v20.06c0,.79.46,1.89,1.01,2.45l.66.66s.05.1.1.14l11.46,11.46c.7.7,1.62,1.05,2.53,1.05s1.83-.35,2.53-1.05c1.4-1.4,1.4-3.66,0-5.06Z"/>
      </g>
      <circle class="cls-1" cx="175.51" cy="58.03" r="7.16"/>
      <circle class="cls-1" cx="345.29" cy="7.88" r="7.16"/>
      <circle class="cls-1" cx="345.29" cy="27.22" r="7.16"/>
      <circle class="cls-1" cx="13.61" cy="7.88" r="7.16"/>
      <circle class="cls-1" cx="13.61" cy="27.22" r="7.16"/>
    </g>
  </g>
</svg>