<?xml version="1.0" encoding="UTF-8"?>
<svg id="_レイヤー_2" data-name="レイヤー 2" xmlns="http://www.w3.org/2000/svg" width="564.09" height="69.37" viewBox="0 0 564.09 69.37">
  <defs>
    <style>
      .cls-1 {
        fill: #e3542b;
        stroke: #e3542b;
        stroke-miterlimit: 10;
        stroke-width: .75px;
      }
    </style>
  </defs>
  <g id="_レイヤー_1-2" data-name="レイヤー 1">
    <g>
      <path class="cls-1" d="M10.59,31.4c-.43.01-.75-.12-.97-.39-.22-.27-.34-.56-.35-.86,6.67-2.69,13.32-5.45,19.96-8.29.48.01.83.08,1.06.2.23.12.38.38.44.78-1.48.87-3.07,1.63-4.77,2.26.04.55.06,1.17.05,1.85-.2,2.52.15,5.03,1.05,7.52-.21,2.27-.42,4.53-.63,6.78-.33,3.36-.93,6.74-1.82,10.14-.29,1.29-.68,2.21-1.17,2.75-.43-.14-.69-.35-.77-.62-.08-.27-.13-.48-.13-.6,1.52-5.51,2.42-11.07,2.68-16.7-.75,4.33-2.04,8.08-3.86,11.26-.29.29-.68.53-1.17.73-.49.2-.99.24-1.51.1-.52-.14-1.02-.51-1.49-1.13-1.32-1.98-1.36-4.98-.12-9.02,1.2-2.96,2.66-5.46,4.39-7.5.68-.88,1.61-1.04,2.78-.5.21-1.42.35-2.94.43-4.58-.63.12-2.16.71-4.61,1.76-2.45,1.05-5.61,2.41-9.49,4.06ZM22.09,42.2c.85-3.52,1.54-7.04,2.07-10.56-.29-.29-.74-.22-1.35.23-2.41,2.69-4.12,5.96-5.11,9.82-.24,1.95-.24,3.27,0,3.98.25.71.6,1.13,1.06,1.25.46.12.95-.1,1.49-.67.54-.57,1.15-1.92,1.84-4.06Z"/>
      <path class="cls-1" d="M46.33,39.37c-1.07.31-1.79-.02-2.14-.99,2.15-1.47,4.03-3.39,5.65-5.76.82-1.23,1.54-2.11,2.15-2.63,1.78-1.14,3.5-1.07,5.16.19,1.66,1.26,3.29,2.48,4.89,3.67,4.1,3.35,8.11,6.96,12.03,10.82-.56.55-1.3.47-2.2-.24-5.13-4.73-10.3-9.16-15.54-13.29-1.13-.6-2.09-.57-2.89.07-.8.64-1.7,1.62-2.69,2.95-.99,1.33-2.47,3.06-4.42,5.21ZM59.18,22.79c1.27.44,2.07,1.29,2.4,2.55.33,1.26.71,2.45,1.14,3.57-.19.41-.39.61-.59.6-.2,0-.43-.09-.69-.26-.47-.56-.78-1.13-.94-1.69-.16-.56-.31-1.03-.48-1.4-.29-.57-.59-1.13-.9-1.69-.31-.56-.29-1.12.04-1.68ZM62.65,22.8c.3-.19.62-.21.98-.09.36.13.63.43.82.9.17.52.4,1.11.69,1.76.3.65.31,1.38.03,2.19-.3,0-.5-.02-.59-.08-.09-.06-.19-.19-.29-.39-.92-1.41-1.47-2.84-1.64-4.29Z"/>
      <path class="cls-1" d="M108.21,20.62c-3.39,4.46-5.85,9.45-7.38,14.99-.74,4.78.16,8.85,2.7,12.2,1.02,1.38,2.46,2.39,4.32,3.04-.03.78-.37.99-1.04.64-3.53-1.1-6-3.56-7.39-7.37-.82-3.9-.8-7.32.08-10.24.87-2.92,1.68-5.06,2.44-6.42.75-1.36,1.3-2.35,1.63-2.99.33-.64.7-1.32,1.11-2.04-5.24,2.4-10.39,4.51-15.45,6.35-1.13.23-1.88.14-2.26-.27-.38-.42-.53-.75-.44-.99.08-.24.44-.33,1.07-.28.63.06,1.58-.15,2.85-.61,5.43-2.1,10.85-4.44,16.26-7.01.44-.29.8-.31,1.07-.05.27.26.41.61.43,1.06Z"/>
      <path class="cls-1" d="M141.39,18.38c.34.21.54.42.6.61.06.19.07.42.02.67-.05.25-.49,2.09-1.34,5.5-.84,3.42-1.43,5.64-1.74,6.66-.32,1.03-.63,1.88-.95,2.57-.31.69-.54,1.14-.69,1.35-.15.21-.27.38-.38.49.65.43.93.75.82.98-.1.23-.24.4-.4.51-.16.12-.92-.17-2.26-.87-1.34-.7-3.05-1.74-5.12-3.12.03,2,.1,4.62.21,7.85.11,3.24.13,5.9.05,7.99-.08,2.09-.32,3.16-.74,3.23-.41.07-.9-.22-1.44-.87-.55-.65-.66-1.32-.35-2.01.31-.69.37-5.91.16-15.67-1.54,4.3-3.12,7.46-4.75,9.48-1.62,2.02-2.65,2.88-3.07,2.57-.43-.31-.61-.69-.56-1.15.06-.46.45-1.15,1.19-2.08.74-.92,1.65-2.43,2.74-4.52,1.09-2.09,1.9-4.3,2.41-6.64.51-2.34.89-3.49,1.13-3.47.24.02.42-.01.56-.1.14-.09.19-.44.16-1.07-.03-.62-.05-1.48-.05-2.56-2.54,1.52-4.57,2.58-6.08,3.18-1.51.6-2.6.79-3.26.56-.66-.23-.72-.7-.19-1.41,3.11-1.18,6.26-2.65,9.46-4.41-.08-1.75-.37-2.99-.88-3.71-.51-.72-.57-1.21-.19-1.48.38-.26.84-.2,1.38.19.54.39.89.93,1.05,1.62.16.69.31,1.46.44,2.32,1.78-1,2.96-1.58,3.56-1.75.59-.17,1.09.02,1.5.58.41.56.23,1.06-.52,1.52-.75.45-1.57.82-2.45,1.11-.88.29-1.49.55-1.81.78.04,1.28.05,2.44.04,3.48s.07,2.55.24,4.52c2.13,1.49,3.89,2.64,5.27,3.43.02-.14.14-.46.35-.95.21-.49.51-1.31.91-2.47.4-1.15.78-2.37,1.14-3.64.37-1.28.74-2.81,1.14-4.6.39-1.79.65-2.89.78-3.3.13-.41.26-.74.41-1.01.14-.27.3-.47.46-.6s.51-.23,1.03-.3ZM158.11,46.45c-.36.21-1.09-.38-2.2-1.75-1.11-1.37-2.78-3.09-5.01-5.17-.38.21-.73.61-1.05,1.2-.32.59-1.7,2.13-4.16,4.63-2.46,2.49-4.31,3.88-5.57,4.17-1.26.29-2.03.28-2.34-.01-.3-.3-.43-.86-.38-1.7.04-.84.46-2.48,1.25-4.94.79-2.46,1.57-4.58,2.34-6.37.77-1.79,1.58-3.56,2.45-5.31.87-1.75,1.5-2.33,1.91-1.75.41.59-.1,2.48-1.52,5.67-1.42,3.2-2.49,6.02-3.21,8.48-.72,2.45-.98,3.82-.78,4.09.33-.09,1.08-.69,2.24-1.8,1.16-1.1,3.65-3.67,7.45-7.71-1.28-.96-1.96-1.58-2.06-1.84-.09-.26.11-.48.61-.66.5-.18,1.14.05,1.94.69.8.64,1.7,1.49,2.7,2.53,1,1.04,2,2.12,2.99,3.23.99,1.11,1.86,2.15,2.61,3.11.75.97.68,1.36-.22,1.19ZM147.98,18.14c.08-.06.26-.01.53.13.27.15.5.35.69.6.19.26.64,1.09,1.35,2.48.71,1.4,1.67,3.38,2.89,5.94,1.22,2.56,1.96,4.17,2.23,4.81.27.65.49,1.21.65,1.69.17.48.29.87.37,1.18.08.3.09.53.04.69-.05.15-.17.26-.34.32-.18.06-.36.05-.54-.03-.18-.08-.4-.3-.65-.67-.25-.37-.56-.95-.95-1.74-.39-.8-.91-1.96-1.58-3.5-.67-1.54-1.29-2.91-1.85-4.12-.56-1.21-1.16-2.46-1.8-3.76-.64-1.3-1.02-2.13-1.16-2.49-.14-.36-.2-.66-.19-.91,0-.25.12-.46.34-.64Z"/>
      <path class="cls-1" d="M175.12,37.69c1.06.25.76,1.1-.9,2.55-1.67,1.45-3.34,2.81-5.01,4.07-1.67,1.26-3.19,2.51-4.54,3.76-1.35,1.25-2.28,1.73-2.77,1.44-.5-.29-.74-.62-.74-1,0-.38.5-.95,1.49-1.71.99-.77,2.38-1.87,4.18-3.31.12-3.53.27-7.18.47-10.94-2.57,1.49-4.07,2.05-4.5,1.65-.43-.39-.66-.79-.7-1.19-.04-.4.18-.63.67-.69.48-.06,1.99-.7,4.51-1.95-.09-1.3-.25-2.33-.47-3.07-.22-.74-.18-1.2.11-1.38.29-.18.68-.12,1.17.17.49.29.8.77.92,1.43.12.66.18,1.25.2,1.75,1.42-.79,2.6-1.43,3.53-1.9.93-.47,1.61-.46,2.02.04.42.5.49.87.22,1.1-.27.23-.91.53-1.91.91-1,.38-2.27,1.05-3.8,2.01-.14,3.67-.3,7.22-.48,10.65.49-.24,1.42-1.02,2.77-2.35,1.35-1.33,2.54-2.01,3.57-2.04ZM187.08,33.34c-.25,1.93-.38,3.06-.4,3.41-.02.35-.26,1.7-.73,4.07-.47,2.36-1.28,3.67-2.43,3.91-1.15.24-2.04.13-2.68-.34-.64-.47-1.14-1.31-1.51-2.54-.37-1.23-.24-1.65.38-1.28.62.37,1.09.84,1.4,1.42.31.57.73.83,1.25.76.53-.07.98-.54,1.38-1.42.39-.87.67-1.79.84-2.76.17-.96.28-1.98.33-3.03.05-1.06.1-1.89.13-2.51-.42.07-1.02.22-1.82.45-.8.23-1.52.48-2.15.73-.63.25-1.07.43-1.32.52-.3,1.12-.79,2.64-1.47,4.57-.68,1.93-1.24,3.47-1.68,4.64-.44,1.17-1.07,2.57-1.9,4.21-.83,1.64-1.77,2.78-2.84,3.42-1.04.64-1.43.62-1.17-.07.26-.69.9-2.01,1.93-3.98,1.03-1.96,1.77-3.47,2.24-4.53s1.2-3.18,2.19-6.38c.99-3.2,1.46-5.55,1.42-7.05-.04-1.5.22-2.36.8-2.57.58-.21.99-.05,1.22.49.24.54.28,1.4.12,2.58-.16,1.19-.26,1.93-.31,2.24.91-.3,1.76-.56,2.54-.76.79-.2,1.39-.33,1.82-.39.43-.05.78-.09,1.06-.09.28,0,.47,0,.56.05.1.04.18.09.23.14.14.05.35.17.62.36.27.19.25.77-.05,1.75ZM185.77,15.48c.07-.31.17-.51.27-.61.11-.1.25-.09.42.03.17.12.35.26.53.42.19.16.34.39.48.69.13.3.31.85.53,1.63.22.79.55,2.02.98,3.7,1.98-.7,3.72-1.26,5.21-1.68,1.49-.42,2.44-.51,2.85-.27.41.24.56.5.46.8-.1.3-.29.56-.56.79-.27.23-1.17.51-2.71.83-1.53.32-3.13.77-4.78,1.35.44,1.88,1,4.16,1.66,6.85.66,2.69,1.2,4.88,1.61,6.56.82-2.22,1.33-3.51,1.51-3.88.18-.37.36-.67.54-.91.17-.24.34-.41.51-.52s.52-.15,1.08-.14c.31.24.49.46.52.65.03.19.01.41-.06.65-.08.24-.54,1.42-1.38,3.54-.84,2.12-1.43,3.57-1.77,4.33.19.69.33,1.21.42,1.55.09.34.26.77.5,1.28.24.51.52,1,.84,1.48.32.48.62.86.89,1.14.27.28.51.49.73.62.21.13.4.18.57.15.17-.03.31-.13.43-.3.12-.17.56-1.11,1.31-2.81.76-1.7,1.2-2.57,1.32-2.6.12-.03.23,0,.32.09.09.1.16.26.22.49.06.23.13.51.19.83.06.32.03.72-.09,1.21-.12.49-.31,1.09-.55,1.79-.24.7-.54,1.39-.9,2.05-.36.66-.72,1.13-1.11,1.39-.38.26-.7.44-.94.53-.25.09-.54.04-.88-.16-.34-.2-.71-.45-1.11-.76-.4-.31-.87-.84-1.42-1.61-.55-.76-.96-1.44-1.23-2.03-.27-.59-.49-1.12-.67-1.59-.16.37-.38.85-.67,1.44-.29.59-.63,1.2-1.01,1.82-.39.62-.69,1.06-.92,1.3-.23.24-.46.44-.69.58-.23.15-.47.22-.7.23-.24,0-.45-.03-.63-.11-.18-.08-.31-.16-.38-.26-.07-.1-.1-.21-.09-.33.01-.12.25-.58.73-1.38s.98-1.72,1.52-2.78c.54-1.06,1.12-2.31,1.75-3.74-.46-1.46-.77-2.52-.93-3.18-.16-.66-.59-2.51-1.29-5.55-.7-3.04-1.27-5.44-1.71-7.21-3.38,1.35-6.22,2.29-8.53,2.82-2.31.53-3.75.43-4.32-.29-.58-.72-.59-1.25-.05-1.6,3.69-.22,7.83-1.15,12.43-2.79-.32-1.35-.6-2.57-.84-3.65-.24-1.08-.37-2.05-.4-2.91ZM191.57,15.65c-.5-.87.21-1.22,2.14-1.02,1.58.81,2.64,1.45,3.18,1.91.54.46.83.96.86,1.52.03.56-.14.85-.52.87-.37.03-.64.06-.79.11-.15.05-.45-.2-.9-.74-.45-.54-1.07-1-1.85-1.36-.79-.37-1.5-.79-2.12-1.27Z"/>
      <path class="cls-1" d="M213.7,30.67c-1.32.51-2.46,1.09-3.41,1.73-1.39.82-2.34.47-2.82-1.04,2.14-.84,4.2-1.83,6.17-2.98.38-3.12.6-6.15.65-9.07-.64-.9-.82-1.74-.53-2.53.41-.21.82-.22,1.23-.04.41.18.71.65.9,1.39.09,2.92.05,5.92-.11,9.01,6.24-3.44,12.71-5.87,19.43-7.29,1.47-.27,2.3-.14,2.51.36.21.51.27.84.2,1-.08.16-.6.86-1.56,2.11-.96,1.25-2.01,2.44-3.13,3.57-1.12,1.13-1.99,1.67-2.62,1.62-.63-.05-.83-.39-.61-1.02.22-.63.81-1.4,1.79-2.3.97-.9,1.83-1.97,2.57-3.18-6.3,1.44-12.52,3.97-18.67,7.6-.24,2.4-.34,4.14-.3,5.22-.03,1.84.12,3.73.44,5.68.32,1.95,1.62,3.41,3.9,4.37,6.89.91,12.26-.56,16.09-4.4.29-.62.58-1.29.88-2.01.3-.72.91-1.09,1.82-1.12.44-.07.8,0,1.07.18.27.19.32.59.14,1.21-2.45,3.66-5.87,6.15-10.25,7.48-6.85,1.37-11.53.62-14.04-2.25-.97-1.83-1.56-3.8-1.76-5.91-.2-2.11-.19-4.57.03-7.38ZM230.97,13.86c.57-.32,1.04-.29,1.4.1.36.39.6.94.74,1.63.34,1.1.64,2,.89,2.68.26.69.31,1.08.16,1.16-.15.09-.72-.25-1.7-1.01-.98-.76-1.48-2.28-1.49-4.56ZM238.05,16.4c.3.63.22.94-.22.92-.92.03-1.55-.34-1.91-1.11-.47-.76-.88-1.43-1.23-2.01l-.03-.96c.78-.02,1.41.31,1.91.99.49.68.99,1.4,1.48,2.17Z"/>
      <path class="cls-1" d="M266.13,42.43c2.18,1.33,3.72,2.56,4.61,3.7.9,1.14,1,1.77.31,1.89-.69.12-1.34-.15-1.94-.82-.6-.66-1.17-1.17-1.71-1.51-3.82-2.36-7.68-4.47-11.57-6.33-.71-.48-1.03-.98-.96-1.49.07-.52,1.11-.44,3.11.22,2.01.66,4.73,2.11,8.16,4.35ZM273.42,33.62c.72.95.63,1.51-.28,1.68-1.65-1.09-3.1-2.23-4.36-3.42-2.11-1.86-4.39-3.14-6.83-3.84-.81-.28-1.34-.65-1.58-1.1-.24-.45-.1-.92.42-1.41,4.88,1.47,9.09,4.17,12.63,8.09ZM274.96,23.65c-3.24-3.21-6.99-5.58-11.26-7.09-1.2-.13-1.93-.46-2.2-1-.27-.53-.31-1.18-.14-1.94,5.84,1.89,10.97,4.83,15.4,8.85.75.84,1.01,1.5.79,1.98-.22.48-.64.63-1.24.45-.6-.18-1.05-.59-1.35-1.25Z"/>
      <path class="cls-1" d="M310.29,20.11c3.5-.88,7.03-1.99,10.58-3.31,1.08-.28,1.78.09,2.12,1.1-.06.67-.59,1.07-1.59,1.21-3.7,1.03-7.38,2.07-11.04,3.12-1.03,8.43-3.38,16.5-7.04,24.23-.52.18-.85.11-.97-.22,1.36-4.68,2.55-9.01,3.56-12.97,1.01-3.96,1.62-7.39,1.84-10.29-5.7,1.73-11.25,3.61-16.64,5.66-.48-.15-.87-.38-1.19-.67-.31-.3-.41-.61-.28-.95,6.02-2.18,12.11-4.22,18.25-6.13.39-2.65.25-5.12-.43-7.41.46-.49.98-.58,1.58-.3.59.29.91.75.96,1.39.19,1.69.29,3.54.29,5.54Z"/>
      <path class="cls-1" d="M352.09,28.8c-6.67,1.03-13.34,1.65-20.01,1.84-.45-.04-.79-.22-1.04-.53-.25-.31-.23-.6.04-.86,8.25-.24,16.55-1.11,24.9-2.61.53-.04.92.18,1.19.67.04.42-.1.74-.43.97l-4.66.51Z"/>
      <path class="cls-1" d="M371.51,16.92c-.17,4.62-.74,9.24-1.72,13.85-.98,4.62-1.72,7.54-2.24,8.78-.37.54-.74.83-1.1.87-.36.04-.62-.23-.77-.81,2.72-7.81,3.88-15.81,3.5-24,.99-.42,1.77.02,2.33,1.31ZM389.8,36.19c2.19-2.9,4.39-6.08,6.6-9.54.38-.26.68-.34.91-.24.23.1.27.51.12,1.21-.15.7-.4,1.37-.77,2.02-1.43,2.52-3.04,4.89-4.84,7.11-2.91,3.15-5.37,4.69-7.39,4.64-2.02-.05-3.21-.95-3.58-2.69-.37-1.74-.48-4.84-.34-9.31.15-4.47.06-9.63-.25-15.49.32-.37.65-.48.99-.32s.63.47.86.93c-.02,7.9.15,15.87.5,23.92.25.94,1.09,1.27,2.51,1.01,1.42-.26,2.98-1.35,4.68-3.27Z"/>
      <path class="cls-1" d="M407.88,22.13c-.44-.08-.67-.26-.7-.52-.03-.27-.05-.51-.06-.72,2.74-.64,5.34-1.62,7.82-2.95.61-1.49,1.02-3.12,1.23-4.9.33-.2.62-.23.87-.08.25.15.45.45.61.91.02.58-.04,1.1-.17,1.56-.13.46-.25.95-.36,1.46,1.6-.58,3.04-.66,4.31-.24.67.73,1.07,1.73,1.18,2.99s.04,2.52-.22,3.76c-.29,1.51-.6,2.73-.91,3.65-1.2,4.48-3.3,8.45-6.32,11.9-1.16.93-2,.66-2.53-.8-1.27-2.79-1.47-5.61-.61-8.47.11-.46.26-.75.45-.85.19-.1.34-.09.45.02.11.12.11.54-.02,1.27-.43,2.53-.06,4.96,1.12,7.29,4.7-5.36,6.94-11.63,6.73-18.8l-.02-.69c-1.38-.08-2.74.27-4.07,1.06-1.53,3.91-3.46,7.79-5.78,11.63-.76.51-1.25.48-1.49-.06,1.41-3.01,2.5-5.28,3.28-6.79.78-1.51,1.36-2.78,1.74-3.8-2.17,1.1-4.35,1.82-6.54,2.15ZM430.04,27.31c-.53.21-.8.07-.81-.41,1.43-.84,2.69-1.69,3.8-2.54.56-.62.6-1.3.12-2.03-2.87-2.31-5.68-4.56-8.43-6.75-.52-.4-.65-.81-.4-1.26,1.53.39,3.02,1.2,4.46,2.44,1.14,1.03,2.52,2.19,4.15,3.48,1.62,1.29,2.45,2.56,2.49,3.79-1.44,1.93-3.23,3.02-5.38,3.28ZM429.54,9.27c1.2.42,1.95,1.24,2.27,2.45.31,1.21.69,2.35,1.13,3.43-.18.39-.38.59-.58.58-.21,0-.43-.09-.68-.25-.45-.52-.75-1.05-.9-1.6-.15-.55-.3-1.01-.46-1.36-.26-.55-.53-1.09-.83-1.63-.29-.53-.28-1.07.04-1.61ZM432.88,9.28c.28-.18.6-.2.94-.08.34.12.6.41.79.86.16.53.38,1.09.65,1.7.27.61.27,1.3,0,2.08-.27,0-.44-.02-.53-.08-.09-.06-.18-.18-.28-.37-.89-1.35-1.41-2.73-1.57-4.12Z"/>
      <path class="cls-1" d="M444.3,18.49c.37.38.66.72.86,1.02.27-.2.67-.47,1.21-.81.53-.33,1.1-.65,1.7-.95.6-.3,1.14-.55,1.6-.76-.11-.05-.21-.12-.28-.2-.07-.08-.1-.16-.09-.25.01-.08.19-.35.54-.81.35-.45.7-.99,1.06-1.59.36-.61.69-1.22.99-1.82.3-.61.54-1.16.72-1.67.18-.51.32-.91.42-1.22-.22,0-.58.01-1.06.01-.49,0-.96.05-1.41.15-.46.1-.77.15-.93.15-.21.37-.47.88-.79,1.55-.31.66-.59,1.18-.83,1.55-.24.37-.49.67-.75.9-.26.23-.48.38-.67.46-.19.08-.39.11-.58.1-.19,0-.39-.04-.59-.11-.2-.06-.37-.15-.53-.26-.16-.11-.28-.2-.36-.28-.09-.08-.12-.16-.11-.23.01-.07.17-.25.48-.56.31-.3.62-.65.93-1.05.31-.4.59-.82.86-1.26.26-.44.47-.84.61-1.21.14-.37.25-.64.33-.82.08-.18.18-.32.32-.41.14-.09.28-.13.43-.12.15,0,.31.03.48.05.03-.06.09-.13.2-.24.11-.1.49-.19,1.16-.28.66-.09,1.27-.13,1.81-.12.54.01,1.07.06,1.59.14.52.08.93.29,1.25.61.31.32.5.64.55.94.05.31.05.53,0,.69-.05.15-.17.45-.37.89-.2.44-.47,1.1-.84,2.01-.36.9-.67,1.58-.92,2.05s-.48.86-.7,1.17c.44-.18.85-.33,1.24-.45.39-.12.78-.22,1.18-.31.4-.08.73-.12,1-.11.26,0,.44.04.52.09.09.05.14.08.17.08.14-.06.3-.13.49-.22.42.1.69.2.8.31.11.11.2.27.26.47.06.21.1.45.1.73,0,.28.09.96.25,2.04.16,1.08.33,2.81.53,5.2.2,2.39.33,4.47.41,6.24.08,1.78.13,3.51.15,5.21.02,1.7.02,2.91-.02,3.63-.03.72-.11,1.37-.21,1.92-.11.56-.25,1.02-.42,1.37-.17.35-.36.64-.58.85-.22.21-.5.38-.86.48-.36.11-.72.15-1.08.14-.36-.02-.73-.08-1.09-.2-.37-.12-.75-.48-1.16-1.09-.41-.61-.7-1.05-.87-1.31-.17-.26-.31-.48-.39-.66-.09-.18-.13-.31-.12-.39.01-.08.07-.13.16-.13.1,0,.24.04.42.11.18.08.53.28,1.04.62.51.33.85.61,1.03.85.17.23.36.34.57.32.21-.02.39-.08.56-.18.16-.1.31-.25.43-.43.12-.18.22-.4.31-.66.09-.25.16-.79.2-1.61.04-.82.05-1.99.02-3.5-.03-1.51-.17-4.13-.42-7.85-.19.06-.52.16-.97.3s-1.42.52-2.91,1.15c-1.48.63-2.9,1.29-4.26,1.98s-2.16,1.06-2.41,1.11c-.25.05-.46.08-.62.08.13,3.53.16,5.81.1,6.84-.07,1.03-.14,1.71-.23,2.05-.09.34-.2.6-.33.78-.13.18-.29.28-.47.29-.18,0-.41-.14-.7-.44-.29-.3-.47-.7-.56-1.21-.08-.51-.1-1.16-.06-1.94.05-.78.08-1.77.1-2.98.02-1.21-.03-3.32-.15-6.33-.12-3.01-.24-5.27-.37-6.77-.13-1.5-.16-2.48-.11-2.94.06-.46.14-.76.27-.9.12-.14.36-.15.73-.02ZM445.72,21.28c0,.25,0,.57,0,.96,0,.39.01,1.17.05,2.33.44-.29,1.13-.67,2.09-1.15.96-.47,1.82-.87,2.59-1.2-.15-1.33-.31-2.33-.46-2.99-.44.21-1.12.55-2.03,1.04-.92.49-1.66.82-2.24,1ZM445.87,26.61c.03,1,.06,2.18.1,3.54.41-.26,1.15-.65,2.22-1.15,1.07-.5,2.02-.95,2.84-1.34-.12-.44-.21-.98-.26-1.62-.05-.64-.09-1.19-.13-1.66-.63.3-1.44.71-2.42,1.24-.99.53-1.59.83-1.81.89-.22.06-.4.1-.54.1ZM456.25,16.55c-.33.18-.9.41-1.71.7-.81.29-1.62.61-2.41.97.03.17.05.44.07.83.01.39.1,1.17.28,2.33,1.04-.42,1.87-.73,2.47-.93.61-.2,1.03-.33,1.26-.39.23-.06.39-.11.48-.14-.15-1.19-.25-1.99-.32-2.39-.07-.4-.1-.73-.11-.98ZM457.14,25.57c-.1-1.44-.19-2.68-.28-3.7-.19.06-.51.16-.95.3-.44.14-1.49.55-3.13,1.24.07.53.13,1.02.17,1.48.04.46.05.89.02,1.29-.03.4-.04.65-.04.73.99-.39,1.78-.68,2.37-.86.59-.18,1.02-.31,1.28-.37.26-.06.45-.1.56-.1ZM460.81,32.47c-.14-.11-.22-.23-.24-.37-.02-.14.05-.29.2-.44.15-.16.37-.32.67-.48.3-.16,1.24-.46,2.83-.9,1.59-.44,2.88-.77,3.87-.99-.05-1.64-.09-3.19-.14-4.67-1.15.48-2.86,1.1-5.12,1.86-.83,1.94-1.48,2.98-1.95,3.1-.47.13-.86.14-1.17.03-.31-.1-.18-1.02.38-2.74s1.03-2.91,1.4-3.56c.37-.65.45-1.68.24-3.09-.21-1.41-.13-2.16.23-2.26.36-.09.86,0,1.51.29.65.29.99.6,1.03.93.04.33-.37,2.05-1.22,5.17,1.7-.83,3.23-1.54,4.61-2.14-.13-2.67-.25-4.16-.34-4.49.23-.81.87-1.12,1.93-.93.6.48.83.94.71,1.38-.13.44-.17,1.46-.12,3.07.63-.27,1.62-.66,2.97-1.17,1.35-.51,2.19-.58,2.54-.2.34.38.44.79.29,1.24-.15.45-.67.75-1.54.9-.87.15-2.27.67-4.19,1.56.12,2.28.22,4,.28,5.16,2.02-.42,3.48-.7,4.38-.84.9-.14,1.65-.24,2.24-.3.6-.06,1.04-.07,1.33-.04.29.03.51.12.65.27.14.15.2.33.18.54-.02.21-.11.4-.25.57-.15.17-.35.3-.59.37-.25.08-.83.18-1.74.32-.91.14-2.03.35-3.36.64-1.33.29-2.25.5-2.78.62.09,2.08.19,4.61.31,7.58.11,2.97.11,4.57-.03,4.8-.13.23-.46.29-1,.2-.53-.1-.93-.26-1.2-.49-.27-.23-.41-1.85-.41-4.87,0-3.02-.02-5.22-.03-6.61-.66.19-1.61.46-2.83.81-1.23.36-2.06.55-2.51.59-.44.04-.85.01-1.21-.09-.36-.1-.63-.22-.8-.35ZM461.87,10.59c-.12-.3-.13-.55-.02-.75.11-.2.29-.4.57-.6.27-.2,1.13-.55,2.58-1.03,1.45-.49,2.77-.9,3.99-1.22s2.12-.54,2.73-.64c.61-.1,1.12-.17,1.54-.21.42-.04.71-.04.9,0,.18.04.42.22.73.56.3.34.32.92.05,1.75-.27.83-.42,2.01-.46,3.56-.04,1.54-.29,2.8-.74,3.78-.46.97-.9,1.46-1.33,1.46-.43,0-.98-.16-1.64-.47-.66-.31-1.21-.76-1.64-1.33-.43-.57-.42-.8.04-.69.46.11.93.31,1.39.6.47.29.89.09,1.28-.6.38-.69.58-1.48.6-2.35.02-.88.03-1.7.05-2.48s.04-1.36.05-1.75c-.64.13-1.44.33-2.4.59-.97.27-1.78.51-2.44.72.03.11.02.24-.03.38-.05.14-.18.42-.39.85-.21.42-.51,1.07-.9,1.95-.39.87-.74,1.57-1.04,2.09-.3.52-.6.96-.9,1.3-.3.34-.55.58-.75.71-.2.13-.41.22-.62.27-.21.05-.42.05-.65,0-.22-.05-.42-.11-.59-.19s-.29-.17-.36-.26c-.07-.1-.1-.18-.09-.27.01-.08.2-.35.56-.79.36-.44.73-.95,1.1-1.53.37-.58.72-1.17,1.03-1.76.32-.59.58-1.17.78-1.73-.96.36-1.58.55-1.86.55-.28,0-.52-.04-.73-.15-.21-.1-.33-.2-.36-.28Z"/>
      <path class="cls-1" d="M488.89,26.01c-.39.01-.84-.04-1.36-.17-.52-.12-.83-.39-.94-.81-.11-.41.45-.78,1.68-1.09,1.23-.31,2.49-.83,3.79-1.55,1.3-.72,2.08-.86,2.34-.42.26.44.29.85.08,1.23-.21.38-.81.78-1.8,1.18-.99.41-2.25.95-3.79,1.63ZM488.94,40.15c-.69.33-1.22.45-1.59.36-.38-.09-.61-.31-.71-.67-.09-.36.51-1.2,1.8-2.53,1.3-1.33,2.7-2.67,4.22-4,1.52-1.34,2.42-2.2,2.7-2.58.28-.38.59-.51.93-.38.34.13.45.47.34,1.03-.11.56-.84,1.58-2.18,3.07-1.35,1.49-3.18,3.39-5.5,5.71ZM496.42,15.4c-1.3.18-2.58.38-3.84.61-1.26.23-2.25.06-2.98-.52-.73-.58-.93-.92-.61-1.02.32-.11.74-.1,1.27.03.53.12,1.38,0,2.53-.37,1.16-.37,2.19-.53,3.09-.49.9.04,1.31.3,1.21.78-.1.48-.32.8-.68.98ZM498.81,17.17c-.12-.16-.18-.32-.2-.47-.02-.15.01-.33.09-.54.08-.21.88-.61,2.4-1.2,1.53-.59,2.83-1.05,3.9-1.39s1.98-.6,2.73-.79c.28-1.65.44-2.88.48-3.68.03-.81.02-1.53-.02-2.17-.05-.64.24-.85.86-.63.62.22,1.02.55,1.22.99.19.44.24,1.18.13,2.23-.11,1.05-.21,1.95-.3,2.7.64-.1,1.31-.2,2.01-.29.71-.09,1.39-.15,2.06-.17s1.24,0,1.73.05c.49.06.89.14,1.2.26.31.12.56.24.76.37.08.03.24.08.46.15.22.08.37.27.43.57.06.3.1.57.11.79,0,.22-.13.88-.4,1.97-.27,1.09-.55,2.09-.83,3.01-.28.91-.57,1.8-.88,2.65-.31.86-.61,1.61-.89,2.26.33-.06.77-.12,1.31-.16.54-.04,1.1-.05,1.69-.03.58.02,1.09.1,1.53.23.43.13.76.26.97.41.21.15.36.27.43.38.07.11.03.21-.14.3-.16.09-.39.16-.66.21-.28.05-1.55.25-3.82.61-2.27.36-4.93.79-7.97,1.3.31.3.85.83,1.61,1.6.76.77,2.11,2.18,4.04,4.22,1.94,2.04,3.14,3.33,3.6,3.86.46.53.85,1,1.17,1.4.32.41.56.74.72,1,.16.26.24.47.25.62,0,.15-.07.29-.22.4-.15.11-.33.17-.54.16-.21,0-.49-.15-.85-.43-.36-.28-.83-.73-1.44-1.35-.6-.62-1.46-1.56-2.58-2.8-1.12-1.25-2.13-2.35-3.02-3.31-.89-.96-1.84-1.95-2.84-2.98-1-1.03-1.64-1.7-1.89-2.03l-.83.15c-.95,2.73-2.19,5.44-3.72,8.16-1.53,2.71-2.65,4.42-3.35,5.1-.7.69-1.26.93-1.67.72-.41-.21-.53-.68-.35-1.41,2.73-4.39,4.88-8.42,6.44-12.08-3.84.67-6.08,1.03-6.7,1.07-.62.05-1.09,0-1.4-.17-.06-.05-.09-.16-.09-.33,0-.17.11-.36.34-.59.23-.23.57-.42,1.03-.57.45-.15,1.41-.4,2.86-.75,1.45-.35,2.56-.6,3.34-.74.77-.15,1.31-.25,1.62-.32.82-2.19,1.42-4.21,1.78-6.04s.66-3.4.9-4.72c-.64.16-1.31.36-2.03.6-.72.24-1.68.58-2.89,1.02-1.21.44-1.99.7-2.33.78-.35.08-.64.09-.9.03-.25-.06-.39-.12-.42-.17ZM509.6,16.73c-.8,3.17-1.6,6-2.42,8.5,1-.17,2.07-.35,3.24-.55,1.16-.2,2.14-.35,2.95-.46.13-.42.48-1.45,1.06-3.08.58-1.63.99-2.87,1.23-3.71.24-.84.49-1.99.75-3.44-.2-.02-.75-.04-1.67-.05-.92-.02-1.81.03-2.69.12-.87.1-1.6.19-2.18.29-.06.73-.15,1.52-.26,2.39Z"/>
      <path class="cls-1" d="M540.28,29.91l-1.33-23.37,4.1-.12.05,23.4-2.82.08ZM539.2,36.82c-.05-1.54,1.11-2.81,2.56-2.85,1.45-.04,2.68,1.16,2.73,2.7.05,1.54-1.11,2.81-2.56,2.85-1.54.05-2.69-1.24-2.73-2.7Z"/>
    </g>
  </g>
</svg>