<?xml version="1.0" encoding="UTF-8"?>
<svg id="_レイヤー_2" data-name="レイヤー 2" xmlns="http://www.w3.org/2000/svg" width="307.36" height="307.4" viewBox="0 0 307.36 307.4">
  <defs>
    <style>
      .cls-1 {
        opacity: .63;
      }

      .cls-2 {
        fill: #eeeeef;
      }
    </style>
  </defs>
  <g id="_レイヤー_1-2" data-name="レイヤー 1">
    <g class="cls-1">
      <g>
        <path class="cls-2" d="M52.83,257.04l-8.75-1.54c-2.04-.36-3.4-2.3-3.04-4.34l16.26-92.32c.36-2.04,2.3-3.4,4.34-3.04l8.75,1.54c2.04.36,3.4,2.3,3.04,4.34l-16.26,92.32c-.36,2.04-2.3,3.4-4.34,3.04Z"/>
        <path class="cls-2" d="M221.89,286.82l-8.75-1.54c-2.04-.36-3.4-2.3-3.04-4.34l16.26-92.32c.36-2.04,2.3-3.4,4.34-3.04l8.75,1.54c2.04.36,3.4,2.3,3.04,4.34l-16.26,92.32c-.36,2.04-2.3,3.4-4.34,3.04Z"/>
      </g>
      <path class="cls-2" d="M139.48,155.78h6.38c2.15,0,3.89,1.74,3.89,3.89v113.02c0,2.15-1.74,3.89-3.89,3.89h-6.38c-2.15,0-3.89-1.74-3.89-3.89v-113.02c0-2.15,1.74-3.89,3.89-3.89Z" transform="translate(-94.98 319.19) rotate(-80.01)"/>
      <path class="cls-2" d="M303.23,171.21l-11.46-2.02c-1.49-.26-2.52-1.62-2.38-3.12,6.43-70.01-42.8-134.42-112.07-146.62C108.05,7.25,39.79,50.95,21.91,118.95c-.38,1.46-1.82,2.38-3.31,2.12l-11.46-2.02c-.8-.14-1.5-.61-1.93-1.28-.44-.68-.57-1.51-.37-2.29C24.63,38.17,101.73-11.54,180.35,2.31c78.62,13.85,134.09,86.91,126.28,166.32-.08.8-.49,1.54-1.13,2.03-.64.49-1.46.69-2.26.55Z"/>
      <path class="cls-2" d="M127.01,305.08C48.4,291.24-7.07,218.18.73,138.76c.08-.8.49-1.54,1.13-2.03.64-.49,1.46-.69,2.26-.55l11.46,2.02c1.49.26,2.52,1.62,2.38,3.12-6.43,70.01,42.8,134.42,112.07,146.62,69.27,12.2,137.54-31.5,155.42-99.5.38-1.46,1.82-2.38,3.31-2.12l11.46,2.02c.8.14,1.5.61,1.93,1.28.44.68.57,1.51.37,2.29-19.8,77.3-96.89,127.01-175.51,113.16Z"/>
      <path class="cls-2" d="M214.71,88.14c-2.29-21.94-18.84-40.66-41.61-44.68-22.77-4.01-44.72,7.93-54.37,27.77-28.81-4.42-56.1,15.03-61.19,43.88l-1.65,9.36c-.3,1.72.85,3.37,2.57,3.67l193.44,34.07c1.72.3,3.37-.85,3.67-2.57l1.65-9.36c5.08-28.85-13.93-56.45-42.51-62.14ZM118.22,122.24c-.9,1.08-2.28,1.53-3.58,1.3-.63-.11-1.25-.39-1.78-.83l-9.87-8.28c-1.61-1.35-1.82-3.75-.47-5.36,1.35-1.61,3.75-1.82,5.36-.47l9.87,8.28c1.61,1.35,1.82,3.75.47,5.36ZM137.99,108.4c-.65.24-1.32.28-1.96.17-1.29-.23-2.44-1.12-2.92-2.44l-4.41-12.11c-.72-1.97.3-4.16,2.27-4.87,1.97-.72,4.16.3,4.87,2.27l4.41,12.11c.72,1.97-.3,4.16-2.27,4.87ZM166.43,103.2c-.36,2.07-2.34,3.45-4.4,3.08-2.07-.36-3.45-2.34-3.09-4.4l2.24-12.69c.36-2.07,2.34-3.45,4.4-3.08s3.45,2.34,3.09,4.4l-2.24,12.69ZM197.54,106.14l-8.28,9.87c-.9,1.08-2.28,1.53-3.58,1.3-.63-.11-1.25-.39-1.78-.83-1.61-1.35-1.82-3.75-.47-5.36l8.28-9.87c1.35-1.61,3.74-1.82,5.36-.47,1.61,1.35,1.82,3.75.47,5.36ZM214.73,134.11l-12.1,4.41c-.65.24-1.32.28-1.96.17-1.29-.23-2.44-1.12-2.92-2.44-.72-1.97.3-4.16,2.27-4.87l12.1-4.41c1.97-.72,4.16.3,4.87,2.27.72,1.97-.3,4.16-2.27,4.87Z"/>
      <rect class="cls-2" x="124.88" y="188.48" width="43.5" height="10.44" rx="5.22" ry="5.22" transform="translate(35.83 -22.5) rotate(9.99)"/>
      <path class="cls-2" d="M252,196.85l-205.47-36.19c-2.12-.37-3.53-2.39-3.16-4.5l1.54-8.75c.37-2.11,2.39-3.53,4.5-3.15l205.47,36.19c2.12.37,3.53,2.39,3.16,4.5l-1.54,8.75c-.37,2.11-2.39,3.53-4.5,3.15Z"/>
    </g>
  </g>
</svg>