<?xml version="1.0" encoding="UTF-8"?>
<svg id="_レイヤー_2" data-name="レイヤー_2" xmlns="http://www.w3.org/2000/svg" width="374.52" height="51.02" xmlns:xlink="http://www.w3.org/1999/xlink" viewBox="0 0 374.52 51.02">
  <defs>
    <style>
      .cls-1 {
        filter: url(#outer-glow-1);
      }

      .cls-2 {
        fill: #5c3d39;
      }

      .cls-3 {
        fill: #64bbba;
      }
    </style>
    <filter id="outer-glow-1" x="-10.76" y="-10.4" width="397" height="73" filterUnits="userSpaceOnUse">
      <feOffset dx="0" dy="0"/>
      <feGaussianBlur result="blur" stdDeviation="3.4"/>
      <feFlood flood-color="#fff" flood-opacity="1"/>
      <feComposite in2="blur" operator="in"/>
      <feComposite in="SourceGraphic"/>
    </filter>
  </defs>
  <g id="_レイヤー_1-2" data-name="レイヤー_1">
    <g class="cls-1">
      <g>
        <path class="cls-2" d="M57.45,36.95h-6.09c-.48,0-.87.39-.87.87v7.4h-8.35l8.41-17.49c.21-.43-.01-.78-.49-.78h-6.09c-.48,0-1.04.35-1.25.78l-10.13,21.06c-.21.43.01.78.49.78h24.37c.48,0,.87-.39.87-.87v-10.88c0-.48-.39-.87-.87-.87ZM27.42,10.41h-3.48V2.57c0-.48-.39-.87-.87-.87h-6.09c-.48,0-.87.39-.87.87v7.83H3.05c-1.2,0-2.18.97-2.18,2.18s.97,2.18,2.18,2.18h13.06v33.95c0,.48.39.87.87.87h6.09c.48,0,.87-.39.87-.87V14.76h3.48c1.2,0,2.18-.97,2.18-2.18s-.97-2.18-2.18-2.18ZM40.71,20.21s.03-.06.06-.09l.4-.4c.34-.34.62-1.01.62-1.49v-6.96c0-.48-.39-.87-.87-.87h-6.09c-.48,0-.87.39-.87.87v9.54l-3.28,3.28c-.85.85-.85,2.23,0,3.08.42.42.98.64,1.54.64s1.11-.21,1.54-.64l6.96-6.96ZM11.31,21.29h-6.09c-.48,0-.87.39-.87.87v20.42l-3.71,3.71c-.85.85-.85,2.23,0,3.08.42.42.98.64,1.54.64s1.11-.21,1.54-.64l7.4-7.4s.03-.06.06-.09l.4-.4c.34-.34.62-1.01.62-1.49v-17.84c0-.48-.39-.87-.87-.87ZM59.42,24.1l-3.28-3.28V2.57c0-.48-.39-.87-.87-.87h-19.15c-1.2,0-2.18.97-2.18,2.18s.97,2.18,2.18,2.18h12.18v12.19c0,.48.28,1.15.62,1.49l.4.4s.03.06.06.09l6.96,6.96c.42.42.98.64,1.54.64s1.11-.21,1.54-.64c.85-.85.85-2.23,0-3.08Z"/>
        <circle class="cls-3" cx="30.46" cy="36.08" r="4.35"/>
      </g>
      <g>
        <path class="cls-2" d="M116.75,11.71h-4.79s0,0,0,0h-24.81V2.57c0-.48-.39-.87-.87-.87h-7.83c-.48,0-.87.39-.87.87v9.14h-8.27c-1.2,0-2.18.97-2.18,2.18s.97,2.18,2.18,2.18h8.27v32.64c0,.48.39.87.87.87h31.33c1.2,0,2.18-.97,2.18-2.18s-.97-2.18-2.18-2.18h-22.63v-29.16h20.89v10.41l-5.02,5.02c-.85.85-.85,2.23,0,3.08.42.42.98.64,1.54.64s1.11-.21,1.54-.64l10.01-10.01s.04-.06.06-.09l.83-.83c.34-.34.62-1.01.62-1.49v-9.57c0-.48-.39-.87-.87-.87Z"/>
        <circle class="cls-3" cx="127.63" cy="5.62" r="4.35"/>
        <circle class="cls-3" cx="127.63" cy="17.37" r="4.35"/>
      </g>
      <g>
        <path class="cls-2" d="M139.7,9.1h34.38c1.2,0,2.18-.97,2.18-2.18s-.97-2.18-2.18-2.18h-34.38c-1.2,0-2.18.97-2.18,2.18s.97,2.18,2.18,2.18Z"/>
        <path class="cls-2" d="M174.08,17.8h-34.38c-1.2,0-2.18.97-2.18,2.18s.97,2.18,2.18,2.18h34.38c1.2,0,2.18-.97,2.18-2.18s-.97-2.18-2.18-2.18Z"/>
        <path class="cls-2" d="M174.49,45.7l-27.39-5.2v-9.63c0-.48-.39-.87-.87-.87h-7.83c-.48,0-.87.39-.87.87v10.44c0,.08.03.16.05.23.1.92.76,1.72,1.72,1.9l34.38,6.53c.14.03.27.04.41.04,1.02,0,1.94-.73,2.13-1.77.22-1.18-.55-2.32-1.73-2.54Z"/>
      </g>
      <g>
        <path class="cls-3" d="M230.52,10.32c0,1.87-.52,3.89-.52,6.43,0,1.42.15,2.77.15,4.41,0,1.94-.15,3.52-.15,5.09,0,2.39-.22,4.71-.22,7.11,0,.6.07,1.2.07,1.8,0,1.35.37,4.19.67,5.61,0,1.27,0,2.62-.07,4.19.07.45.15,1.35.15,2.32,0,1.12-.07,2.32-.37,2.69-.37.6-1.5,1.05-2.54,1.05-.3,0-.52-.07-.75-.15-1.2-.52-2.84-4.26-4.26-5.01-1.27-.75-2.54-2.54-3.89-3.96-1.5-1.35-3.37-4.04-5.76-6.36-1.27-1.35-2.84-2.17-4.11-3.89-1.57-1.87-1.94-3.14-3.37-4.71-1.42-1.5-3.74-3.82-4.49-4.86-.75-.97-1.57-2.69-2.84-4.19-.67-.82-1.8-2.32-2.39-2.32-.3,0-.3.52-.3.97v.9c-.07.52-.15.97-.15,1.42,0,1.35.22,2.69.3,3.96.07,2.17.22,3.29.22,4.64,0,.37-.07.82-.07,2.39s.3,2.99.3,5.16c0,2.02.3,3.82.3,5.39,0,.37-.07,2.17-.07,3.07.37,2.47.9,3.52.9,5.01,0,1.72-.82,1.87-2.02,1.87h-2.32c-.75,0-1.57-.07-1.57-.75v-1.05c0-.15.07-.45.07-.9,0-.15.07-.3.07-.67.15-.37.45-3.52.45-3.89v-5.98c0-1.5.07-2.09.07-2.62,0-2.24-.15-4.56-.15-6.21,0-1.8,0-2.92-.15-5.01,0-.3-.07-.67-.07-1.2,0-1.72.22-4.19.22-5.98,0-3.37-.67-6.88-.9-8.15-.07-.9-.3-3.59-.3-5.24,0-1.27.15-1.72.75-1.8h.9c.37,0,.82,0,1.35-.07,1.2,0,2.32.22,3.37.45.07,0,.15.15.22.15,1.42.3,1.65,1.57,2.92,3.22,1.2,1.72,2.92,3.44,4.49,5.54,1.57,2.17,3.74,4.26,5.01,5.54,1.27,1.35,2.92,3.44,4.04,4.79,1.12,1.42,3.96,4.71,5.69,6.28,1.8,1.72,2.62,3.07,4.11,4.41,1.35,1.42,3.37,4.34,3.37,4.34,0,0,0-1.65.22-3.37.07-.6.07-1.12.07-1.65,0-1.12,0-2.24-.07-3.89-.15-2.47-.37-3.29-.37-5.54,0-1.87-.22-3.82-.22-5.76,0-4.11-.37-6.88-.37-8.3,0-1.65-1.12-3.59-1.12-5.01,0-1.05.37-1.2,1.5-1.2.67,0,2.09-.07,2.99-.07,1.65,0,1.42.82,1.5,1.42,0,1.2-.45,4.64-.45,8.15Z"/>
        <path class="cls-3" d="M253.11,24.91c-.9,0-1.65-.22-2.39-.22-.37,0-.75.07-.9.3-.22.22-.22.52-.22.9,0,.82.3,1.95.3,2.84.22,1.35.22,2.17.22,3.67-.15,1.12-.37,2.32-.37,3.59v9.13c0,.45.15,1.65.82,1.8.3.07.75.07,1.2.07h3.52c.75,0,1.87-.07,2.39-.07,3.29-.52,5.46-.67,6.13-.67,1.27,0,2.84-.82,3.96-1.12.37-.07.75-.22.97-.22.45,0,.6.15.6.82,0,1.2-1.42,4.41-2.62,4.64-.37.07-.82.07-1.2.07-.97,0-2.02-.15-2.24-.22-.52-.15-2.39-.3-3.14-.3h-3.67c-.45-.07-1.65-.22-2.32-.22-2.24,0-5.46.22-7.18.3-1.8.07-4.19.52-6.13.52-1.57,0-3.44-.3-3.44-2.32,0-.22,0-.45.07-.67.15-1.35.45-2.09.75-3.22.22-.45.3-1.05.3-1.57v-2.54c0-1.42.15-2.99.37-4.04.07-.52.15-1.12.15-1.57,0-.97-.45-1.65-.45-2.47,0-1.2.15-2.92.15-3.82-.22-1.42-.3-2.77-.3-2.77,0,0-.82.07-.82-1.65,0-1.42,1.2-2.17,1.12-2.62-.07-.3-.07-.82-.07-1.5,0-1.12,0-1.5.07-1.87.22-1.57.37-4.04.37-5.98s-.75-7.71-.75-9.72c0-.37,0-.6.07-.67.52-.37.82-.45,1.57-.45,1.2,0,1.87,0,2.47-.07,1.65-.07,2.39-.22,3.37-.22.52,0,1.27.07,2.24.15,1.35.07,2.77.07,7.56.07,1.87,0,3.44.15,4.86.15,1.72,0,5.01-.3,5.83-.3.97,0,2.62,0,2.84,1.05-.07,1.05-1.27,3.67-2.54,3.67-.22,0-.45-.07-.67-.07-1.42-.15-2.32-.75-3.22-.75-1.12,0-1.72-.45-2.62-.45-4.34,0-7.26-.15-9.5-.3-.97,0-.97.3-.97.82,0,1.05-.22,1.8-.22,2.54,0,1.2.07,2.77.22,4.34.07,1.12.15,2.02.15,2.77l-.22,2.62c-.15.52-.15,1.12-.15,1.65,0,1.72.15,2.69.22,3.14.07.45.52.52,1.05.52.45,0,1.05-.07,1.57-.15,1.35-.22,2.54-.22,3.29-.37.45-.07.9-.07,1.35-.07,1.57,0,2.62-.22,3.59-.22.67.07.82.37.82.82s-.15.97-.45,1.5c-.45.82-1.12,1.65-2.24,1.65-.15,0-.3,0-.6-.07-1.2-.22-2.39-.82-2.99-.82-.22,0-.45.15-.67.15-.6.15-.97.15-1.27.15Z"/>
        <path class="cls-3" d="M340.48,1.05c0,1.05-1.27,3.96-1.65,4.94-.52,1.2-1.27,3.52-2.39,6.21-1.05,2.54-1.72,3.67-2.77,7.26l-2.62,9.35c-.6,2.24-2.47,5.16-2.77,7.11-.3,2.39-1.27,4.26-2.02,6.06-.52,1.8-1.35,3.89-2.02,5.46-.52,1.35-.97,3.14-2.02,3.14-1.57,0-4.26-1.27-4.71-2.84-.6-1.94-1.42-2.02-1.87-3.96-.45-1.94-1.35-3.29-2.24-5.69-.9-2.32-2.09-4.19-2.84-5.31-.9-1.2-1.42-3.96-2.69-6.06-1.35-2.09-2.54-5.69-3.22-8.08-.3-.97-.6-1.35-.9-1.35-.37,0-.9.67-1.12,1.5-.45,1.65-.75,1.42-2.02,4.41-1.27,3.07-1.2,2.02-1.87,4.26-.67,2.17-1.72,4.41-2.47,6.73-.75,2.32-1.8,4.19-2.09,5.61-.22,1.42-1.42,3.67-1.87,5.54-.45,1.8-.6,3.22-.97,3.67-.07.3-.75,1.42-1.57,1.42-.45,0-.97-.07-1.5-.15-1.27-.3-2.02-2.02-2.24-3.29-.3-1.12-.75-3.52-.97-4.86-.3-1.42-1.42-2.92-1.42-4.49-.45-1.35-.9-2.69-.9-3.89,0-1.27-.75-2.92-1.5-5.01-.6-1.35-.82-2.02-1.05-3.37-.15-1.57-.82-3.07-1.2-5.01-.37-1.94-1.35-3.52-2.24-5.31-.6-.9-1.65-5.16-2.84-8.3-.97-2.32-2.17-4.11-2.17-5.76,0-.37.67-.52,1.72-.52,1.87,0,4.79.37,7.41.37,1.12,0,3.29-.45,4.79-.45.82,0,1.5.15,1.5.75,0,2.92.22,7.93.45,9.28.3,1.65.82,2.24,1.12,4.41.22,2.09,1.35,3.44,2.17,5.61.75,2.02,1.35,4.26,1.72,6.28.45,1.42,1.65,4.94,1.65,4.64.37-.52.9-1.5,1.35-3.29.67-1.87,1.65-3.14,2.39-5.01.9-1.95,1.57-4.26,2.02-5.76.22-1.57,1.27-4.34,2.09-5.83.67-1.57,2.54-6.73,3.22-8.68.45-1.12,1.87-1.87,3.07-1.87.82,0,1.42.3,1.72.97.6,1.5,1.12,3.74,1.94,6.06.82,2.24,1.65,3.44,2.39,4.86.9,1.65.9,2.77,1.42,5.61.6,2.77.97,2.77,1.65,5.09.75,2.32,2.32,4.04,2.77,5.24.3,1.27,2.77,6.28,3.52,8.83.15.75.3,1.05.45,1.05.37,0,.6-1.72,1.12-2.77.82-1.72,1.05-2.32,1.87-5.01.82-2.69.6-2.77,1.35-5.16.6-2.32.9-4.49,1.87-6.51.75-2.09,1.2-3.89,1.87-5.91.67-2.09,1.27-5.46,1.5-6.66.3-2.17.6-3.22.6-5.01,0-.6.45-.67,1.05-.67.37,0,.9.07,1.42.07.67,0,1.94-.22,3.44-.22.15,0,.15.07.15.3Z"/>
        <path class="cls-3" d="M373.25,5.39c0,.15,0,.3-.07.52-.15,1.12-2.24,2.32-3.22,2.32s-1.5-.3-1.57-.9c-.15-.75-2.39-3.44-3.89-4.04-.07,0-.15-.07-.22-.07-1.12-.37-2.17-.75-3.07-.75-.3,0-2.92.75-3.14.97-1.2.97-2.69,1.2-2.92,3.74,0,2.77.22,5.01,1.57,6.58,1.12,1.12,3.67,3.52,5.24,4.26s4.11,3.67,5.39,4.19c1.12.6,1.94,1.94,3.37,3.22,2.09,1.72,3.82,4.64,3.82,7.11s-.3,2.54-.3,4.86c0,1.35-2.32,6.21-3.59,7.18-1.57,1.12-2.54,2.24-3.74,3.22-1.12.97-5.16,1.87-6.81,2.17-.75.15-1.87.22-2.99.22-1.42,0-2.77-.07-3.29-.07-2.32,0-5.98-1.57-7.63-3.22-1.2-.82-3.67-2.77-3.67-4.49,0-1.27,2.32-3.52,3.44-3.52,1.42,0,1.27.67,1.87,2.62.15.52,1.05,2.32,1.65,2.92,1.5,1.8,3.22,2.99,6.96,2.99.6,0,1.27,0,1.87-.15,2.09-.37,3.96-1.65,5.01-4.04.6-1.12.97-1.8.97-2.77,0-.52-.15-.97-.3-1.65-.52-2.09-1.05-3.59-2.54-5.61-1.5-2.17-2.17-2.69-4.19-3.96-2.09-1.2-3.07-2.47-4.34-3.74-1.27-1.35-2.99-2.02-4.41-2.92-1.57-.97-3.74-4.19-3.96-5.46-.22-1.05-.82-2.32-.82-3.89,0-.37,0-.67.07-1.05.3-2.24,1.57-3.67,2.69-5.46,1.35-1.72,3.14-3.44,5.01-4.41,1.8-.9,3.96-2.32,7.33-2.32,1.42,0,7.56.07,8.53.75,1.05.82,4.04,1.42,4.79,2.77.67,1.05,1.12,1.12,1.12,1.87Z"/>
      </g>
    </g>
  </g>
</svg>