<?xml version="1.0" encoding="UTF-8"?>
<svg id="_レイヤー_2" data-name="レイヤー 2" xmlns="http://www.w3.org/2000/svg" width="401.7" height="178.96" viewBox="0 0 401.7 178.96">
  <defs>
    <style>
      .cls-1 {
        fill: #a2d6d6;
        opacity: .8;
      }

      .cls-2 {
        fill: #63bbba;
      }

      .cls-3 {
        fill: #fff;
      }

      .cls-4 {
        fill: #4d9595;
      }

      .cls-5 {
        fill: #e0f1f1;
      }

      .cls-6 {
        fill: #64bbba;
        opacity: .9;
        stroke: #fff;
        stroke-miterlimit: 10;
        stroke-width: 4.95px;
      }
    </style>
  </defs>
  <g id="_レイヤー_1-2" data-name="レイヤー 1">
    <g>
      <g>
        <rect class="cls-1" x="111.38" y="-111.38" width="178.95" height="401.7" transform="translate(290.32 -111.38) rotate(90)"/>
        <polygon class="cls-5" points="0 .01 14.03 14.04 387.67 14.04 401.7 .01 0 .01"/>
        <polygon class="cls-4" points="14.03 164.93 0 178.96 401.7 178.96 387.67 164.93 14.03 164.93"/>
        <polygon class="cls-2" points="387.67 14.04 401.7 .01 401.7 178.96 387.67 164.93 387.67 14.04"/>
        <rect class="cls-6" x="125.41" y="-97.33" width="150.88" height="373.63" transform="translate(290.33 -111.36) rotate(90)"/>
      </g>
      <g>
        <path class="cls-3" d="M57.69,85.87c1.45.26,5.59,1.71,5.59,3.21,0,.83-.78,1.35-2.79,1.19-1.6,3.36-4.76,9.42-10.66,14.03-1.29,1.04-2.74-.1-1.71-1.45,4.35-5.69,7.3-11.33,8.13-16.1.16-.88.47-1.09,1.45-.88ZM76.58,73.3c0,.83-.83,1.35-2.64,1.81-.31,8.7-.16,24.9-.16,37.01-.05,3.26-2.43,4.61-4.45,4.61-1.86,0-1.09-1.97-6.06-3.21-1.19-.31-.98-1.86.16-1.76,1.71.16,3.31.41,4.35.41,1.45,0,2.12-.52,2.23-2.12.21-3.62.1-13.97.1-19.31,0-3.78,0-12.16-.62-18.27-.05-.62.31-.78,1.04-.78,2.54,0,6.06.36,6.06,1.6ZM83.73,86.55c6.94,2.69,11.13,7.87,11.13,11.39,0,1.6-.72,2.9-2.38,2.9-1.19,0-1.86-.47-2.59-1.97-2.28-4.71-3.62-6.73-7.5-10.61-.93-.93-.1-2.28,1.35-1.71Z"/>
        <path class="cls-3" d="M137.6,101.2c1.19-1.71,2.69-3.73,3.52-3.73,1.09,0,5.02,3.26,5.02,4.55,0,.72-.88,1.24-3,1.24h-16.82c.31,1.5.47,3.05.47,4.55,0,5.95-2.28,8.9-7.25,8.9-.83,0-1.04-.26-1.6-1.19-.52-.83-1.35-1.24-1.97-1.45-1.24-.41-1.04-1.97.16-1.81.78.1,2.59.26,3.67.26,2.43,0,3.52-1.35,3.52-4.97,0-1.5-.16-2.95-.41-4.3h-21.07c-.67,0-1.14-.21-1.14-1.04,0-.78.47-1.04,1.14-1.04h20.5c-.67-1.86-1.66-3.57-3.05-5.12-1.09-1.19.05-2.59,1.4-1.6,1.24.93,2.28,1.97,3.11,3.11,2.59-2.28,4.55-4.55,5.85-6.73h-17.49c-.67,0-1.14-.21-1.14-1.04,0-.78.47-1.04,1.14-1.04h18.01c.88-1.04,1.66-1.81,2.28-1.81,1.35,0,4.14,2.79,4.14,3.99,0,1.04-1.55,1.24-3.26,1.45-2.12,2.28-5.07,4.92-8.38,7.04.31.57.57,1.19.78,1.76h11.9ZM139.52,81.63c.88-1.04,2.02-2.17,2.64-2.17.88,0,4.4,2.9,4.35,4.5-.05.98-1.29,1.19-2.79,1.66-1.66,1.6-3.31,3.05-4.71,4.04-1.09.83-2.23-.05-1.55-1.14.93-1.66,1.81-3.31,2.33-4.81h-31.99c.05.41.05.83.05,1.24-.05,4.04-2.33,6.99-4.97,7.14-1.14.05-2.02-.67-2.12-1.92-.1-2.33,2.69-2.59,3.88-5.69.52-1.4.21-3.21.05-4.76-.1-1.24,1.24-1.55,1.86-.41.31.72.57,1.5.83,2.33h32.14ZM108.41,72.99c-.57-1.19.21-2.28,1.71-1.5,2.64,1.29,5.12,3.26,4.76,5.69-.21,1.5-1.29,2.43-2.85,2.23-1.45-.21-1.66-1.71-2.23-3.26-.31-1.04-.88-2.17-1.4-3.16ZM119.44,71.8c-.41-1.35.52-2.33,1.97-1.35,2.48,1.6,4.66,3.73,3.93,6.16-.41,1.5-1.66,2.28-3.26,1.81-1.35-.36-1.29-1.92-1.6-3.47-.26-1.09-.72-2.17-1.04-3.16ZM129.22,79.56c1.71-2.48,3.62-5.43,4.71-8.7.1-.47.41-.88.93-.67,1.97.52,4.87,2.38,4.81,3.31-.05.78-.78,1.04-2.38.88-1.76,2.33-3.88,4.35-6.52,6.26-1.14.98-2.23.21-1.55-1.09Z"/>
        <path class="cls-3" d="M189.46,112.06c1.19-1.76,2.69-3.83,3.57-3.83,1.14,0,5.12,3.31,5.12,4.66,0,.78-.88,1.24-3.05,1.24h-42.34c-.67,0-1.14-.21-1.14-1.04,0-.78.47-1.04,1.14-1.04h20.19c.05-3,.1-8.02.16-13.61h-13.51c-.67,0-1.14-.21-1.14-1.04,0-.78.47-1.04,1.14-1.04h13.51v-11.28h-11.39c-2.02,3.31-4.61,6.78-7.92,9.68-1.24,1.04-2.43.05-1.45-1.29,5.12-6.68,8.64-14.08,9.63-20.13.05-.62.36-.83.88-.72,1.86.26,5.64,1.86,5.69,3,0,.83-1.04,1.14-2.54.98-.72,1.71-1.71,3.99-3.11,6.42h10.14c-.05-5.59-.16-10.14-.41-12.01-.05-.47.26-.72.72-.72.88,0,6.11.16,6.11,1.5,0,1.14-1.14,1.55-2.74,1.92v9.32h9.94c1.14-1.71,2.64-3.73,3.52-3.73,1.09,0,4.87,3.26,4.87,4.55,0,.78-.98,1.24-2.9,1.24h-15.42v11.28h7.66c1.14-1.71,2.64-3.73,3.47-3.73,1.09,0,4.87,3.26,4.87,4.55,0,.78-1.04,1.24-2.85,1.24h-13.15v13.61h12.73Z"/>
        <path class="cls-3" d="M212.71,84.93c0-.88.56-1.36,1.47-.84,1.47.84,2.38,1.71,4.68,1.71,2.02,0,10.34-1.13,13.57-1.6,2.33-.34,3.18-1.17,4.23-1.17,1.86,0,5.6,2.65,5.6,4.18,0,1.23-1.6,2.27-2.13,4.57-.35,1.52-1.27,5.7-2.03,9.23,1.36.36,2.77,1.11,2.77,2.19s-.56,1.81-1.66,1.81c-1.17,0-3.69-.41-6.16-.41-3.1,0-8.24.68-11.55,1.24-2.29.38-3.51,1.13-4.95,1.13-2.02,0-4.66-2.54-4.66-5.23h0c0-.88.67-1.4,1.6-.78,1.32.88,2.42,1.62,4.32,1.62,2.16,0,11.75-1.16,15.17-1.55.47-.05.94-.1,1.4-.15.74-3.94,1.51-9.18,1.77-12.43.08-1-.43-1.08-1.38-1.08-1.7,0-9.08,1.11-12.9,1.91-1.81.38-3.18.77-4.7.77-1.86,0-4.45-2.8-4.45-5.13h0Z"/>
        <path class="cls-3" d="M260.27,92.29c1.23.8,2.61,1.82,4.42,1.94,4.39.28,16.12-.61,19.69-.91,4.42-.37,5.66-.85,7.73-.85s5.27,1.19,5.27,3.41c0,.78-.54,1.36-2.15,1.36s-3.22-.36-6.32-.36c-6.06,0-16.09.81-19.69,1.26-2.34.29-4,.63-5.71.63-2.23,0-4.71-3.34-4.71-5.78,0-.88.64-1.23,1.46-.7Z"/>
        <path class="cls-3" d="M316.73,82.3c-.28-1.34.57-1.76,1.55-1.14,1.71,1.09,2.54,1.55,3.78,1.55,2.95,0,9.48-1.19,11.8-1.75,1.45-.35,2.19-1.35,3.21-1.35,1.89,0,5.64,2.57,5.64,4.14,0,1.17-2.13,2.15-3.14,3.38-1.01,1.24-3.65,4.69-5.94,7.26,6.74,2.45,13.48,6.8,13.48,11.3,0,1.6-.91,2.68-2.32,2.74-1.01.05-1.68-.44-2.27-1.67-2.32-4.85-5.61-7.99-10.5-10.67-5.03,5.07-13,10.64-21.16,13.7-1.64.61-2.3-1.26-.89-1.96,9.39-4.62,21.35-14.45,25.86-23.27.35-.69.14-1.02-.65-.91-1.82.24-7.53,1.91-9.9,2.62-1.08.32-2.63.85-3.85.85-1.71,0-4.2-2.38-4.71-4.81h0Z"/>
      </g>
    </g>
  </g>
</svg>