<?xml version="1.0" encoding="UTF-8"?>
<svg id="_レイヤー_2" data-name="レイヤー 2" xmlns="http://www.w3.org/2000/svg" width="401.42" height="178.83" viewBox="0 0 401.42 178.83">
  <defs>
    <style>
      .cls-1 {
        fill: #a2d6d6;
        opacity: .8;
      }

      .cls-2 {
        fill: #63bbba;
      }

      .cls-3 {
        fill: #fff;
      }

      .cls-4 {
        fill: #4d9595;
      }

      .cls-5 {
        fill: #e0f1f1;
      }

      .cls-6 {
        fill: #64bbba;
        opacity: .9;
        stroke: #fff;
        stroke-miterlimit: 10;
        stroke-width: 4.95px;
      }
    </style>
  </defs>
  <g id="_レイヤー_1-2" data-name="レイヤー 1">
    <g>
      <g>
        <rect class="cls-1" x="111.3" y="-111.3" width="178.82" height="401.42" transform="translate(290.12 -111.3) rotate(90)"/>
        <polygon class="cls-5" points="0 .01 14.02 14.03 387.39 14.03 401.42 .01 0 .01"/>
        <polygon class="cls-4" points="14.02 164.81 0 178.83 401.42 178.83 387.39 164.81 14.02 164.81"/>
        <polygon class="cls-2" points="387.39 14.03 401.42 .01 401.42 178.83 387.39 164.81 387.39 14.03"/>
        <rect class="cls-6" x="125.32" y="-97.26" width="150.78" height="373.37" transform="translate(290.13 -111.29) rotate(90)"/>
      </g>
      <g>
        <path class="cls-3" d="M86.35,82.25c.83-1.14,1.97-2.43,2.59-2.43,1.19,0,4.5,2.48,4.5,3.62,0,.72-1.09,1.24-2.12,1.65-.16,4.55.05,13.65.05,15.88,0,1.6-.88,1.96-2.38,1.96-1.24,0-1.65-.93-1.65-1.76v-2.43h-14.27c.1,6.15.21,14.53.21,16.03,0,1.19-.98,1.86-2.69,1.86-1.03,0-1.71-.57-1.71-1.55,0-1.71.26-10.14.36-16.34h-13.65v3.88c0,1.14-.83,1.65-2.48,1.65-.93,0-1.5-.52-1.5-1.45.05-3.15.41-17.22-.16-21.98-.1-.57.36-.83.83-.67.98.26,3,1.14,4.24,2.07h12.77c-.1-4.19-.26-8.48-.62-10.86-.05-.52.21-.83.72-.83,3.46,0,6.46.31,6.46,1.6,0,.88-1.09,1.55-2.69,1.86-.05,1.55-.1,4.81-.1,8.22h13.29ZM69.28,96.68c.05-1.34.05-2.48.05-3.31,0-1.03,0-4.81-.05-9.05h-12.05c-.36.26-.93.41-1.6.52-.1,1.65-.1,6.88-.1,8.02v3.83h13.76ZM87.38,96.68c0-4.09.05-9.77.05-12.36h-14.43v8.48l.05,3.88h14.32Z"/>
        <path class="cls-3" d="M137.5,101.13c1.19-1.71,2.69-3.72,3.52-3.72,1.09,0,5.02,3.26,5.02,4.55,0,.72-.88,1.24-3,1.24h-16.81c.31,1.5.47,3.05.47,4.55,0,5.95-2.28,8.89-7.24,8.89-.83,0-1.03-.26-1.6-1.19-.52-.83-1.34-1.24-1.97-1.45-1.24-.41-1.03-1.96.16-1.81.78.1,2.59.26,3.67.26,2.43,0,3.52-1.34,3.52-4.96,0-1.5-.16-2.95-.41-4.29h-21.05c-.67,0-1.14-.21-1.14-1.03,0-.78.47-1.03,1.14-1.03h20.48c-.67-1.86-1.65-3.57-3.05-5.12-1.09-1.19.05-2.59,1.4-1.6,1.24.93,2.28,1.96,3.1,3.1,2.59-2.28,4.55-4.55,5.84-6.72h-17.48c-.67,0-1.14-.21-1.14-1.03,0-.78.47-1.03,1.14-1.03h18c.88-1.03,1.65-1.81,2.28-1.81,1.34,0,4.14,2.79,4.14,3.98,0,1.03-1.55,1.24-3.26,1.45-2.12,2.28-5.07,4.91-8.38,7.03.31.57.57,1.19.78,1.76h11.89ZM139.41,81.58c.88-1.03,2.02-2.17,2.64-2.17.88,0,4.4,2.9,4.34,4.5-.05.98-1.29,1.19-2.79,1.65-1.65,1.6-3.31,3.05-4.71,4.03-1.09.83-2.22-.05-1.55-1.14.93-1.65,1.81-3.31,2.33-4.81h-31.96c.05.41.05.83.05,1.24-.05,4.03-2.33,6.98-4.96,7.14-1.14.05-2.02-.67-2.12-1.91-.1-2.33,2.69-2.59,3.88-5.69.52-1.4.21-3.21.05-4.76-.1-1.24,1.24-1.55,1.86-.41.31.72.57,1.5.83,2.33h32.11ZM108.33,72.94c-.57-1.19.21-2.28,1.71-1.5,2.64,1.29,5.12,3.26,4.76,5.69-.21,1.5-1.29,2.43-2.84,2.22-1.45-.21-1.65-1.71-2.22-3.26-.31-1.03-.88-2.17-1.4-3.15ZM119.35,71.75c-.41-1.34.52-2.33,1.97-1.34,2.48,1.6,4.65,3.72,3.93,6.15-.41,1.5-1.65,2.28-3.26,1.81-1.34-.36-1.29-1.91-1.6-3.46-.26-1.09-.72-2.17-1.03-3.15ZM129.12,79.51c1.71-2.48,3.62-5.43,4.71-8.69.1-.47.41-.88.93-.67,1.97.52,4.86,2.38,4.81,3.31-.05.78-.78,1.03-2.38.88-1.76,2.33-3.88,4.34-6.52,6.26-1.14.98-2.22.21-1.55-1.09Z"/>
        <path class="cls-3" d="M189.32,111.99c1.19-1.76,2.69-3.83,3.57-3.83,1.14,0,5.12,3.31,5.12,4.65,0,.78-.88,1.24-3.05,1.24h-42.3c-.67,0-1.14-.21-1.14-1.03,0-.78.47-1.03,1.14-1.03h20.17c.05-3,.1-8.02.16-13.6h-13.5c-.67,0-1.14-.21-1.14-1.03,0-.78.47-1.03,1.14-1.03h13.5v-11.27h-11.38c-2.02,3.31-4.6,6.77-7.91,9.67-1.24,1.03-2.43.05-1.45-1.29,5.12-6.67,8.64-14.07,9.62-20.12.05-.62.36-.83.88-.72,1.86.26,5.64,1.86,5.69,3,0,.83-1.03,1.14-2.53.98-.72,1.71-1.71,3.98-3.1,6.41h10.14c-.05-5.58-.16-10.14-.41-12-.05-.47.26-.72.72-.72.88,0,6.1.15,6.1,1.5,0,1.14-1.14,1.55-2.74,1.91v9.31h9.93c1.14-1.71,2.64-3.72,3.52-3.72,1.09,0,4.86,3.26,4.86,4.55,0,.78-.98,1.24-2.9,1.24h-15.41v11.27h7.65c1.14-1.71,2.64-3.72,3.46-3.72,1.09,0,4.86,3.26,4.86,4.55,0,.78-1.03,1.24-2.84,1.24h-13.13v13.6h12.72Z"/>
        <path class="cls-3" d="M212.55,84.88c0-.88.56-1.36,1.47-.84,1.46.84,2.38,1.71,4.68,1.71,2.02,0,10.33-1.12,13.55-1.59,2.32-.34,3.18-1.17,4.23-1.17,1.85,0,5.59,2.65,5.59,4.17,0,1.23-1.6,2.26-2.13,4.57-.35,1.52-1.27,5.69-2.03,9.23,1.35.36,2.76,1.1,2.76,2.18s-.56,1.81-1.65,1.81c-1.17,0-3.68-.41-6.15-.41-3.09,0-8.23.68-11.54,1.24-2.28.38-3.5,1.13-4.95,1.13-2.02,0-4.65-2.53-4.65-5.22h0c0-.88.67-1.4,1.6-.78,1.32.88,2.41,1.61,4.31,1.61,2.16,0,11.74-1.16,15.16-1.55.47-.05.94-.1,1.4-.15.74-3.94,1.51-9.17,1.77-12.42.08-1-.43-1.08-1.38-1.08-1.7,0-9.07,1.11-12.89,1.91-1.81.38-3.17.77-4.7.77-1.86,0-4.44-2.8-4.44-5.12h0Z"/>
        <path class="cls-3" d="M260.08,92.23c1.23.8,2.61,1.82,4.41,1.94,4.39.28,16.1-.61,19.68-.91,4.42-.37,5.65-.85,7.72-.85s5.27,1.19,5.27,3.4c0,.78-.54,1.36-2.15,1.36s-3.22-.36-6.32-.36c-6.06,0-16.08.81-19.67,1.26-2.34.29-3.99.62-5.7.62-2.22,0-4.71-3.34-4.71-5.77,0-.88.64-1.23,1.46-.7Z"/>
        <path class="cls-3" d="M316.5,82.25c-.28-1.34.57-1.76,1.55-1.14,1.71,1.09,2.53,1.55,3.78,1.55,2.95,0,9.48-1.19,11.79-1.75,1.45-.35,2.19-1.35,3.2-1.35,1.89,0,5.64,2.57,5.64,4.14,0,1.17-2.13,2.14-3.14,3.37-1.01,1.24-3.65,4.69-5.93,7.26,6.74,2.44,13.47,6.79,13.47,11.29,0,1.6-.91,2.67-2.32,2.74-1.01.05-1.68-.44-2.26-1.67-2.32-4.85-5.61-7.98-10.49-10.66-5.03,5.06-12.99,10.63-21.14,13.68-1.64.61-2.3-1.26-.89-1.96,9.38-4.61,21.33-14.44,25.84-23.25.35-.69.14-1.02-.65-.91-1.82.24-7.52,1.91-9.89,2.62-1.08.32-2.63.85-3.85.85-1.71,0-4.2-2.38-4.71-4.81h0Z"/>
      </g>
    </g>
  </g>
</svg>