<?xml version="1.0" encoding="UTF-8"?>
<svg id="_レイヤー_2" data-name="レイヤー 2" xmlns="http://www.w3.org/2000/svg" width="211.51" height="107.4" viewBox="0 0 211.51 107.4">
  <defs>
    <style>
      .cls-1 {
        fill: #64bbba;
      }
    </style>
  </defs>
  <g id="_レイヤー_1-2" data-name="レイヤー 1">
    <path class="cls-1" d="M156.59,38.25C150.27,16.19,129.88,0,105.76,0s-44.51,16.19-50.84,38.25C24.52,38.92,0,63.76,0,94.22v9.88c0,1.82,1.48,3.29,3.3,3.29h204.9c1.83,0,3.3-1.48,3.3-3.29v-9.88c0-30.46-24.52-55.3-54.92-55.97ZM63.64,90.57c-.73,1.27-2.07,1.98-3.44,1.98-.67,0-1.35-.17-1.98-.53l-11.64-6.7c-1.9-1.09-2.55-3.51-1.45-5.4,1.09-1.89,3.52-2.54,5.42-1.45l11.64,6.7c1.9,1.09,2.55,3.51,1.45,5.4ZM81.44,72.82c-.62.36-1.31.53-1.98.53-1.37,0-2.71-.71-3.44-1.98l-6.72-11.6c-1.1-1.89-.45-4.31,1.45-5.4,1.9-1.09,4.33-.44,5.42,1.45l6.72,11.6c1.1,1.89.45,4.31-1.45,5.4ZM109.72,62.38c0,2.18-1.78,3.95-3.97,3.95s-3.97-1.77-3.97-3.95v-13.4c0-2.18,1.78-3.95,3.97-3.95s3.97,1.77,3.97,3.95v13.4ZM142.21,59.78l-6.72,11.6c-.73,1.27-2.07,1.98-3.44,1.98-.67,0-1.35-.17-1.98-.53-1.9-1.09-2.55-3.51-1.45-5.4l6.72-11.6c1.09-1.89,3.51-2.54,5.42-1.45,1.9,1.09,2.55,3.51,1.45,5.4ZM164.93,85.32l-11.64,6.7c-.62.36-1.31.53-1.98.53-1.37,0-2.7-.71-3.44-1.98-1.1-1.89-.45-4.31,1.45-5.4l11.64-6.7c1.9-1.09,4.33-.44,5.42,1.45,1.1,1.89.45,4.31-1.45,5.4Z"/>
  </g>
</svg>