<?xml version="1.0" encoding="UTF-8"?>
<svg id="_レイヤー_2" data-name="レイヤー 2" xmlns="http://www.w3.org/2000/svg" width="401.42" height="178.83" viewBox="0 0 401.42 178.83">
  <defs>
    <style>
      .cls-1 {
        fill: #a2d6d6;
        opacity: .8;
      }

      .cls-2 {
        fill: #63bbba;
      }

      .cls-3 {
        fill: #fff;
      }

      .cls-4 {
        fill: #4d9595;
      }

      .cls-5 {
        fill: #e0f1f1;
      }

      .cls-6 {
        fill: #64bbba;
        opacity: .9;
        stroke: #fff;
        stroke-miterlimit: 10;
        stroke-width: 4.95px;
      }
    </style>
  </defs>
  <g id="_レイヤー_1-2" data-name="レイヤー 1">
    <g>
      <g>
        <rect class="cls-1" x="111.3" y="-111.3" width="178.82" height="401.42" transform="translate(290.12 -111.3) rotate(90)"/>
        <polygon class="cls-5" points="0 .01 14.02 14.03 387.39 14.03 401.42 .01 0 .01"/>
        <polygon class="cls-4" points="14.02 164.81 0 178.83 401.42 178.83 387.39 164.81 14.02 164.81"/>
        <polygon class="cls-2" points="387.39 14.03 401.42 .01 401.42 178.83 387.39 164.81 387.39 14.03"/>
        <rect class="cls-6" x="125.32" y="-97.26" width="150.78" height="373.37" transform="translate(290.13 -111.29) rotate(90)"/>
      </g>
      <g>
        <path class="cls-3" d="M216.15,82.88c0-.88.56-1.36,1.47-.84,1.46.84,2.38,1.71,4.68,1.71,2.02,0,10.33-1.12,13.55-1.59,2.32-.34,3.18-1.17,4.23-1.17,1.85,0,5.59,2.65,5.59,4.17,0,1.23-1.6,2.26-2.13,4.57-.35,1.52-1.27,5.69-2.03,9.23,1.35.36,2.76,1.1,2.76,2.18s-.56,1.81-1.65,1.81c-1.17,0-3.68-.41-6.15-.41-3.09,0-8.23.68-11.54,1.24-2.28.38-3.5,1.13-4.95,1.13-2.02,0-4.65-2.53-4.65-5.22h0c0-.88.67-1.4,1.6-.78,1.32.88,2.41,1.61,4.31,1.61,2.16,0,11.74-1.16,15.16-1.55.47-.05.94-.1,1.4-.15.74-3.94,1.51-9.17,1.77-12.42.08-1-.43-1.08-1.38-1.08-1.7,0-9.07,1.11-12.89,1.91-1.81.38-3.17.77-4.7.77-1.86,0-4.44-2.8-4.44-5.12h0Z"/>
        <path class="cls-3" d="M263.68,90.23c1.23.8,2.61,1.82,4.41,1.94,4.39.28,16.1-.61,19.68-.91,4.42-.37,5.65-.85,7.72-.85s5.27,1.19,5.27,3.4c0,.78-.54,1.36-2.15,1.36s-3.22-.36-6.32-.36c-6.06,0-16.08.81-19.67,1.26-2.34.29-3.99.62-5.7.62-2.22,0-4.71-3.34-4.71-5.77,0-.88.64-1.23,1.46-.7Z"/>
        <path class="cls-3" d="M320.1,80.25c-.28-1.34.57-1.76,1.55-1.14,1.71,1.09,2.53,1.55,3.78,1.55,2.95,0,9.48-1.19,11.79-1.75,1.45-.35,2.19-1.35,3.2-1.35,1.89,0,5.64,2.57,5.64,4.14,0,1.17-2.13,2.14-3.14,3.37-1.01,1.24-3.65,4.69-5.93,7.26,6.74,2.44,13.47,6.79,13.47,11.29,0,1.6-.91,2.67-2.32,2.74-1.01.05-1.68-.44-2.26-1.67-2.32-4.85-5.61-7.98-10.49-10.66-5.03,5.06-12.99,10.63-21.14,13.68-1.64.61-2.3-1.26-.89-1.96,9.38-4.61,21.33-14.44,25.84-23.25.35-.69.14-1.02-.65-.91-1.82.24-7.52,1.91-9.89,2.62-1.08.32-2.63.85-3.85.85-1.71,0-4.2-2.38-4.71-4.81h0Z"/>
      </g>
      <g>
        <path class="cls-3" d="M89.55,48.52c1.06-1.58,2.5-3.46,3.26-3.46.96,0,4.66,2.98,4.66,4.22,0,.67-.86,1.15-2.78,1.15h-38.02c-.62,0-1.06-.19-1.06-.96,0-.72.43-.96,1.06-.96h17.86c0-1.58-.05-3.41-.19-4.66-.05-.48.24-.72.67-.72.82,0,5.47.14,5.47,1.44,0,1.01-1.06,1.39-2.54,1.73v2.21h11.62ZM90.65,66.61c.77-.96,1.63-1.92,1.97-1.92,1.2,0,4.42,2.74,4.42,3.65,0,.72-1.06,1.25-2.21,1.68-.05,3.22,0,8.21-.05,12.58,0,2.78-2.3,3.98-4.22,3.98s-.72-1.68-3.41-2.59c-.96-.38-.82-1.54.1-1.54.38,0,1.92.19,2.64.19,1.1,0,1.49-.43,1.58-1.49.1-1.78.1-4.66.1-6.91v-5.71h-28.95c-.24.1-.58.14-.86.19-.1,1.54-.1,6.38-.1,7.49l.05,8.98c0,1.06-.72,1.54-2.16,1.54-.86,0-1.34-.48-1.34-1.34.05-3.6.38-14.93-.14-19.73-.05-.34.29-.67.67-.62.77.1,2.74.82,3.94,1.58h27.99ZM83.36,54.18c.67-.91,1.54-1.92,2.06-1.92.96,0,3.79,2.06,3.79,3.12,0,.62-.82,1.01-1.63,1.34-.05,2.16,0,5.38,0,6.53,0,1.49-.72,1.82-2.06,1.82-1.1,0-1.44-.86-1.44-1.63v-.53h-14.98v.86c0,1.06-.77,1.44-2.21,1.44-.86,0-1.3-.43-1.3-1.25,0-2.54.19-7.06-.19-10.71-.05-.38.34-.67.72-.62.77.1,2.64.77,3.79,1.54h13.44ZM80.52,72.09c.62-.86,1.39-1.68,1.87-1.68.91,0,3.65,2.02,3.65,3.07,0,.62-.77,1.01-1.58,1.34-.05,2.06,0,5.42,0,6.53,0,1.49-.72,1.87-1.97,1.87-1.1,0-1.44-.86-1.44-1.63v-.86h-9.31v1.39c0,1.06-.72,1.49-2.02,1.49-.77,0-1.2-.48-1.2-1.3,0-2.64.19-7.44-.19-11.19-.05-.38.34-.67.72-.58.82.14,2.54.82,3.55,1.54h7.92ZM84.12,61l.05-4.9h-14.16c-.29.1-.58.14-.86.19-.05.77-.05,2.78-.05,3.46v1.25h15.03ZM81.1,78.81l.05-4.8h-9.36c-.05.86-.1,2.93-.1,3.79v1.01h9.41Z"/>
        <path class="cls-3" d="M112.83,57.54v6.86c0,3.26.14,18.58.14,20.59,0,1.1-.62,1.73-2.11,1.73-.91,0-1.39-.53-1.39-1.44,0-1.92.38-14.4.43-19.01-1.78,3.26-4.08,6.48-7.1,9.07-1.2,1.01-2.3.1-1.34-1.15,4.08-5.09,6.82-10.8,8.16-16.66h-6.1c-.62,0-1.06-.19-1.06-.96,0-.72.43-.96,1.06-.96h6.38c-.05-4.37-.19-8.98-.58-11.38-.1-.43.19-.67.62-.67,2.93,0,5.42.29,5.42,1.44,0,.77-.96,1.25-2.4,1.54-.05,1.63-.1,5.42-.14,9.07h1.15c.91-1.39,1.97-2.78,2.54-2.78.86,0,3.36,2.74,3.41,3.7,0,.72-.96,1.01-1.87,1.01h-5.23ZM115.03,67.76c-.34-.91-.82-1.82-1.3-2.74-.53-.91.1-1.78,1.25-1.25,2.26,1.06,4.37,2.74,4.18,4.7-.1,1.2-.91,1.97-2.11,1.87-1.2-.14-1.44-1.25-2.02-2.59ZM146.57,83.56c-1.25.43-1.78.96-2.16,1.54-.53.77-.82,1.15-2.35.82-4.75-.96-8.35-3.02-10.94-6-3.55,3.22-8.78,5.76-15.22,6.82-1.44.29-1.73-1.2-.48-1.63,6.19-1.73,10.9-4.37,13.97-7.49-1.63-2.64-2.74-5.76-3.41-9.41-.53.91-1.3,2.02-1.73,2.78-.38.62-.77.62-1.25.19-.34-.43-.77-1.15-1.15-1.68-.34-.53-.34-.86.34-1.34.91-.53,1.78-1.34,2.5-2.06.58-.62.96-1.25,1.34-1.92.43-.77.67-1.01,1.44-.24.67.62.91.96.38,1.73-.14.14-.34.38-.48.62.77,3.6,2.06,6.62,3.94,8.98,2.02-2.74,3.26-5.9,3.98-10.13.14-.72.34-1.06.82-1.01,1.82.05,4.66,1.54,4.61,2.54,0,.67-.72.96-2.3.96-1.1,3.84-2.59,7.06-4.94,9.89,3.07,2.59,7.3,4.13,12.87,4.56,1.58.14,1.39,1.06.24,1.49ZM118.83,53.56c-.62,0-1.06-.19-1.06-.96,0-.72.43-.96,1.06-.96h10.46c.05-2.45,0-5.71-.14-7.44-.05-.48.24-.72.67-.72.82,0,5.33.14,5.33,1.39,0,1.01-1.01,1.39-2.5,1.73v5.04h6.67c1.01-1.54,2.35-3.31,3.07-3.31.96,0,4.22,2.98,4.27,4.13,0,.67-.96,1.1-2.5,1.1h-25.35ZM125.55,55.67c1.54.62,3.98,2.21,3.89,3.12-.05.72-.96.86-2.35.62-1.25,1.78-3.55,4.46-6.96,6.34-1.15.67-2.02-.19-1.15-1.2,2.59-2.64,4.27-5.18,5.52-8.35.14-.48.53-.72,1.06-.53ZM144.46,61.52c.24,1.34-.34,2.45-1.58,2.74-1.39.29-2.21-1.06-3.6-2.93-1.01-1.3-2.21-2.5-3.31-3.6-.86-.86-.43-2.02.96-1.68,3.65.82,7.01,2.88,7.54,5.47Z"/>
        <path class="cls-3" d="M185.93,82.41c1.1-1.63,2.5-3.55,3.31-3.55,1.06,0,4.75,3.07,4.75,4.32,0,.72-.82,1.15-2.83,1.15h-39.27c-.62,0-1.06-.19-1.06-.96,0-.72.43-.96,1.06-.96h18.72c.05-2.78.1-7.44.14-12.62h-12.53c-.62,0-1.06-.19-1.06-.96,0-.72.43-.96,1.06-.96h12.53v-10.46h-10.56c-1.87,3.07-4.27,6.29-7.34,8.98-1.15.96-2.26.05-1.34-1.2,4.75-6.19,8.02-13.06,8.93-18.67.05-.58.34-.77.82-.67,1.73.24,5.23,1.73,5.28,2.78,0,.77-.96,1.06-2.35.91-.67,1.58-1.58,3.7-2.88,5.95h9.41c-.05-5.18-.14-9.41-.38-11.14-.05-.43.24-.67.67-.67.82,0,5.66.14,5.66,1.39,0,1.06-1.06,1.44-2.54,1.78v8.64h9.22c1.06-1.58,2.45-3.46,3.26-3.46,1.01,0,4.51,3.02,4.51,4.22,0,.72-.91,1.15-2.69,1.15h-14.31v10.46h7.1c1.06-1.58,2.45-3.46,3.22-3.46,1.01,0,4.51,3.02,4.51,4.22,0,.72-.96,1.15-2.64,1.15h-12.19v12.62h11.81Z"/>
        <path class="cls-3" d="M60.89,132.13c0,1.54.72,2.78.72,5.18,0,2.06-.96,3.02-2.45,3.02s-1.87-1.3-1.87-2.16.48-3.07.05-4.32c-.58-1.73-1.49-2.26-2.69-3.36-.77-.67-.1-1.68.72-1.39.62.19,1.58.58,2.11.72.53.19.77.05,1.2-.58,1.01-1.44,3.12-5.38,4.08-6.96.67-1.06,2.06-.53,1.68.72-.91,2.98-3.55,7.78-3.55,9.12ZM55.13,112.16c-.86-.86-.58-1.97.91-1.78,2.93.29,5.95,1.54,6.48,3.89.24,1.39-.43,2.54-1.82,2.83-1.3.24-2.06-.91-3.07-2.3-.77-.91-1.68-1.82-2.5-2.64ZM58.49,100.79c-.82-.86-.48-1.92.91-1.73,2.98.38,6,1.63,6.48,4.08.24,1.34-.38,2.45-1.82,2.74-1.25.24-1.97-.96-3.07-2.3-.77-1.01-1.68-1.92-2.5-2.78ZM81.39,120.8c.96,3.12,2.4,5.81,4.37,8.06,3.02-2.21,5.66-4.8,7.54-7.68.29-.38.58-.58,1.06-.34,1.49.86,3.5,2.64,3.26,3.55-.14.62-.91.72-2.3.29-1.68,1.49-4.75,3.94-8.26,5.62,2.93,2.83,6.82,4.9,11.67,6.05,1.15.29,1.49,1.2-.14,1.63-1.06.29-1.49.96-2.02,1.58-.43.43-1.06.48-1.82.24-8.11-3.74-13.83-10.46-15.36-19.01h-5.86l.05,12.91c2.69-.58,4.99-1.2,6.77-1.78,1.97-.58,2.4.82.62,1.78-2.78,1.54-6.86,3.12-13.3,4.8-.19,1.1-.62,2.16-1.44,2.16-1.01,0-1.82-2.21-2.26-4.8-.05-.43.14-.58.53-.62,1.97-.24,3.84-.53,5.62-.86.1-6.86.48-26.21-.19-32.11-.05-.38.29-.72.72-.67.77.14,2.59.91,3.5,1.68h5.04c.05-1.73,0-3.74-.1-5.14-.05-.48.24-.72.67-.72.82,0,4.99.19,4.99,1.34,0,.86-.86,1.2-2.11,1.49v3.02h5.66c.67-.96,1.54-2.02,2.06-2.02.91,0,3.6,2.06,3.6,3.07,0,.58-.72,1.01-1.49,1.34-.14,3.55.05,12.77.05,14.64,0,1.49-.77,1.82-2.02,1.82-.96,0-1.34-.67-1.44-1.34h-7.68ZM73.52,112.88v6h15.55l.05-6h-15.6ZM73.71,105.2c-.1,1.25-.14,3.46-.14,5.76h15.6v-5.76h-15.46Z"/>
        <path class="cls-3" d="M125.98,104.58c.43,17.04,8.83,27.27,19.87,30.91,1.44.48,1.3,1.3.05,1.68-1.3.38-1.68.77-2.11,1.34-.53.67-1.01,1.2-2.26.53-8.26-4.46-14.26-12.34-16.32-24.34-.62,4.08-1.73,7.82-3.84,11.33-3.31,5.47-8.78,10.8-17.67,14.11-1.34.48-1.87-.96-.72-1.58,7.78-4.27,12.19-8.54,15.22-13.54,3.94-6.48,4.27-13.44,4.18-18.48-.05-2.35-.19-4.42-.38-6.53-.05-.48.1-.72.72-.72,1.58,0,6.24.77,6.24,1.97,0,.67-.82,1.49-2.93,1.82l-.05,1.49Z"/>
        <path class="cls-3" d="M185.93,136.41c1.1-1.63,2.5-3.55,3.31-3.55,1.06,0,4.75,3.07,4.75,4.32,0,.72-.82,1.15-2.83,1.15h-39.27c-.62,0-1.06-.19-1.06-.96,0-.72.43-.96,1.06-.96h18.72c.05-2.78.1-7.44.14-12.62h-12.53c-.62,0-1.06-.19-1.06-.96,0-.72.43-.96,1.06-.96h12.53v-10.46h-10.56c-1.87,3.07-4.27,6.29-7.34,8.98-1.15.96-2.26.05-1.34-1.2,4.75-6.19,8.02-13.06,8.93-18.67.05-.58.34-.77.82-.67,1.73.24,5.23,1.73,5.28,2.78,0,.77-.96,1.06-2.35.91-.67,1.58-1.58,3.7-2.88,5.95h9.41c-.05-5.18-.14-9.41-.38-11.14-.05-.43.24-.67.67-.67.82,0,5.66.14,5.66,1.39,0,1.06-1.06,1.44-2.54,1.78v8.64h9.22c1.06-1.58,2.45-3.46,3.26-3.46,1.01,0,4.51,3.02,4.51,4.22,0,.72-.91,1.15-2.69,1.15h-14.31v10.46h7.1c1.06-1.58,2.45-3.46,3.22-3.46,1.01,0,4.51,3.02,4.51,4.22,0,.72-.96,1.15-2.64,1.15h-12.19v12.62h11.81Z"/>
      </g>
    </g>
  </g>
</svg>