<?xml version="1.0" encoding="UTF-8"?>
<svg id="_レイヤー_2" data-name="レイヤー 2" xmlns="http://www.w3.org/2000/svg" width="401.7" height="178.96" viewBox="0 0 401.7 178.96">
  <defs>
    <style>
      .cls-1 {
        fill: #a2d6d6;
        opacity: .8;
      }

      .cls-2 {
        fill: #63bbba;
      }

      .cls-3 {
        fill: #fff;
      }

      .cls-4 {
        fill: #4d9595;
      }

      .cls-5 {
        fill: #e0f1f1;
      }

      .cls-6 {
        fill: #64bbba;
        opacity: .9;
        stroke: #fff;
        stroke-miterlimit: 10;
        stroke-width: 4.95px;
      }
    </style>
  </defs>
  <g id="_レイヤー_1-2" data-name="レイヤー 1">
    <g>
      <g>
        <rect class="cls-1" x="111.38" y="-111.38" width="178.95" height="401.7" transform="translate(290.32 -111.38) rotate(90)"/>
        <polygon class="cls-5" points="0 .01 14.03 14.04 387.67 14.04 401.7 .01 0 .01"/>
        <polygon class="cls-4" points="14.03 164.93 0 178.96 401.7 178.96 387.67 164.93 14.03 164.93"/>
        <polygon class="cls-2" points="387.67 14.04 401.7 .01 401.7 178.96 387.67 164.93 387.67 14.04"/>
        <rect class="cls-6" x="125.41" y="-97.33" width="150.88" height="373.63" transform="translate(290.33 -111.36) rotate(90)"/>
      </g>
      <g>
        <path class="cls-3" d="M53.5,114.77c0,1.04-.63,1.53-2.03,1.53-.81,0-1.22-.45-1.22-1.31,0-3.11.27-16.48.09-23.55-1.35,2.21-2.93,4.37-4.77,6.35-.9.99-1.98.32-1.31-.9,4.37-6.57,7.47-13.96,8.47-20.62.04-.5.27-.77.77-.68,1.67.32,4.77,1.71,4.77,2.7,0,.72-.9.99-2.21.81-.86,2.3-1.94,5.09-3.33,7.97,1.17.5,2.61,1.26,2.61,1.89,0,.59-.77.9-1.71,1.04-.18,2.3-.18,9.73-.18,11.21l.04,13.55ZM80.12,79.69c.63-.9,1.44-1.85,1.94-1.85.9,0,3.51,2.03,3.51,3.02,0,.63-.81,1.08-1.62,1.44-.32,6.21.18,28.28.18,31.61,0,1.4-.81,1.76-2.03,1.76-1.04,0-1.31-.81-1.31-1.53v-2.34h-19.05v2.57c0,1.04-.63,1.62-1.98,1.62-.86,0-1.22-.5-1.22-1.35,0-5.49.54-29.31-.18-35.98-.05-.27.23-.63.63-.63.63.09,2.88.86,3.92,1.67h17.2ZM80.84,109.99c.04-7.83.18-24.23.09-28.5h-18.82l-.23.04c-.23,2.97-.23,13.01-.23,14.9,0,1.22.05,8.6.09,13.55h19.09ZM72.28,95.45h1.04c.59-.77,1.26-1.58,1.71-1.58.86,0,3.29,1.85,3.29,2.79,0,.5-.63.9-1.35,1.17-.04,2.12,0,6.48,0,7.61,0,1.4-.63,1.71-1.8,1.71-1.04,0-1.31-.81-1.31-1.53v-.59h-5.76v1.26c0,.99-.68,1.4-1.89,1.4-.72,0-1.13-.45-1.13-1.22,0-2.66.23-8.2-.18-11.89-.04-.36.27-.63.68-.54.77.14,2.39.72,3.29,1.4h.68c.04-1.62.04-3.51,0-5.36h-5.81c-.59,0-.99-.18-.99-.9,0-.68.41-.9.99-.9h5.81c-.04-2.03-.09-3.78-.18-4.86-.04-.41.18-.63.59-.63.77,0,4.28.23,4.28,1.17,0,.68-.77,1.04-1.94,1.26v3.06h2.07c.81-1.26,1.76-2.57,2.3-2.57.86,0,3.2,2.52,3.24,3.42,0,.68-.86.95-1.8.95h-5.81v5.36ZM73.9,103.24c0-1.94.04-4.5.04-5.99h-5.81c-.04.95-.09,3.33-.09,4.23v1.76h5.85Z"/>
        <path class="cls-3" d="M106.37,78.88c.68-.86,1.49-1.8,1.98-1.8.95,0,3.65,1.98,3.65,2.97,0,.59-.77.99-1.58,1.35-.09,3.11.04,9.1.04,10.67,0,1.4-.77,1.71-2.03,1.71-1.04,0-1.4-.81-1.4-1.53v-.41h-4.01c.18.18.27.36.27.54-.04.68-.63.95-1.8,1.04-.09,1.53-.23,3.02-.41,4.41h5.49c.59-.77,1.26-1.44,1.62-1.44.99,0,3.65,1.98,3.65,2.75,0,.54-.72,1.17-1.62,1.62-.23,3.96-.81,9.19-1.98,11.53-1.04,2.07-2.61,3.29-5.58,3.29-1.31,0-1.58-.5-1.94-1.13-.36-.77-.95-.95-1.8-1.26-.63-.27-.81-.59-.72-1.04.09-.32.41-.59.95-.5,1.17.18,2.25.36,3.65.36,1.67,0,2.34-.81,2.7-1.58.99-1.8,1.62-7.2,1.62-10.81h-6.3c-.32,1.98-.77,3.74-1.22,5.09-1.08,3.15-3.33,8.1-8.6,11.35-.99.63-1.71-.45-.9-1.17,3.65-3.6,5.58-7.43,6.48-10.36.9-2.79,1.71-7.29,1.49-12.7h-2.34v1.85c0,.95-.68,1.4-1.98,1.4-.77,0-1.17-.45-1.17-1.26,0-3.11.27-12.02-.18-16.21-.04-.36.27-.63.63-.59.86.09,3.15.99,4.05,1.85h9.28ZM107.05,90.04c.04-2.79.09-7.29.09-9.37h-11.35c-.09,1.44-.09,4.82-.09,5.81v3.56h11.35ZM119.61,93.92c0,2.12.09,10.9.09,12.25,0,.99-.72,1.4-2.07,1.4-.81,0-1.31-.45-1.31-1.26,0-1.44.32-9.82.32-12.02,0-1.53.09-9.95-.41-13.06-.09-.41.18-.63.59-.63,2.3,0,5.13.23,5.13,1.35,0,.72-.9,1.22-2.3,1.44-.04,2.03-.04,9.23-.04,10.54ZM131.05,77.89c0,.77-.77,1.17-2.34,1.58-.23,7.74-.09,22.02-.13,32.74,0,2.66-1.62,4.05-3.47,4.05-1.53,0-.9-1.62-4.41-2.66-1.04-.36-.81-1.53.14-1.49,1.13.09,2.12.23,2.84.23,1.13,0,1.67-.41,1.76-1.8.18-3.2.09-11.57.09-16.3,0-3.33,0-12.02-.54-17.07-.04-.5.23-.68.9-.68,2.48,0,5.18.36,5.18,1.4Z"/>
        <path class="cls-3" d="M145.05,88.06v7.61c2.07-.68,3.92-1.4,5.58-2.07,1.67-.63,2.21.59.72,1.53-1.76,1.13-3.87,2.16-6.3,3.2.04,4.77.04,9.59.04,13.87,0,2.3-1.17,4.05-3.38,4.05-1.62,0-.9-1.49-3.78-2.57-.99-.45-.86-1.4.04-1.4.77.05,2.03.14,2.7.09.81,0,1.31-.32,1.4-1.71.13-2.66.13-7.02.09-11.17-1.26.5-2.61.99-4.01,1.44-.14,1.08-.54,2.12-1.26,2.12-.95,0-1.67-1.67-2.07-4.05-.04-.41.14-.59.5-.63,2.48-.54,4.73-1.13,6.84-1.76,0-1.58,0-4.95-.04-8.56h-6.12c-.59,0-.99-.18-.99-.9,0-.68.41-.9.99-.9h6.08c-.05-3.96-.18-7.83-.45-9.73-.09-.68.09-.9.86-.9,3.38,0,5.09.63,5.09,1.44,0,.72-.99,1.13-2.43,1.53-.05,2.12-.09,4.73-.09,7.65h1.04c.9-1.35,1.98-2.79,2.57-2.79.86,0,3.51,2.66,3.51,3.6,0,.68-.9.99-1.98.99h-5.13ZM176.3,90.86c0,1.08-2.88,2.97-12.29,2.97s-10.27-.63-10.27-5.31c0-1.53.05-9.46-.13-11.98-.05-.63.18-.77.81-.77.27,0,3.92.05,3.92,1.53,0,.59,0,.99-1.49,1.22-.04.99-.09,3.38-.13,5.63,5.31-1.8,9.5-3.83,12.47-5.9.95-.68,1.13-.72,2.16-.04.9.59,1.94,1.58,2.39,2.25.68.86-.18,1.53-1.94.81-3.06,1.44-9.68,3.78-15.13,4.77-.05,1.26-.05,2.3-.05,2.75,0,1.89.23,2.16,7.29,2.16,6.35,0,8.56-.9,9.05-1.8.45-.77.72-2.03.9-2.48.32-.77,1.08-.77,1.22.09.04.41.18,1.49.27,2.03.23,1.26.95.99.95,2.07ZM169.01,98.2c.63-.86,1.44-1.8,1.94-1.8.9,0,3.56,1.94,3.56,2.93,0,.59-.77.99-1.53,1.31-.14,3.51.04,11.75.04,13.51,0,1.4-.72,1.76-1.98,1.76-1.04,0-1.35-.81-1.35-1.53v-.81h-12.61v1.26c0,.99-.68,1.44-2.03,1.44-.77,0-1.22-.45-1.22-1.22.04-3.38.31-13.55-.14-17.97-.04-.36.27-.63.63-.59.77.09,2.93.9,3.92,1.71h10.76ZM169.77,104.77v-4.77h-12.65c-.04.99-.09,3.11-.09,4.77h12.74ZM169.68,111.75l.04-5.18h-12.7v.14l.05,5.04h12.61Z"/>
        <path class="cls-3" d="M186.21,87.3c.59-.81,1.4-1.76,1.85-1.76.81,0,3.29,1.94,3.29,2.88,0,.63-.77,1.13-1.53,1.44-.04,1.31-.14,3.65-.09,5.4,1.76,2.79,4.1,3.83,8.02,3.92,4.95.09,16.03.23,22.87-.63,1.31-.18,1.4,1.08.27,1.35-.59.14-.86.5-1.17,1.08-.27.54-.68.68-1.71.77-5.27.36-15.94.36-20.4-.05-4.82-.45-7.43-1.8-9.05-4.59-1.62,1.89-3.06,3.29-4.82,5.04-.41,1.53-.99,1.89-1.8.86-.45-.54-1.08-1.58-1.31-2.25-.23-.54-.13-.86.54-1.17,1.98-.95,3.78-2.03,5.67-3.38,0-1.49.09-5.18.09-7.11h-5.13c-.59,0-.99-.18-.99-.9,0-.68.41-.9.99-.9h4.41ZM214.76,105.58c.9-1.31,2.03-2.75,2.66-2.75.86,0,3.92,2.57,3.92,3.6.04.59-.63.95-2.34.95h-8.96l-.04,5.81c0,2.3-1.62,3.15-3.24,3.15-1.71,0-.9-1.49-4.14-2.25-1.08-.27-.9-1.58.04-1.53.81.09,2.48.27,3.11.27.86-.04,1.13-.36,1.13-1.26.04-.81.04-2.48,0-4.19h-25.26c-.59,0-.99-.18-.99-.9,0-.68.41-.9.99-.9h25.26c-.05-1.08-.09-2.03-.14-2.61-.04-.54.23-.72.68-.72,1.89,0,4.23.18,4.23,1.17,0,.68-.81.99-1.58,1.22v.95h4.68ZM183.92,77.71c-.59-.81-.14-1.71,1.08-1.35,2.21.63,4.55,1.89,4.59,3.87,0,1.22-.77,2.07-2.03,2.07-1.08,0-1.58-1.04-2.16-2.21-.41-.81-.95-1.62-1.49-2.39ZM197.74,112.2c.14,1.22-.59,2.16-1.85,2.25-1.22.14-1.8-.9-2.66-2.3-.58-.95-1.26-1.94-1.98-2.79-.63-.77-.27-1.62.9-1.4,2.66.54,5.4,2.03,5.58,4.23ZM192.29,81.94c-.59,0-.99-.18-.99-.9,0-.68.41-.9.99-.9h7.97c-.36-.36-.59-.95-.86-1.49-.31-.59-.72-1.22-1.08-1.8-.54-.81-.09-1.67,1.08-1.31,1.85.59,3.74,1.49,3.69,3.2-.04.59-.23,1.08-.63,1.4h5.31c.5-1.13,1.04-2.66,1.31-4.1.09-.5.41-.54.86-.5,2.03.23,3.87.99,3.87,1.71,0,.63-.58.86-1.53.86-.59.54-1.44,1.26-2.3,2.03h5.27c.81-1.17,1.8-2.48,2.39-2.48.77,0,3.65,2.39,3.69,3.38,0,.59-.63.9-2.21.9h-12.52c-.77.9-1.62,1.8-2.16,2.34h7.65c.63-.81,1.35-1.67,1.8-1.67.81,0,3.24,1.8,3.24,2.7,0,.54-.59.9-1.26,1.22-.04,2.57.05,8.69.05,10.09s-.68,1.71-1.89,1.71c-1.04,0-1.31-.77-1.31-1.49h-14.41v.18c0,.99-.68,1.4-1.94,1.4-.77,0-1.17-.41-1.17-1.22,0-2.84.23-9.91-.18-13.82-.04-.36.27-.63.63-.54.77.09,2.52.72,3.56,1.44h3.24c.18-.54.45-1.44.63-2.34h-10.81ZM198.28,91.49h14.5l.05-1.8h-14.54v1.8ZM198.33,95.04h14.41l.04-1.76h-14.5l.04,1.76ZM198.64,86.08l-.27.04c0,.36-.04,1.04-.04,1.76h14.5v-1.8h-14.18Z"/>
        <path class="cls-3" d="M233.68,88.59c0-.77.48-1.18,1.28-.73,1.28.73,2.07,1.49,4.08,1.49,1.75,0,9-.98,11.8-1.39,2.02-.29,2.77-1.02,3.68-1.02,1.62,0,4.87,2.31,4.87,3.63,0,1.07-1.39,1.97-1.86,3.98-.31,1.32-1.1,4.96-1.77,8.03,1.18.32,2.41.96,2.41,1.9s-.49,1.58-1.44,1.58c-1.02,0-3.21-.36-5.36-.36-2.69,0-7.16.59-10.05,1.08-1.99.33-3.05.98-4.31.98-1.76,0-4.05-2.21-4.05-4.55h0c0-.77.59-1.22,1.4-.68,1.15.77,2.1,1.41,3.76,1.41,1.88,0,10.22-1.01,13.2-1.35.41-.05.82-.09,1.22-.13.64-3.43,1.31-7.99,1.54-10.81.07-.87-.37-.94-1.2-.94-1.48,0-7.9.97-11.22,1.66-1.58.33-2.76.67-4.09.67-1.62,0-3.87-2.43-3.87-4.46h0Z"/>
        <path class="cls-3" d="M275.06,95c1.07.69,2.27,1.59,3.84,1.69,3.82.25,14.02-.53,17.13-.79,3.85-.32,4.92-.74,6.72-.74s4.59,1.04,4.59,2.96c0,.68-.47,1.18-1.87,1.18s-2.8-.31-5.5-.31c-5.28,0-14,.7-17.13,1.1-2.03.26-3.48.54-4.96.54-1.94,0-4.1-2.91-4.1-5.03,0-.77.56-1.07,1.27-.61Z"/>
        <path class="cls-3" d="M324.19,86.31c-.24-1.17.5-1.53,1.35-.99,1.49.95,2.21,1.35,3.29,1.35,2.57,0,8.25-1.04,10.27-1.53,1.26-.3,1.91-1.18,2.79-1.18,1.64,0,4.91,2.23,4.91,3.6,0,1.02-1.85,1.87-2.73,2.94-.88,1.08-3.17,4.08-5.17,6.32,5.87,2.13,11.73,5.92,11.73,9.83,0,1.39-.79,2.33-2.02,2.39-.88.04-1.46-.38-1.97-1.45-2.02-4.22-4.88-6.95-9.13-9.28-4.38,4.41-11.31,9.26-18.41,11.92-1.42.53-2-1.1-.78-1.7,8.17-4.02,18.58-12.57,22.5-20.25.31-.6.13-.89-.56-.8-1.58.21-6.55,1.67-8.61,2.28-.94.28-2.29.74-3.35.74-1.49,0-3.66-2.07-4.1-4.19h0Z"/>
      </g>
    </g>
  </g>
</svg>