<?xml version="1.0" encoding="UTF-8"?>
<svg id="_レイヤー_2" data-name="レイヤー 2" xmlns="http://www.w3.org/2000/svg" width="182.54" height="182.54" viewBox="0 0 182.54 182.54">
  <defs>
    <style>
      .cls-1 {
        fill: #fff;
      }

      .cls-2 {
        fill: #e3abb0;
      }
    </style>
  </defs>
  <g id="_レイヤー_1-2" data-name="レイヤー 1">
    <g>
      <rect class="cls-2" width="182.54" height="182.54" rx="20.55" ry="20.55"/>
      <g>
        <path class="cls-1" d="M142.02,116.25H36.83c-6.92,0-12.55-5.63-12.55-12.55v-49.36c0-6.92,5.63-12.55,12.55-12.55h105.19c6.92,0,12.55,5.63,12.55,12.55v4.98h2.52c5.05,0,9.16,4.11,9.16,9.16v21.08c0,5.05-4.11,9.16-9.16,9.16h-2.52v4.98c0,6.92-5.63,12.55-12.55,12.55ZM36.83,48.72c-3.1,0-5.62,2.52-5.62,5.62v49.36c0,3.1,2.52,5.62,5.62,5.62h105.19c3.1,0,5.62-2.52,5.62-5.62v-8.45c0-1.92,1.55-3.47,3.47-3.47h5.99c1.23,0,2.22-1,2.22-2.22v-21.08c0-1.23-1-2.22-2.22-2.22h-5.99c-1.92,0-3.47-1.55-3.47-3.47v-8.45c0-3.1-2.52-5.62-5.62-5.62H36.83Z"/>
        <g>
          <path class="cls-1" d="M95.6,54.11l-19.63,27.61c-.47.66,0,1.57.81,1.57h15.27l5.85-28.18c.28-1.36-1.49-2.13-2.3-1Z"/>
          <path class="cls-1" d="M86.57,103.92l19.63-27.61c.47-.66,0-1.57-.81-1.57h-15.27l-5.85,28.18c-.28,1.36,1.49,2.13,2.3,1Z"/>
        </g>
      </g>
      <g>
        <path class="cls-1" d="M18.75,158.11c-.56,5.49-3.8,7.46-6.67,8.59-.16.07-.33.09-.49.09-.73,0-1.31-.63-1.31-1.24,0-.38.21-.73.7-.96,3.83-1.78,4.98-3.5,5.35-6.71.07-.52.56-.73,1.1-.73.63,0,1.31.33,1.31.89v.07ZM19.22,149.92c-1.08,1.74-1.9,3.05-3.19,4.48h1.46c4.39,0,6.99-.28,8.92-.7-.47-.59-.99-1.2-1.53-1.85-.14-.19-.21-.35-.21-.54,0-.56.66-1.03,1.29-1.03.31,0,.59.12.8.35,1.97,2.25,4.27,4.98,4.27,5.82,0,.7-.68,1.29-1.34,1.29-.33,0-.61-.14-.82-.49-.33-.56-.66-1.08-1.01-1.6-3.45.82-8.14,1.01-11.9,1.01-1.71,0-3.21-.02-4.34-.07-.7-.02-1.13-.73-1.13-1.34,0-.52.3-.99.94-.99h.07c.49.02.96.05,1.41.07,1.67-1.62,2.68-2.98,3.52-4.41h-4.6c-.63,0-.96-.56-.96-1.1s.33-1.1.96-1.1h7.89v-1.1c0-.66.59-.96,1.17-.96s1.17.31,1.17.96v1.1h7.89c.66,0,.96.54.96,1.1s-.31,1.1-.96,1.1h-10.72ZM25.82,166.21c-1.1,0-2.56-.54-2.56-2.3v-6.08c0-.61.59-.92,1.2-.92.56,0,1.15.31,1.15.89v5.35c0,.8.56.82.92.82h1.31c1.01,0,1.29-.21,1.29-3.33v-.4c0-.75.47-1.1,1.01-1.1.59,0,1.22.47,1.24,1.41v.7c0,4.25-1.22,4.95-3.19,4.95h-2.37Z"/>
        <path class="cls-1" d="M52.71,151.07c0-.23-.12-.35-.35-.35h-6.97v3.24c0,.63-.54.96-1.08.96s-1.08-.33-1.08-.96v-3.24h-6.88c-.23,0-.35.12-.35.35v2.23c0,.59-.52.87-1.06.87s-1.06-.28-1.06-.87v-2.7c0-1.13.56-1.64,1.69-1.64h7.65v-.87h-7.72c-.56,0-.85-.49-.85-.99s.28-.96.85-.96h17.93c.54,0,.82.49.82.96,0,.49-.28.99-.82.99h-8.05v.87h7.74c1.13,0,1.69.52,1.69,1.64v2.6c0,.63-.52.96-1.06.96s-1.06-.33-1.06-.96v-2.14ZM46.18,166.39c-1.55,0-3.05-.42-3.05-2.51v-.56h-5.89c-1.13,0-1.69-.56-1.69-1.69v-4.72c0-1.13.56-1.69,1.69-1.69h14.1c1.13,0,1.69.56,1.69,1.69v4.72c0,1.13-.56,1.69-1.69,1.69h-6.05v.07c0,.84.52.89,1.17.89h4.46c1.48,0,1.57-.09,2.16-1.83.16-.52.52-.73.89-.73.47,0,.96.4.96,1.01,0,.12-.02.23-.07.38-.89,2.75-1.53,3.29-3.8,3.29h-4.88ZM37.66,152.62c-.52,0-.8-.31-.8-.61s.28-.61.8-.61h3.94c.54,0,.8.31.8.61s-.26.61-.8.61h-3.94ZM37.66,154.5c-.52,0-.8-.31-.8-.61s.28-.61.8-.61h3.94c.54,0,.8.3.8.61s-.26.61-.8.61h-3.94ZM43.13,157.1h-5.12c-.23,0-.35.12-.35.35v.99h5.47v-1.34ZM43.13,160.08h-5.47v1.01c0,.23.12.35.35.35h5.12v-1.36ZM50.92,157.45c0-.23-.12-.35-.35-.35h-5.28v1.34h5.63v-.99ZM50.92,160.08h-5.63v1.36h5.28c.23,0,.35-.12.35-.35v-1.01ZM47.03,152.62c-.52,0-.8-.31-.8-.61s.28-.61.8-.61h4.18c.54,0,.8.31.8.61s-.26.61-.8.61h-4.18ZM47.03,154.5c-.52,0-.8-.31-.8-.61s.28-.61.8-.61h4.18c.54,0,.8.3.8.61s-.26.61-.8.61h-4.18Z"/>
        <path class="cls-1" d="M70.16,166.25c-1.13,0-1.69-.56-1.69-1.69v-4.27c0-1.13.56-1.69,1.69-1.69h2.28c-.99-.66-2.04-1.43-2.89-2.37h-3.03c-.92.89-2.21,1.74-3.47,2.37h2.28c1.13,0,1.69.56,1.69,1.69v4.27c0,1.13-.56,1.69-1.69,1.69h-5.23c-1.13,0-1.69-.56-1.69-1.69v-4.04c-.09.02-.19.02-.26.02-.61,0-.96-.54-.96-1.08,0-.4.23-.82.68-.92,2.28-.54,4.41-1.29,5.94-2.32h-5.61c-.63,0-.96-.52-.96-1.01s.33-1.01.96-1.01h7.42c.23-.31.68-.94.92-1.31.23-.38.63-.54,1.06-.54.59,0,1.15.33,1.15.82,0,.12-.05.26-.12.4-.12.19-.23.45-.35.63h9.15c.66,0,.96.49.96,1.01s-.3,1.01-.96,1.01h-5.37c1.55,1.24,3.29,1.92,5.73,2.53.42.12.63.52.63.92,0,.54-.33,1.08-1.01,1.08h-.14v3.8c0,1.13-.56,1.69-1.69,1.69h-5.4ZM59.79,153.09c-1.13,0-1.6-.56-1.6-1.69v-3.33c0-1.13.56-1.69,1.69-1.69h5.54c1.13,0,1.69.56,1.69,1.69v3.33c0,1.13-.56,1.69-1.69,1.69h-5.63ZM65,148.84c0-.23-.12-.35-.35-.35h-3.99c-.23,0-.35.12-.35.35v1.83c0,.23.12.35.35.35h3.99c.23,0,.35-.12.35-.35v-1.83ZM64.9,160.93c0-.23-.12-.35-.35-.35h-3.68c-.23,0-.35.12-.35.35v2.91c0,.23.12.35.35.35h3.68c.23,0,.35-.12.35-.35v-2.91ZM70.07,153.09c-1.13,0-1.69-.56-1.69-1.69v-3.33c0-1.13.56-1.69,1.69-1.69h5.73c1.13,0,1.69.56,1.69,1.69v3.33c0,1.13-.56,1.69-1.69,1.69h-5.73ZM75.37,148.84c0-.23-.12-.35-.35-.35h-4.18c-.23,0-.35.12-.35.35v1.83c0,.23.12.35.35.35h4.18c.23,0,.35-.12.35-.35v-1.83ZM75.13,160.93c0-.23-.12-.35-.35-.35h-3.85c-.23,0-.35.12-.35.35v2.91c0,.23.12.35.35.35h3.85c.23,0,.35-.12.35-.35v-2.91Z"/>
        <path class="cls-1" d="M96.55,163.77c1.29.23,3.03.56,4.55.87.47.07.7.47.7.92,0,.56-.4,1.2-1.13,1.2-.12,0-.23-.02-.35-.05-1.83-.4-3.5-.87-4.9-1.2-.52-.12-.73-.49-.73-.87,0-.33.16-.68.47-.87h-8.17c.45.16.77.61.77,1.01,0,.31-.19.59-.66.73-.96.28-3.03.89-4.95,1.24-.07,0-.12.02-.19.02-.75,0-1.27-.68-1.27-1.29,0-.42.23-.8.84-.87,1.88-.23,3.66-.63,4.55-.84h-2.25c-1.13,0-1.69-.56-1.69-1.69v-7.49c0-1.03.47-1.6,1.38-1.69h.14v-3c-.73.4-1.46.68-1.74.68-.68,0-1.24-.7-1.24-1.29,0-.38.21-.7.7-.84,1.13-.28,3.17-1.24,4.72-2.53.19-.16.4-.23.61-.23.59,0,1.15.54,1.15,1.1,0,.45-.31.85-2.06,1.92v4.2h10c-1.13-.68-2.16-1.55-3.24-2.75l-4.74.23h-.07c-.59,0-.89-.47-.89-.96s.3-1.01.92-1.06l3.24-.14c-.89-1.31-.96-1.43-.96-1.74,0-.49.61-.82,1.2-.82.38,0,.75.14.92.45.42.73.87,1.43,1.34,2.02l3.94-.19c-.47-.16-1.36-.45-1.85-.59-.45-.14-.63-.42-.63-.73,0-.47.4-.94.94-.94.07,0,.16.02.26.05,2.75.77,2.75,1.06,2.75,1.48,0,.26-.09.52-.23.66l1.95-.05h.05c.61,0,.89.47.89.96s-.28.96-.89.99l-5.47.21c.77.66,3,2.21,3.78,2.21.4,0,.56-.38.82-1.2.14-.45.49-.66.87-.66.56,0,1.15.45,1.15,1.06,0,.12-.02.23-.07.35-.42,1.15-.87,1.95-1.5,2.28.12.14.16.33.16.56v7.49c0,1.13-.56,1.69-1.69,1.69h-2.18ZM98.31,155.25c0-.23-.12-.35-.35-.35h-13.33c-.23,0-.35.12-.35.35v.82h14.03v-.82ZM98.31,157.69h-14.03v1.17h14.03v-1.17ZM98.31,160.48h-14.03v.99c0,.23.12.35.35.35h13.33c.23,0,.35-.12.35-.35v-.99Z"/>
        <path class="cls-1" d="M110.51,158.79c0,3.87,1.43,5.19,5.12,5.19,3.4,0,5.7-2.18,6.45-6.03.16-.77.7-1.1,1.24-1.1.66,0,1.31.49,1.31,1.36,0,.33-.94,8.26-9.01,8.26-4.83,0-7.6-1.95-7.6-7.3,0-.3,0-.61.02-.94.21-4.41.28-7.04.35-11.36.02-.7.66-1.08,1.29-1.08s1.31.38,1.31,1.15v.07c-.14,4.08-.35,6.92-.49,11.22v.56Z"/>
        <path class="cls-1" d="M130.52,166.16c-1.27,0-2.09-.82-2.09-2.11v-6.41c0-.66.59-.96,1.17-.96s1.17.31,1.17.96v5.73c0,.42.23.61.66.61h5.54v-8.68h-5.7c-1.2,0-2.09-.7-2.09-2.11v-5c0-.66.59-.96,1.17-.96s1.17.3,1.17.96v4.25c0,.42.23.68.66.68h4.79v-6.5c0-.66.61-.96,1.2-.96s1.2.31,1.2.96v6.5h4.81c.42,0,.68-.21.68-.63v-4.29c0-.66.59-.96,1.17-.96s1.17.3,1.17.96v5c0,1.2-.99,2.11-2.09,2.11h-5.75v8.68h5.54c.42,0,.66-.23.66-.66v-5.68c0-.66.59-.96,1.17-.96s1.17.31,1.17.96v6.41c0,1.2-.8,2.11-2.09,2.11h-15.3Z"/>
        <path class="cls-1" d="M157.43,158.79c0,3.87,1.43,5.19,5.12,5.19,3.4,0,5.7-2.18,6.45-6.03.16-.77.7-1.1,1.24-1.1.66,0,1.31.49,1.31,1.36,0,.33-.94,8.26-9.01,8.26-4.83,0-7.6-1.95-7.6-7.3,0-.3,0-.61.02-.94.21-4.41.28-7.04.35-11.36.02-.7.66-1.08,1.29-1.08s1.31.38,1.31,1.15v.07c-.14,4.08-.35,6.92-.49,11.22v.56Z"/>
      </g>
    </g>
  </g>
</svg>