<?xml version="1.0" encoding="UTF-8"?>
<svg id="_レイヤー_2" data-name="レイヤー 2" xmlns="http://www.w3.org/2000/svg" width="182.54" height="182.54" viewBox="0 0 182.54 182.54">
  <defs>
    <style>
      .cls-1 {
        stroke: #fff;
        stroke-miterlimit: 10;
        stroke-width: .55px;
      }

      .cls-1, .cls-2 {
        fill: #fff;
      }

      .cls-3 {
        fill: #e3abb0;
      }
    </style>
  </defs>
  <g id="_レイヤー_1-2" data-name="レイヤー 1">
    <g>
      <rect class="cls-3" width="182.54" height="182.54" rx="20.55" ry="20.55"/>
      <path class="cls-2" d="M46.94,88.48c-.21-5.47-.38-10.81-.63-16.15-.38-8.02-.72-16.03-1.24-24.04-.48-7.44-1.12-14.87-1.78-22.29-.3-3.33.61-4.48,3.98-4.48,27.81,0,55.62,0,83.43,0,.32,0,.65-.01.97,0,2.17.14,3.13,1.06,3.08,3.22-.03,1.62-.29,3.23-.42,4.84-.11,1.37-.19,2.75-.26,4.12-.01.22.13.44.21.7,2.02-.39,3.99-.86,5.98-1.13,11.73-1.59,21.6,6.58,22.16,18.41.49,10.31-3.78,18.39-11.99,24.43-4.96,3.64-10.64,5.44-16.73,6.03-.71.07-1.42.15-2.33.24v5.5c1.52.62,3.17,1.26,4.8,1.95,3.15,1.34,6.1,3,8.72,5.24,6.91,5.91,5.66,14.21,1.18,19.23-2.48,2.78-5.57,4.69-8.92,6.2-6.57,2.96-13.53,4.5-20.62,5.44-17.78,2.36-35.57,2.34-53.34-.03-6.52-.87-12.93-2.3-19.04-4.83-3.09-1.28-6-2.86-8.53-5.07-2.58-2.24-4.44-4.94-5.11-8.34-.99-4.99.63-9.1,4.37-12.44,2.82-2.52,6.11-4.25,9.56-5.71.81-.34,1.62-.68,2.5-1.05ZM52.59,30.3c0,.69-.03,1.23,0,1.78.55,8.09,1.2,16.17,1.63,24.26.58,11.01,1.06,22.03,1.43,33.04.13,3.91,2,6.51,5.41,7.88,1.98.79,4.22,1.17,6.37,1.28,14.34.75,28.69.82,43.03.05,1.29-.07,2.6-.17,3.87-.41,5.08-.94,7.92-4.3,8.1-9.41.11-3.32.27-6.64.41-9.96.27-6.24.47-12.48.82-18.71.52-9.23,1.15-18.45,1.72-27.67.04-.69,0-1.38,0-2.14H52.59ZM48.7,97.2c-3.05,1.16-5.84,2.46-8.11,4.61-2.14,2.03-2.39,3.96-.51,6.2,1.12,1.34,2.55,2.53,4.06,3.39,2.03,1.15,4.23,2.06,6.44,2.81,6.56,2.24,13.37,3.26,20.24,3.92,10.99,1.06,22.01,1.18,33.03.45,8.1-.54,16.17-1.4,23.94-3.88,3.14-1,6.19-2.41,9.09-3.97,1.42-.76,2.59-2.19,3.53-3.56,1.05-1.52.96-3.26-.38-4.7-2.85-3.05-6.57-4.5-10.38-5.93-3.22,5.94-8.05,9.18-14.33,10.24-2.07.35-4.19.41-6.3.51-12.23.59-24.47.59-36.7.12-2.02-.08-4.05-.25-6.07-.31-7.5-.21-13.45-3.21-17.56-9.92ZM131.76,71.49c6.9-.72,12.54-2.91,16.59-8.24,2.61-3.43,3.71-7.32,3.29-11.61-.45-4.62-4.06-7.92-8.66-7.78-3.52.11-6.79,1.23-9.99,3.12-.4,8.05-.8,16.09-1.22,24.51Z"/>
      <g>
        <path class="cls-1" d="M13.51,145.95c0-4.13,3.56-7.36,9.76-7.36,5.66,0,9.39,2.33,10.02,6.56.03.13.07.27.07.4,0,1-1,1.6-1.93,1.6-.7,0-1.37-.33-1.63-1.13-.43-2.53-2.53-4.13-6.59-4.13s-6.19,1.73-6.19,4.1c0,1.83,1.37,2.6,3.93,3.26,1.86.5,4.56.83,6.73,1.43,4.16,1.1,6.66,3.33,6.66,7.33,0,4.6-3.3,8.09-10.79,8.09-6.19,0-10.46-3.06-10.89-8.06,0-.1-.03-.2-.03-.3,0-1.03,1-1.67,1.93-1.67.73,0,1.4.37,1.57,1.23.27,3.06,3.06,5.36,7.43,5.36,5.16,0,7.16-2.16,7.16-4.73,0-1.83-1.3-3.33-3.93-4.06-2-.6-4.56-.83-6.96-1.47-4.03-1.1-6.29-2.96-6.29-6.39v-.07Z"/>
        <path class="cls-1" d="M40.52,156.67c.2,3.36,3.03,6.13,6.53,6.13,2.96,0,5-1.43,6.03-3.23.27-.47.7-.67,1.17-.67.83,0,1.73.63,1.73,1.5,0,1.1-2.43,5.53-8.96,5.53-5.93,0-9.89-4.6-9.89-10.46,0-6.36,4.23-10.62,9.79-10.62,5.13,0,9.13,3.73,9.59,9.03v.33c0,1.47-.8,2.46-2.6,2.46h-13.39ZM52.71,153.68c.3,0,.43-.07.43-.33,0-.07-.03-.17-.03-.27-.57-3.16-3.06-5.16-6.16-5.16-3.5,0-5.96,2.5-6.39,5.76h12.16Z"/>
        <path class="cls-1" d="M60.44,140.39c0-.97.9-1.43,1.77-1.43s1.77.47,1.77,1.43v23.91c0,.93-.87,1.43-1.77,1.43s-1.77-.5-1.77-1.43v-23.91Z"/>
        <path class="cls-1" d="M70.16,148.55h-2.13c-.8,0-1.2-.77-1.2-1.53s.4-1.57,1.2-1.57h2.13v-2.3c0-3,1.93-4.46,4.4-4.46.93,0,4,.33,4,1.96,0,.7-.53,1.43-1.3,1.43-.1,0-.23-.03-.37-.07-.67-.23-1.23-.33-1.7-.33-1.07,0-1.63.57-1.63,1.77v2h3.43c.9,0,1.33.77,1.33,1.53s-.43,1.57-1.33,1.57h-3.43v15.79c0,.9-.83,1.37-1.7,1.37s-1.7-.47-1.7-1.37v-15.79Z"/>
        <path class="cls-1" d="M103.73,141.95c-5.1,0-9.09,4.5-9.09,10.22s3.76,10.46,9.09,10.46c3.53,0,6.53-1.73,8.16-5.23.3-.63.87-.9,1.43-.9.93,0,1.93.73,1.93,1.73s-2.8,7.86-11.52,7.86c-7.63,0-12.66-5.8-12.66-13.92,0-7.59,5.03-13.59,12.66-13.59,8.43,0,11.22,6.49,11.22,7.29,0,.93-1,1.67-1.96,1.67-.57,0-1.1-.23-1.47-.87-1.73-3.26-4.53-4.73-7.79-4.73Z"/>
        <path class="cls-1" d="M135.47,152.78c0,1.07-.03,2.23-.03,3.4,0,2.86.1,5.76.73,7.33.1.27.13.5.13.7,0,.97-.87,1.53-1.73,1.53-.67,0-1.8-.37-1.93-2.7-.03-.1-.03-.2-.03-.27-1.4,2.06-4.36,3.16-6.99,3.16-4.36,0-7.73-1.47-7.73-6.13,0-2.53,1.43-4.53,3.86-5.46,4.56-1.73,10.16-1.03,10.16-3.36v-.17c-.2-1.83-1.73-2.86-4.63-2.86h-.53c-2.16.07-4.03,1.2-5.03,3.1-.37.57-.9.8-1.43.8-.9,0-1.77-.67-1.77-1.6,0-1.4,2.86-5.23,8.26-5.4h.5c5.76,0,8.19,2.73,8.19,7.73v.2ZM132.28,156.57c0-.97.03-2.03.03-2.03-1.7,1.47-5.76,1.17-9.13,2.53-1.2.47-1.96,1.43-1.96,2.7,0,2.63,2.33,3.06,4.36,3.06h.17c2.76,0,6.53-1.67,6.53-5.6v-.67Z"/>
        <path class="cls-1" d="M141.47,148.55h-2.13c-.8,0-1.2-.77-1.2-1.53s.4-1.57,1.2-1.57h2.13v-2.3c0-3,1.93-4.46,4.4-4.46.93,0,4,.33,4,1.96,0,.7-.53,1.43-1.3,1.43-.1,0-.23-.03-.37-.07-.67-.23-1.23-.33-1.7-.33-1.07,0-1.63.57-1.63,1.77v2h3.43c.9,0,1.33.77,1.33,1.53s-.43,1.57-1.33,1.57h-3.43v15.79c0,.9-.83,1.37-1.7,1.37s-1.7-.47-1.7-1.37v-15.79Z"/>
        <path class="cls-1" d="M154.86,156.67c.2,3.36,3.03,6.13,6.53,6.13,2.96,0,5-1.43,6.03-3.23.27-.47.7-.67,1.17-.67.83,0,1.73.63,1.73,1.5,0,1.1-2.43,5.53-8.96,5.53-5.93,0-9.89-4.6-9.89-10.46,0-6.36,4.23-10.62,9.79-10.62,5.13,0,9.13,3.73,9.59,9.03v.33c0,1.47-.8,2.46-2.6,2.46h-13.39ZM167.05,153.68c.3,0,.43-.07.43-.33,0-.07-.03-.17-.03-.27-.57-3.16-3.06-5.16-6.16-5.16-3.5,0-5.96,2.5-6.39,5.76h12.16Z"/>
      </g>
    </g>
  </g>
</svg>