<?xml version="1.0" encoding="UTF-8"?>
<svg id="_レイヤー_2" data-name="レイヤー 2" xmlns="http://www.w3.org/2000/svg" width="182.54" height="182.54" viewBox="0 0 182.54 182.54">
  <defs>
    <style>
      .cls-1, .cls-2 {
        fill: #fff;
      }

      .cls-3 {
        fill: #e3abb0;
      }

      .cls-2 {
        stroke: #fff;
        stroke-miterlimit: 10;
        stroke-width: 5.82px;
      }
    </style>
  </defs>
  <g id="_レイヤー_1-2" data-name="レイヤー 1">
    <g>
      <rect class="cls-3" width="182.54" height="182.54" rx="20.55" ry="20.55"/>
      <g>
        <rect class="cls-1" x="28.77" y="55.77" width="10.31" height="10.31"/>
        <rect class="cls-1" x="45.24" y="55.77" width="10.31" height="10.31"/>
        <rect class="cls-1" x="61.71" y="55.77" width="10.31" height="10.31"/>
        <rect class="cls-1" x="78.18" y="55.77" width="10.31" height="10.31"/>
        <rect class="cls-1" x="94.66" y="55.77" width="10.31" height="10.31"/>
        <rect class="cls-1" x="111.13" y="55.77" width="10.31" height="10.31"/>
        <rect class="cls-1" x="127.6" y="55.77" width="10.31" height="10.31"/>
        <rect class="cls-1" x="28.77" y="72.24" width="10.31" height="10.31"/>
        <rect class="cls-1" x="45.24" y="72.24" width="10.31" height="10.31"/>
        <rect class="cls-1" x="61.71" y="72.24" width="10.31" height="10.31"/>
        <rect class="cls-1" x="78.18" y="72.24" width="10.31" height="10.31"/>
        <rect class="cls-1" x="94.66" y="72.24" width="10.31" height="10.31"/>
        <rect class="cls-1" x="111.13" y="72.24" width="10.31" height="10.31"/>
        <rect class="cls-1" x="28.77" y="88.71" width="16.47" height="10.31"/>
        <rect class="cls-1" x="50.4" y="88.71" width="65.88" height="10.31"/>
        <path class="cls-1" d="M121.44,110.99v-4.23H20.69v-58.74h125.3v20.33h6.34v-20.96c0-3.14-2.56-5.7-5.7-5.7H20.06c-3.14,0-5.7,2.56-5.7,5.7v60c0,3.14,2.56,5.7,5.7,5.7h101.48c-.07-.69-.1-1.4-.1-2.11Z"/>
        <path class="cls-1" d="M162.5,74.69h-25.04c-5.34,0-9.69,4.35-9.69,9.69v26.61c0,8.74,7.11,15.86,15.86,15.86h12.69c8.74,0,15.86-7.11,15.86-15.86v-26.61c0-5.34-4.35-9.69-9.69-9.69ZM165.85,110.99c0,5.25-4.27,9.52-9.52,9.52h-12.69c-5.25,0-9.52-4.27-9.52-9.52v-26.61c0-1.85,1.5-3.35,3.35-3.35h25.04c1.85,0,3.35,1.5,3.35,3.35v26.61Z"/>
        <path class="cls-1" d="M149.98,101.58c-1.79,0-3.25-1.45-3.25-3.25v-8.9c0-1.79,1.45-3.25,3.25-3.25s3.25,1.45,3.25,3.25v8.9c0,1.79-1.45,3.25-3.25,3.25Z"/>
      </g>
      <g>
        <rect class="cls-2" x="88.02" y="5.2" width="10.51" height="138.79" transform="translate(80.06 -44.11) rotate(45)"/>
        <rect class="cls-2" x="88.02" y="5.2" width="10.51" height="138.79" transform="translate(211.97 61.38) rotate(135)"/>
      </g>
      <g>
        <path class="cls-1" d="M23.98,158.43l.92,6.78c.02.07.02.14.02.21,0,.73-.66,1.08-1.29,1.08-.56,0-1.13-.28-1.22-.87l-.94-6.92-8.66.94h-.12c-.63,0-.99-.61-.99-1.22,0-.54.28-1.08.92-1.15l8.54-.92-.66-4.86-6.57.59h-.09c-.66,0-1.03-.61-1.03-1.22,0-.54.31-1.08.96-1.13l6.43-.56-.35-2.58c0-.07-.02-.12-.02-.19,0-.75.68-1.13,1.34-1.13.54,0,1.08.28,1.15.85l.38,2.84,6.76-.59h.07c.7,0,1.1.63,1.1,1.22,0,.52-.31,1.01-.96,1.08l-6.64.59.63,4.81,7.93-.84h.12c.63,0,1.01.61,1.01,1.22,0,.52-.28,1.03-.89,1.1l-7.84.87Z"/>
        <path class="cls-1" d="M37.6,157.09c-.7,0-1.08-.66-1.08-1.29s.38-1.29,1.08-1.29h16.15c.7,0,1.06.66,1.06,1.29s-.35,1.29-1.06,1.29h-16.15Z"/>
        <path class="cls-1" d="M59.94,164.06c-.7,0-1.34-.61-1.34-1.34,0-.26.07-.54.28-.82,1.78-2.3,3.26-5.4,4.08-7.63.19-.52.63-.75,1.1-.75.63,0,1.27.42,1.27,1.13,0,.66-1.92,5.59-4.22,8.75-.35.47-.77.66-1.17.66ZM68.32,152h-8.26c-.68,0-1.03-.61-1.03-1.2s.35-1.2,1.03-1.2h8.26v-3c0-.7.66-1.06,1.29-1.06s1.27.35,1.27,1.03v3.03h7.32c.7,0,1.03.59,1.03,1.2s-.33,1.2-1.03,1.2h-7.32v10.63c0,2.6-1.15,3.78-3.43,3.78-.85,0-1.85-.16-3-.47-.7-.19-1.01-.75-1.01-1.31,0-.68.45-1.36,1.2-1.36.14,0,.28.02.42.07.92.26,1.6.4,2.09.4.87,0,1.17-.42,1.17-1.38v-10.35ZM78.27,164.11c-.45,0-.87-.23-1.08-.8-1.27-3.43-2.63-6.12-3.78-7.96-.12-.19-.16-.38-.16-.54,0-.63.63-1.17,1.29-1.17.35,0,.7.16.96.56,1.34,2.06,2.65,4.67,4.06,8,.09.19.12.4.12.56,0,.8-.73,1.34-1.41,1.34ZM76.04,149.11c-.28,0-.56-.12-.73-.42-.31-.54-.75-1.2-1.1-1.64-.12-.16-.19-.33-.19-.49,0-.42.42-.8.87-.8.23,0,.47.09.68.33.68.8,1.38,1.83,1.38,2.23,0,.47-.47.8-.92.8ZM78.53,148.36c-.23,0-.49-.12-.66-.38-.38-.61-.77-1.17-1.15-1.64-.12-.16-.19-.33-.19-.47,0-.42.4-.75.82-.75.23,0,.47.09.66.31.56.66,1.38,1.71,1.38,2.16s-.45.77-.87.77Z"/>
        <path class="cls-1" d="M84.53,157.09c-.7,0-1.08-.66-1.08-1.29s.38-1.29,1.08-1.29h16.15c.7,0,1.06.66,1.06,1.29s-.35,1.29-1.06,1.29h-16.15Z"/>
        <path class="cls-1" d="M111.2,146.67c0-.73.68-1.1,1.34-1.1s1.34.38,1.34,1.1v5.07c3.19,1.01,7.67,2.63,11.57,4.58.47.26.66.68.66,1.1,0,.73-.54,1.48-1.22,1.48-.19,0-.38-.05-.56-.16-3.5-1.9-7.58-3.47-10.44-4.39v11.22c0,.8-.66,1.2-1.31,1.2s-1.36-.42-1.36-1.2v-18.89ZM122.63,150.9c-.23,0-.49-.12-.7-.38-.73-.89-1.55-1.76-2.18-2.3-.21-.16-.31-.4-.31-.59,0-.47.45-.92.94-.92.19,0,.8.05,2.98,2.6.16.21.23.42.23.63,0,.49-.45.94-.96.94ZM125.87,148.22c0,.49-.45.94-.92.94-.21,0-.42-.09-.61-.31-.7-.82-1.31-1.43-1.99-2-.26-.19-.35-.42-.35-.63,0-.45.42-.84.89-.84.16,0,.7.02,2.77,2.3.14.19.21.38.21.54Z"/>
        <path class="cls-1" d="M138.04,149.79v14.13c0,.7-.61,1.06-1.24,1.06s-1.24-.35-1.24-1.06v-15.86c0-1.27,1.01-1.92,1.99-1.92.63,0,1.24.26,1.6.82l8.75,14.36v-14.13c0-.73.63-1.08,1.24-1.08s1.24.35,1.24,1.08v15.96c0,1.2-.99,1.85-1.97,1.85-.63,0-1.27-.26-1.62-.84l-8.75-14.36Z"/>
        <path class="cls-1" d="M168.38,157.94c0-.23-.14-.35-.38-.35h-5.54c-.77,0-1.17-.61-1.17-1.22s.4-1.2,1.17-1.2h6.05c1.64,0,2.42.94,2.42,2.37,0,1.95-1.29,7.72-8.47,7.72-5.52,0-9.04-4.15-9.04-9.79s3.59-9.6,9.01-9.6,7.79,4.11,7.79,5.23c0,.7-.68,1.17-1.31,1.17-.42,0-.82-.19-1.03-.61-1.15-2.28-3.17-3.43-5.44-3.43-3.64,0-6.5,3.15-6.5,7.23s2.49,7.35,6.5,7.35c3.71,0,5.56-2.21,5.94-4.79v-.09Z"/>
      </g>
    </g>
  </g>
</svg>