<?xml version="1.0" encoding="UTF-8"?>
<svg id="_レイヤー_2" data-name="レイヤー 2" xmlns="http://www.w3.org/2000/svg" width="182.54" height="182.54" viewBox="0 0 182.54 182.54">
  <defs>
    <style>
      .cls-1 {
        fill: #fff;
      }

      .cls-2 {
        fill: #e3abb0;
      }
    </style>
  </defs>
  <g id="_レイヤー_1-2" data-name="レイヤー 1">
    <g>
      <rect class="cls-2" width="182.54" height="182.54" rx="20.55" ry="20.55"/>
      <g>
        <path class="cls-1" d="M27.74,150.65c-.77,4.6-2.3,8.07-4.93,10.68,2,1.27,4.55,2.25,7.86,3.1.54.14.77.59.77,1.08,0,.63-.42,1.29-1.13,1.29-.23,0-5.66-1.2-9.41-3.85-4.15,2.93-9.43,3.85-9.43,3.85-.7,0-1.13-.66-1.13-1.29,0-.49.23-.94.77-1.08,3.31-.84,5.87-1.83,7.86-3.1-2.63-2.6-4.15-6.08-4.93-10.68h-2.46c-.63,0-.96-.54-.96-1.08s.33-1.06.96-1.06h7.93v-1.88c0-.66.61-.96,1.24-.96s1.22.31,1.22.96v1.88h8.17c.66,0,.96.54.96,1.06s-.31,1.08-.96,1.08h-2.42ZM16.29,150.65c.77,4.01,2.09,6.97,4.6,9.25,2.53-2.25,3.85-5.21,4.62-9.25h-9.22Z"/>
        <path class="cls-1" d="M43.98,161.44c-1.29,4.15-4.58,5.33-5.16,5.33-.8,0-1.29-.77-1.29-1.41,0-.35.14-.63.45-.75,3.1-1.08,4.01-3.85,4.25-6.41h-3.22c-.63,0-.96-.52-.96-1.01s.33-1.01.96-1.01h5.77v-1.36h-6.95c0,4.22-.12,8.12-1.57,11.05-.23.45-.61.63-1.01.63-.68,0-1.43-.59-1.43-1.34,0-.19.05-.4.16-.61,1.36-2.49,1.45-5.75,1.45-9.83v-3.68c0-1.13.56-1.69,1.69-1.69h15.11c1.13,0,1.69.56,1.69,1.69v2.09c0,1.13-.56,1.69-1.69,1.69h-5v1.36h6.71c.66,0,.96.49.96,1.01s-.3,1.01-.96,1.01h-9.36c-.05.42-.09.82-.16,1.24h8.07c.66,0,1.53.4,1.53,1.53,0,4.01-.45,5.8-3.5,5.8-.94,0-2.14-.16-3.61-.49-.52-.09-.75-.54-.75-1.01,0-.56.35-1.17.96-1.17.05,0,.12,0,.19.02,1.29.28,2.18.42,2.82.42,1.5,0,1.5-.85,1.5-2.91,0-.07-.07-.19-.16-.19h-7.49ZM35.27,148.44c-.61,0-.94-.52-.94-1.06s.33-1.03.94-1.03h18.54c.63,0,.94.52.94,1.03s-.31,1.06-.94,1.06h-18.54ZM51.46,151.73c0-.23-.12-.35-.35-.35h-12.93c-.23,0-.35.12-.35.35v1.08h13.28c.23,0,.35-.12.35-.35v-.73Z"/>
        <path class="cls-1" d="M58.5,166.79c-.68,0-1.24-.73-1.24-1.36,0-.38.19-.7.63-.84,2.25-.7,4.06-1.5,5.73-2.49.14-.09.31-.14.47-.14.59,0,1.13.59,1.13,1.17,0,.28-.14.56-.45.77-3.4,2.23-6.17,2.89-6.27,2.89ZM58.47,161.96c-.63,0-.96-.54-.96-1.06s.33-1.06.96-1.06h18.66c.66,0,.96.52.96,1.06s-.31,1.06-.96,1.06h-18.66ZM61.29,158.67c-1.13,0-1.69-.56-1.69-1.69v-8.89c0-1.13.56-1.69,1.69-1.69h13.26c1.13,0,1.69.56,1.69,1.69v8.89c0,1.13-.56,1.69-1.69,1.69h-13.26ZM74.05,148.77c0-.23-.12-.35-.35-.35h-11.52c-.23,0-.35.12-.35.35v1.15h12.23v-1.15ZM74.05,151.73h-12.23v1.53h12.23v-1.53ZM74.05,155.06h-12.23v1.29c0,.23.12.35.35.35h11.52c.23,0,.35-.12.35-.35v-1.29ZM76.85,166.7c-1.9-.94-4.27-1.99-6.2-2.84-.38-.16-.52-.42-.52-.7,0-.56.61-1.2,1.27-1.2.54,0,3.85,1.41,6.36,2.58.42.21.61.56.61.94,0,.63-.52,1.31-1.13,1.31-.14,0-.26-.02-.4-.09Z"/>
        <path class="cls-1" d="M96.55,163.77c1.29.23,3.03.56,4.55.87.47.07.7.47.7.92,0,.56-.4,1.2-1.13,1.2-.12,0-.23-.02-.35-.05-1.83-.4-3.5-.87-4.9-1.2-.52-.12-.73-.49-.73-.87,0-.33.16-.68.47-.87h-8.17c.45.16.77.61.77,1.01,0,.31-.19.59-.66.73-.96.28-3.03.89-4.95,1.24-.07,0-.12.02-.19.02-.75,0-1.27-.68-1.27-1.29,0-.42.23-.8.84-.87,1.88-.23,3.66-.63,4.55-.84h-2.25c-1.13,0-1.69-.56-1.69-1.69v-7.49c0-1.03.47-1.6,1.38-1.69h.14v-3c-.73.4-1.46.68-1.74.68-.68,0-1.24-.7-1.24-1.29,0-.38.21-.7.7-.84,1.13-.28,3.17-1.24,4.72-2.53.19-.16.4-.23.61-.23.59,0,1.15.54,1.15,1.1,0,.45-.31.85-2.06,1.92v4.2h10c-1.13-.68-2.16-1.55-3.24-2.75l-4.74.23h-.07c-.59,0-.89-.47-.89-.96s.3-1.01.92-1.06l3.24-.14c-.89-1.31-.96-1.43-.96-1.74,0-.49.61-.82,1.2-.82.38,0,.75.14.92.45.42.73.87,1.43,1.34,2.02l3.94-.19c-.47-.16-1.36-.45-1.85-.59-.45-.14-.63-.42-.63-.73,0-.47.4-.94.94-.94.07,0,.16.02.26.05,2.75.77,2.75,1.06,2.75,1.48,0,.26-.09.52-.23.66l1.95-.05h.05c.61,0,.89.47.89.96s-.28.96-.89.99l-5.47.21c.77.66,3,2.21,3.78,2.21.4,0,.56-.38.82-1.2.14-.45.49-.66.87-.66.56,0,1.15.45,1.15,1.06,0,.12-.02.23-.07.35-.42,1.15-.87,1.95-1.5,2.28.12.14.16.33.16.56v7.49c0,1.13-.56,1.69-1.69,1.69h-2.18ZM98.31,155.25c0-.23-.12-.35-.35-.35h-13.33c-.23,0-.35.12-.35.35v.82h14.03v-.82ZM98.31,157.69h-14.03v1.17h14.03v-1.17ZM98.31,160.48h-14.03v.99c0,.23.12.35.35.35h13.33c.23,0,.35-.12.35-.35v-.99Z"/>
        <path class="cls-1" d="M110.51,158.79c0,3.87,1.43,5.19,5.12,5.19,3.4,0,5.7-2.18,6.45-6.03.16-.77.7-1.1,1.24-1.1.66,0,1.31.49,1.31,1.36,0,.33-.94,8.26-9.01,8.26-4.83,0-7.6-1.95-7.6-7.3,0-.3,0-.61.02-.94.21-4.41.28-7.04.35-11.36.02-.7.66-1.08,1.29-1.08s1.31.38,1.31,1.15v.07c-.14,4.08-.35,6.92-.49,11.22v.56Z"/>
        <path class="cls-1" d="M130.52,166.16c-1.27,0-2.09-.82-2.09-2.11v-6.41c0-.66.59-.96,1.17-.96s1.17.31,1.17.96v5.73c0,.42.23.61.66.61h5.54v-8.68h-5.7c-1.2,0-2.09-.7-2.09-2.11v-5c0-.66.59-.96,1.17-.96s1.17.3,1.17.96v4.25c0,.42.23.68.66.68h4.79v-6.5c0-.66.61-.96,1.2-.96s1.2.31,1.2.96v6.5h4.81c.42,0,.68-.21.68-.63v-4.29c0-.66.59-.96,1.17-.96s1.17.3,1.17.96v5c0,1.2-.99,2.11-2.09,2.11h-5.75v8.68h5.54c.42,0,.66-.23.66-.66v-5.68c0-.66.59-.96,1.17-.96s1.17.31,1.17.96v6.41c0,1.2-.8,2.11-2.09,2.11h-15.3Z"/>
        <path class="cls-1" d="M157.43,158.79c0,3.87,1.43,5.19,5.12,5.19,3.4,0,5.7-2.18,6.45-6.03.16-.77.7-1.1,1.24-1.1.66,0,1.31.49,1.31,1.36,0,.33-.94,8.26-9.01,8.26-4.83,0-7.6-1.95-7.6-7.3,0-.3,0-.61.02-.94.21-4.41.28-7.04.35-11.36.02-.7.66-1.08,1.29-1.08s1.31.38,1.31,1.15v.07c-.14,4.08-.35,6.92-.49,11.22v.56Z"/>
      </g>
      <path class="cls-1" d="M123.32,25.81c2.1-2.12,3.96-4.03,5.87-5.91,3.25-3.21,7.15-4.24,11.47-2.86,4.34,1.38,6.94,4.51,7.62,9.02.55,3.63-.53,6.84-3.13,9.48-1.93,1.96-3.89,3.89-6.26,6.25.5.28,1.04.45,1.38.81,1.35,1.43,1.33,3.47.02,4.93-.25.28-.52.53-.78.79-22.13,22.13-44.25,44.26-66.4,66.36-.81.81-1.87,1.48-2.94,1.89-8.18,3.13-16.36,6.25-24.6,9.19-2.1.75-3.5,2.15-4.95,3.62-.82.83-1.73,1.36-2.94,1.33-1.45-.04-2.5-.71-3.13-1.97-.62-1.25-.53-2.52.28-3.69.17-.24.36-.49.59-.66,2.27-1.75,3.39-4.18,4.35-6.81,2.79-7.71,5.7-15.37,8.63-23.03.37-.97.98-1.93,1.72-2.67,21.05-21.1,42.13-42.17,63.22-63.24.31-.31.74-.49,1.02-.86-1.6-.78-2.97-.56-4.25.23-.53.33-1,.77-1.44,1.22-8.39,8.38-16.77,16.76-25.15,25.15-.85.85-1.76,1.44-3.03,1.39-1.45-.05-2.5-.73-3.12-1.99-.62-1.25-.53-2.53.31-3.69.26-.36.59-.67.9-.98,8.41-8.41,16.81-16.82,25.22-25.22,5.15-5.15,12.66-5.15,17.8,0,.57.57,1.09,1.21,1.73,1.93ZM94.84,82.51c8.92-8.92,17.87-17.87,26.69-26.69-4.15-4.15-8.36-8.36-12.47-12.47-8.85,8.85-17.81,17.8-26.7,26.7,4.13,4.13,8.33,8.32,12.48,12.47ZM69.75,107.44c6.6-6.6,13.18-13.18,19.62-19.62-4.09-4.09-8.28-8.28-12.37-12.37-6.5,6.5-13.08,13.08-19.61,19.61,4.11,4.12,8.3,8.32,12.36,12.38ZM126.96,50.38c1.76-1.76,3.58-3.58,5.28-5.27-4.14-4.14-8.36-8.36-12.4-12.4-1.73,1.73-3.56,3.55-5.28,5.27,4.1,4.1,8.29,8.29,12.4,12.41ZM53.34,101.76c-1.91,5.09-3.85,10.26-5.86,15.64,5.41-2.03,10.57-3.97,15.65-5.88-3.31-3.3-6.53-6.52-9.79-9.76ZM128.77,30.63c1.87,1.87,3.69,3.69,5.54,5.55,1.86-1.87,3.86-3.8,5.77-5.82,1.52-1.6,1.49-3.88.04-5.42-1.46-1.56-3.81-1.8-5.4-.33-2.11,1.96-4.07,4.09-5.96,6.02Z"/>
    </g>
  </g>
</svg>