<?xml version="1.0" encoding="UTF-8"?>
<svg id="_レイヤー_2" data-name="レイヤー 2" xmlns="http://www.w3.org/2000/svg" width="182.54" height="182.54" viewBox="0 0 182.54 182.54">
  <defs>
    <style>
      .cls-1 {
        fill-rule: evenodd;
      }

      .cls-1, .cls-2 {
        fill: #fff;
      }

      .cls-2 {
        stroke: #fff;
        stroke-miterlimit: 10;
        stroke-width: .69px;
      }

      .cls-3 {
        fill: #e3abb0;
      }
    </style>
  </defs>
  <g id="_レイヤー_1-2" data-name="レイヤー 1">
    <g>
      <rect class="cls-3" width="182.54" height="182.54" rx="20.55" ry="20.55"/>
      <g>
        <path class="cls-1" d="M152.46,45.61c-2.01-2.06-4.12-4.01-6.35-5.84-14.45-11.88-31.03-18.36-49.66-19.61-3.8-.26-7.62-.19-11.44.08-5.66.4-11.22,1.34-16.67,2.87-14.66,4.11-27.37,11.56-38.15,22.33-.6.6-.64.94-.03,1.54,2.39,2.36,4.76,4.75,7.1,7.15.38.39.57.36.93-.01,1.28-1.34,2.61-2.62,4.02-3.83,16.91-14.49,36.43-20.47,58.55-17.89,8.99,1.05,17.46,3.83,25.45,8.07,6.66,3.54,12.61,8.03,17.92,13.39.3.31.49.63.99.12,2.45-2.51,4.94-4.97,7.41-7.45.12-.12.23-.25.32-.35,0-.3-.23-.42-.39-.57Z"/>
        <path class="cls-1" d="M131.84,61.43c-13.37-11.87-28.97-16.99-46.76-15.36-7.17.65-13.97,2.66-20.44,5.83-6.24,3.06-11.75,7.14-16.63,12.08-.31.32-.41.5-.03.87,2.51,2.48,5,4.98,7.49,7.49.33.33.52.31.81-.01.5-.54,1.04-1.06,1.58-1.56,10.74-9.87,23.38-14.28,37.93-13.07,7.26.6,14,2.86,20.27,6.56,3.67,2.17,6.97,4.82,9.97,7.85.22.22.37.59.79.16,2.49-2.54,5-5.06,7.51-7.59.14-.14.24-.31.36-.48-.15-.16-.25-.29-.37-.4-.82-.79-1.62-1.6-2.47-2.36Z"/>
        <path class="cls-1" d="M117.01,80.97c-8.21-8.16-18.11-11.74-29.61-10.62-8.65.84-15.96,4.59-22.05,10.77-.41.41-.43.65,0,1.07,2.37,2.34,4.73,4.69,7.03,7.1.6.63.88.58,1.47-.01,6.17-6.15,13.57-8.51,22.14-6.94,4.99.91,9.21,3.33,12.73,6.98.41.43.63.43,1.05,0,2.43-2.48,4.9-4.92,7.36-7.38.12-.12.28-.19.35-.24-.06-.43-.3-.56-.48-.74Z"/>
        <path class="cls-1" d="M91.17,95.93c-5.71.08-10.13,4.67-10.04,10.42.08,5.44,4.69,9.89,10.18,9.83,5.67-.06,10.12-4.56,10.07-10.18-.05-5.63-4.64-10.15-10.22-10.07Z"/>
      </g>
      <g>
        <path class="cls-2" d="M49.73,139.22l-5.98,25.32c-.4,1.73-1.99,2.57-3.54,2.57s-3.14-.84-3.59-2.57l-7.79-30.37c-.04-.22-.09-.44-.09-.62,0-1.33,1.2-2.04,2.39-2.04,1.06,0,2.08.53,2.35,1.59l6.73,27.71,5.93-25.45c.4-1.64,1.95-2.43,3.5-2.43s3.14.8,3.54,2.43l5.93,25.5,6.73-27.75c.27-1.06,1.33-1.59,2.35-1.59,1.2,0,2.39.71,2.39,2.04,0,.18-.04.4-.09.62l-7.79,30.37c-.44,1.73-2.04,2.57-3.63,2.57s-3.1-.84-3.5-2.57l-5.84-25.32Z"/>
        <path class="cls-2" d="M77.05,134.4c0-1.68,1.24-3.05,2.83-3.05s2.83,1.37,2.83,3.05-1.24,3.01-2.83,3.01-2.83-1.37-2.83-3.01ZM77.62,141.66c0-1.24,1.15-1.81,2.3-1.81s2.26.58,2.26,1.81v23.55c0,1.24-1.15,1.9-2.26,1.9s-2.3-.66-2.3-1.9v-23.55Z"/>
        <path class="cls-2" d="M92.67,155.38c-1.33,0-1.99-1.2-1.99-2.35s.66-2.35,1.99-2.35h11.51c1.33,0,1.95,1.15,1.95,2.35s-.62,2.35-1.95,2.35h-11.51Z"/>
        <path class="cls-2" d="M115.47,144.27h-2.83c-1.06,0-1.59-1.02-1.59-2.04s.53-2.08,1.59-2.08h2.83v-3.05c0-3.98,2.57-5.93,5.84-5.93,1.24,0,5.31.44,5.31,2.61,0,.93-.71,1.9-1.73,1.9-.13,0-.31-.04-.49-.09-.89-.31-1.64-.44-2.26-.44-1.42,0-2.17.75-2.17,2.35v2.66h4.56c1.2,0,1.77,1.02,1.77,2.04s-.58,2.08-1.77,2.08h-4.56v20.98c0,1.2-1.11,1.81-2.26,1.81s-2.26-.62-2.26-1.81v-20.98Z"/>
        <path class="cls-2" d="M133.13,134.4c0-1.68,1.24-3.05,2.83-3.05s2.83,1.37,2.83,3.05-1.24,3.01-2.83,3.01-2.83-1.37-2.83-3.01ZM133.71,141.66c0-1.24,1.15-1.81,2.3-1.81s2.26.58,2.26,1.81v23.55c0,1.24-1.15,1.9-2.26,1.9s-2.3-.66-2.3-1.9v-23.55Z"/>
      </g>
    </g>
  </g>
</svg>