<?xml version="1.0" encoding="UTF-8"?>
<svg id="_レイヤー_2" data-name="レイヤー 2" xmlns="http://www.w3.org/2000/svg" width="182.54" height="182.54" viewBox="0 0 182.54 182.54">
  <defs>
    <style>
      .cls-1 {
        stroke: #fff;
        stroke-miterlimit: 10;
        stroke-width: .55px;
      }

      .cls-1, .cls-2 {
        fill: #fff;
      }

      .cls-3 {
        fill: #e3abb0;
      }
    </style>
  </defs>
  <g id="_レイヤー_1-2" data-name="レイヤー 1">
    <g>
      <rect class="cls-3" width="182.54" height="182.54" rx="20.55" ry="20.55"/>
      <g>
        <path class="cls-1" d="M17.04,167.59c-1.05,0-1.55-.82-1.55-1.68s.51-1.65,1.55-1.65h18.36c.73,0,.98-.29.98-.92v-15.63c0-.63-.25-.92-.98-.92h-18.2c-1.05,0-1.55-.79-1.55-1.62s.51-1.59,1.55-1.59h18.96c2.82,0,3.71,1.11,3.71,3.52v16.96c0,2.41-.89,3.52-3.71,3.52h-19.12Z"/>
        <path class="cls-1" d="M56.3,150.88c-1.97-1.4-5.52-3.39-8.24-4.6-.7-.32-.98-.86-.98-1.4,0-.92.76-1.87,1.81-1.87.92,0,6.44,2.7,9.26,4.66.6.41.86.95.86,1.46,0,1.01-.95,2-1.9,2-.25,0-.54-.06-.79-.25ZM49.39,169.21c-.13.03-.25.03-.38.03-1.2,0-1.9-1.01-1.9-1.97,0-.73.44-1.46,1.36-1.62,12.24-2.09,18.58-7.2,21.53-16.52.22-.7.86-1.05,1.52-1.05.92,0,1.84.6,1.84,1.65,0,.16-.03.32-.06.51-2.5,9.45-10.59,17.03-23.91,18.96Z"/>
        <path class="cls-1" d="M98.89,149.64l-12.59.86v10.88c0,3.39,2,4,7.55,4,3.84,0,6.72-.41,9.92-1.08.13-.03.29-.03.41-.03,1.01,0,1.59.89,1.59,1.74,0,.79-.44,1.55-1.43,1.74-3.04.57-5.58.95-10.5.95-7.83,0-10.84-1.46-10.84-6.5v-11.48l-4.47.29h-.1c-.89,0-1.4-.86-1.4-1.68,0-.76.41-1.49,1.27-1.52l4.69-.29v-4.6c0-.89.82-1.33,1.65-1.33s1.65.44,1.65,1.33v4.41l13.19-.79h.35c2.19,0,3.49,1.4,3.49,3.17,0,2.03-2.19,6.21-7.39,9.54-.35.22-.7.32-1.05.32-.98,0-1.81-.89-1.81-1.78,0-.48.25-.98.86-1.33,4.15-2.38,5.74-5.58,5.74-6.12,0-.38-.29-.7-.73-.7h-.06Z"/>
        <path class="cls-1" d="M119.72,150.88c-1.97-1.4-5.52-3.39-8.24-4.6-.7-.32-.98-.86-.98-1.4,0-.92.76-1.87,1.81-1.87.92,0,6.44,2.7,9.26,4.66.6.41.86.95.86,1.46,0,1.01-.95,2-1.9,2-.25,0-.54-.06-.79-.25ZM112.81,169.21c-.13.03-.25.03-.38.03-1.2,0-1.9-1.01-1.9-1.97,0-.73.44-1.46,1.36-1.62,12.24-2.09,18.58-7.2,21.53-16.52.22-.7.86-1.05,1.52-1.05.92,0,1.84.6,1.84,1.65,0,.16-.03.32-.06.51-2.5,9.45-10.59,17.03-23.91,18.96Z"/>
        <path class="cls-1" d="M148.29,142.6c0-.98.92-1.49,1.81-1.49s1.81.51,1.81,1.49v6.85c4.31,1.36,10.37,3.55,15.63,6.18.63.35.89.92.89,1.49,0,.98-.73,2-1.65,2-.25,0-.51-.06-.76-.22-4.72-2.57-10.24-4.69-14.11-5.93v15.16c0,1.08-.89,1.62-1.78,1.62s-1.84-.57-1.84-1.62v-25.53Z"/>
      </g>
      <g>
        <path class="cls-2" d="M126.96,47.2c-.06-2.06-1.08-3.07-3.16-3.17-2.04-.09-4.09-.15-6.14-.15-17.56-.01-35.12-.01-52.68,0-2.15,0-4.3.06-6.44.17-1.78.1-2.81,1.16-2.9,2.94-.06,1.28.04,2.56-.05,3.84-.15,2.27.51,3.96,3.03,4.41,0,.7,0,1.31,0,1.92,0,9.06,0,18.12,0,27.18,0,2.46,0,4.92.12,7.37.42,8.38,6.05,14.51,14.16,14.68,12.28.26,24.57.24,36.85,0,7.39-.15,12.83-5.39,13.86-12.76.35-2.52.36-5.1.37-7.66.04-9.78.03-19.55.01-29.33,0-.9.09-1.5,1.13-1.81,1.18-.35,1.79-1.33,1.82-2.58.04-1.69.06-3.38.01-5.07Z"/>
        <path class="cls-2" d="M105.44,109.83h-28.25c0,2.26-.13,4.42.03,6.56.3,3.98,2.72,6.59,6.61,7.4.33.07.66.19,1.04.3v5.78s12.28,0,12.28,0v-3.84s.01-1.3.01-1.95c.72-.13,1.27-.22,1.82-.34,2.83-.58,4.84-2.18,5.84-4.89,1.09-2.95.54-6.02.62-9.02Z"/>
        <path class="cls-2" d="M102.81,40.84h9.67c0-8.37,0-16.59,0-24.82,0-1.17-.7-1.77-1.85-1.78-1.69-.02-3.37-.03-5.06-.02-2.43,0-2.84.42-2.84,2.86,0,7.41,0,14.82,0,22.23,0,.49.06.97.09,1.52Z"/>
        <path class="cls-2" d="M70.09,40.76h9.79c0-3.73,0-7.3,0-10.88,0-4.45.01-8.9,0-13.35,0-1.74-.55-2.28-2.3-2.31-1.74-.03-3.48-.03-5.22,0-1.73.03-2.23.57-2.26,2.34-.02,1.23,0,2.45,0,3.68,0,6.8,0,13.59,0,20.51Z"/>
      </g>
    </g>
  </g>
</svg>