<?xml version="1.0" encoding="UTF-8"?>
<svg id="_レイヤー_2" data-name="レイヤー 2" xmlns="http://www.w3.org/2000/svg" width="196.7" height="100.11" viewBox="0 0 196.7 100.11">
  <defs>
    <style>
      .cls-1 {
        fill: #cec3a5;
      }

      .cls-2 {
        fill: #e3542b;
      }
    </style>
  </defs>
  <g id="_レイヤー_1-2" data-name="レイヤー 1">
    <g>
      <g>
        <path class="cls-1" d="M24.38,100.11h-8.08c-1.88,0-3.41-1.52-3.41-3.4V11.78c0-1.88,1.53-3.4,3.41-3.4h8.08c1.88,0,3.41,1.52,3.41,3.4v84.94c0,1.88-1.53,3.4-3.41,3.4Z"/>
        <path class="cls-1" d="M180.4,100.11h-8.08c-1.88,0-3.41-1.52-3.41-3.4V11.78c0-1.88,1.53-3.4,3.41-3.4h8.08c1.88,0,3.41,1.52,3.41,3.4v84.94c0,1.88-1.53,3.4-3.41,3.4Z"/>
      </g>
      <path class="cls-1" d="M149.71,55.95H46.99c-1.95,0-3.53-1.58-3.53-3.52v-5.78c0-1.95,1.58-3.52,3.53-3.52h102.73c1.95,0,3.53,1.58,3.53,3.52v5.78c0,1.95-1.58,3.52-3.53,3.52Z"/>
      <rect class="cls-2" x="78.58" y="24.12" width="39.54" height="9.46" rx="4.59" ry="4.59"/>
      <path class="cls-1" d="M193.16,15.1H3.53c-1.95,0-3.53-1.58-3.53-3.52V3.52C0,1.58,1.58,0,3.53,0h189.63c1.95,0,3.53,1.58,3.53,3.52v8.05c0,1.95-1.58,3.52-3.53,3.52Z"/>
    </g>
  </g>
</svg>