<?xml version="1.0" encoding="UTF-8"?><svg id="_レイヤー_2" xmlns="http://www.w3.org/2000/svg" viewBox="0 0 266.48532 135.3102"><defs><style>.cls-1{fill:#64bbba;stroke-width:0px;}</style></defs><g id="_レイヤー_1-2"><path class="cls-1" d="m197.29401,48.18695C189.32622,20.40329,163.63896,0,133.24417,0s-56.08204,20.40329-64.04984,48.18695C30.89727,49.0366,0,80.33303,0,118.7073v12.45184c0,2.29209,1.86226,4.15105,4.163,4.15105h258.15931c2.30113,0,4.163-1.85896,4.163-4.15105v-12.45184c0-38.37427-30.89651-69.6707-69.19131-70.52035Zm-117.11433,65.92032c-.92393,1.5972-2.60519,2.49101-4.33227,2.49101-.84631,0-1.70701-.2159-2.49311-.66772l-14.66329-8.4395c-2.39011-1.37563-3.20764-4.42263-1.82742-6.80493,1.37681-2.37796,4.43791-3.19723,6.825-1.8231l14.66329,8.43931c2.39011,1.37563,3.20764,4.42282,1.8278,6.80493Zm22.42964-22.3553c-.7861.45181-1.6468.66791-2.49311.66791-1.72708,0-3.40833-.89381-4.33227-2.49101l-8.46611-14.61805c-1.38022-2.3823-.56269-5.4293,1.82742-6.80493,2.39238-1.37412,5.45121-.55486,6.825,1.8231l8.46649,14.61805c1.38022,2.3823.56231,5.4293-1.82742,6.80493Zm35.63243-13.16372c0,2.75108-2.23751,4.98032-4.99757,4.98032-2.75969,0-4.99757-2.22925-4.99757-4.98032v-16.88013c0-2.75126,2.23789-4.98051,4.99757-4.98051,2.76006,0,4.99757,2.22925,4.99757,4.98051v16.88013Zm40.92915-3.27744l-8.46649,14.61805c-.92393,1.5972-2.60519,2.49101-4.33189,2.49101-.84669,0-1.70436-.21609-2.49311-.66791-2.39011-1.37563-3.20764-4.42263-1.8278-6.80493l8.46649-14.61805c1.37681-2.37796,4.42655-3.19723,6.825-1.8231,2.39011,1.37563,3.20802,4.42263,1.8278,6.80493Zm28.62643,32.18024l-14.66329,8.4395c-.7861.45181-1.64642.66772-2.49311.66772-1.72708,0-3.40795-.89381-4.33189-2.49101-1.38022-2.38211-.56269-5.4293,1.82742-6.80493l14.66329-8.43931c2.39011-1.37412,5.45121-.55486,6.82537,1.8231,1.37984,2.3823.56231,5.4293-1.8278,6.80493Z"/></g></svg>