<?xml version="1.0" encoding="UTF-8"?><svg id="_レイヤー_2" xmlns="http://www.w3.org/2000/svg" viewBox="0 0 477.1193 72.26854"><defs><style>.cls-1{fill:#e3542b;}.cls-1,.cls-2{stroke-width:0px;}.cls-2{fill:#cec3a5;}</style></defs><g id="_レイヤー_1-2"><path class="cls-2" d="m352.72512,72.26854h-5.83081c-1.35838,0-2.45977-1.09788-2.45977-2.45258V8.50399c0-1.3547,1.10139-2.45258,2.45977-2.45258h5.83081c1.35838,0,2.45977,1.09788,2.45977,2.45258v61.31197c0,1.3547-1.10139,2.45258-2.45977,2.45258Z"/><path class="cls-2" d="m465.35409,72.26854h-5.83081c-1.35838,0-2.45977-1.09788-2.45977-2.45258V8.50399c0-1.3547,1.10139-2.45258,2.45977-2.45258h5.83081c1.35838,0,2.45977,1.09788,2.45977,2.45258v61.31197c0,1.3547-1.10139,2.45258-2.45977,2.45258Z"/><path class="cls-2" d="m443.20172,40.38627h-74.15505c-1.40952,0-2.55155-1.1384-2.55155-2.54277v-4.17325c0-1.40437,1.14204-2.54277,2.55155-2.54277h74.15505c1.40952,0,2.55155,1.1384,2.55155,2.54277v4.17325c0,1.40437-1.14204,2.54277-2.55155,2.54277Z"/><rect class="cls-1" x="391.85196" y="17.4137" width="28.54447" height="6.82883" rx="3.31127" ry="3.31127"/><path class="cls-2" d="m474.56775,10.89776h-136.8871c-1.40952,0-2.55155-1.1384-2.55155-2.54277V2.54277c0-1.40437,1.14204-2.54277,2.55155-2.54277h136.8871c1.40952,0,2.55155,1.1384,2.55155,2.54277v5.81222c0,1.40437-1.14204,2.54277-2.55155,2.54277Z"/><path class="cls-2" d="m189.741,72.26854h-5.83081c-1.35838,0-2.45977-1.09788-2.45977-2.45258V8.50399c0-1.3547,1.10139-2.45258,2.45977-2.45258h5.83081c1.35838,0,2.45977,1.09788,2.45977,2.45258v61.31197c0,1.3547-1.10139,2.45258-2.45977,2.45258Z"/><path class="cls-2" d="m302.36997,72.26854h-5.83081c-1.35838,0-2.45977-1.09788-2.45977-2.45258V8.50399c0-1.3547,1.10139-2.45258,2.45977-2.45258h5.83081c1.35838,0,2.45977,1.09788,2.45977,2.45258v61.31197c0,1.3547-1.10139,2.45258-2.45977,2.45258Z"/><path class="cls-2" d="m280.2176,40.38627h-74.15505c-1.40952,0-2.55155-1.1384-2.55155-2.54277v-4.17325c0-1.40437,1.14204-2.54277,2.55155-2.54277h74.15505c1.40952,0,2.55155,1.1384,2.55155,2.54277v4.17325c0,1.40437-1.14204,2.54277-2.55155,2.54277Z"/><rect class="cls-1" x="228.86784" y="17.4137" width="28.54447" height="6.82883" rx="3.31127" ry="3.31127"/><path class="cls-2" d="m311.58363,10.89776h-136.8871c-1.40952,0-2.55155-1.1384-2.55155-2.54277V2.54277c0-1.40437,1.14204-2.54277,2.55155-2.54277h136.8871c1.40952,0,2.55155,1.1384,2.55155,2.54277v5.81222c0,1.40437-1.14204,2.54277-2.55155,2.54277Z"/><path class="cls-2" d="m17.59602,72.26854h-5.83081c-1.35838,0-2.45977-1.09788-2.45977-2.45258V8.50399c0-1.3547,1.10139-2.45258,2.45977-2.45258h5.83081c1.35838,0,2.45977,1.09788,2.45977,2.45258v61.31197c0,1.3547-1.10139,2.45258-2.45977,2.45258Z"/><path class="cls-2" d="m130.225,72.26854h-5.83081c-1.35838,0-2.45977-1.09788-2.45977-2.45258V8.50399c0-1.3547,1.10139-2.45258,2.45977-2.45258h5.83081c1.35838,0,2.45977,1.09788,2.45977,2.45258v61.31197c0,1.3547-1.10139,2.45258-2.45977,2.45258Z"/><path class="cls-2" d="m108.07263,40.38627H33.91758c-1.40952,0-2.55155-1.1384-2.55155-2.54277v-4.17325c0-1.40437,1.14204-2.54277,2.55155-2.54277h74.15505c1.40952,0,2.55155,1.1384,2.55155,2.54277v4.17325c0,1.40437-1.14204,2.54277-2.55155,2.54277Z"/><rect class="cls-1" x="56.72287" y="17.4137" width="28.54447" height="6.82883" rx="3.31127" ry="3.31127"/><path class="cls-2" d="m139.43865,10.89776H2.55155c-1.40952,0-2.55155-1.1384-2.55155-2.54277V2.54277C0,1.1384,1.14204,0,2.55155,0h136.8871c1.40952,0,2.55155,1.1384,2.55155,2.54277v5.81222c0,1.40437-1.14204,2.54277-2.55155,2.54277Z"/></g></svg>