<?xml version="1.0" encoding="UTF-8"?><svg id="_レイヤー_2" xmlns="http://www.w3.org/2000/svg" viewBox="0 0 542.32196 74.98716"><defs><style>.cls-1{fill:#5c3d39;}.cls-1,.cls-2,.cls-3,.cls-4{stroke-width:0px;}.cls-2{fill:#e3542b;}.cls-3{fill:#cec3a5;}.cls-4{fill:#64bbba;}</style></defs><g id="_レイヤー_1-2"><path class="cls-1" d="m473.15019,41.76337h-34.15797c-1.17974,0-2.13441-.95615-2.13441-2.13515s.95468-2.13515,2.13441-2.13515h34.15797c1.17974,0,2.13441.95615,2.13441,2.13515s-.95468,2.13515-2.13441,2.13515Z"/><path class="cls-1" d="m286.13256,23.82991h-4.69602c-.00042,0-.00063-.00021-.00105-.00021h-24.33778v-8.96646c0-.46964-.38425-.8539-.8539-.8539h-7.68571c-.46964,0-.85411.38425-.85411.8539v8.96646h-8.11245c-1.17989,0-2.13432.95611-2.13432,2.13517,0,1.17895.95443,2.13517,2.13432,2.13517h8.11245v32.02339c0,.46964.38446.854.85411.854h30.74307c1.17947,0,2.13432-.95611,2.13432-2.13506,0-1.17905-.95485-2.13517-2.13432-2.13517h-22.20346v-28.60717h20.49524v10.21817l-4.92464,4.92495c-.83392.83329-.83392,2.18512,0,3.01925.41622.41622.96347.62518,1.50925.62518s1.09303-.20895,1.50925-.62591l9.82046-9.82109c.02608-.02629.03449-.06173.05889-.08897l.81646-.81636c.33209-.33209.60383-.98808.60383-1.45773v-9.39362c0-.46975-.38425-.854-.8539-.854Z"/><path class="cls-1" d="m426.18301,23.8297h-14.09058v-8.96646c0-.46964-.38446-.8539-.8539-.8539h-7.68592c-.46943,0-.8539.38425-.8539.8539v8.96646h-23.48472c-1.17989,0-2.13432.95611-2.13432,2.13517,0,1.17895.95443,2.13517,2.13432,2.13517h23.48472v19.0841l-16.49916,10.27328c-1.00154.62297-1.30756,1.93946-.68396,2.94048.40466.6502,1.10187,1.00691,1.8138,1.00691.38531,0,.77524-.10442,1.12689-.32284l22.62956-14.09069c.55566-.34566.87072-.90742.95822-1.50768.0265-.10316.04837-.20685.04837-.30454v-17.07902h14.09058c1.17947,0,2.13432-.95622,2.13432-2.13517,0-1.17905-.95485-2.13517-2.13432-2.13517Z"/><path class="cls-1" d="m541.98675,42.32301c-.63517-.99513-1.95345-1.28779-2.9491-.65157l-16.35699,10.43501V14.86324c0-.46964-.38404-.8539-.8539-.8539h-7.6855c-.46985,0-.85432.38425-.85432.8539v44.40618c0,.07014.02061.11988.03407.17656.02734.33557.10684.6684.30076.97178.4076.63843,1.09745.98703,1.80202.98703.39246,0,.79122-.1081,1.14708-.33535l24.76431-15.79848c.99313-.63401,1.28589-1.95429.65157-2.94795Z"/><path class="cls-1" d="m503.03974,22.97591h-7.68592c-.46943,0-.8539.38436-.8539.854v28.65102l-6.45009,5.11624c-.92372.73254-1.0781,2.07554-.34577,2.99937.42064.53095,1.04445.80826,1.67415.80826.46481,0,.93256-.15154,1.32544-.4626l12.38152-9.82109c.48962-.38867.74664-.94907.78575-1.52766.00631-.04806.02271-.09843.02271-.14459v-25.61894c0-.46964-.38446-.854-.8539-.854Z"/><path class="cls-1" d="m214.08648,47.74106l6.00841-10.46572c.587-1.02236.23388-2.32708-.78828-2.91409-1.02552-.58763-2.32719-.23608-2.91566.78849l-4.76669,8.30279-1.06758-1.85954v-16.90866h4.69728c1.17968,0,2.13432-.95611,2.13432-2.13517,0-1.17895-.95464-2.13506-2.13432-2.13506h-4.69728v-5.55086c0-.46964-.38425-.8539-.85411-.8539h-5.97771c-.46964,0-.8539.38425-.8539.8539v5.55086h-19.64134c-.46943,0-.8539.38425-.8539.8539v31.567l-4.92485,4.92537c-.83413.83339-.83413,2.18522,0,3.01925.41622.41633.96347.62518,1.50925.62518.54557,0,1.09282-.20885,1.50925-.62591l8.53898-8.53982c.02587-.02576.03407-.06068.05805-.08739l.39119-.39109c.33231-.33209.60404-.98808.60404-1.45773v-11.10131h2.56169v16.65207c0,.46964.38446.8539.8539.8539h5.97771c.46985,0,.85411-.38425.85411-.8539v-20.06818c0-.46964-.38425-.854-.85411-.854h-3.41475s-.00021-.00011-.00042-.00011h-5.97813v-10.24699h12.80931v11.52805c0,.04774.01598.10074.02229.1509.02145.31201.09422.62265.26038.91205l6.00841,10.46572-6.00841,10.46583c-.587,1.02226-.23388,2.32708.78828,2.91398.33546.19276.70163.28393,1.06211.28393.73843,0,1.45773-.38467,1.85334-1.07232l4.7669-8.30279,4.76669,8.30279c.39561.68764,1.11364,1.07232,1.85355,1.07232.36049,0,.72665-.09117,1.06211-.28393,1.02215-.5869,1.37528-1.89172.78828-2.91398l-6.00841-10.46583Z"/><path class="cls-1" d="m178.7616,44.09706c-.83266-.83402-2.18606-.83329-3.01851-.00074l-1.47981,1.4797v-14.48693h2.98906c1.17968,0,2.13432-.95622,2.13432-2.13517,0-1.17905-.95464-2.13517-2.13432-2.13517h-2.98906v-11.95552c0-.46964-.38446-.8539-.85411-.8539h-5.97771c-.46964,0-.85411.38425-.85411.8539v11.95552h-2.98906c-1.17989,0-2.13454.95611-2.13454,2.13517,0,1.17895.95464,2.13517,2.13454,2.13517h2.98906v22.17222l-4.49832,4.49832c-.83413.83413-.83413,2.18596,0,3.01925.41622.41706.96326.62591,1.50925.62591.54557,0,1.09282-.20885,1.50925-.62518l13.66405-13.66332c.83392-.83402.83392-2.18596,0-3.01925Z"/><path class="cls-1" d="m143.52042,48.59485h-5.97771c-.46985,0-.8539.38436-.8539.854v7.25834h-8.19469l8.25147-17.16325c.20359-.42327-.0143-.76967-.48374-.76967h-5.97792c-.46964,0-1.02047.3464-1.22385.76967l-9.93466,20.66381c-.20359.42327.0143.76967.48395.76967h23.91104c.46964,0,.8539-.38436.8539-.854v-10.67457c0-.46964-.38425-.854-.8539-.854Zm-29.46201-26.04642h-3.41559v-7.68519c0-.46964-.38425-.8539-.8539-.8539h-5.97771c-.46985,0-.85411.38425-.85411.8539v7.68519h-12.80994c-1.17947,0-2.13432.95622-2.13432,2.13517,0,1.17905.95485,2.13517,2.13432,2.13517h12.80994v33.30466c0,.46964.38425.854.85411.854h5.97771c.46964,0,.8539-.38436.8539-.854V26.81877h3.41559c1.17968,0,2.13432-.95611,2.13432-2.13517,0-1.17895-.95464-2.13517-2.13432-2.13517Zm13.0373,9.62329c.02608-.02608.03428-.06131.05868-.08833l.39098-.39088c.33188-.3322.60362-.98819.60362-1.45783v-6.83171c0-.46975-.38425-.854-.8539-.854h-5.97771c-.46985,0-.8539.38425-.8539.854v9.36259l-3.21747,3.21747c-.83413.83413-.83413,2.18596,0,3.01998.41622.41633.96347.62518,1.50925.62518.54557,0,1.09282-.20885,1.50925-.62518l6.83119-6.83129Zm-28.83526,1.05181h-5.97792c-.46964,0-.8539.38425-.8539.854v20.03874l-3.64379,3.64411c-.83413.83339-.83413,2.18522,0,3.01925.41643.41633.96347.62518,1.50925.62518s1.09282-.20885,1.50925-.62591l7.25792-7.25866c.02587-.02597.03407-.0611.05847-.08802l.39056-.39067c.33231-.33209.60404-.98808.60404-1.45773v-17.50628c0-.46975-.38446-.854-.8539-.854Zm47.19617,2.7595l-3.21705-3.21726V14.86324c0-.46964-.38446-.8539-.8539-.8539h-18.78681c-1.17968,0-2.13432.95611-2.13432,2.13517,0,1.17895.95464,2.13517,2.13432,2.13517h11.95478v11.955c0,.46964.27173,1.12563.60404,1.45783l.38993.39004c.02482.02734.03302.06289.05931.08918l6.83119,6.83129c.41643.41633.96369.62518,1.50925.62518.54578,0,1.09303-.20885,1.50925-.62518.83413-.83402.83413-2.18585,0-3.01998Z"/><circle class="cls-4" cx="296.80707" cy="17.85219" r="4.26982"/><circle class="cls-4" cx="222.93914" cy="17.85219" r="4.26982"/><circle class="cls-4" cx="117.04753" cy="47.74095" r="4.26982"/><circle class="cls-4" cx="296.80707" cy="29.38071" r="4.26982"/><path class="cls-1" d="m321.57165,21.26801h33.73129c1.17968,0,2.13454-.95622,2.13454-2.13517,0-1.17905-.95485-2.13517-2.13454-2.13517h-33.73129c-1.17989,0-2.13454.95611-2.13454,2.13517,0,1.17895.95464,2.13517,2.13454,2.13517Z"/><path class="cls-1" d="m355.30294,29.80709h-33.73129c-1.17989,0-2.13454.95611-2.13454,2.13517,0,1.17895.95464,2.13517,2.13454,2.13517h33.73129c1.17968,0,2.13454-.95622,2.13454-2.13517,0-1.17905-.95485-2.13517-2.13454-2.13517Z"/><path class="cls-1" d="m355.7015,57.17201l-26.87087-5.10204v-9.45282c0-.46964-.38404-.854-.8539-.854h-7.6855c-.46985,0-.85411.38436-.85411.854v10.24762c0,.07845.02461.15385.04438.22977.10053.90742.7479,1.68887,1.69139,1.86806l33.7315,6.40466c.13524.02503.26921.03754.4015.03754,1.0047,0,1.90045-.71267,2.09457-1.73724.21915-1.15771-.54136-2.27566-1.69896-2.49555Z"/><path class="cls-3" d="m17.57903,66.58583h-2.17453c-.50659,0-.91734-.40944-.91734-.91466v-22.86557c0-.50522.41075-.91466.91734-.91466h2.17453c.50659,0,.91734.40944.91734.91466v22.86557c0,.50522-.41075.91466-.91734.91466Z"/><path class="cls-3" d="m59.58267,66.58583h-2.17453c-.50659,0-.91734-.40944-.91734-.91466v-22.86557c0-.50522.41075-.91466.91734-.91466h2.17453c.50659,0,.91734.40944.91734.91466v22.86557c0,.50522-.41075.91466-.91734.91466Z"/><path class="cls-3" d="m23.66268,51.24276h27.65852c.52519,0,.95157.42639.95157.95157v1.55309c0,.52338-.42492.94829-.94829.94829h-27.65852c-.52519,0-.95157-.42639-.95157-.95157v-1.55309c0-.52338.42492-.94829.94829-.94829Z"/><path class="cls-3" d="m74.27751,35.37131h-2.8464c-.36919,0-.67676-.28222-.70708-.64901-1.42247-17.09026-16.01878-30.47776-33.2302-30.47776S5.68609,17.63204,4.26362,34.7223c-.03032.36679-.33789.64901-.70708.64901H.70965c-.19755,0-.3863-.08213-.52077-.22665-.13398-.14452-.20195-.33852-.18679-.53495C1.49203,15.20245,17.96068,0,37.49383,0s36.00179,15.20245,37.49125,34.60995c.01516.19643-.05281.39019-.18679.53471-.13447.14452-.32322.22665-.52077.22665Z"/><path class="cls-4" d="m37.49383,74.98716C17.96068,74.98716,1.49203,59.78472.00209,40.37746c-.01516-.19643.05281-.39043.18679-.53495.13447-.14452.32322-.22665.52077-.22665h2.84689c.36919,0,.67676.28222.70708.64901,1.42247,17.09026,16.01878,30.47776,33.2302,30.47776s31.80774-13.3875,33.2302-30.47776c.03032-.36679.33789-.64901.70708-.64901h2.8464c.19755,0,.3863.08213.52077.22665.13398.14452.20195.33828.18679.53471-1.48946,19.4075-17.95762,34.60995-37.49125,34.60995Z"/><path class="cls-4" d="m49.41836,19.16437c-1.48341-5.17263-6.26574-8.97122-11.9245-8.97122s-10.44109,3.79859-11.9245,8.97122c-7.12997.15818-12.88227,5.98481-12.88227,13.12915v2.31822c0,.42673.34671.77282.77505.77282h48.06288c.42841,0,.77505-.34609.77505-.77282v-2.31822c0-7.14434-5.75217-12.97096-12.88171-13.12915Zm-21.80379,12.27273c-.17201.29736-.48502.46376-.80656.46376-.15756,0-.3178-.0402-.46415-.12431l-2.72994-1.57123c-.44498-.25611-.59718-.82338-.34022-1.26691.25633-.44272.82623-.59524,1.27065-.33942l2.72994,1.57119c.44498.25611.59718.82342.34029,1.26691Zm4.17584-4.162c-.14635.08412-.30659.12435-.46415.12435-.32154,0-.63455-.16641-.80656-.46376l-1.57618-2.72152c-.25696-.44353-.10476-1.0108.34022-1.26691.4454-.25583,1.01488-.1033,1.27065.33942l1.57625,2.72152c.25696.44353.10469,1.0108-.34022,1.26691Zm6.63388-2.45076c0,.51218-.41657.92721-.93042.92721-.51379,0-.93042-.41503-.93042-.92721v-3.14266c0-.51222.41664-.92725.93042-.92725.51386,0,.93042.41503.93042.92725v3.14266Zm7.61999-.61018l-1.57625,2.72152c-.17201.29736-.48502.46376-.80649.46376-.15763,0-.31731-.04023-.46415-.12435-.44498-.25611-.59718-.82338-.34029-1.26691l1.57625-2.72152c.25633-.44272.82411-.59524,1.27065-.33942.44498.25611.59725.82338.34029,1.26691Zm5.32953,5.99117l-2.72994,1.57123c-.14635.08412-.30652.12431-.46415.12431-.32154,0-.63448-.16641-.80649-.46376-.25696-.44349-.10476-1.0108.34022-1.26691l2.72994-1.57119c.44498-.25583,1.01488-.1033,1.27072.33942.25689.44353.10469,1.0108-.34029,1.26691Z"/><rect class="cls-2" x="32.17092" y="46.12836" width="10.64532" height="2.54673" rx="1.2349" ry="1.2349"/><path class="cls-3" d="m63.01879,43.69832H11.96837c-.52566,0-.95157-.42455-.95157-.94829v-2.1676c0-.52374.42591-.94829.95157-.94829h51.05042c.52566,0,.95157.42455.95157.94829v2.1676c0,.52374-.42591.94829-.95157.94829Z"/></g></svg>