<?xml version="1.0" encoding="UTF-8"?>
<svg id="_レイヤー_2" data-name="レイヤー 2" xmlns="http://www.w3.org/2000/svg" width="42.07" height="30.82" viewBox="0 0 42.07 30.82">
  <defs>
    <style>
      .cls-1 {
        fill: #5c3d39;
      }
    </style>
  </defs>
  <g id="_レイヤー_1-2" data-name="レイヤー 1">
    <path class="cls-1" d="M13.22,5.99h-4.89l1.88,4.85c.14.27.18.55.18.82,0,.41-.18.73-.78.87l-8.32,1.42c-.82.09-1.28-.37-1.28-1.28,0-2.01.28-6.4,2.47-8.09C6.31,1.6,11.34,0,21.04,0s14.72,1.6,18.56,4.57c2.19,1.69,2.47,6.08,2.47,8.09,0,.91-.46,1.37-1.28,1.28l-8.32-1.42c-.59-.14-.78-.46-.78-.87,0-.28.05-.55.18-.82l1.87-4.85h-4.89v2.93c0,3.2,2.06,5.58,5.44,8.87,3.15,3.06,4.21,6.86,4.21,10.88,0,1.46-.55,2.15-2.1,2.15H5.67c-1.56,0-2.1-.69-2.1-2.15,0-4.02,1.05-7.82,4.21-10.88,3.38-3.29,5.44-5.67,5.44-8.87v-2.93ZM28.72,20.62c0-4.25-3.43-7.68-7.68-7.68s-7.68,3.43-7.68,7.68,3.43,7.68,7.68,7.68,7.68-3.52,7.68-7.68ZM24.92,5.99h-7.77v4.39h7.77v-4.39Z"/>
  </g>
</svg>