<?xml version="1.0" encoding="UTF-8"?>
<svg id="_レイヤー_2" data-name="レイヤー_2" xmlns="http://www.w3.org/2000/svg" width="124.61" height="63.42" viewBox="0 0 124.61 63.42">
  <defs>
    <style>
      .cls-1 {
        fill: #cec3a5;
      }

      .cls-2 {
        fill: #e3542b;
      }
    </style>
  </defs>
  <g id="_レイヤー_1-2" data-name="レイヤー_1">
    <g>
      <g>
        <path class="cls-1" d="M15.44,63.42h-5.12c-1.19,0-2.16-.96-2.16-2.15V7.46c0-1.19.97-2.15,2.16-2.15h5.12c1.19,0,2.16.96,2.16,2.15v53.81c0,1.19-.97,2.15-2.16,2.15Z"/>
        <path class="cls-1" d="M114.29,63.42h-5.12c-1.19,0-2.16-.96-2.16-2.15V7.46c0-1.19.97-2.15,2.16-2.15h5.12c1.19,0,2.16.96,2.16,2.15v53.81c0,1.19-.97,2.15-2.16,2.15Z"/>
      </g>
      <path class="cls-1" d="M94.85,35.44H29.77c-1.24,0-2.24-1-2.24-2.23v-3.66c0-1.23,1-2.23,2.24-2.23h65.08c1.24,0,2.24,1,2.24,2.23v3.66c0,1.23-1,2.23-2.24,2.23Z"/>
      <rect class="cls-2" x="49.78" y="15.28" width="25.05" height="5.99" rx="2.91" ry="2.91"/>
      <path class="cls-1" d="M122.37,9.56H2.24c-1.24,0-2.24-1-2.24-2.23V2.23C0,1,1,0,2.24,0h120.13c1.24,0,2.24,1,2.24,2.23v5.1c0,1.23-1,2.23-2.24,2.23Z"/>
    </g>
  </g>
</svg>