<?xml version="1.0" encoding="UTF-8"?>
<svg id="_レイヤー_2" data-name="レイヤー_2" xmlns="http://www.w3.org/2000/svg" width="143.48" height="67.71" xmlns:xlink="http://www.w3.org/1999/xlink" viewBox="0 0 143.48 67.71">
  <defs>
    <style>
      .cls-1 {
        fill: #cec3a5;
      }

      .cls-2 {
        filter: url(#outer-glow-1);
      }

      .cls-3 {
        fill: #64bbba;
      }
    </style>
    <filter id="outer-glow-1" x="-17.86" y="-18.7" width="180" height="105" filterUnits="userSpaceOnUse">
      <feOffset dx="0" dy="0"/>
      <feGaussianBlur result="blur" stdDeviation="5.92"/>
      <feFlood flood-color="#fff" flood-opacity="1"/>
      <feComposite in2="blur" operator="in"/>
      <feComposite in="SourceGraphic"/>
    </filter>
  </defs>
  <g id="_レイヤー_1-2" data-name="レイヤー_1">
    <g class="cls-2">
      <path class="cls-1" d="M142.13,67.68h-5.45c-.71,0-1.29-.54-1.35-1.24-2.72-32.7-30.65-58.32-63.58-58.32S10.88,33.74,8.16,66.44c-.06.7-.65,1.24-1.35,1.24H1.36c-.38,0-.74-.16-1-.43-.26-.28-.39-.65-.36-1.02C2.85,29.09,34.37,0,71.74,0s68.89,29.09,71.74,66.22c.03.38-.1.75-.36,1.02-.26.28-.62.43-1,.43Z"/>
      <path class="cls-3" d="M94.56,36.67c-2.84-9.9-11.99-17.17-22.82-17.17s-19.98,7.27-22.82,17.17c-13.64.3-24.65,11.45-24.65,25.12v4.44c0,.82.66,1.48,1.48,1.48h91.97c.82,0,1.48-.66,1.48-1.48v-4.44c0-13.67-11.01-24.82-24.65-25.12ZM52.84,60.15c-.33.57-.93.89-1.54.89-.3,0-.61-.08-.89-.24l-5.22-3.01c-.85-.49-1.14-1.58-.65-2.42.49-.85,1.58-1.14,2.43-.65l5.22,3.01c.85.49,1.14,1.58.65,2.42ZM60.83,52.19c-.28.16-.59.24-.89.24-.62,0-1.21-.32-1.54-.89l-3.02-5.21c-.49-.85-.2-1.93.65-2.42.85-.49,1.94-.2,2.43.65l3.02,5.21c.49.85.2,1.93-.65,2.42ZM73.52,47.5c0,.98-.8,1.77-1.78,1.77s-1.78-.79-1.78-1.77v-6.01c0-.98.8-1.77,1.78-1.77s1.78.79,1.78,1.77v6.01ZM88.1,46.33l-3.02,5.21c-.33.57-.93.89-1.54.89-.3,0-.61-.08-.89-.24-.85-.49-1.14-1.58-.65-2.42l3.02-5.21c.49-.85,1.58-1.14,2.43-.65.85.49,1.14,1.58.65,2.42ZM98.3,57.8l-5.22,3.01c-.28.16-.59.24-.89.24-.62,0-1.21-.32-1.54-.89-.49-.85-.2-1.93.65-2.42l5.22-3.01c.85-.49,1.94-.2,2.43.65.49.85.2,1.93-.65,2.42Z"/>
    </g>
  </g>
</svg>