<?xml version="1.0" encoding="UTF-8"?>
<svg id="_レイヤー_2" data-name="レイヤー 2" xmlns="http://www.w3.org/2000/svg" width="764.17" height="133.78" viewBox="0 0 764.17 133.78">
  <defs>
    <style>
      .cls-1 {
        fill: #cec3a5;
      }

      .cls-2 {
        fill: #e3542b;
      }

      .cls-3 {
        fill: #5c3d39;
      }

      .cls-4 {
        fill: #64bbba;
      }
    </style>
  </defs>
  <g id="_レイヤー_1-2" data-name="レイヤー 1">
    <g>
      <g>
        <path class="cls-3" d="M671.91,93.45h-45.56c-1.57,0-2.85-1.28-2.85-2.85s1.27-2.85,2.85-2.85h45.56c1.57,0,2.85,1.28,2.85,2.85s-1.27,2.85-2.85,2.85Z"/>
        <path class="cls-3" d="M422.46,69.53h-6.26s0,0,0,0h-32.46v-11.96c0-.63-.51-1.14-1.14-1.14h-10.25c-.63,0-1.14.51-1.14,1.14v11.96h-10.82c-1.57,0-2.85,1.28-2.85,2.85s1.27,2.85,2.85,2.85h10.82v42.71c0,.63.51,1.14,1.14,1.14h41.01c1.57,0,2.85-1.28,2.85-2.85s-1.27-2.85-2.85-2.85h-29.62v-38.16h27.34v13.63l-6.57,6.57c-1.11,1.11-1.11,2.91,0,4.03.56.56,1.29.83,2.01.83s1.46-.28,2.01-.83l13.1-13.1s.05-.08.08-.12l1.09-1.09c.44-.44.81-1.32.81-1.94v-12.53c0-.63-.51-1.14-1.14-1.14Z"/>
        <path class="cls-3" d="M609.26,69.53h-18.79v-11.96c0-.63-.51-1.14-1.14-1.14h-10.25c-.63,0-1.14.51-1.14,1.14v11.96h-31.32c-1.57,0-2.85,1.28-2.85,2.85s1.27,2.85,2.85,2.85h31.32v25.45l-22.01,13.7c-1.34.83-1.74,2.59-.91,3.92.54.87,1.47,1.34,2.42,1.34.51,0,1.03-.14,1.5-.43l30.18-18.79c.74-.46,1.16-1.21,1.28-2.01.04-.14.06-.28.06-.41v-22.78h18.79c1.57,0,2.85-1.28,2.85-2.85s-1.27-2.85-2.85-2.85Z"/>
        <g>
          <path class="cls-3" d="M763.72,94.19c-.85-1.33-2.61-1.72-3.93-.87l-21.82,13.92v-49.68c0-.63-.51-1.14-1.14-1.14h-10.25c-.63,0-1.14.51-1.14,1.14v59.23c0,.09.03.16.05.24.04.45.14.89.4,1.3.54.85,1.46,1.32,2.4,1.32.52,0,1.06-.14,1.53-.45l33.03-21.07c1.32-.85,1.72-2.61.87-3.93Z"/>
          <path class="cls-3" d="M711.78,68.39h-10.25c-.63,0-1.14.51-1.14,1.14v38.22l-8.6,6.82c-1.23.98-1.44,2.77-.46,4,.56.71,1.39,1.08,2.23,1.08.62,0,1.24-.2,1.77-.62l16.51-13.1c.65-.52,1-1.27,1.05-2.04,0-.06.03-.13.03-.19v-34.17c0-.63-.51-1.14-1.14-1.14Z"/>
        </g>
        <g>
          <path class="cls-3" d="M326.37,101.42l8.01-13.96c.78-1.36.31-3.1-1.05-3.89-1.37-.78-3.1-.31-3.89,1.05l-6.36,11.07-1.42-2.48v-22.55h6.27c1.57,0,2.85-1.28,2.85-2.85s-1.27-2.85-2.85-2.85h-6.27v-7.4c0-.63-.51-1.14-1.14-1.14h-7.97c-.63,0-1.14.51-1.14,1.14v7.4h-26.2c-.63,0-1.14.51-1.14,1.14v42.1l-6.57,6.57c-1.11,1.11-1.11,2.91,0,4.03.56.56,1.29.83,2.01.83s1.46-.28,2.01-.83l11.39-11.39s.05-.08.08-.12l.52-.52c.44-.44.81-1.32.81-1.94v-14.81h3.42v22.21c0,.63.51,1.14,1.14,1.14h7.97c.63,0,1.14-.51,1.14-1.14v-26.77c0-.63-.51-1.14-1.14-1.14h-4.55s0,0,0,0h-7.97v-13.67h17.09v15.38c0,.06.02.13.03.2.03.42.13.83.35,1.22l8.01,13.96-8.01,13.96c-.78,1.36-.31,3.1,1.05,3.89.45.26.94.38,1.42.38.98,0,1.94-.51,2.47-1.43l6.36-11.07,6.36,11.07c.53.92,1.49,1.43,2.47,1.43.48,0,.97-.12,1.42-.38,1.36-.78,1.83-2.52,1.05-3.89l-8.01-13.96Z"/>
          <path class="cls-3" d="M279.25,96.56c-1.11-1.11-2.92-1.11-4.03,0l-1.97,1.97v-19.32h3.99c1.57,0,2.85-1.28,2.85-2.85s-1.27-2.85-2.85-2.85h-3.99v-15.95c0-.63-.51-1.14-1.14-1.14h-7.97c-.63,0-1.14.51-1.14,1.14v15.95h-3.99c-1.57,0-2.85,1.28-2.85,2.85s1.27,2.85,2.85,2.85h3.99v29.57l-6,6c-1.11,1.11-1.11,2.92,0,4.03.56.56,1.28.83,2.01.83s1.46-.28,2.01-.83l18.23-18.22c1.11-1.11,1.11-2.92,0-4.03Z"/>
        </g>
        <path class="cls-3" d="M232.24,102.56h-7.97c-.63,0-1.14.51-1.14,1.14v9.68h-10.93l11.01-22.89c.27-.56-.02-1.03-.65-1.03h-7.97c-.63,0-1.36.46-1.63,1.03l-13.25,27.56c-.27.56.02,1.03.65,1.03h31.89c.63,0,1.14-.51,1.14-1.14v-14.24c0-.63-.51-1.14-1.14-1.14ZM192.95,67.82h-4.56v-10.25c0-.63-.51-1.14-1.14-1.14h-7.97c-.63,0-1.14.51-1.14,1.14v10.25h-17.09c-1.57,0-2.85,1.28-2.85,2.85s1.27,2.85,2.85,2.85h17.09v44.42c0,.63.51,1.14,1.14,1.14h7.97c.63,0,1.14-.51,1.14-1.14v-44.42h4.56c1.57,0,2.85-1.28,2.85-2.85s-1.27-2.85-2.85-2.85ZM210.34,80.65s.05-.08.08-.12l.52-.52c.44-.44.81-1.32.81-1.94v-9.11c0-.63-.51-1.14-1.14-1.14h-7.97c-.63,0-1.14.51-1.14,1.14v12.49l-4.29,4.29c-1.11,1.11-1.11,2.92,0,4.03.56.56,1.29.83,2.01.83s1.46-.28,2.01-.83l9.11-9.11ZM171.88,82.06h-7.97c-.63,0-1.14.51-1.14,1.14v26.73l-4.86,4.86c-1.11,1.11-1.11,2.91,0,4.03.56.56,1.29.83,2.01.83s1.46-.28,2.01-.83l9.68-9.68s.05-.08.08-.12l.52-.52c.44-.44.81-1.32.81-1.94v-23.35c0-.63-.51-1.14-1.14-1.14ZM234.83,85.74l-4.29-4.29v-23.88c0-.63-.51-1.14-1.14-1.14h-25.06c-1.57,0-2.85,1.28-2.85,2.85s1.27,2.85,2.85,2.85h15.95v15.95c0,.63.36,1.5.81,1.94l.52.52s.04.08.08.12l9.11,9.11c.56.56,1.29.83,2.01.83s1.46-.28,2.01-.83c1.11-1.11,1.11-2.92,0-4.03Z"/>
        <circle class="cls-4" cx="436.7" cy="61.55" r="5.7"/>
        <circle class="cls-4" cx="338.17" cy="61.55" r="5.7"/>
        <circle class="cls-4" cx="196.93" cy="101.42" r="5.7"/>
        <circle class="cls-4" cx="436.7" cy="76.93" r="5.7"/>
        <g>
          <path class="cls-3" d="M469.73,66.11h44.99c1.57,0,2.85-1.28,2.85-2.85s-1.27-2.85-2.85-2.85h-44.99c-1.57,0-2.85,1.28-2.85,2.85s1.27,2.85,2.85,2.85Z"/>
          <path class="cls-3" d="M514.72,77.5h-44.99c-1.57,0-2.85,1.28-2.85,2.85s1.27,2.85,2.85,2.85h44.99c1.57,0,2.85-1.28,2.85-2.85s-1.27-2.85-2.85-2.85Z"/>
          <path class="cls-3" d="M515.25,114l-35.84-6.81v-12.61c0-.63-.51-1.14-1.14-1.14h-10.25c-.63,0-1.14.51-1.14,1.14v13.67c0,.1.03.21.06.31.13,1.21,1,2.25,2.26,2.49l44.99,8.54c.18.03.36.05.54.05,1.34,0,2.53-.95,2.79-2.32.29-1.54-.72-3.04-2.27-3.33Z"/>
        </g>
      </g>
      <g>
        <path class="cls-3" d="M244.64,19.24l.15.24c-1.03,5.11-2.62,9.76-4.97,13.9-.18.29-.35.41-.53.41-.12,0-.24-.03-.35-.09l-3.32-1.53c2.26-4.06,4.26-9.32,5.06-13.9l.23-.12,3.73,1.09ZM252.02,34.69c.06,3.17-.79,5.08-5.32,5.08h-1.26c-.53,0-.62-.06-.76-.35l-1.88-3.97c1.38,0,2.56,0,3.76-.09.62-.06.79-.24.79-.94V12.21l.21-.21h4.14l.21.21v15.75l.12,6.73ZM259.34,33.81l-.26-.12c-1.32-5.44-2.79-9.93-4.88-14.31l.06-.24,3.53-1.21.29.09c2.38,4.41,4.06,8.93,5.35,14.05l-.12.29-3.97,1.44Z"/>
        <path class="cls-3" d="M270.89,29.73v1.73h-4.35l.15-7.05v-3.35l-.09-3.53.21-.21,4.38.09h5.35v-5.32l.21-.21h3.94l.21.21v5.32h5.73l4.38-.06.21.21-.06,3.5v3.26l.15,6.91h-4.47v-1.5h-5.94v1.65l.15,8.58h-4.64l.15-8.58v-1.65h-5.64ZM276.53,20.94h-5.64v5.26h5.64v-5.26ZM286.82,26.2v-5.26h-5.94v5.26h5.94Z"/>
        <path class="cls-3" d="M306.05,12.01l.21-.23h3.94l.21.21v2.65h6.55l4.73-.09.21.21v3.17l-.21.21-4.73-.09h-17.31l-4.7.09-.21-.23v-3.17l.24-.18,4.67.09h6.41v-2.62ZM311.39,37.02h-5.91v1.26h-3.64l.12-3.67v-1.82l-.06-2.09.18-.18,2.88.09h6.17l3.12-.09.21.18-.06,2.09v1.76l.06,1.65c.62-.03,1.23-.06,1.56-.12.32-.06.5-.06.5-.53v-5.94h-16.49v10.37h-4.17l.15-6.55v-3.41l-.09-3.32.21-.21,3.76.09h16.9l3.76-.09.21.21-.09,3.32v2.5l.12,4.11c0,2.67-1.7,3.29-5.64,3.29-.47,0-.53-.03-.65-.32l-1.12-2.53-1.97-.06ZM300.4,25.7l-.21-.24.15-2.7v-1.15l-.09-2.47.21-.21,3.17.09h9.32l3.17-.09.21.21-.09,2.47v1.23l.09,2.59-.23.26-3.35-.09h-8.93l-3.41.09ZM312.28,23v-1.35h-8.08v1.35h8.08ZM310.89,34.46v-1.32h-5.41v1.32h5.41Z"/>
        <path class="cls-3" d="M327.83,25.61l-.35.09c-1.38-1.12-2.94-2.12-4.11-2.73l-.09-.24,2.29-2.79.35-.09c1.12.47,2.79,1.47,4.14,2.41l.09.29-2.32,3.06ZM323.68,37.57c1.38-2.82,2.32-5.5,3.53-9.93l3.12,1.85c.29.21.32.41.26.71-.82,3.23-1.56,5.47-3.06,9.17l-.29.18-3.44-1.68-.12-.29ZM329.03,18.41l-.35.06c-1.35-1.2-2.82-2.2-4.2-2.91l-.06-.24,2.5-2.67.35-.06c1.41.68,2.85,1.56,4.23,2.59l.06.29-2.53,2.94ZM336.82,28.2v6.29c1.44-.32,2.82-.68,4.2-1.06v3c0,.53-.18.71-.68.85-2.53.79-5.64,1.62-9.61,2.47l-.29-.18-1-3.5.18-.26c1.03-.15,2.06-.32,3.09-.5v-15.84l-.09-3.79.21-.18,3.97.09h1.94v-3.09l.21-.24h3.76l.23.21v3.12h2.03l3.91-.09.24.24-.09,3.59v4.85l.09,3.91-.18.12,2.06,1.73-.03.29c-1.5,1.15-3,2.26-4.41,3.14,1.44,1.2,3.23,2.2,5.53,3.12l-2.5,2.91c-.24.29-.44.41-.65.41-.15,0-.29-.06-.5-.18-4.85-2.62-7.61-5.7-9.4-11.43h-2.2ZM344.81,20.35v-1.53h-7.99v1.53h7.99ZM336.82,24.97h7.99v-1.62h-7.99v1.62ZM342.96,28.2c.35.88.76,1.73,1.29,2.56,1.03-.79,2-1.62,2.94-2.5l-1.91-.06h-2.32Z"/>
        <path class="cls-3" d="M369.24,13.36c-.03,3.17-.12,5.73-.38,8.11,2.29,7.26,6.41,11.05,12.61,14.28l-2.79,3.64c-.09.12-.21.18-.32.18s-.26-.06-.44-.15c-4.88-2.56-8.61-6.61-10.64-11.31-1.79,4.97-5.7,9.02-10.81,11.52-.15.06-.26.12-.38.12-.09,0-.18-.06-.29-.15l-2.94-3.29c5.55-2.59,9.32-6.17,10.67-11.4.68-2.62,1.09-6.23.97-11.7l.21-.21,4.35.15.21.21Z"/>
        <path class="cls-3" d="M394.72,12.39l.21-.24h4l.21.21v5.47h4.44l4.85-.09.21.21v3.44l-.21.21-4.85-.09h-4.44v4.41h2.59l4.85-.09.21.21v3.38l-.21.21-4.85-.09h-2.59v5.26h6l4.85-.09.21.21v3.47l-.21.21-4.85-.09h-16.72l-4.88.09-.21-.21v-3.47l.21-.21,4.88.09h6.32v-5.26h-1.62l-4.88.09-.21-.21v-3.38l.21-.21,4.88.09h1.62v-4.41h-5.2c-.79,2.44-1.76,4.7-2.94,6.82-.15.24-.29.35-.53.35-.15,0-.32-.06-.56-.15l-3.17-1.41c2.47-4.2,4.06-8.93,4.79-13.64l.26-.12,3.79.79.15.26c-.24,1.18-.47,2.29-.73,3.41h4.14v-5.44Z"/>
        <path class="cls-3" d="M424.94,34.99c6.32-1.06,9.17-4.08,9.17-7.61,0-4.47-2.47-7.29-5.47-7.91-.59,5.55-2.5,10.73-4.53,13.69-1.59,2.32-3.23,3.17-5.53,3.17-1.76,0-3.03-.85-4.14-2.62-.85-1.32-1.44-2.94-1.44-5.32,0-7.11,5.32-12.87,13.4-12.87s12.31,5.38,12.31,11.9c0,5.35-3.76,9.4-9.99,10.87-.41.03-.62.03-.94-.29l-2.85-3.03ZM417.06,28.4c0,.97.18,1.68.5,2.23.32.59.73.97,1.21.97.68,0,1.53-.68,2.32-2.26,1.65-3.29,2.47-6.41,2.91-9.99-4.29.73-6.94,4.53-6.94,9.05Z"/>
        <path class="cls-3" d="M443.67,37.72c1.5-5.58,2.82-10.34,4.14-15.16-1.5.18-2.97.32-4.44.41l-.23-.21-.29-3.56.21-.24c2.17-.18,4.08-.38,5.88-.62.44-1.65.91-3.38,1.38-5.11l.26-.15,4.03.62.21.26c-.38,1.2-.76,2.53-1.09,3.7,1.18-.21,2.35-.44,3.44-.68l.23.12.26,3.67-.21.24c-1.59.29-3.26.59-4.91.85-1.56,5.44-3,10.81-4.5,16.84l-.26.12-4-.88-.12-.24ZM453.48,35.05l2.15-2.7.29-.03c1.47,1.59,2.85,2,6.2,2,1.79,0,3.73-.15,5.35-.47l.23.12v4.11l-.18.24c-1.82.24-3.14.32-5.55.32-5.14,0-6.79-1.2-8.49-3.26v-.32ZM456.24,26.14l.26-3.61.21-.26c1.47-.12,2.91-.18,4.29-.18,2,0,3.91.12,5.58.35l.21.24-.29,3.64-.26.18c-2-.18-3.94-.29-6.02-.29-1.2,0-2.44.06-3.76.15l-.21-.21Z"/>
        <path class="cls-3" d="M483.81,34.02c-.29-.26-.56-.59-.82-.85-2.12,2.2-3.94,2.97-6.02,2.97-2.2,0-4.53-1.7-4.53-5.26,0-3.2,1.09-5.7,3.56-8.11-.68-1.5-1.32-3.09-2.03-4.79l.09-.26,3.26-1.47.26.09c.62,1.47,1.15,2.85,1.7,4.06,2-1.12,4.64-1.7,6.44-1.79.32-1.18.68-2.64.91-4.26l.26-.21,3.91.76.18.26c-.21,1.23-.59,2.91-.85,3.91,3.67.94,6.94,4.26,6.94,9.11,0,5.23-3.14,8.2-8.52,9.84-.41.06-.56,0-.79-.21l-3.23-2.94c5.47-1.06,8.17-3.32,8.17-6.61,0-2.88-1.44-5.05-3.67-5.73-.94,2.7-2,4.88-3.41,7.23.35.35.73.76,1.15,1.18v.29l-2.65,2.76-.29.03ZM476.35,30.29c0,1.23.47,1.65,1.03,1.65.82,0,1.68-.41,2.94-1.91-.94-1.2-1.76-2.5-2.53-3.82-1.12,1.59-1.44,3.29-1.44,4.08ZM484.67,22.29c-1.21.15-2.62.62-3.76,1.23.53.97,1.29,2.12,1.94,3.03.68-1.18,1.41-2.97,1.82-4.26Z"/>
        <path class="cls-3" d="M513.12,34.99c6.32-1.06,9.17-4.08,9.17-7.61,0-4.47-2.47-7.29-5.47-7.91-.59,5.55-2.5,10.73-4.53,13.69-1.59,2.32-3.23,3.17-5.53,3.17-1.76,0-3.03-.85-4.14-2.62-.85-1.32-1.44-2.94-1.44-5.32,0-7.11,5.32-12.87,13.4-12.87s12.31,5.38,12.31,11.9c0,5.35-3.76,9.4-9.99,10.87-.41.03-.62.03-.94-.29l-2.85-3.03ZM505.24,28.4c0,.97.18,1.68.5,2.23.32.59.73.97,1.21.97.68,0,1.53-.68,2.32-2.26,1.65-3.29,2.47-6.41,2.91-9.99-4.29.73-6.94,4.53-6.94,9.05Z"/>
        <path class="cls-3" d="M548.15,21.44l5.17-.09.21.21-.09,3.29v3.14l3.67-.06.21.21v3.09l-.21.21-5.23-.09h-4.23c2.44,2.41,5.67,3.94,10.11,4.76l-2.53,3.53c-.09.15-.21.21-.32.21s-.23-.03-.41-.09c-4.26-1.2-7.88-3.29-10.58-6.85-2.2,4.03-6.44,6.29-11.58,7.05-.29.03-.62,0-.73-.18l-2.2-3.26c4.97-.68,8.61-2.09,10.49-5.17h-5.32l-4.88.09-.21-.21v-3.09l.21-.21,3.73.06v-3.14l-.09-3.29.21-.21,4.88.09h2.82v-2.65l.15-.18h3.97l.18.18v2.65h2.62ZM536.81,11.98l.21-.21h3.44l.18.21v2.59h5.67v-2.59l.21-.21h3.56l.18.21v2.59h2.62l4.38-.09.18.15v3.12l-.18.15-4.38-.09h-2.56l.09,1.97h-4.23l.09-1.97h-5.55l.09,1.97h-4.11l.09-1.97h-2.67l-4.35.09-.21-.18v-3.06l.18-.18,4.38.09h2.73v-2.59ZM537.4,24.67v3.35h3.64c.15-.73.21-1.56.21-2.41v-.94h-3.85ZM545.54,25.58c0,.88-.06,1.68-.15,2.44h3.94v-3.35h-3.79v.91Z"/>
        <path class="cls-3" d="M558.94,20.38l-.21-.18v-3.09l.18-.18,3.32.09h3.85l3.41-.09.18.15v3.14l-.18.15-3.41-.09h-3.85l-3.29.09ZM563.29,37.87v1.76h-3.56l.15-5.29v-1.56l-.09-2.94.18-.21,3.29.09h2.03l3.53-.09.21.21-.09,2.94v1.65l.15,4.85h-3.67v-1.41h-2.12ZM560.38,16.03l-.18-.18v-2.88l.15-.18,3,.09h2.06l3-.09.18.15v2.94l-.18.15-3-.09h-2.06l-2.97.09ZM560.38,24.53l-.18-.18v-2.88l.15-.18,3,.09h2.06l3-.09.18.15v2.94l-.18.15-3-.09h-2.06l-2.97.09ZM560.38,28.67l-.18-.18v-2.88l.15-.18,3,.09h2.06l3-.09.18.15v2.94l-.18.15-3-.09h-2.06l-2.97.09ZM565.41,32.72h-2.12v2.15h2.12v-2.15ZM580.02,18.18l4.11-.09.18.18-.06,3.64v2.26l2.7-.06.18.15v3.09l-.18.15-3.64-.09h-10.17l-3.64.09-.18-.18v-3.03l.15-.18,3.67.09h.44l.5-2.88-2.97.09-.18-.18v-2.97l.18-.18,3.5.09.35-1.91h-1.06l-3.61.09-.18-.18v-2.97l.15-.18,3.64.09h8.82l3.67-.09.15.15v3.03l-.15.15-3.67-.09h-3.79l-.35,1.91h1.44ZM575.43,38.43v1.35h-3.97l.15-5v-2.35l-.09-3.17.18-.21,3.82.09h5.58l3.85-.09.18.21-.09,3.17v2.47l.15,4.7h-4.11v-1.18h-5.64ZM581.07,32.31h-5.64v2.94h5.64v-2.94ZM577.49,24.2h2.85v-2.88h-2.32l-.53,2.88Z"/>
        <path class="cls-3" d="M600.01,17.12h-6.91l-4.11.09-.21-.24v-2.97l.24-.18,4.08.09h6.91v-1.91l.15-.18h3.79l.18.18v1.91h7.14l4.14-.09.21.21v2.97l-.21.21-4.14-.09h-7.14v1.2h4.11l4.06-.06.24.21-.09,3.09v3.53l.09,4.14-.26.18-2.82-.06v1.18h2.35l4.14-.09.21.21v3.12l-.21.21-4.14-.09h-2.32l.12,3.17c0,2.29-1.32,2.88-5.5,2.88-.44,0-.62-.06-.76-.35l-1.53-3.14c1.23.03,2.32,0,2.91-.03.53-.03.71-.24.71-.94v-1.59h-7.23c1.03.82,2.09,1.73,2.7,2.38l-.03.29-2.94,2.35h-.29c-.79-1.03-2.2-2.44-3.26-3.26l.03-.29,2.09-1.47h-3.73l-4.11.09-.21-.24v-3.12l.23-.18,4.08.09h12.67v-1.21h-9.11l-4.11.09-.21-.18.09-4v-3.82l-.09-3,.21-.15,4.26.06h3.56v-1.2ZM600.01,21.12h-4.08v1.26h4.08v-1.26ZM595.92,25.14v1.29h4.08v-1.29h-4.08ZM608.41,22.38v-1.26h-4.29v1.26h4.29ZM604.12,26.44h4.29v-1.29h-4.29v1.29Z"/>
        <path class="cls-3" d="M627.11,12.8l3.12-.09.21.21-.09,3.41v4.91l.09,3.29-.23.26-3.12-.09h-4.41v15.25h-3.91l.15-9.99v-13.14l-.09-3.91.18-.21,3.14.09h4.97ZM626.67,17.35v-1.5h-4v1.5h4ZM622.67,21.59h4v-1.59h-4v1.59ZM635.72,24.7l-3.12.09-.23-.26.09-3.29v-4.91l-.09-3.41.21-.21,3.12.09h5.38l3.14-.09.18.21-.09,3.91v11.11l.15,8.41c0,2.53-1.62,3.41-4.97,3.41h-.88c-.59,0-.71-.15-.82-.44l-1.26-3.5c1.09,0,2.59-.03,3.44-.12.35-.06.41-.18.41-.88v-10.11h-4.64ZM640.36,17.35v-1.5h-4.17v1.5h4.17ZM636.19,21.59h4.17v-1.59h-4.17v1.59Z"/>
        <path class="cls-3" d="M656.62,29.17c0,1.91-.79,2.56-4,2.56-.53,0-.62-.06-.76-.32l-1.09-2.12c.73,0,1.29-.03,1.79-.09.44-.06.56-.12.56-.65v-.21c-1.7.18-3.44.32-5.2.47l-.23-.12-.73-2.56.18-.21c2.03-.09,4.03-.15,6-.26v-.53l.23-.21h1.18c.41-.21.68-.35,1.12-.62h-4.11l-3.14.09-.21-.15v-2.32l.24-.18,3.11.09h5.79l2.06-.09,1.09.85c.18.15.26.26.26.41s-.12.32-.35.53c-.85.68-1.73,1.23-2.7,1.79,1.18-.09,2.32-.21,3.5-.32v1.88c0,.35-.21.5-.53.56-1.32.18-2.67.35-4.09.53l.06,1.18ZM663.99,12.06l.21-.21h3.2l.21.21v3.41h1.38l3.2-.09.21.21-.09,2.62c-.03,1.09-.03,5.03.12,7.05.12,1.47.23,1.88.5,1.88.29,0,.38-.35.44-2.85l1.7,1.26c.35.26.41.41.38.94-.15,3.59-1.35,4.67-3.09,4.67-1.41,0-2.82-1.35-3.26-4.14-.06-.35-.09-.71-.15-1.06l-1.38,1.79-.29.06c-.35-.41-.73-.82-1.12-1.2-.71,1.53-1.73,2.85-3.09,4.11l.06.06v1.29h3.56l4.5-.09.21.21v2.76l-.21.21-4.5-.09h-3.56v1.2h6.91l4.5-.09.21.21v2.82l-.21.21-4.5-.09h-18.02l-4.47.09-.23-.21v-2.82l.29-.21,4.41.09h7.02v-1.2h-3.64l-4.17.09-.24-.21v-2.82l.29-.15,4.11.09h3.64v-1.26l.21-.26h2.88l-2.62-1.65c1.91-1.47,3.14-2.88,3.79-4.91-.79-.65-1.56-1.21-2.29-1.7l-.03-.29,1.67-1.94.29-.06c.32.21.62.41.94.62.06-.65.06-1.32.09-1.97l-2.17.06-.21-.21v-2.5l-.12.12-3.03-.06h-7.73l-3.03.09-.21-.21v-2.23l.21-.21,3.03.09h2.09v-1.62l.21-.21h3.23l.21.21v1.62h2l3.03-.09.21.21v1.79l.12-.12,2.17.06v-3.38ZM649.56,21.26l-.21-.21.09-1.88v-.62l-.09-1.62.21-.21,2.79.09h4.73l2.82-.09.23.24-.09,1.59v.62l.09,1.88-.21.21-2.56-.09h-5.17l-2.65.09ZM656.62,19.47v-.94h-3.85v.94h3.85ZM667.61,18.62c-.03,1.47-.15,2.94-.38,4.41.56.47,1.09.91,1.62,1.41-.09-1.53-.09-3.29-.09-5.82h-1.15Z"/>
      </g>
      <g>
        <g>
          <path class="cls-1" d="M31.36,118.79h-3.88c-.9,0-1.64-.73-1.64-1.63v-40.79c0-.9.73-1.63,1.64-1.63h3.88c.9,0,1.64.73,1.64,1.63v40.79c0,.9-.73,1.63-1.64,1.63Z"/>
          <path class="cls-1" d="M106.3,118.79h-3.88c-.9,0-1.64-.73-1.64-1.63v-40.79c0-.9.73-1.63,1.64-1.63h3.88c.9,0,1.64.73,1.64,1.63v40.79c0,.9-.73,1.63-1.64,1.63Z"/>
        </g>
        <path class="cls-1" d="M91.56,97.58h-49.34c-.94,0-1.7-.76-1.7-1.69v-2.78c0-.93.76-1.69,1.7-1.69h49.34c.94,0,1.7.76,1.7,1.69v2.78c0,.93-.76,1.69-1.7,1.69Z"/>
        <path class="cls-1" d="M132.51,63.1h-5.08c-.66,0-1.21-.5-1.26-1.16-2.54-30.49-28.58-54.37-59.28-54.37S10.14,31.46,7.61,61.95c-.05.65-.6,1.16-1.26,1.16H1.27c-.35,0-.69-.15-.93-.4-.24-.26-.36-.6-.33-.95C2.66,27.12,32.04,0,66.89,0s64.23,27.12,66.89,61.74c.03.35-.09.7-.33.95-.24.26-.58.4-.93.4Z"/>
        <path class="cls-4" d="M66.89,133.78C32.04,133.78,2.66,106.66,0,72.03c-.03-.35.09-.7.33-.95.24-.26.58-.4.93-.4h5.08c.66,0,1.21.5,1.26,1.16,2.54,30.49,28.58,54.37,59.28,54.37s56.75-23.88,59.28-54.37c.05-.65.6-1.16,1.26-1.16h5.08c.35,0,.69.15.93.4.24.26.36.6.33.95-2.66,34.62-32.04,61.74-66.89,61.74Z"/>
        <path class="cls-4" d="M88.16,34.19c-2.65-9.23-11.18-16-21.27-16s-18.63,6.78-21.27,16c-12.72.28-22.98,10.68-22.98,23.42v4.14c0,.76.62,1.38,1.38,1.38h85.75c.76,0,1.38-.62,1.38-1.38v-4.14c0-12.75-10.26-23.14-22.98-23.42ZM49.26,56.08c-.31.53-.87.83-1.44.83-.28,0-.57-.07-.83-.22l-4.87-2.8c-.79-.46-1.07-1.47-.61-2.26.46-.79,1.47-1.06,2.27-.61l4.87,2.8c.79.46,1.07,1.47.61,2.26ZM56.71,48.66c-.26.15-.55.22-.83.22-.57,0-1.13-.3-1.44-.83l-2.81-4.86c-.46-.79-.19-1.8.61-2.26.79-.46,1.81-.18,2.27.61l2.81,4.86c.46.79.19,1.8-.61,2.26ZM68.55,44.29c0,.91-.74,1.65-1.66,1.65s-1.66-.74-1.66-1.65v-5.61c0-.91.74-1.65,1.66-1.65s1.66.74,1.66,1.65v5.61ZM82.14,43.2l-2.81,4.86c-.31.53-.87.83-1.44.83-.28,0-.57-.07-.83-.22-.79-.46-1.07-1.47-.61-2.26l2.81-4.86c.46-.79,1.47-1.06,2.27-.61.79.46,1.07,1.47.61,2.26ZM91.65,53.89l-4.87,2.8c-.26.15-.55.22-.83.22-.57,0-1.13-.3-1.44-.83-.46-.79-.19-1.8.61-2.26l4.87-2.8c.79-.46,1.81-.18,2.27.61.46.79.19,1.8-.61,2.26Z"/>
        <rect class="cls-2" x="57.39" y="82.29" width="18.99" height="4.54" rx="2.2" ry="2.2"/>
        <path class="cls-1" d="M112.43,77.96H21.35c-.94,0-1.7-.76-1.7-1.69v-3.87c0-.93.76-1.69,1.7-1.69h91.07c.94,0,1.7.76,1.7,1.69v3.87c0,.93-.76,1.69-1.7,1.69Z"/>
      </g>
    </g>
  </g>
</svg>