<?xml version="1.0" encoding="UTF-8"?>
<svg id="_レイヤー_2" data-name="レイヤー 2" xmlns="http://www.w3.org/2000/svg" width="232.44" height="31.66" viewBox="0 0 232.44 31.66">
  <defs>
    <style>
      .cls-1 {
        fill: #5c3d39;
      }

      .cls-2 {
        fill: #64bbba;
      }
    </style>
  </defs>
  <g id="_レイヤー_1-2" data-name="レイヤー 1">
    <g>
      <g>
        <path class="cls-1" d="M35.65,22.93h-3.78c-.3,0-.54.24-.54.54v4.59h-5.18l5.22-10.86c.13-.27,0-.49-.31-.49h-3.78c-.3,0-.65.22-.77.49l-6.28,13.07c-.13.27,0,.49.31.49h15.13c.3,0,.54-.24.54-.54v-6.75c0-.3-.24-.54-.54-.54ZM17.02,6.46h-2.16V1.6c0-.3-.24-.54-.54-.54h-3.78c-.3,0-.54.24-.54.54v4.86H1.89c-.75,0-1.35.6-1.35,1.35s.6,1.35,1.35,1.35h8.1v21.07c0,.3.24.54.54.54h3.78c.3,0,.54-.24.54-.54V9.16h2.16c.75,0,1.35-.6,1.35-1.35s-.6-1.35-1.35-1.35ZM25.26,12.55s.02-.04.04-.06l.25-.25c.21-.21.38-.63.38-.92v-4.32c0-.3-.24-.54-.54-.54h-3.78c-.3,0-.54.24-.54.54v5.92l-2.04,2.04c-.53.53-.53,1.38,0,1.91.26.26.61.4.95.4s.69-.13.95-.4l4.32-4.32ZM7.02,13.21h-3.78c-.3,0-.54.24-.54.54v12.68l-2.3,2.31c-.53.53-.53,1.38,0,1.91.26.26.61.4.95.4s.69-.13.95-.4l4.59-4.59s.02-.04.04-.06l.25-.25c.21-.21.38-.63.38-.92v-11.07c0-.3-.24-.54-.54-.54ZM36.88,14.96l-2.04-2.04V1.6c0-.3-.24-.54-.54-.54h-11.88c-.75,0-1.35.6-1.35,1.35s.6,1.35,1.35,1.35h7.56v7.56c0,.3.17.71.38.92l.25.25s.02.04.04.06l4.32,4.32c.26.26.61.4.95.4s.69-.13.95-.4c.53-.53.53-1.38,0-1.91Z"/>
        <circle class="cls-2" cx="18.91" cy="22.39" r="2.7"/>
      </g>
      <g>
        <path class="cls-1" d="M72.46,7.27h-2.97s0,0,0,0h-15.4V1.6c0-.3-.24-.54-.54-.54h-4.86c-.3,0-.54.24-.54.54v5.67h-5.13c-.75,0-1.35.6-1.35,1.35s.6,1.35,1.35,1.35h5.13v20.26c0,.3.24.54.54.54h19.45c.75,0,1.35-.6,1.35-1.35s-.6-1.35-1.35-1.35h-14.05V9.97h12.96v6.46l-3.12,3.12c-.53.53-.53,1.38,0,1.91.26.26.61.4.95.4s.69-.13.95-.4l6.21-6.21s.02-.04.04-.06l.52-.52c.21-.21.38-.63.38-.92v-5.94c0-.3-.24-.54-.54-.54Z"/>
        <circle class="cls-2" cx="79.21" cy="3.49" r="2.7"/>
        <circle class="cls-2" cx="79.21" cy="10.78" r="2.7"/>
      </g>
      <g>
        <path class="cls-1" d="M86.7,5.65h21.34c.75,0,1.35-.6,1.35-1.35s-.6-1.35-1.35-1.35h-21.34c-.75,0-1.35.6-1.35,1.35s.6,1.35,1.35,1.35Z"/>
        <path class="cls-1" d="M108.04,11.05h-21.34c-.75,0-1.35.6-1.35,1.35s.6,1.35,1.35,1.35h21.34c.75,0,1.35-.6,1.35-1.35s-.6-1.35-1.35-1.35Z"/>
        <path class="cls-1" d="M108.29,28.36l-17-3.23v-5.98c0-.3-.24-.54-.54-.54h-4.86c-.3,0-.54.24-.54.54v6.48s.02.1.03.15c.06.57.47,1.07,1.07,1.18l21.34,4.05c.09.02.17.02.25.02.64,0,1.2-.45,1.32-1.1.14-.73-.34-1.44-1.07-1.58Z"/>
      </g>
      <g>
        <path class="cls-2" d="M143.07,6.41c0,1.16-.33,2.41-.33,3.99,0,.88.09,1.72.09,2.74,0,1.21-.09,2.18-.09,3.16,0,1.49-.14,2.92-.14,4.41,0,.37.05.74.05,1.11,0,.84.23,2.6.42,3.48,0,.79,0,1.62-.05,2.6.05.28.09.84.09,1.44,0,.7-.05,1.44-.23,1.67-.23.37-.93.65-1.58.65-.19,0-.33-.05-.46-.09-.74-.32-1.76-2.65-2.65-3.11-.79-.46-1.58-1.58-2.41-2.46-.93-.84-2.09-2.51-3.57-3.95-.79-.84-1.76-1.35-2.55-2.41-.97-1.16-1.21-1.95-2.09-2.92-.88-.93-2.32-2.37-2.79-3.02-.46-.6-.97-1.67-1.76-2.6-.42-.51-1.11-1.44-1.49-1.44-.19,0-.19.33-.19.6v.56c-.05.32-.09.6-.09.88,0,.84.14,1.67.19,2.46.05,1.35.14,2.04.14,2.88,0,.23-.05.51-.05,1.49s.19,1.86.19,3.2c0,1.25.19,2.37.19,3.34,0,.23-.05,1.35-.05,1.9.23,1.53.56,2.18.56,3.11,0,1.07-.51,1.16-1.25,1.16h-1.44c-.46,0-.97-.05-.97-.46v-.65c0-.09.05-.28.05-.56,0-.09.05-.19.05-.42.09-.23.28-2.18.28-2.41v-3.71c0-.93.05-1.3.05-1.62,0-1.39-.09-2.83-.09-3.85,0-1.11,0-1.81-.09-3.11,0-.19-.05-.42-.05-.74,0-1.07.14-2.6.14-3.71,0-2.09-.42-4.27-.56-5.06-.05-.56-.19-2.23-.19-3.25,0-.79.09-1.07.46-1.11h.56c.23,0,.51,0,.84-.05.74,0,1.44.14,2.09.28.05,0,.09.09.14.09.88.19,1.02.97,1.81,2,.74,1.07,1.81,2.14,2.79,3.44.97,1.35,2.32,2.65,3.11,3.44.79.84,1.81,2.14,2.51,2.97.7.88,2.46,2.92,3.53,3.9,1.11,1.07,1.62,1.9,2.55,2.74.84.88,2.09,2.69,2.09,2.69,0,0,0-1.02.14-2.09.05-.37.05-.7.05-1.02,0-.7,0-1.39-.05-2.41-.09-1.53-.23-2.04-.23-3.44,0-1.16-.14-2.37-.14-3.57,0-2.55-.23-4.27-.23-5.15,0-1.02-.7-2.23-.7-3.11,0-.65.23-.74.93-.74.42,0,1.3-.05,1.86-.05,1.02,0,.88.51.93.88,0,.74-.28,2.88-.28,5.06Z"/>
        <path class="cls-2" d="M157.09,15.46c-.56,0-1.02-.14-1.49-.14-.23,0-.46.05-.56.19-.14.14-.14.32-.14.56,0,.51.19,1.21.19,1.76.14.84.14,1.35.14,2.27-.09.7-.23,1.44-.23,2.23v5.66c0,.28.09,1.02.51,1.11.19.05.46.05.74.05h2.18c.46,0,1.16-.05,1.49-.05,2.04-.32,3.39-.42,3.81-.42.79,0,1.76-.51,2.46-.7.23-.05.46-.14.6-.14.28,0,.37.09.37.51,0,.74-.88,2.74-1.62,2.88-.23.05-.51.05-.74.05-.6,0-1.25-.09-1.39-.14-.33-.09-1.49-.19-1.95-.19h-2.27c-.28-.05-1.02-.14-1.44-.14-1.39,0-3.39.14-4.46.19-1.11.05-2.6.32-3.81.32-.97,0-2.14-.19-2.14-1.44,0-.14,0-.28.05-.42.09-.84.28-1.3.46-2,.14-.28.19-.65.19-.97v-1.58c0-.88.09-1.86.23-2.51.05-.32.09-.7.09-.97,0-.6-.28-1.02-.28-1.53,0-.74.09-1.81.09-2.37-.14-.88-.19-1.72-.19-1.72,0,0-.51.05-.51-1.02,0-.88.74-1.35.7-1.62-.05-.19-.05-.51-.05-.93,0-.7,0-.93.05-1.16.14-.97.23-2.51.23-3.71s-.46-4.78-.46-6.04c0-.23,0-.37.05-.42.33-.23.51-.28.97-.28.74,0,1.16,0,1.53-.05,1.02-.05,1.49-.14,2.09-.14.32,0,.79.05,1.39.09.84.05,1.72.05,4.69.05,1.16,0,2.14.09,3.02.09,1.07,0,3.11-.19,3.62-.19.6,0,1.62,0,1.76.65-.05.65-.79,2.27-1.58,2.27-.14,0-.28-.05-.42-.05-.88-.09-1.44-.46-2-.46-.7,0-1.07-.28-1.62-.28-2.69,0-4.5-.09-5.9-.19-.6,0-.6.19-.6.51,0,.65-.14,1.11-.14,1.58,0,.74.05,1.72.14,2.69.05.7.09,1.25.09,1.72l-.14,1.62c-.09.32-.09.7-.09,1.02,0,1.07.09,1.67.14,1.95.05.28.33.32.65.32.28,0,.65-.05.97-.09.84-.14,1.58-.14,2.04-.23.28-.05.56-.05.84-.05.97,0,1.62-.14,2.23-.14.42.05.51.23.51.51s-.09.6-.28.93c-.28.51-.7,1.02-1.39,1.02-.09,0-.19,0-.37-.05-.74-.14-1.49-.51-1.86-.51-.14,0-.28.09-.42.09-.37.09-.6.09-.79.09Z"/>
        <path class="cls-2" d="M211.31.65c0,.65-.79,2.46-1.02,3.06-.33.74-.79,2.18-1.49,3.85-.65,1.58-1.07,2.27-1.72,4.5l-1.62,5.8c-.37,1.39-1.53,3.2-1.72,4.41-.19,1.49-.79,2.65-1.25,3.76-.32,1.11-.84,2.41-1.25,3.39-.32.84-.6,1.95-1.25,1.95-.97,0-2.65-.79-2.92-1.76-.37-1.21-.88-1.25-1.16-2.46-.28-1.21-.84-2.04-1.39-3.53-.56-1.44-1.3-2.6-1.76-3.3-.56-.74-.88-2.46-1.67-3.76-.84-1.3-1.58-3.53-2-5.01-.19-.6-.37-.84-.56-.84-.23,0-.56.42-.7.93-.28,1.02-.46.88-1.25,2.74-.79,1.9-.74,1.25-1.16,2.65-.42,1.35-1.07,2.74-1.53,4.18-.46,1.44-1.11,2.6-1.3,3.48-.14.88-.88,2.27-1.16,3.44-.28,1.11-.37,2-.6,2.27-.05.19-.46.88-.97.88-.28,0-.6-.05-.93-.09-.79-.19-1.25-1.25-1.39-2.04-.19-.7-.46-2.18-.6-3.02-.19-.88-.88-1.81-.88-2.79-.28-.84-.56-1.67-.56-2.41,0-.79-.46-1.81-.93-3.11-.37-.84-.51-1.25-.65-2.09-.09-.97-.51-1.9-.74-3.11-.23-1.21-.84-2.18-1.39-3.3-.37-.56-1.02-3.2-1.76-5.15-.6-1.44-1.35-2.55-1.35-3.57,0-.23.42-.32,1.07-.32,1.16,0,2.97.23,4.6.23.7,0,2.04-.28,2.97-.28.51,0,.93.09.93.46,0,1.81.14,4.92.28,5.76.19,1.02.51,1.39.7,2.74.14,1.3.84,2.14,1.35,3.48.46,1.25.84,2.65,1.07,3.9.28.88,1.02,3.06,1.02,2.88.23-.32.56-.93.84-2.04.42-1.16,1.02-1.95,1.49-3.11.56-1.21.97-2.65,1.25-3.57.14-.97.79-2.69,1.3-3.62.42-.97,1.58-4.18,2-5.39.28-.7,1.16-1.16,1.9-1.16.51,0,.88.19,1.07.6.37.93.7,2.32,1.21,3.76.51,1.39,1.02,2.14,1.49,3.02.56,1.02.56,1.72.88,3.48.37,1.72.6,1.72,1.02,3.16.46,1.44,1.44,2.51,1.72,3.25.19.79,1.72,3.9,2.18,5.48.09.46.19.65.28.65.23,0,.37-1.07.7-1.72.51-1.07.65-1.44,1.16-3.11.51-1.67.37-1.72.84-3.2.37-1.44.56-2.79,1.16-4.04.46-1.3.74-2.41,1.16-3.67.42-1.3.79-3.39.93-4.13.19-1.35.37-2,.37-3.11,0-.37.28-.42.65-.42.23,0,.56.05.88.05.42,0,1.21-.14,2.14-.14.09,0,.09.05.09.19Z"/>
        <path class="cls-2" d="M231.65,3.34c0,.09,0,.19-.05.33-.09.7-1.39,1.44-2,1.44s-.93-.19-.97-.56c-.09-.46-1.49-2.14-2.41-2.51-.05,0-.09-.05-.14-.05-.7-.23-1.35-.46-1.9-.46-.19,0-1.81.46-1.95.6-.74.6-1.67.74-1.81,2.32,0,1.72.14,3.11.97,4.09.7.7,2.27,2.18,3.25,2.65.97.46,2.55,2.27,3.34,2.6.7.37,1.21,1.21,2.09,2,1.3,1.07,2.37,2.88,2.37,4.41s-.19,1.58-.19,3.02c0,.84-1.44,3.85-2.23,4.46-.98.7-1.58,1.39-2.32,2-.7.6-3.2,1.16-4.22,1.35-.46.09-1.16.14-1.86.14-.88,0-1.72-.05-2.04-.05-1.44,0-3.71-.97-4.74-2-.74-.51-2.27-1.72-2.27-2.79,0-.79,1.44-2.18,2.14-2.18.88,0,.79.42,1.16,1.62.09.33.65,1.44,1.02,1.81.93,1.11,2,1.86,4.32,1.86.37,0,.79,0,1.16-.09,1.3-.23,2.46-1.02,3.11-2.51.37-.7.6-1.11.6-1.72,0-.32-.09-.6-.19-1.02-.32-1.3-.65-2.23-1.58-3.48-.93-1.35-1.35-1.67-2.6-2.46-1.3-.74-1.9-1.53-2.69-2.32-.79-.84-1.86-1.25-2.74-1.81-.97-.6-2.32-2.6-2.46-3.39-.14-.65-.51-1.44-.51-2.41,0-.23,0-.42.05-.65.19-1.39.97-2.27,1.67-3.39.84-1.07,1.95-2.14,3.11-2.74,1.11-.56,2.46-1.44,4.55-1.44.88,0,4.69.05,5.29.46.65.51,2.51.88,2.97,1.72.42.65.7.7.7,1.16Z"/>
      </g>
    </g>
  </g>
</svg>