<?xml version="1.0" encoding="UTF-8"?>
<svg id="_レイヤー_2" data-name="レイヤー 2" xmlns="http://www.w3.org/2000/svg" width="192.15" height="49.7" viewBox="0 0 192.15 49.7">
  <defs>
    <style>
      .cls-1 {
        fill: #e3542b;
      }

      .cls-2 {
        fill: #5c3d39;
      }
    </style>
  </defs>
  <g id="_レイヤー_1-2" data-name="レイヤー 1">
    <g>
      <g>
        <path class="cls-2" d="M33.15,38.48h-2.49v-5.98h1.25c.69,0,1.25-.56,1.25-1.25s-.56-1.25-1.25-1.25h-15.2v-3.49h12.46s0,0,0,0h3.49c.27,0,.5-.22.5-.5v-3.99c0-.27-.22-.5-.5-.5h-3.49c-.27,0-.5.22-.5.5v1.99h-12.46s0,0,0,0h-3.49c-.27,0-.5.22-.5.5v13.96h-2.49c-.69,0-1.25.56-1.25,1.25s.56,1.25,1.25,1.25h23.43c.69,0,1.25-.56,1.25-1.25s-.56-1.25-1.25-1.25ZM16.7,32.5h9.47v5.98h-9.47v-5.98Z"/>
        <path class="cls-2" d="M6.48,36.24h-3.49c-.27,0-.5.22-.5.5v8.71l-2.13,2.13c-.49.49-.49,1.28,0,1.76.24.24.56.36.88.36s.64-.12.88-.36l4.24-4.24s.02-.03.03-.05l.23-.23c.19-.19.35-.58.35-.85v-7.23c0-.27-.22-.5-.5-.5Z"/>
        <path class="cls-2" d="M17.69,42.72h-3.49c-.27,0-.6.2-.73.44l-1.97,3.79h-1.79c-.69,0-1.25.56-1.25,1.25s.56,1.25,1.25,1.25h1s0,0,0,0h3.49c.27,0,.6-.2.73-.44l3.03-5.84c.13-.24,0-.44-.27-.44Z"/>
        <path class="cls-2" d="M29.39,43.16c-.13-.24-.45-.44-.73-.44h-3.49s0,0,0,0h-1c-.69,0-1.25.56-1.25,1.25s.56,1.25,1.25,1.25h1.79l1.97,3.79c.13.24.45.44.73.44h3.49c.27,0,.4-.2.27-.44l-3.03-5.84Z"/>
      </g>
      <path class="cls-2" d="M192.08,37.08c.04-.12.07-.24.07-.34v-12.96c0-.27-.22-.5-.5-.5h-4.49s0,0,0,0h-12.46s0,0,0,0h-4.49c-.27,0-.5.22-.5.5v10.2l-1.88,1.88c-.49.49-.49,1.27,0,1.76.24.24.56.36.88.36s.64-.12.88-.36l5.23-5.23s.04-.06.06-.09c.05-.06.09-.12.13-.2.04-.08.08-.16.11-.25.04-.12.07-.24.07-.34v-5.73h11.46v13.44l-8.36,8.36c-.49.49-.49,1.28,0,1.76.24.24.56.36.88.36s.64-.12.88-.36l11.71-11.71s.04-.06.06-.09c.05-.06.09-.13.14-.2.04-.08.08-.16.1-.24Z"/>
      <g>
        <path class="cls-2" d="M90.22,25.77h22.93c.69,0,1.25-.56,1.25-1.25s-.56-1.25-1.25-1.25h-22.93c-.69,0-1.25.56-1.25,1.25s.56,1.25,1.25,1.25Z"/>
        <path class="cls-2" d="M114.64,31.01h-25.92c-.69,0-1.25.56-1.25,1.25s.56,1.25,1.25,1.25h11.46v7.71l-6.36,6.36c-.49.49-.49,1.28,0,1.76.24.24.56.36.88.36s.64-.12.88-.36l9.72-9.72s.04-.07.07-.1c.04-.05.08-.11.12-.18.05-.09.09-.17.11-.26.04-.11.06-.23.06-.33,0,0,0,0,0,0v-5.23h8.97c.69,0,1.25-.56,1.25-1.25s-.56-1.25-1.25-1.25Z"/>
      </g>
      <path class="cls-2" d="M156.64,47.57l-10.46-10.46,6.72-6.72s.04-.07.07-.1c.04-.06.09-.12.12-.19.05-.08.08-.17.11-.26.04-.12.06-.23.06-.33,0,0,0,0,0,0v-5.73c0-.27-.22-.5-.5-.5h-4.49s0,0,0,0h-15.2c-.69,0-1.25.56-1.25,1.25s.56,1.25,1.25,1.25h14.7v6.21l-15.58,15.58c-.49.49-.49,1.28,0,1.76.24.24.56.36.88.36s.64-.12.88-.36l10.46-10.46,10.46,10.46c.24.24.56.36.88.36s.64-.12.88-.36c.49-.49.49-1.27,0-1.76Z"/>
      <g>
        <path class="cls-2" d="M76.51,42.22h-3.49c-.27,0-.5.22-.5.5v4.24h-4.78l4.82-10.02c.12-.25,0-.45-.28-.45h-3.49c-.27,0-.6.2-.71.45l-5.8,12.06c-.12.25,0,.45.28.45h3.49s6.98,0,6.98,0c0,0,0,0,0,0h3.49c.27,0,.5-.22.5-.5v-6.23c0-.27-.22-.5-.5-.5Z"/>
        <path class="cls-2" d="M59.31,27.02h-1.99v-4.49c0-.27-.22-.5-.5-.5h-3.49c-.27,0-.5.22-.5.5v4.49h-7.48c-.69,0-1.25.56-1.25,1.25s.56,1.25,1.25,1.25h7.48v19.44c0,.27.22.5.5.5h3.49c.27,0,.5-.22.5-.5v-19.44h1.99c.69,0,1.25-.56,1.25-1.25s-.56-1.25-1.25-1.25Z"/>
        <path class="cls-2" d="M66.92,32.64s.02-.04.03-.05l.23-.23c.19-.19.35-.58.35-.85v-3.99c0-.27-.22-.5-.5-.5h-3.49c-.27,0-.5.22-.5.5v5.47l-1.88,1.88c-.49.49-.49,1.28,0,1.76.24.24.56.36.88.36s.64-.12.88-.36l3.99-3.99Z"/>
        <path class="cls-2" d="M50.09,33.25h-3.49c-.27,0-.5.22-.5.5v11.7l-2.13,2.13c-.49.49-.49,1.28,0,1.76.24.24.56.36.88.36s.64-.12.88-.36l4.24-4.24s.02-.03.03-.05l.23-.23c.19-.19.35-.58.35-.85v-10.22c0-.27-.22-.5-.5-.5Z"/>
        <path class="cls-2" d="M77.64,34.86l-1.88-1.88v-10.45c0-.27-.22-.5-.5-.5h-3.49s0,0,0,0h-7.48c-.69,0-1.25.56-1.25,1.25s.56,1.25,1.25,1.25h6.98v6.98c0,.27.16.66.35.85l.23.23s.02.04.03.05l3.99,3.99c.24.24.56.36.88.36s.64-.12.88-.36c.49-.49.49-1.27,0-1.76Z"/>
      </g>
      <circle class="cls-1" cx="61.06" cy="41.72" r="2.49"/>
      <circle class="cls-1" cx="120.12" cy="24.28" r="2.49"/>
      <circle class="cls-1" cx="120.12" cy="31.01" r="2.49"/>
      <circle class="cls-1" cx="4.73" cy="24.28" r="2.49"/>
      <circle class="cls-1" cx="4.73" cy="31.01" r="2.49"/>
      <g>
        <path class="cls-2" d="M27.21,5.08c0-.54-.01-.84-.08-1.15.46.01.97.05,1.28.1.12.01.19.06.19.13s-.02.13-.07.23c-.06.11-.08.25-.08.69h2.1c1.18,0,1.59-.02,1.66-.02.12,0,.13.01.13.13v.89c0,.12-.01.13-.13.13-.07,0-.48-.02-1.66-.02h-2.1v.99h1.12c1.13,0,1.52-.02,1.6-.02.12,0,.13.01.13.13,0,.07-.02.39-.02,1v.9c0,1.47.02,1.75.02,1.82,0,.13-.01.15-.13.15h-1c-.12,0-.13-.01-.13-.15v-.39h-4.19v.42c0,.12-.01.13-.13.13h-.98c-.12,0-.13-.01-.13-.13,0-.08.02-.36.02-1.83v-.78c0-.76-.02-1.06-.02-1.15,0-.12.01-.13.13-.13.08,0,.47.02,1.6.02h.87v-.99h-3.23c-.04.51-.11.99-.18,1.48-.19,1.1-.53,2.1-1.16,3.06-.11.16-.16.24-.22.24s-.12-.07-.24-.2c-.25-.3-.57-.59-.8-.72.65-.87,1-1.81,1.18-2.88.16-.98.27-2.14.27-3.87s-.02-2.48-.02-2.56c0-.12.01-.13.13-.13.07,0,.49.02,1.66.02h5.23c1.17,0,1.58-.02,1.65-.02.12,0,.13.01.13.13,0,.07-.02.31-.02.94v1c0,.61.02.86.02.93,0,.12-.01.13-.13.13-.07,0-.48-.02-1.65-.02h-5.76v.25c0,.39-.01.76-.02,1.11h3.16ZM30.36,1.71h-6.28v.95h6.28v-.95ZM25.85,9.59h4.19v-1.37h-4.19v1.37Z"/>
        <path class="cls-2" d="M37.68,4.78c.17.05.19.07.18.19-.21,1.54-.53,2.7-1.11,4.1-.05.11-.08.14-.25.07l-.88-.4c-.17-.08-.18-.13-.13-.23.59-1.24.92-2.41,1.12-3.87.02-.15.04-.15.22-.08l.86.22ZM39.99,8.95c0,.28.07.45.23.52.14.07.43.12,1.05.12s.95-.06,1.15-.25c.27-.23.35-.55.35-1.95.29.17.64.29,1,.39q.31.08.3.4c-.05,1.36-.23,1.87-.65,2.21-.46.37-1.09.51-2.24.51-1.22,0-1.71-.1-2-.29-.33-.2-.49-.49-.49-1.19v-4.63c0-.63-.01-.98-.07-1.37.43.01.88.06,1.28.12.19.02.27.1.27.18s-.02.13-.07.22c-.06.11-.08.27-.08.86v4.18ZM39.4.4c.1-.13.12-.15.24-.11,1.07.37,2.21.88,3.28,1.57.12.07.12.1.04.24l-.51.87c-.1.17-.12.18-.23.11-1.03-.71-2.23-1.34-3.29-1.71-.07-.02-.1-.04-.1-.07s.02-.07.06-.15l.51-.75ZM44.6,4.26c.16-.06.18-.07.24.05.71,1.18,1.28,2.52,1.63,3.69.04.13.02.16-.13.24l-.92.45c-.17.08-.21.08-.24-.05-.33-1.3-.86-2.62-1.56-3.8-.06-.11-.04-.16.12-.22l.86-.36Z"/>
        <path class="cls-2" d="M51.9,7.42c.39-.16.76-.34,1.17-.55-.02.22-.02.49-.01.75q.02.39-.31.55c-.75.37-1.6.72-2.4,1.03-.2.08-.35.14-.4.19s-.13.08-.21.08-.13-.04-.18-.14c-.12-.31-.22-.66-.33-1.07.39-.07.76-.16,1.19-.3l.28-.08v-3.43h-.1c-.78,0-1.03.02-1.1.02-.12,0-.12-.01-.12-.13v-.92c0-.12,0-.13.12-.13.07,0,.31.02,1.1.02h.1v-1.13c0-.8-.01-1.29-.1-1.77.47.01.84.04,1.24.08.12.01.19.07.19.14,0,.08-.04.14-.07.24-.06.14-.07.45-.07,1.15v1.29c.69,0,.92-.02.99-.02.11,0,.12.01.12.13v.92c0,.12-.01.13-.12.13-.07,0-.3-.02-.99-.02v2.98ZM54.94,9.09c0,.31.06.46.23.54.17.1.54.13,1.74.13,1.3,0,1.7-.06,1.94-.25.19-.17.25-.41.29-1.36.24.14.52.29.87.39q.3.08.27.4c-.11,1.05-.25,1.37-.65,1.63-.41.28-.99.4-2.86.4-1.64,0-2.24-.14-2.54-.34-.29-.18-.46-.54-.46-1.19v-3.76c-.61.22-.87.33-.97.35-.12.04-.13.02-.16-.1l-.16-.94c-.02-.12-.01-.12.1-.16.1-.02.41-.1,1.18-.35v-1.33c.01-.66-.01-1.23-.07-1.71.41.01.8.04,1.16.07.17.02.24.07.24.13,0,.1-.02.14-.07.25-.06.12-.07.39-.07,1.15v1.04l1.16-.39v-1.75c0-.72-.02-1.1-.1-1.71.46.01.83.04,1.23.1.12.01.19.06.19.13,0,.08-.04.15-.07.24-.06.14-.07.45-.07,1.09v1.52l.93-.31c1.13-.37,1.5-.53,1.58-.54.08-.01.13.02.13.12l-.04,1.54c-.02,1.22-.12,2.11-.29,2.73-.18.7-.52.92-1.04.92-.14,0-.29,0-.45-.02q-.27-.02-.33-.4c-.04-.28-.13-.63-.25-.87.25.06.47.08.64.08.21,0,.29-.06.36-.45.08-.46.13-.93.15-2.11l-1.4.48v2.1c0,1.21.02,1.8.02,1.87,0,.12-.01.13-.13.13h-.97c-.12,0-.13-.01-.13-.13,0-.08.02-.66.02-1.87v-1.7l-1.16.4v3.82Z"/>
        <path class="cls-2" d="M69.3,2.84c-.28,2.05-.78,3.93-1.51,5.2-.52.9-1.15,1.39-2.05,1.39-1.06,0-2.14-1.13-2.14-3.1,0-1.16.49-2.27,1.36-3.14,1.01-1.01,2.29-1.54,3.92-1.54,2.9,0,4.6,1.78,4.6,4.18,0,2.24-1.27,3.66-3.71,4.39-.25.07-.36.02-.52-.22-.13-.21-.38-.48-.84-.76,2.04-.48,3.64-1.33,3.64-3.61,0-1.44-1.09-2.8-2.7-2.8h-.05ZM65.84,4c-.58.65-.94,1.46-.94,2.23,0,1.11.45,1.72.82,1.72.31,0,.58-.16.9-.74.53-.98,1.07-2.71,1.28-4.32-.84.17-1.52.51-2.06,1.1Z"/>
        <path class="cls-2" d="M82.59,6.44c.28.57.65,1.06,1.12,1.5.61-.36,1.1-.66,1.46-.94.17-.13.28-.27.41-.46.42.22.7.39,1.02.61.08.07.12.12.12.19,0,.08-.07.12-.18.14-.13.02-.23.07-.42.21-.4.27-.88.57-1.56.92.92.59,2.05,1,3.35,1.24-.19.22-.4.52-.54.87-.14.35-.16.34-.53.27-2.74-.74-4.55-2.22-5.51-4.55h-1.54v2.92c.84-.18,1.68-.41,2.59-.68-.04.23-.05.49-.06.76q0,.39-.36.48c-1.42.45-2.83.78-3.88,1-.21.04-.37.08-.45.15-.06.05-.13.07-.19.07-.08,0-.16-.05-.19-.14-.12-.35-.22-.81-.3-1.19.52-.04.84-.07,1.3-.14l.27-.04V3.47c0-1.24-.02-1.88-.02-1.97,0-.11.01-.12.15-.12.07,0,.66.02,1.78.02h1.25v-.06c0-.47-.01-.78-.08-1.22.45.01.87.04,1.29.08.12.01.19.06.19.13,0,.1-.02.16-.07.23-.06.11-.07.27-.07.64v.19h1.21c1.18,0,1.75-.02,1.82-.02.12,0,.13.01.13.12,0,.07-.02.47-.02,1.31v2.21c0,.84.02,1.23.02,1.3,0,.12-.01.13-.13.13-.07,0-.64-.02-1.82-.02h-1.54ZM79.79,2.5v.87h5v-.87h-5ZM84.8,4.41h-5v.95h5v-.95Z"/>
        <path class="cls-2" d="M93.03,2.24c.11.05.19.13.19.22,0,.07-.04.19-.1.34-.05.14-.11.66-.11,1.18,0,.77.02,1.64.22,2.75.17.95.48,1.77.99,1.77.39,0,.69-.42,1.16-1.68.27.42.53.7.77.93.15.13.15.28.08.45-.46,1.23-1.21,1.88-2.05,1.88-.94,0-1.93-1.11-2.26-3.15-.19-1.15-.29-2.4-.29-3.51,0-.66-.02-1.03-.14-1.58.58.07,1.17.22,1.53.4ZM98.63,3s.1-.05.13-.05c.05,0,.08.02.13.07,1.1.95,2.06,2.62,2.36,4.12.04.16-.04.21-.13.27-.31.21-.61.37-.94.48-.14.05-.23.01-.25-.13-.41-1.73-1.02-2.98-2.25-4.21.46-.29.76-.46.95-.55Z"/>
        <path class="cls-2" d="M107.2,5.89c-.49.55-1.04,1.09-1.64,1.56-.12.1-.19.14-.27.14s-.13-.07-.24-.23c-.18-.28-.42-.53-.63-.7,1.63-1.03,2.71-2.35,3.39-3.74h-1.52c-1.09,0-1.46.02-1.53.02-.12,0-.13-.01-.13-.13v-.93c0-.12.01-.13.13-.13.07,0,.45.02,1.53.02h2c.06-.17.11-.34.16-.52.13-.49.19-.84.22-1.17.47.05.87.11,1.23.19.13.04.23.07.23.17,0,.08-.07.16-.13.23-.08.11-.17.27-.25.55l-.17.54h4.04c1.09,0,1.46-.02,1.53-.02.11,0,.12.01.12.13v.93c0,.12-.01.13-.12.13-.07,0-.45-.02-1.53-.02h-4.5c-.16.35-.34.69-.52,1.01h3.23c1.09,0,1.64-.02,1.71-.02.13,0,.14.01.14.13,0,.07-.02.59-.02,1.6v2.18c0,.89.02,1.53.02,1.87,0,.46-.11.8-.36,1.01-.29.23-.65.33-1.8.34q-.37,0-.46-.36c-.07-.3-.19-.64-.33-.87.42.04.7.05,1.15.05.39,0,.52-.1.52-.42v-.78h-3.97v.95c0,1,.02,1.33.02,1.39,0,.12-.01.13-.13.13h-1.01c-.13,0-.15-.01-.15-.13,0-.06.02-.39.02-1.39v-3.73ZM108.44,5.03v.82h3.97v-.82h-3.97ZM112.41,7.67v-.83h-3.97v.83h3.97Z"/>
        <path class="cls-2" d="M120.51,1.82c0-.77-.02-1.16-.1-1.7.45.01.81.04,1.22.08.12.01.19.07.19.12,0,.11-.04.17-.07.25-.07.14-.08.4-.08,1.22v2.27h.1c.93,0,1.23-.02,1.3-.02.12,0,.13.01.13.13v.86c0,.11-.01.12-.13.12-.07,0-.36-.02-1.23-.02.51.83.98,1.42,1.63,2.09-.18.22-.35.51-.48.8-.07.15-.12.22-.17.22s-.11-.06-.19-.18c-.35-.51-.69-1.06-.98-1.72,0,2.39.08,4.55.08,4.73,0,.12-.01.13-.14.13h-.99c-.12,0-.13-.01-.13-.13,0-.18.06-2.17.08-4.43-.36.98-.84,1.91-1.46,2.75-.1.12-.16.19-.22.19-.05,0-.1-.06-.14-.21-.11-.34-.29-.71-.43-.88.87-1,1.5-2.09,1.94-3.35h-.22c-.94,0-1.24.02-1.31.02-.12,0-.13-.01-.13-.12v-.86c0-.12.01-.13.13-.13.07,0,.37.02,1.31.02h.49V1.82ZM119.35,1c.14-.06.16-.05.22.07.31.71.51,1.33.65,2.03.02.12,0,.16-.16.22l-.52.19c-.18.07-.19.06-.22-.07-.13-.72-.34-1.37-.61-2.01-.05-.13-.02-.16.13-.22l.51-.21ZM122.45,1.4c.02-.12.06-.34.07-.52.33.11.7.23.92.34.1.05.13.08.13.14s-.02.1-.07.12c-.07.05-.11.13-.14.27-.14.49-.33.98-.55,1.53-.07.18-.11.25-.18.25-.05,0-.12-.04-.24-.11-.18-.1-.37-.17-.48-.2.25-.63.45-1.3.55-1.82ZM126.83,6.86V2.04c0-.86-.01-1.23-.1-1.83.46.01.86.04,1.28.08.11.01.18.06.18.13,0,.08-.04.15-.07.24-.06.14-.07.45-.07,1.34v4.62c.7-.14.98-.23,1.09-.25.11-.02.11-.01.13.12l.14.94c.01.11.01.12-.12.14-.08.02-.41.07-1.24.24v1.12c0,1.34.02,2.03.02,2.09,0,.12-.01.13-.13.13h-1c-.12,0-.13-.01-.13-.13,0-.07.02-.74.02-2.08v-.89l-1.65.33c-1.05.21-1.43.29-1.56.31-.12.02-.14.01-.16-.1l-.16-.95c-.02-.13-.01-.13.11-.16.12-.02.52-.06,1.57-.27l1.85-.36ZM124.18,3.79c.06-.06.08-.08.11-.08.04,0,.06.02.12.07.55.39,1.18.95,1.66,1.54.08.11.08.13-.04.25l-.59.59c-.13.12-.16.12-.24.02-.49-.63-1.04-1.19-1.59-1.64-.05-.05-.08-.07-.08-.1,0-.04.04-.07.1-.13l.55-.53ZM124.5,1.04c.11-.1.12-.12.23-.05.6.42,1.22.94,1.7,1.53.07.08.07.13-.04.23l-.58.57c-.13.13-.16.14-.23.04-.49-.63-1.11-1.19-1.64-1.58-.08-.06-.1-.12.02-.23l.53-.51Z"/>
        <path class="cls-2" d="M133.72,11.1c-.12,0-.13-.01-.13-.13,0-.07.02-.71.02-3.93v-2.23c0-2.24-.02-2.91-.02-2.99,0-.12.01-.13.13-.13.08,0,.51.02,1.68.02h.78c.19-.39.3-.7.45-1.13.06-.16.1-.34.13-.57.41.04.94.12,1.29.18.11.02.17.1.17.16,0,.07-.05.12-.1.17-.08.1-.14.18-.18.29-.12.29-.23.54-.42.9h2.35c1.17,0,1.59-.02,1.68-.02.12,0,.13.01.13.13,0,.07-.02.75-.02,2.67v2.54c0,3.22.02,3.86.02,3.92,0,.12-.01.13-.13.13h-1.07c-.12,0-.13-.01-.13-.13v-.54h-5.44v.57c0,.12-.01.13-.13.13h-1.05ZM134.91,4.17h5.44v-1.31h-5.44v1.31ZM140.35,6.66v-1.35h-5.44v1.35h5.44ZM140.35,9.24v-1.45h-5.44v1.45h5.44Z"/>
        <path class="cls-2" d="M150.5,6.1c.04-.07.06-.15.1-.24.08-.21.14-.39.19-.68-.18.15-.52.24-1.42.25q-.34.01-.42-.35c-.06-.24-.12-.45-.21-.61-.54.28-1.05.51-1.56.71-.18.07-.31.13-.37.19-.06.05-.13.08-.18.08-.06,0-.12-.04-.16-.14-.11-.29-.2-.66-.3-1.04.39-.06.66-.14.93-.23.64-.21,1.46-.54,2.34-1-.01.17-.01.47-.01.72q0,.34-.34.53l-.11.06c.21.01.37.01.54.01.33,0,.41-.1.41-.34V1.54h-2.22c-.96,0-1.28.02-1.35.02-.12,0-.13-.01-.13-.14v-.82c0-.13.01-.15.13-.15.07,0,.39.02,1.35.02h1.88c.98,0,1.3-.02,1.37-.02.12,0,.13.01.13.15,0,.07-.02.31-.02.89v1.58c0,.43.04.94.04,1.24,0,.37-.06.63-.27.82.4.06.86.13,1.18.23.1.04.16.08.16.16,0,.1-.05.15-.13.21-.08.06-.15.14-.19.24l-.08.13h1.74c1.18,0,1.59-.02,1.68-.02.12,0,.13.01.13.15,0,.07-.02.41-.02,1.35v1.24c0,1.79.02,2.12.02,2.19,0,.12-.01.13-.13.13h-.97c-.13,0-.14-.01-.14-.13v-.31h-5.16v.37c0,.12-.01.13-.13.13h-.99c-.12,0-.13-.01-.13-.13,0-.08.02-.41.02-2.23v-1.1c0-1.11-.02-1.45-.02-1.52,0-.13.01-.15.13-.15.08,0,.49.02,1.68.02h1.03ZM147.17,1.76c.1-.08.13-.1.24-.05.47.19.94.46,1.39.78.05.04.08.07.08.11,0,.02-.02.06-.08.12l-.55.49c-.13.12-.15.14-.25.06-.41-.34-.87-.61-1.33-.84-.11-.05-.1-.08.01-.19l.49-.48ZM148.92,7.89h5.16v-.8h-5.16v.8ZM154.08,9.71v-.89h-5.16v.89h5.16ZM156.39,3.08c0,.43.02.94.02,1.24,0,.4-.06.65-.3.86-.2.16-.55.24-1.45.27q-.34.01-.41-.31c-.06-.29-.14-.51-.24-.7-.46.22-.89.4-1.35.59-.21.08-.33.12-.4.17-.08.04-.15.1-.21.1-.07,0-.12-.05-.16-.13-.1-.31-.18-.6-.28-1.03.4-.06.65-.11.96-.21.63-.21,1.26-.48,2.15-.94-.01.17-.02.49-.01.74.01.39,0,.36-.35.53l-.22.11c.24.02.46.02.64.02.35,0,.45-.1.45-.34V1.54h-2.21c-.98,0-1.28.02-1.35.02-.12,0-.13-.01-.13-.14v-.82c0-.13.01-.15.13-.15.07,0,.37.02,1.35.02h1.86c.98,0,1.31-.02,1.39-.02.12,0,.13.01.13.15,0,.07-.02.31-.02.89v1.58ZM152.4,1.77c.11-.1.16-.1.27-.06.46.21.95.51,1.37.83.05.04.08.07.08.1,0,.04-.02.07-.08.12l-.59.51c-.13.11-.14.12-.24.05-.4-.36-.82-.64-1.31-.9-.11-.06-.12-.08,0-.21l.51-.43Z"/>
        <path class="cls-2" d="M161.6,10.75c-1.06,0-1.44.02-1.51.02-.12,0-.12-.01-.12-.13v-.92q0-.12.12-.12c.07,0,.45.01,1.51.01h3.04v-1.01h-1.63c-1.17,0-1.58.02-1.66.02-.12,0-.13-.01-.13-.13v-.84c0-.13.01-.15.13-.15.08,0,.49.02,1.66.02h1.63c0-.45-.02-.74-.07-1,.42.01.83.04,1.25.07.12.01.19.06.19.12,0,.08-.04.15-.07.23-.05.1-.06.24-.06.58h1.78c1.18,0,1.59-.02,1.66-.02.12,0,.13.01.13.15v.84c0,.12-.01.13-.13.13-.07,0-.48-.02-1.66-.02h-1.78v1.01h3.2c1.07,0,1.45-.01,1.52-.01q.12,0,.12.12v.92c0,.12,0,.13-.12.13-.07,0-.45-.02-1.52-.02h-7.48ZM168.75,1.12c1.1,0,1.49-.02,1.58-.02.12,0,.13.01.13.14,0,.06-.02.25-.02.55v.47c0,1,.02,1.17.02,1.24,0,.12-.01.13-.13.13h-.96c-.13,0-.15-.01-.15-.13v-1.3h-7.8v1.3c0,.12-.01.13-.13.13h-.96c-.13,0-.14-.01-.14-.13,0-.07.02-.24.02-1.24v-.39c0-.39-.02-.58-.02-.64,0-.13.01-.14.14-.14.07,0,.47.02,1.58.02h2.71v-.15c0-.34-.02-.63-.08-.9.45.01.88.04,1.29.07.12.01.19.06.19.13,0,.08-.04.14-.07.23-.05.1-.06.24-.06.48v.13h2.87ZM163.4,4.05c-1,0-1.4.02-1.48.02-.12,0-.13-.01-.13-.13v-.81c0-.12.01-.13.13-.13.08,0,.48.02,1.48.02h3.86c1,0,1.4-.02,1.47-.02.12,0,.13.01.13.13v.81c0,.12-.01.13-.13.13-.07,0-.4-.01-1.16-.02l.05.04c.64.51,1.39,1.28,1.95,1.97.08.11.07.16-.06.25l-.68.48c-.06.05-.1.06-.12.06-.04,0-.07-.02-.11-.08l-.52-.69c-2.01.19-4.21.34-6.27.41-.25.01-.36.02-.43.07-.05.04-.1.06-.16.06-.07,0-.11-.05-.13-.16-.07-.31-.14-.72-.21-1.07.43.02.84.02,1.25.02.22,0,.45,0,.68-.01.3-.47.58-.93.76-1.35h-.18ZM164.92,4.05c-.25.51-.51.94-.77,1.31,1.05-.04,2.12-.1,3.17-.17l-.59-.57c-.11-.1-.07-.12.07-.2l.58-.37h-2.46Z"/>
      </g>
    </g>
  </g>
</svg>