<?xml version="1.0" encoding="UTF-8"?>
<svg id="_レイヤー_2" data-name="レイヤー 2" xmlns="http://www.w3.org/2000/svg" width="1209.6" height="71.77" viewBox="0 0 1209.6 71.77">
  <defs>
    <style>
      .cls-1 {
        fill: #73c2c1;
      }

      .cls-1, .cls-2 {
        opacity: .7;
      }

      .cls-3 {
        fill: #f2f2f2;
      }

      .cls-3, .cls-4 {
        opacity: .8;
      }

      .cls-4 {
        fill: #e2dbc9;
      }

      .cls-2 {
        fill: #e76e4b;
      }
    </style>
  </defs>
  <g id="_レイヤー_1-2" data-name="レイヤー 1">
    <g>
      <rect class="cls-3" x="10.51" y="10.51" width="50.75" height="50.75" transform="translate(35.88 -14.86) rotate(45)"/>
      <rect class="cls-4" x="81.41" y="10.51" width="50.75" height="50.75" transform="translate(56.65 -65) rotate(45)"/>
      <rect class="cls-2" x="223.2" y="10.51" width="50.75" height="50.75" transform="translate(98.18 -165.26) rotate(45)"/>
      <rect class="cls-1" x="152.3" y="10.51" width="50.75" height="50.75" transform="translate(77.41 -115.13) rotate(45)"/>
      <rect class="cls-3" x="294.97" y="10.51" width="50.75" height="50.75" transform="translate(119.2 -216.01) rotate(45)"/>
      <rect class="cls-4" x="365.86" y="10.51" width="50.75" height="50.75" transform="translate(139.97 -266.14) rotate(45)"/>
      <rect class="cls-2" x="507.66" y="10.51" width="50.75" height="50.75" transform="translate(181.5 -366.4) rotate(45)"/>
      <rect class="cls-1" x="436.76" y="10.51" width="50.75" height="50.75" transform="translate(160.73 -316.27) rotate(45)"/>
      <rect class="cls-3" x="579.43" y="10.51" width="50.75" height="50.75" transform="translate(202.52 -417.15) rotate(45)"/>
      <rect class="cls-4" x="650.32" y="10.51" width="50.75" height="50.75" transform="translate(223.28 -467.28) rotate(45)"/>
      <rect class="cls-2" x="792.11" y="10.51" width="50.75" height="50.75" transform="translate(264.81 -567.54) rotate(45)"/>
      <rect class="cls-1" x="721.22" y="10.51" width="50.75" height="50.75" transform="translate(244.05 -517.41) rotate(45)"/>
      <rect class="cls-3" x="863.88" y="10.51" width="50.75" height="50.75" transform="translate(285.83 -618.29) rotate(45)"/>
      <rect class="cls-4" x="934.78" y="10.51" width="50.75" height="50.75" transform="translate(306.6 -668.42) rotate(45)"/>
      <rect class="cls-2" x="1076.57" y="10.51" width="50.75" height="50.75" transform="translate(348.13 -768.68) rotate(45)"/>
      <rect class="cls-1" x="1005.68" y="10.51" width="50.75" height="50.75" transform="translate(327.36 -718.55) rotate(45)"/>
      <rect class="cls-3" x="1148.34" y="10.51" width="50.75" height="50.75" transform="translate(369.15 -819.43) rotate(45)"/>
    </g>
  </g>
</svg>